<svg xmlns="http://www.w3.org/2000/svg" xmlns:xlink="http://www.w3.org/1999/xlink" viewBox="0 0 1000 1000">
  <defs>
    <clipPath id="a51b3b2d-efef-4859-a0d8-67011e40c7a4">
      <polygon points="770.66 427.45 884.52 375.9 908 413.82 770.66 440.38 770.66 427.45" fill="#4d88ce"/>
    </clipPath>
    <clipPath id="e10ff773-4c19-485e-9ed3-164e9c71822a">
      <polygon points="762.24 430.27 806.88 329.85 835.77 336.17 762.24 441.82 762.24 430.27" fill="#4d88ce"/>
    </clipPath>
    <clipPath id="b2bf0188-2d8c-4fa5-9425-a297bdd76629">
      <polygon points="753.61 439.1 869.18 320.82 908 350.62 753.61 447.23 753.61 439.1" fill="#4d88ce"/>
    </clipPath>
    <clipPath id="b2ade8ab-1984-4260-a1c4-3402cf901d21">
      <path d="M781.6,426.46s-93.91,206.76-303.38,195S117.78,403.31,257,255.81C363.56,143,506.21,195.32,563.1,270.26S667.83,430.07,781.6,426.46Z" fill="#4d88ce"/>
    </clipPath>
    <clipPath id="efcf9d36-d093-405c-b9dd-757ef0e15e3a">
      <path d="M219.85,309.15s39.73,49-15.2,92.93L127,350.62Z" fill="#f78f1e"/>
    </clipPath>
  </defs>
  <g id="e4d3240b-e68f-4128-8529-da4461a0d783" data-name="Layer 3">
    <g id="ff5fb6ce-6a41-4190-a609-8534605b66b8" data-name="Layer 4">
      <g>
        <g>
          <polygon points="770.66 427.45 884.52 375.9 908 413.82 770.66 440.38 770.66 427.45" fill="#4d88ce"/>
          <g clip-path="url(#a51b3b2d-efef-4859-a0d8-67011e40c7a4)">
            <polygon points="900.78 390.34 766.52 434.01 777.88 414.65 880.01 364.16 900.78 390.34" fill="#0d6099" opacity="0.5"/>
            <polygon points="908 421.04 880.01 394.86 898.97 378.61 916.13 414.72 908 421.04" fill="#0d6099" opacity="0.5"/>
          </g>
        </g>
        <g>
          <polygon points="762.24 430.27 806.88 329.85 835.77 336.17 762.24 441.82 762.24 430.27" fill="#4d88ce"/>
          <g clip-path="url(#e10ff773-4c19-485e-9ed3-164e9c71822a)">
            <polygon points="831.25 327.14 766.52 434.01 781.6 426.46 842.99 332.56 831.25 327.14" fill="#0d6099" opacity="0.5"/>
          </g>
        </g>
        <g>
          <polygon points="753.61 439.1 869.18 320.82 908 350.62 753.61 447.23 753.61 439.1" fill="#4d88ce"/>
          <g clip-path="url(#b2bf0188-2d8c-4fa5-9425-a297bdd76629)">
            <polygon points="862.86 323.53 889.94 350.62 830.8 398.92 919.74 348.81 864.66 313.6 862.86 323.53" fill="#0d6099" opacity="0.5"/>
          </g>
        </g>
        <g>
          <path d="M781.6,426.46s-93.91,206.76-303.38,195S117.78,403.31,257,255.81C363.56,143,506.21,195.32,563.1,270.26S667.83,430.07,781.6,426.46Z" fill="#4d88ce"/>
          <g clip-path="url(#b2ade8ab-1984-4260-a1c4-3402cf901d21)">
            <path d="M364.46,186.29S480,190.81,519.76,250.4s96.61,149,117.37,189.6S621.78,675.66,287.71,556.48l134.54,87.58,214-5.42,154.39-125.5,23.48-52.37-71.33-80.36L501.7,190.81Z" fill="#0d6099" opacity="0.5"/>
          </g>
        </g>
        <g>
          <path d="M219.85,309.15s39.73,49-15.2,92.93L127,350.62Z" fill="#f78f1e"/>
          <g clip-path="url(#efcf9d36-d093-405c-b9dd-757ef0e15e3a)">
            <path d="M127,350.62s74.89,26.88,100.65,24.28l14.92-8-9-57.79-20.77-11.73-89.38,46Z" fill="#ffba1f"/>
          </g>
        </g>
        <circle cx="332.86" cy="277.48" r="18.06" fill="#0e0f16"/>
        <path d="M479.88,367.61c16.41,6.13,18.36,25.1,24.67,39.13a85.23,85.23,0,0,0,24.07,31.16,90.7,90.7,0,0,0,81.11,16.84l-2.78-6.6c-38.22,17.58-62.77,56.23-103.56,69.2-41.33,13.13-91.51,2.41-126.13-23.11-21.28-15.68-29.65-39.24-37-63.63-.94-3.14-6.33-2.74-6,.81,2.27,22.82,10.2,45.69,27.31,61.71,16.48,15.44,38.84,25.18,60.36,31.22,22.08,6.21,45.6,8.17,68.24,4.12s42-15,59.78-29.24c19.65-15.73,37.48-34.12,60.6-44.84,3.78-1.75,1.08-7.65-2.78-6.6-28.69,7.77-60-.11-81-21.2-9.86-9.86-16-21.48-21.93-33.95-5.19-10.95-12.55-22.27-24.62-26.29-.81-.27-1.13,1-.35,1.27Z" fill="#2874bf"/>
        <path d="M412.44,710.3A651.63,651.63,0,0,1,441.3,600.51c1.86-5.2-6.66-7.62-8.32-2.29a669.73,669.73,0,0,0-24,111.6c-.26,2,3.16,2.45,3.5.48Z" fill="#2874bf"/>
        <path d="M497.52,706.85C488,672.42,480,637.37,472.57,602.43c-1.5-7-12.51-4.08-10.85,3,8.2,35,18.61,69,30.29,103,1.19,3.45,6.51,2.07,5.51-1.52Z" fill="#2874bf"/>
        <path d="M461.61,729.69c6.58-3.71,13.36-7,20-10.58,5.73-3.12,13.19-6,16.87-11.55,1.37-2.07-.4-5.6-3-5.29-6.7.78-12.56,6-18,9.7-6.24,4.27-12.25,8.84-18.55,13-2.9,1.92-.34,6.43,2.74,4.7Z" fill="#2874bf"/>
        <path d="M485.91,747.1c5-5.77,7.91-13.9,9.69-21.26a109.09,109.09,0,0,0,1.86-11.23c.52-3.84,1.51-7.22-1.19-10.34a2.65,2.65,0,0,0-3.19-.41c-2.77,2-3,4.13-3.43,7.35-.53,3.88-1.2,7.73-1.89,11.58-1.37,7.63-3.65,14.57-5.93,21.94-.69,2.26,2.47,4.23,4.08,2.37Z" fill="#2874bf"/>
        <path d="M525,732.8a83.35,83.35,0,0,0-13.81-18.3c-4.4-4.32-11.06-11.78-17.68-10.81-1.9.28-3,2.75-2.52,4.44,1,3.4,3.1,4.29,5.9,6.23a100.13,100.13,0,0,1,8.84,6.75,121,121,0,0,1,14.78,15.16c2.08,2.57,6.05-.73,4.49-3.47Z" fill="#2874bf"/>
        <path d="M377.64,729.69c6.58-3.71,13.36-7,20-10.58,5.73-3.12,13.19-6,16.87-11.55,1.37-2.07-.4-5.6-3-5.29-6.7.78-12.55,6-18,9.7-6.24,4.27-12.24,8.84-18.55,13-2.9,1.92-.33,6.43,2.74,4.7Z" fill="#2874bf"/>
        <path d="M401.94,747.1c5-5.77,7.91-13.9,9.69-21.26a111.9,111.9,0,0,0,1.87-11.23c.52-3.84,1.5-7.22-1.2-10.34a2.63,2.63,0,0,0-3.18-.41c-2.78,2-3,4.13-3.44,7.35-.53,3.88-1.2,7.73-1.89,11.58-1.37,7.63-3.65,14.57-5.92,21.94-.7,2.26,2.46,4.23,4.07,2.37Z" fill="#2874bf"/>
        <path d="M441.06,732.8a83.35,83.35,0,0,0-13.81-18.3c-4.4-4.32-11.06-11.78-17.68-10.81-1.9.28-3,2.75-2.52,4.44,1,3.4,3.1,4.29,5.9,6.23a100.13,100.13,0,0,1,8.84,6.75,121,121,0,0,1,14.78,15.16c2.08,2.57,6.05-.73,4.49-3.47Z" fill="#2874bf"/>
      </g>
    </g>
  </g>
</svg>
