<svg xmlns="http://www.w3.org/2000/svg" xmlns:xlink="http://www.w3.org/1999/xlink" viewBox="0 0 1000 1000">
  <defs>
    <clipPath id="ba21a3c2-e632-456c-926b-4906204ebb9b">
      <rect x="125.77" y="444.08" width="676.67" height="123.24" transform="translate(-178.83 265.36) rotate(-26.96)" fill="#68afea"/>
    </clipPath>
    <clipPath id="fb7f3a66-1112-43c5-8c63-4ace38c21c5c">
      <rect x="132.85" y="613.89" width="31.39" height="104.64" transform="translate(-285.88 139.74) rotate(-26.96)" fill="#0d6099" opacity="0.5"/>
    </clipPath>
    <clipPath id="e5828c77-f097-407a-8203-d06b904d9207">
      <path d="M870.48,280.26l-95.93,20.26-4.61-9.07-28,14.24L789.4,399l28-14.24-4.61-9.06,72.87-65.6C895.34,301.34,883.24,277.56,870.48,280.26Z" fill="#0d6099" opacity="0.5"/>
    </clipPath>
    <clipPath id="fefc95ff-978e-4eff-9a65-0c5f235e26f7">
      <rect x="231.94" y="557.15" width="19.77" height="123.24" transform="translate(-254.24 176.87) rotate(-26.96)" fill="#232533"/>
    </clipPath>
    <clipPath id="bcbfaf5f-c83a-44f2-8ae1-6c390eb38ee0">
      <rect x="263.03" y="541.33" width="19.77" height="123.24" transform="translate(-243.69 189.25) rotate(-26.96)" fill="#232533"/>
    </clipPath>
    <clipPath id="ac941db9-303c-4389-ae8f-f6b2331c06ea">
      <rect x="611.23" y="364.23" width="19.77" height="123.24" transform="translate(-125.57 327.86) rotate(-26.96)" fill="#232533"/>
    </clipPath>
    <clipPath id="a8d71b7c-3212-44a9-bd4a-60abd19aa88a">
      <rect x="642.32" y="348.42" width="19.77" height="123.24" transform="translate(-115.02 340.23) rotate(-26.96)" fill="#232533"/>
    </clipPath>
  </defs>
  <g id="a85cae19-31b2-4024-a520-2fc50cd0605a" data-name="Layer 3">
    <g id="f1ca2919-c277-4781-aba8-7ae20bbb0f10" data-name="Layer 4">
      <g>
        <g>
          <rect x="125.77" y="444.08" width="676.67" height="123.24" transform="translate(-178.83 265.36) rotate(-26.96)" fill="#68afea"/>
          <g clip-path="url(#ba21a3c2-e632-456c-926b-4906204ebb9b)">
            <path d="M826.74,224.1s-369,384-751,500l73,35,724-368s78-96,78-102-62-65-62-65Z" fill="#0d6099" opacity="0.5"/>
          </g>
        </g>
        <g>
          <g>
            <rect x="132.85" y="613.89" width="31.39" height="104.64" transform="translate(-285.88 139.74) rotate(-26.96)" fill="#0d6099" opacity="0.5"/>
            <g clip-path="url(#fb7f3a66-1112-43c5-8c63-4ace38c21c5c)">
              <path d="M826.74,224.1s-369,384-751,500l73,35,724-368s78-96,78-102-62-65-62-65Z" fill="#1a6bad"/>
            </g>
          </g>
          <g>
            <path d="M870.48,280.26l-95.93,20.26-4.61-9.07-28,14.24L789.4,399l28-14.24-4.61-9.06,72.87-65.6C895.34,301.34,883.24,277.56,870.48,280.26Z" fill="#0d6099" opacity="0.5"/>
            <g clip-path="url(#e5828c77-f097-407a-8203-d06b904d9207)">
              <path d="M826.74,224.1s-369,384-751,500l73,35,724-368s78-96,78-102-62-65-62-65Z" fill="#0d6099"/>
            </g>
          </g>
        </g>
        <g>
          <rect x="231.94" y="557.15" width="19.77" height="123.24" transform="translate(-254.24 176.87) rotate(-26.96)" fill="#232533"/>
          <g clip-path="url(#fefc95ff-978e-4eff-9a65-0c5f235e26f7)">
            <path d="M826.74,224.1s-369,384-751,500l73,35,724-368s78-96,78-102-62-65-62-65Z" fill="#0e0f16"/>
          </g>
        </g>
        <g>
          <rect x="263.03" y="541.33" width="19.77" height="123.24" transform="translate(-243.69 189.25) rotate(-26.96)" fill="#232533"/>
          <g clip-path="url(#bcbfaf5f-c83a-44f2-8ae1-6c390eb38ee0)">
            <path d="M826.74,224.1s-369,384-751,500l73,35,724-368s78-96,78-102-62-65-62-65Z" fill="#0e0f16"/>
          </g>
        </g>
        <g>
          <rect x="611.23" y="364.23" width="19.77" height="123.24" transform="translate(-125.57 327.86) rotate(-26.96)" fill="#232533"/>
          <g clip-path="url(#ac941db9-303c-4389-ae8f-f6b2331c06ea)">
            <path d="M826.74,224.1s-369,384-751,500l73,35,724-368s78-96,78-102-62-65-62-65Z" fill="#0e0f16"/>
          </g>
        </g>
        <g>
          <rect x="642.32" y="348.42" width="19.77" height="123.24" transform="translate(-115.02 340.23) rotate(-26.96)" fill="#232533"/>
          <g clip-path="url(#a8d71b7c-3212-44a9-bd4a-60abd19aa88a)">
            <path d="M826.74,224.1s-369,384-751,500l73,35,724-368s78-96,78-102-62-65-62-65Z" fill="#0e0f16"/>
          </g>
        </g>
      </g>
    </g>
  </g>
</svg>
