<svg xmlns="http://www.w3.org/2000/svg" xmlns:xlink="http://www.w3.org/1999/xlink" viewBox="0 0 1000 1000">
  <defs>
    <clipPath id="ba3e2c41-dd8c-4810-9d38-178361fb37ea">
      <path d="M696.55,607.94s90.84-451.7-64.7-457.38S677.27,601,677.27,601Z" fill="#dcf8ff" stroke="#63a2e0" stroke-miterlimit="10" opacity="0.5"/>
    </clipPath>
    <clipPath id="eaf6e08e-a64a-44b2-a7c6-9a895b217bb8">
      <path d="M632,640C221.41,766.69,192.05,825.57,162.16,773.74c-14.22-24.66,456-151,456-151" fill="#4d88ce"/>
    </clipPath>
    <clipPath id="e3fd514b-2323-47ba-a70e-b3ba120a1d68">
      <path d="M631.63,607.8s-215.37-155.74-137-187,153,180,153,180Z" fill="#dcf8ff" opacity="0.5"/>
    </clipPath>
    <clipPath id="bc9fb5b8-6c6f-4ba2-984c-c3eb69de5a2d">
      <path d="M745.21,645.24c3.16-6.15,7.34-11,1.22-30.57s-12.23-28.13-30.57-29.35-90.51,7.33-100.29,20.79-2.45,26.9,25.68,44S720.75,692.94,745.21,645.24Z" fill="#4d88ce"/>
    </clipPath>
    <clipPath id="a167aaf7-cd19-4bb4-85d2-43cbc660d706">
      <path d="M728.09,591.43s4.89-11,29.35-23.24,45.25-3.66,51.37,9.79,12.23,39.14-7.34,51.37-40.36,13.45-61.15-3.67S728.09,591.43,728.09,591.43Z" fill="#4d88ce"/>
    </clipPath>
    <clipPath id="aa60ad3d-0f66-49c2-824b-6822a9196d84">
      <path d="M682.8,622.68S335.52,271.15,471.64,174.53,696,605.15,696,605.15Z" fill="#dcf8ff" opacity="0.5"/>
    </clipPath>
    <clipPath id="a59a229e-a9b9-44b3-b5ea-f08423804225">
      <path d="M631.63,607.8s-275,0-277-92,293,85,293,85Z" fill="#dcf8ff" opacity="0.5"/>
    </clipPath>
  </defs>
  <g id="aa1dc4ba-e4c8-427a-b0a4-4f7c9e0c6201" data-name="Layer 3">
    <g id="a991c24e-ebf3-4728-b73d-7122d803824d" data-name="Layer 4">
      <g>
        <g>
          <path d="M696.55,607.94s90.84-451.7-64.7-457.38S677.27,601,677.27,601Z" fill="#dcf8ff" opacity="0.5"/>
          <g clip-path="url(#ba3e2c41-dd8c-4810-9d38-178361fb37ea)">
            <path d="M654.44,148.91c19.88,53.58,29.38,109.94,33,166.8,3.72,58,3.45,116.35,4.13,174.46.2,17.23.53,34.47.9,51.7s0,34.55,1.1,51.7a.61.61,0,0,0,1.22,0c.51-15.86-.32-31.85-.39-47.72-.07-15.25-.2-30.5-.47-45.74-.55-30.93-1-61.87-1.48-92.8-.89-56.11-2.23-112.56-11.6-168-5.25-31.12-13.29-61.66-25.8-90.66-.15-.36-.78-.1-.64.27Z" fill="#7bbbef"/>
            <path d="M617.08,145.54c-.18,62.49,4.56,125.12,12.34,187.1a1698,1698,0,0,0,33,182.92c8.13,34.07,16.77,68.29,27.86,101.53a.89.89,0,0,0,1.72-.47c-8.44-30.13-17.35-60.07-24.87-90.45q-11-44.59-19.58-89.78a1700.41,1700.41,0,0,1-24.47-185.67c-2.69-35-4-70.08-4.94-105.18a.52.52,0,0,0-1,0Z" fill="#7bbbef"/>
            <path d="M669.47,189.09c7.23.36,14.68,1.22,21.92.86.82,0,1.11-1.35.2-1.52-7.17-1.34-14.87-1-22.12-.7a.68.68,0,0,0,0,1.36Z" fill="#7bbbef"/>
            <path d="M680.64,240c4.56-3.29,9-6.79,13.51-10.12,4-2.94,9.18-4.74,12.59-8.32a.35.35,0,0,0-.34-.59c-5,1.35-9.34,5.58-13.68,8.31a111.26,111.26,0,0,0-13.08,9.43c-.7.6.24,1.84,1,1.29Z" fill="#7bbbef"/>
            <path d="M684.92,270.92c10.59-.91,22.32,3.92,32.67.73a.52.52,0,0,0,0-1c-5.34-1.5-11.48-.85-17-1.29s-10.57-1.51-15.9-.1c-.89.24-.74,1.74.23,1.66Z" fill="#7bbbef"/>
            <path d="M689.25,329.4c5.51-2.82,10.53-6.38,16.14-9a150.43,150.43,0,0,0,16.37-8.67c.33-.22.12-.86-.29-.69a143.52,143.52,0,0,0-15.71,8.05c-5.69,3.25-11.76,5.53-17.53,8.6-1.15.61-.14,2.33,1,1.74Z" fill="#7bbbef"/>
            <path d="M691.42,367.05c9.28,7.57,20.1,12.15,30.4,18.07.94.55,1.81-.95.85-1.45a290.61,290.61,0,0,1-30.2-18c-.8-.55-1.81.74-1.05,1.36Z" fill="#7bbbef"/>
            <path d="M692.64,437.07c9.13-3.49,18.32-6.82,27.4-10.45,1.05-.42.6-2.14-.47-1.72-9.09,3.6-18.18,7.19-27.44,10.31-1.18.4-.64,2.3.51,1.86Z" fill="#7bbbef"/>
            <path d="M692.16,469.54a79.61,79.61,0,0,0,10.07,8.34c3.82,2.65,8.06,4.55,11.82,7.29.94.68,2-.8,1.22-1.58-2.85-2.76-6.67-4.33-10-6.43a86.15,86.15,0,0,1-11.85-8.88c-.85-.76-2.1.46-1.26,1.26Z" fill="#7bbbef"/>
            <path d="M694.25,530a116.89,116.89,0,0,0,17.2-10.63c.86-.65.11-2.1-.87-1.5A115.59,115.59,0,0,1,693,527a1.61,1.61,0,1,0,1.25,3Z" fill="#7bbbef"/>
            <path d="M693.33,559.63a111.93,111.93,0,0,0,10.23,5.65,1,1,0,0,0,1-1.75,110,110,0,0,0-10-6.08,1.26,1.26,0,0,0-1.28,2.18Z" fill="#7bbbef"/>
            <path d="M667,531.79c8,4.29,17,5.55,25.48,8.69.95.35,1.42-1.26.42-1.54-8.6-2.35-16.27-7.18-24.8-9.76a1.43,1.43,0,0,0-1.1,2.61Z" fill="#7bbbef"/>
            <path d="M660.25,501.09c11-4.36,21.56-9.68,32.48-14.26,1.36-.57.46-2.58-.78-1.84-10.05,6-21.18,10.58-32,15.06-.62.26-.36,1.3.29,1Z" fill="#7bbbef"/>
            <path d="M648.52,445.93c14.16,4,28.58,7.09,42.73,11.14,2,.56,2.84-2.67.84-3.08-14.42-3-28.63-6.94-43.06-9.92a1,1,0,0,0-.51,1.86Z" fill="#7bbbef"/>
            <path d="M641.61,408.06a535.06,535.06,0,0,0,50.51-22.64c1.31-.68.15-2.66-1.16-2-16.4,8.45-32.8,16.33-49.77,23.64-.55.24-.15,1.21.42,1Z" fill="#7bbbef"/>
            <path d="M630.8,334.8c9.67,2,19.4,3.37,29.13,4.91s19.38,5.13,29.16,5.35a1.25,1.25,0,0,0,.33-2.44c-9.6-3-20.31-2.62-30.17-4.46-9.4-1.76-18.79-3.42-28.28-4.65-.73-.09-.89,1.15-.17,1.29Z" fill="#7bbbef"/>
            <path d="M625.65,289.77C643.76,277.41,662,265.6,681,254.66a.85.85,0,0,0-.85-1.46,485,485,0,0,0-55.47,34.95c-1,.71-.06,2.31.95,1.62Z" fill="#7bbbef"/>
            <path d="M621.22,214.23c9.18.79,18.36,1.44,27.53,2.32s18.31,3,27.4,3.21a1.32,1.32,0,0,0,.35-2.58c-8.49-2.25-18-2.37-26.77-3.15-9.5-.84-19-1.43-28.51-1.44a.82.82,0,0,0,0,1.64Z" fill="#7bbbef"/>
            <path d="M618.53,177.4A267.2,267.2,0,0,1,658.32,162c1-.29.55-1.86-.42-1.54C644.29,165,630.77,170,617.65,175.9c-1,.46-.13,2,.88,1.5Z" fill="#7bbbef"/>
            <path d="M582.65,186.8c5.9,1.92,11.86,3.67,17.74,5.64s11.46,4.85,17.21,7.27c1.41.6,2-1.71.63-2.3a194.82,194.82,0,0,0-35.43-11.15.28.28,0,0,0-.15.54Z" fill="#7bbbef"/>
            <path d="M574.43,259.13c2.68-1.58,5.22-3.4,7.84-5.07.4-.26.15-1-.34-.82-3,1.19-6,2.22-8.9,3.5-1.59.71-.17,3.32,1.4,2.39Z" fill="#7bbbef"/>
            <path d="M589.29,251c5.44-2.08,10.9-4.11,16.19-6.54,5-2.29,11.41-4.3,15.31-8.24a.42.42,0,0,0-.41-.7c-5.25.8-10.34,4.41-15.08,6.73-5.45,2.67-10.77,5.59-16.17,8.36-.21.11-.07.47.16.39Z" fill="#7bbbef"/>
            <path d="M579.48,302.69c8.28,1.59,16.69,2.81,25,4,3.29.49,6.59.76,9.9,1.13,4.59.51,9,2,13.51,2.5,1.09.12,1.35-1.73.26-1.93-3.88-.75-7.87-.64-11.77-1.31-4.46-.77-8.86-1.8-13.34-2.47-7.79-1.16-15.58-2.48-23.41-3.38-.81-.09-1,1.28-.19,1.43Z" fill="#7bbbef"/>
            <path d="M598.44,375.26a61.08,61.08,0,0,0,12-6.35c.47-.32.19-1.24-.41-1a97.75,97.75,0,0,0-12.13,6c-.68.4-.23,1.64.56,1.32Z" fill="#7bbbef"/>
            <path d="M618.94,364.53c5.5-2.65,10.86-5.75,16.43-8.23,1.19-.53.1-2.51-1-1.78-5.12,3.26-10.67,6-15.9,9.12-.58.34-.07,1.18.52.89Z" fill="#7bbbef"/>
            <path d="M607.8,408.59c11.14.87,22.37,1.64,33.55,1.56a1,1,0,0,0,0-1.92c-11.14-.78-22.38-.74-33.55-.58a.47.47,0,0,0,0,.94Z" fill="#7bbbef"/>
            <path d="M632.54,487.12c4.13-2,7.62-5.35,11.45-7.88,3-1.95,6.49-4.22,8.57-7.09.14-.19-.12-.37-.29-.29-3.28,1.49-6.14,4.25-9,6.47-3.7,2.88-7.93,4.52-11.63,7.29a.87.87,0,0,0,.88,1.5Z" fill="#7bbbef"/>
            <path d="M645.47,519.65c6,.31,12,.43,18.06.36a.87.87,0,0,0,0-1.73c-6-.31-12-.43-18.06-.36a.87.87,0,0,0,0,1.73Z" fill="#7bbbef"/>
            <path d="M661.27,561.32q3.56-2.61,7.06-5.31c1.87-1.44,4.23-2.69,5.58-4.65a.73.73,0,0,0-.82-1.07c-2.32.84-4.18,2.84-6.18,4.25-2.26,1.61-4.55,3.17-6.85,4.72-1.29.86,0,3,1.21,2.06Z" fill="#7bbbef"/>
          </g>
          <path d="M696.55,607.94s90.84-451.7-64.7-457.38S677.27,601,677.27,601Z" fill="none" stroke="#63a2e0" stroke-miterlimit="10" opacity="0.5"/>
        </g>
        <g>
          <path d="M632,640C221.41,766.69,192.05,825.57,162.16,773.74c-14.22-24.66,456-151,456-151" fill="#4d88ce"/>
          <g clip-path="url(#eaf6e08e-a64a-44b2-a7c6-9a895b217bb8)">
            <path d="M573.13,627.3s26,2,26,9-391,144-403,150-36-7-36-7l12,25,35-9,293-104,122-41,22-15-4-17-13-8Z" fill="#2874bf"/>
            <path d="M215.46,737.4c5.82-.46,12.73,4.84,16.81,8.5a47.15,47.15,0,0,1,10,13A43.21,43.21,0,0,1,247,777.08c.29,6.38-1.82,12.35-1.92,18.62a2.6,2.6,0,0,0,4.4,1.82c5.11-5.58,6.09-14.89,5.76-22.18a47.21,47.21,0,0,0-6.69-21.88c-6.12-10.21-20.8-23.24-33.67-20.67-2.57.52-2,4.81.62,4.61Z" fill="#54c4e2"/>
            <path d="M261,724.93a47.3,47.3,0,0,1,23.15,20.74,44.44,44.44,0,0,1,5,16c.58,5.54-.73,10.89-.42,16.37.18,3,4.22,4.4,5.86,1.59,6.25-10.76,1.86-27.69-4.19-37.64A46.91,46.91,0,0,0,262.11,721c-2.65-.71-3.47,3-1.1,4Z" fill="#54c4e2"/>
            <path d="M303.45,711.76A39,39,0,0,1,324,730.1c5,9.43,5,19.77,6.71,30,.55,3.36,5.35,2.78,6.24,0,7.1-22.33-9.9-48.59-32.08-53.63-3.45-.78-4.71,4.06-1.44,5.25Z" fill="#54c4e2"/>
            <path d="M343.19,701.5c8.09,3.2,14.11,10.77,17.06,18.78,3,8.19,2.52,18.06,7,25.58a2.7,2.7,0,0,0,4.88-.63c2.82-9.8-1.55-22.91-6.43-31.46-4.71-8.24-11.85-14.58-21.35-16.34a2.11,2.11,0,0,0-1.12,4.07Z" fill="#54c4e2"/>
            <path d="M377.14,691.52a36.67,36.67,0,0,1,14.18,17.71c3.16,8.75,1.12,16.74.64,25.65-.19,3.42,4.17,3.85,5.85,1.58,6.31-8.49,4.71-21.38.77-30.52a39.27,39.27,0,0,0-18.5-19.44,2.91,2.91,0,0,0-2.94,5Z" fill="#54c4e2"/>
            <path d="M406.9,679a50.91,50.91,0,0,1,13.18,21.25,53.3,53.3,0,0,1,2.15,14.19c.07,4.53-.48,9,.36,13.45.41,2.16,3.42,2.23,4.46.58,5.59-8.9,3.25-22.58-.83-31.64-3.92-8.74-10.14-15-19.27-17.91,0,0-.08.05-.05.08Z" fill="#54c4e2"/>
            <path d="M430.81,673.16c8.53,5.72,16.45,12.09,18.89,22.57,2.3,9.88-.41,20.69,2.95,30.29a2,2,0,0,0,3.8,0c3.35-10.8,3.31-24.8-.92-35.34S442.35,674.75,433,669.35c-2.48-1.43-4.56,2.24-2.23,3.81Z" fill="#54c4e2"/>
            <path d="M458.11,665.31c5.62.86,7.46,6.43,9.47,11,1.73,3.92,3.68,7.72,5.18,11.74a60.4,60.4,0,0,1,3.37,11.94c.69,4.37.49,8.76,1.07,13.15a2.32,2.32,0,0,0,4.28,1.16c6.77-9.36,1.28-23.16-3.82-32-4-7-9.78-18.88-19.55-17a.05.05,0,0,0,0,.1Z" fill="#54c4e2"/>
            <path d="M180.53,757.92c8.81-1.87,15.86,8,20.69,13.88a79.69,79.69,0,0,1,7.52,10.72c2.41,4.21,2.74,8.1,3,12.82a3,3,0,0,0,5.5,1.49c7.15-10-3.81-23.59-10.12-30.94-7-8.09-16.58-17.56-28.25-13.94-3.82,1.18-2.24,6.79,1.65,6Z" fill="#54c4e2"/>
            <path d="M483.46,656.89A30,30,0,0,1,496,674a46.42,46.42,0,0,1,1.61,11.42c.08,3.84-.42,7.49.82,11.21a2.09,2.09,0,0,0,3.77.49c4.24-7.47,1.69-19.17-1.91-26.48-3.39-6.86-9.18-12.31-16.83-13.81a0,0,0,0,0,0,.09Z" fill="#54c4e2"/>
            <path d="M505.5,647.26c5.22,5.19,10,11.35,13,18.12,3.23,7.36,3.79,14.9,4.52,22.79.12,1.24,2,1.68,2.3.31,3.92-15.52-6.2-34-19.79-41.26,0,0-.06,0,0,0Z" fill="#54c4e2"/>
            <path d="M525.65,642.54c7.92,11.35,16.3,25.6,16.32,39.8a1.06,1.06,0,0,0,2.07.28c2.44-7-1.28-14.44-4.41-20.6a81.3,81.3,0,0,0-13.94-19.51s-.05,0,0,0Z" fill="#54c4e2"/>
          </g>
        </g>
        <polyline points="838.16 749.2 770.89 692.94 762.33 633.01 802.69 670.93 824.71 707.62 836.93 711.29" fill="none" stroke="#0e0f16" stroke-miterlimit="10"/>
        <polyline points="756.22 630.57 723.19 713.73 766 760.21" fill="none" stroke="#0e0f16" stroke-miterlimit="10"/>
        <path d="M711,667.26l-2.44,18.34s58.7,40.36,59.93,41.59" fill="none" stroke="#0e0f16" stroke-miterlimit="10"/>
        <polyline points="753.77 630.57 764.53 648.41 677.94 681.93 725.64 732.08" fill="none" stroke="#0e0f16" stroke-miterlimit="10"/>
        <polyline points="735.42 652.58 640.03 719.85 685.28 833.59 673.05 849.49" fill="none" stroke="#0e0f16" stroke-miterlimit="10"/>
        <path d="M696.55,607.94s90.84-451.7-64.7-457.38S677.27,601,677.27,601Z" fill="none" stroke="#63a2e0" stroke-miterlimit="10"/>
        <g>
          <path d="M631.63,607.8s-215.37-155.74-137-187,153,180,153,180Z" fill="#dcf8ff" opacity="0.5"/>
          <g clip-path="url(#e3fd514b-2323-47ba-a70e-b3ba120a1d68)">
            <path d="M509.64,409.94c38,53.95,77,107,113.93,161.72,4.75,7,9.5,14.1,14.56,20.92s10.12,14.23,16.48,19.8c.7.62,1.93-.18,1.36-1-4.33-6.52-9.7-12.38-14.3-18.72Q635,583.4,628.59,574c-9.17-13.44-18.28-26.91-27.54-40.29q-28.24-40.79-57.62-80.79c-10.79-14.69-21.78-29.22-33.2-43.43-.26-.33-.83.11-.59.46Z" fill="#7bbbef"/>
            <path d="M489.41,427.92c26.8,31.37,53,63,76.63,96.87,11.06,15.84,22.42,31.42,34.7,46.35,12.42,15.11,25.32,30.62,40.09,43.5a.7.7,0,0,0,1-1c-13-14.89-26.94-28.81-39.54-44.06-13-15.73-24.9-32.22-36.64-48.9-23.1-32.85-49.44-62.91-76.2-92.8,0,0-.05,0,0,0Z" fill="#7bbbef"/>
            <path d="M480.19,458.81c9.06-2.16,17.95-4.89,27.06-6.87.6-.13.35-1.06-.25-.92-9.05,2.06-18.22,4.25-26.82,7.77,0,0,0,0,0,0Z" fill="#7bbbef"/>
            <path d="M503.36,493.17c6.21-8.51,12.44-17.26,19.84-24.81.77-.8-.54-1.88-1.24-1-6.39,8.51-13.25,16.59-19.21,25.42-.26.38.35.71.61.35Z" fill="#7bbbef"/>
            <path d="M520.77,512.78c9.89-3,20-6.9,30.19-8.78,1.09-.2.55-2-.44-1.63-9.56,4-20.14,6.32-30.08,9.21a.62.62,0,0,0,.33,1.2Z" fill="#7bbbef"/>
            <path d="M564.67,522.32a186.31,186.31,0,0,0-11.91,21c-.46,1,1,1.81,1.44.84A171.7,171.7,0,0,1,565.74,523c.44-.67-.64-1.3-1.07-.63Z" fill="#7bbbef"/>
            <path d="M572.49,560.56c5.46-1.5,10.92-3.29,16.45-4.51.83-.18.46-1.53-.35-1.26-5.36,1.8-11,3.08-16.42,4.6a.61.61,0,0,0,.32,1.17Z" fill="#7bbbef"/>
            <path d="M604.48,574.25c-.68,1.81-1.31,3.64-1.93,5.47-.55,1.6-1.41,3.26-1.5,4.95,0,.61.79.75,1.09.29.9-1.41,1.18-3.29,1.67-4.89.57-1.85,1.12-3.69,1.64-5.55a.5.5,0,0,0-1-.27Z" fill="#7bbbef"/>
            <path d="M618.63,588.07c2.47-1.18,4.94-2.35,7.47-3.39a39.34,39.34,0,0,0,6-2.56.65.65,0,0,0-.49-1.18,31.72,31.72,0,0,0-6.51,2.73c-2.38,1.12-4.75,2.24-7.1,3.41-.66.33-.08,1.31.58,1Z" fill="#7bbbef"/>
            <path d="M597.87,564.91a178.36,178.36,0,0,0,10.34-16.38c.64-1.14-1.19-2.17-1.74-1a116.93,116.93,0,0,1-9.76,16.72c-.49.7.66,1.36,1.16.67Z" fill="#7bbbef"/>
            <path d="M573.12,532.05c6.65-1.17,13-3.24,19.51-4.86,1.19-.3.64-2.24-.51-1.83-6.37,2.24-12.8,4-19,6.67,0,0,0,0,0,0Z" fill="#7bbbef"/>
            <path d="M559.23,511.29c4-6,7.92-12.07,12.21-17.86.7-.93-.92-1.91-1.57-.92-4,6-8.14,11.9-12.08,17.94-.59.9.85,1.73,1.44.84Z" fill="#7bbbef"/>
            <path d="M534.72,481.44c7.17-2.65,14.42-5.22,21.73-7.45,1.08-.33.6-2.06-.47-1.69-7.35,2.48-14.52,5.16-21.61,8.31-.47.2-.13,1,.35.83Z" fill="#7bbbef"/>
            <path d="M531.88,438.53c-5.71,6.41-11.34,12.91-17.07,19.31-.72.8.5,2,1.17,1.17,5.47-6.63,11.15-13.1,16.83-19.56.56-.63-.36-1.56-.93-.92Z" fill="#7bbbef"/>
            <path d="M494,432c8.21-3.25,16.17-7.94,24.72-10.16.81-.21.44-1.51-.34-1.24-8.55,2.91-16.1,7.78-24.52,10.9-.31.12-.17.62.14.5Z" fill="#7bbbef"/>
            <path d="M538.13,446.69c3.11-4.57,6.27-9.09,9.46-13.6.59-.82-.78-1.63-1.35-.79-3.12,4.55-6.22,9.12-9.34,13.67-.53.76.71,1.48,1.23.72Z" fill="#7bbbef"/>
            <path d="M551.56,466.5c7.19-2.19,14.37-4.84,21.38-7.53a.59.59,0,1,0-.46-1.09c-7,3-13.94,5.42-21.14,7.8-.51.17-.3,1,.22.82Z" fill="#7bbbef"/>
            <path d="M577.76,502c5-5.36,10.23-10.83,14.47-16.83.43-.61-.54-1.36-1-.8-4.84,5.54-9.28,11.38-14.27,16.8-.51.55.32,1.38.83.83Z" fill="#7bbbef"/>
            <path d="M597.15,530.57c6.39.17,12.25-2.58,18.56-3.08.75-.06.76-1.23,0-1.17-6.3.5-12.21,3.16-18.56,3.27a.49.49,0,0,0,0,1Z" fill="#7bbbef"/>
            <path d="M623.86,566.43c1.28-1.67,2.64-3.26,3.94-4.91.84-1.06,2.33-2.21,2.34-3.63a.36.36,0,0,0-.45-.34c-1.51.33-2.57,2.51-3.47,3.68-1.16,1.5-2.21,3.1-3.31,4.64-.42.59.52,1.11,1,.56Z" fill="#7bbbef"/>
          </g>
        </g>
        <path d="M631.63,607.8s-215.37-155.74-137-187,153,180,153,180Z" fill="none" stroke="#63a2e0" stroke-miterlimit="10"/>
        <g>
          <path d="M745.21,645.24c3.16-6.15,7.34-11,1.22-30.57s-12.23-28.13-30.57-29.35-90.51,7.33-100.29,20.79-2.45,26.9,25.68,44S720.75,692.94,745.21,645.24Z" fill="#4d88ce"/>
          <g clip-path="url(#bc9fb5b8-6c6f-4ba2-984c-c3eb69de5a2d)">
            <path d="M660.13,585.3s37,4,54,23S713.82,680.69,632,646l10.16,12.3L685,679.19l28.09,2.11L740.55,670l13.58-24.73,3-28-8-23-18-14-23-2Z" fill="#2874bf"/>
          </g>
        </g>
        <g>
          <path d="M728.09,591.43s4.89-11,29.35-23.24,45.25-3.66,51.37,9.79,12.23,39.14-7.34,51.37-40.36,13.45-61.15-3.67S728.09,591.43,728.09,591.43Z" fill="#4d88ce"/>
          <g clip-path="url(#a167aaf7-cd19-4bb4-85d2-43cbc660d706)">
            <path d="M774.13,557.3s22,5,26,43-57,35-69,25v13l51,8,28-8,11-21-1-28-16-35Z" fill="#2874bf"/>
          </g>
        </g>
        <g>
          <path d="M682.8,622.68S335.52,271.15,471.64,174.53,696,605.15,696,605.15Z" fill="#dcf8ff" opacity="0.5"/>
          <g clip-path="url(#aa60ad3d-0f66-49c2-824b-6822a9196d84)">
            <path d="M497.41,160.37c21.84,19.26,37,44.32,48.75,70.72,13.08,29.42,22.48,60.71,32.59,91.24C600.48,388,621.38,454,645.56,518.78c6.38,17.09,12.71,34.28,20.72,50.68,8.5,17.43,15.29,35.69,23.74,53.17,1,2,3.94.25,3-1.73-7.67-15.3-15.32-30.73-22.07-46.47-6.82-15.9-12.73-32.39-19-48.53-12.38-31.93-23.5-64.32-34.48-96.75-11.39-33.63-22.35-67.4-33.84-101-10.26-30-20.15-60.36-32.74-89.5-12.7-29.39-28.18-57.79-52.81-78.91-.43-.37-1.06.25-.63.63Z" fill="#63a2e0"/>
            <path d="M455.51,185.87c40.7,47.74,63.29,108.38,88.58,165,26.76,59.87,54.73,119.16,86.22,176.71C648,559.84,666.63,591.47,688,621.45c.36.51,1.2,0,.85-.49a1712,1712,0,0,1-96.18-172.17c-28.36-58.45-53.24-118.53-81.51-177-14.92-30.87-32.26-60.69-55.13-86.41-.3-.34-.79.16-.5.5Z" fill="#63a2e0"/>
            <path d="M540.87,217.53A114.83,114.83,0,0,1,573.35,211c.78,0,.78-1.26,0-1.22a113.58,113.58,0,0,0-32.73,6.88c-.56.21-.32,1.11.25.91Z" fill="#63a2e0"/>
            <path d="M560.36,262.29c4.4-4.25,9.15-8.14,13.61-12.35s8.85-8.47,13.56-12.37c.57-.48-.28-1.35-.83-.83-4.45,4.19-9.24,8.07-13.9,12s-9,8.29-13.69,12.26c-.87.73.42,2.06,1.25,1.26Z" fill="#63a2e0"/>
            <path d="M571.7,295.34c7.2-.1,14.48,0,21.69-.42,6.37-.35,13.56.23,19.77-1.11a.17.17,0,0,0,0-.32c-6.21-1.3-13.41-.54-19.77-.68-7.18-.17-14.53.37-21.69.8a.87.87,0,0,0,0,1.73Z" fill="#63a2e0"/>
            <path d="M592.77,357.83c5.66-4.64,11.22-9.61,17.06-14.05,4.94-3.76,10.27-7.07,14.64-11.52a.26.26,0,0,0-.31-.4c-5.89,2.94-10.72,7.45-15.73,11.62-5.5,4.59-10.95,9-16.09,13.92-.29.28.13.68.43.43Z" fill="#63a2e0"/>
            <path d="M605.05,392.82c6.91.25,14-1.61,20.82-2.62,6.16-.91,13.18-.66,19.1-2.45a.64.64,0,0,0-.17-1.24c-6.17-.07-12.87,2.12-19,3-6.85.94-14.15,1.12-20.72,3.29,0,0,0,.05,0,.05Z" fill="#63a2e0"/>
            <path d="M623.36,446.5c5.34-7.16,13.56-11,20.76-16a.23.23,0,0,0-.23-.4c-8.08,4-14.9,9.63-21.57,15.6-.67.6.44,1.6,1,.8Z" fill="#63a2e0"/>
            <path d="M648.86,426.69l2-1.7c.19-.15-.08-.42-.26-.26l-2,1.7c-.19.15.08.41.26.26Z" fill="#63a2e0"/>
            <path d="M652.76,423.74c1-.47,2-.91,2.94-1.35a.5.5,0,0,0,.26-.46.51.51,0,0,0-.26-.46.54.54,0,0,0-.55,0c-.87.62-1.75,1.24-2.65,1.82a.26.26,0,0,0,.26.45Z" fill="#63a2e0"/>
            <path d="M633.73,480.65c6-.24,12-.22,18-.18s12,.56,18,.54c.63,0,.82-1,.15-1.15a131.54,131.54,0,0,0-17.18-1.32c-6.31-.23-12.64.06-18.95.42-1.07.06-1.09,1.73,0,1.69Z" fill="#63a2e0"/>
            <path d="M652.84,525.16c8.17-5.78,15.54-12.41,23.48-18.47a.3.3,0,1,0-.37-.48c-7.9,6.11-16.22,11.52-23.91,17.92-.57.47.19,1.46.8,1Z" fill="#63a2e0"/>
            <path d="M660.34,553.71c3.49.47,7-.4,10.42-.89,4.62-.66,9.32-1.09,13.8-2.41a.26.26,0,0,0-.06-.51,63.06,63.06,0,0,0-12.33,1c-3.95.59-8.25.85-11.83,2.72,0,0,0,.05,0,.05Z" fill="#63a2e0"/>
            <path d="M674.25,582c2.75-1.88,5.34-4,8-5.93,2.15-1.56,4.46-3,6-5.27a.17.17,0,0,0-.19-.24c-2.51,1-4.46,2.88-6.47,4.61-2.54,2.2-5.15,4.25-7.61,6.5-.18.16,0,.47.25.33Z" fill="#63a2e0"/>
            <path d="M682.82,599a35.52,35.52,0,0,0,12.59-.36.8.8,0,0,0-.21-1.57c-4.14.19-8.26.91-12.38,1.22a.36.36,0,0,0,0,.71Z" fill="#63a2e0"/>
            <path d="M676.1,589.54c-1.33,1.8-3,3.71-3.82,5.81-.2.53.54.88.9.53,1.58-1.58,2.64-3.93,3.73-5.86a.47.47,0,0,0-.81-.48Z" fill="#63a2e0"/>
            <path d="M659.62,574a39.36,39.36,0,0,0,2.82-3.74c.93-1.42,2.45-2.57,3.13-4.12.12-.27-.17-.72-.48-.48-1.3,1-2,2.64-3.12,3.85s-2.15,2.51-3.16,3.87c-.35.46.44,1.07.81.62Z" fill="#63a2e0"/>
            <path d="M642.63,546.63a57.37,57.37,0,0,0,12.56-3.35c.37-.15.38-.84-.11-.78a57.48,57.48,0,0,0-12.69,3.27.45.45,0,0,0,.24.86Z" fill="#63a2e0"/>
            <path d="M639.41,498.74c-4.79,5.43-8.41,11.92-13.49,17.08-1.21,1.23,1.12,2.79,1.76,1.36,3-6.62,8.22-12.07,12.54-17.82.35-.47-.42-1.06-.81-.62Z" fill="#63a2e0"/>
            <path d="M602,470.4l.22-.15.1-.06a.23.23,0,0,0,.11-.2.18.18,0,0,0-.09-.16.35.35,0,0,0-.3,0l-.24.09a.27.27,0,0,0-.17.35.26.26,0,0,0,.37.12Z" fill="#63a2e0"/>
            <path d="M604.32,474.31c8.17-2,16.37-3.9,24.5-6a1.2,1.2,0,0,0-.63-2.31c-8.22,1.77-16.33,4.05-24.37,6.52a.93.93,0,0,0,.5,1.8Z" fill="#63a2e0"/>
            <path d="M588.11,442.4c3.71-4.4,7.29-9,11.28-13.15s8.38-8,12.08-12.42a1,1,0,0,0-1.43-1.42c-4.36,3.82-7.93,8.41-11.67,12.81s-7.76,8.54-11.49,13c-.71.85.51,2.08,1.23,1.22Z" fill="#63a2e0"/>
            <path d="M563.9,386.69c11.8-1.59,23.52-3.72,35.24-5.83,1.24-.22.72-2.13-.53-1.9-11.66,2.21-23.32,4.41-34.87,7.14-.39.09-.21.64.16.59Z" fill="#63a2e0"/>
            <path d="M546.4,347.28C557.14,338,569,329.2,578.67,318.83c.83-.88-.3-2.57-1.36-1.76-11.41,8.6-21.49,19.45-31.91,29.21-.67.63.32,1.58,1,1Z" fill="#63a2e0"/>
            <path d="M518.48,291.29c16.15-1.26,31.77-5.73,47.59-8.81,1.5-.29.85-2.77-.63-2.31-15.34,4.78-31.47,6.46-47.17,9.55a.8.8,0,0,0,.21,1.57Z" fill="#63a2e0"/>
            <path d="M510.59,269.48c6.33-5.83,12.66-11.6,18.83-17.6s13.13-11.39,18.45-18c.52-.64-.18-1.84-1-1.25-6.59,4.92-12.24,11.47-18.13,17.19-6.4,6.23-12.7,12.51-19,18.85a.57.57,0,0,0,.8.8Z" fill="#63a2e0"/>
            <path d="M475.32,211A277.68,277.68,0,0,1,501,200.14c7.62-2.91,15.6-5.18,22.92-8.82.76-.37.21-1.5-.56-1.32-16.92,3.83-32.68,13.18-48.59,19.75a.68.68,0,1,0,.53,1.24Z" fill="#63a2e0"/>
            <path d="M441,251.44c10-1.48,19.86-2.43,30-3,8.47-.48,17.11-.43,25.49-1.69,1.28-.19.77-2.32-.55-2-9.41,2.37-19.15,1.36-28.71,2.43-8.81,1-17.64,2-26.37,3.56-.45.08-.25.74.19.68Z" fill="#63a2e0"/>
            <path d="M458,316.82a225,225,0,0,1,26.78-22.56c8.7-6.21,18.05-11.64,26.49-18.18,1.16-.9-.32-2.69-1.53-2-9.41,5.48-18.29,12.44-26.83,19.18-9,7.12-17.71,14.5-25.41,23.05-.3.34.18.82.5.5Z" fill="#63a2e0"/>
            <path d="M471.78,345.4c20.58-7.34,41.57-13.75,62.14-21.15,1.27-.45.74-2.46-.56-2-20.77,6.87-41.26,14.77-62,21.69-.94.32-.52,1.83.41,1.49Z" fill="#63a2e0"/>
            <path d="M506.46,404.56c3.26-3.68,7.92-6.29,11.76-9.4,3.4-2.75,6.65-5.65,9.95-8.52s6.89-5.37,10.43-8c4.29-3.19,8.71-7.35,13.52-9.79,1-.5-.09-2.08-1-1.25-4,3.76-9.16,6.51-13.53,9.78-3.51,2.63-6.87,5.43-10.46,7.95-3.17,2.22-6.3,4.39-9.3,6.83-4.24,3.45-7.94,8-12.52,11-1.15.74.25,2.4,1.11,1.43Z" fill="#63a2e0"/>
            <path d="M527.63,438.51c8.27-2.4,16.8-3.72,25.07-6.17s16.37-5.32,24.81-7.13c1.41-.3.66-2.58-.81-1.93-7.87,3.47-16.15,5.46-24.46,7.4s-16.51,4.54-24.91,5.62c-1.65.21-1.24,2.66.3,2.21Z" fill="#63a2e0"/>
            <path d="M568.85,492.63c8.86-10.64,18.08-21.73,28.56-30.82.8-.7-.47-2-1.16-1.16C587.14,471.23,577,481,567.59,491.37c-.77.86.54,2.14,1.26,1.26Z" fill="#63a2e0"/>
            <path d="M584.66,510.57c5.39-1.93,10.89-3.54,16.27-5.6,4.7-1.79,10.13-3.22,14.26-6.14a.45.45,0,0,0-.34-.82c-5.53.8-11,3.88-16.16,6-4.79,2-9.35,4.38-14.07,6.46,0,0,0,.1,0,.08Z" fill="#63a2e0"/>
            <path d="M619.62,552.76l7.4-9c2.49-3,4.59-6.33,7.07-9.31.34-.42-.27-1-.6-.6-2.25,2.91-4.87,5.47-7.14,8.41q-3.75,4.85-7.52,9.68c-.44.56.33,1.36.79.79Z" fill="#63a2e0"/>
            <path d="M634.14,569.19c5.41-2,10.81-4.2,16.35-5.77,1.53-.43.66-2.74-.86-2-5.19,2.34-10.63,4.18-15.9,6.33-.9.36-.54,1.84.41,1.49Z" fill="#63a2e0"/>
            <path d="M659.38,596.63a47.52,47.52,0,0,0,5.39-9.38c.27-.64-.79-1.08-1.11-.47a86.32,86.32,0,0,1-5.33,9.23c-.45.65.6,1.25,1,.62Z" fill="#63a2e0"/>
            <path d="M671.65,612.06c2.73-.89,5.35-1.93,8-3,.84-.35.54-1.67-.39-1.4-2.74.79-5.43,1.62-8.1,2.62-1.12.41-.67,2.18.49,1.8Z" fill="#63a2e0"/>
          </g>
        </g>
        <path d="M682.8,622.68S335.52,271.15,471.64,174.53,696,605.15,696,605.15Z" fill="none" stroke="#549ad3" stroke-miterlimit="10" stroke-width="2"/>
        <circle cx="783.9" cy="583.74" r="15.5" fill="#fff"/>
        <circle cx="803.59" cy="580.93" r="12.51" fill="#fff"/>
        <g>
          <path d="M631.63,607.8s-275,0-277-92,293,85,293,85Z" fill="#dcf8ff" opacity="0.5"/>
          <g clip-path="url(#a59a229e-a9b9-44b3-b5ea-f08423804225)">
            <path d="M355.68,497.57Q413,519.06,469.92,541.79c19.21,7.67,38.28,15.68,57.34,23.73,18,7.61,35.9,15.67,54.39,22.1,21.29,7.4,43.78,13.88,66,17.78a.44.44,0,0,0,.24-.85c-19.08-5.79-38.72-9.52-57.72-15.69-19.41-6.3-38-14.62-56.71-22.71q-55.37-24-111.85-45.43c-21.77-8.29-43.83-15.78-65.91-23.2,0,0,0,0,0,.05Z" fill="#63a2e0"/>
            <path d="M351.41,531.9c37.32,12.75,74.9,24.71,112.59,36.3,37.11,11.41,74.21,23.5,112.42,30.67,20.73,3.9,42.28,7.46,63.41,7.79.49,0,.47-.7,0-.75-19.55-2.15-39-3.57-58.42-7a533.23,533.23,0,0,1-55.66-13.2c-37.08-10.8-73.88-22.65-110.7-34.29-21.16-6.69-42.31-13.42-63.49-20-.35-.11-.49.43-.15.54Z" fill="#63a2e0"/>
            <path d="M624,599.08a30.44,30.44,0,0,0,2.18-2.37c.68-.85,1.26-1.76,2-2.61,0,0,0-.11-.06-.06a34.16,34.16,0,0,1-4.78,4.12c-.68.53.13,1.52.71.92Z" fill="#63a2e0"/>
            <path d="M625.69,597.6c1.87-2.05,3.83-4,5.61-6.14.21-.26-.12-.6-.36-.37-2,1.93-3.78,4.07-5.61,6.15-.22.25.14.61.36.36Z" fill="#63a2e0"/>
            <path d="M610.35,580.09a133,133,0,0,0,.13,15.72c0,.74,1.19.73,1.15,0-.34-5.24-.3-10.48-.49-15.72a.4.4,0,0,0-.79,0Z" fill="#63a2e0"/>
            <path d="M589.59,589.53a50.85,50.85,0,0,0,4.67-6.49,64.71,64.71,0,0,1,6.92-8.23c.43-.45-.28-1.14-.68-.68-4.1,4.78-7,10.4-11.71,14.6-.54.48.29,1.32.8.8Z" fill="#63a2e0"/>
            <path d="M575.63,560.92c-.2,7.86-.16,15.83-.69,23.66-.06,1,1.55,1,1.5,0-.42-7.84-.28-15.8-.38-23.66a.22.22,0,0,0-.43,0Z" fill="#63a2e0"/>
            <path d="M549.52,573.93c3-7.43,9.38-13.14,13.43-20,.2-.33-.34-.63-.5-.29-3.6,7.26-10.35,12.5-13.83,19.92a.49.49,0,1,0,.9.38Z" fill="#63a2e0"/>
            <path d="M531.67,539.78c-.45,8.6-.57,17.21-1.6,25.77-.11.9,1.43,1,1.46,0,.21-8.6.82-17.17.61-25.77a.24.24,0,0,0-.47,0Z" fill="#63a2e0"/>
            <path d="M505.45,554.27c6.2-6.18,12-12.73,17.75-19.37.51-.59-.38-1.44-.84-.85a203.66,203.66,0,0,1-17.53,19.61.44.44,0,0,0,.62.61Z" fill="#63a2e0"/>
            <path d="M501.19,552.8c6.26-5.83,10.72-14,15.46-21,.34-.52-.48-1-.83-.49-4.88,7-9.22,14.84-15.09,21.06a.33.33,0,0,0,.46.46Z" fill="#63a2e0"/>
            <path d="M490.53,520.09a180.52,180.52,0,0,1-2.85,27.13.81.81,0,1,0,1.59.21c.85-9.12,1.36-18.18,1.56-27.34a.15.15,0,1,0-.3,0Z" fill="#63a2e0"/>
            <path d="M461.68,537.33a236.18,236.18,0,0,0,18.1-22.22c.44-.61-.58-1.21-1-.59a166.41,166.41,0,0,1-17.9,22c-.52.53.31,1.36.81.82Z" fill="#63a2e0"/>
            <path d="M445.85,502.51v.66s.05,0,.05,0v-.66s-.07,0-.07,0Z" fill="#63a2e0"/>
            <path d="M446,505.69c-.72,8-1.49,15.95-2.42,23.9-.13,1.07,1.59,1.09,1.68,0,.65-8,1-15.91.91-23.9a.09.09,0,0,0-.17,0Z" fill="#63a2e0"/>
            <path d="M417.51,519.85a31.05,31.05,0,0,0,7.8-8.51c2.83-4.28,5.83-8.33,9-12.35.34-.42-.21-1-.61-.61-3,3.12-5,6.95-7.5,10.48a67.93,67.93,0,0,1-9.08,10.51c-.25.23.08.68.37.48Z" fill="#63a2e0"/>
            <path d="M402.32,491a196.5,196.5,0,0,0,.44,23.4.36.36,0,0,0,.72,0,198.74,198.74,0,0,0-1.13-23.4Z" fill="#63a2e0"/>
            <path d="M379.54,505.27c3.74-4.82,7.8-9.67,10.53-15.17a.58.58,0,0,0-1-.58c-3.61,4.92-6.42,10.48-9.71,15.61-.07.11.1.25.18.14Z" fill="#63a2e0"/>
            <path d="M370.64,537.73c3.28-4.78,7.58-9,11.15-13.53,3.23-4.13,6.19-8.46,9.77-12.3a.63.63,0,1,0-1-.77c-3.3,4.83-7.31,9.09-11,13.64-3.27,4.06-6.1,8.62-9.64,12.44a.43.43,0,1,0,.68.52Z" fill="#63a2e0"/>
            <path d="M411.68,518.64c-.84,10.61-.23,21.43-1.3,32-.09.82,1.35.83,1.29,0-.77-10.51.49-21.43.65-32a.32.32,0,0,0-.64,0Z" fill="#63a2e0"/>
            <path d="M429.42,556.73c7.37-7.17,12.27-16.23,19.15-23.75.56-.62-.49-1.39-.88-.69-4.93,8.81-12.89,15.89-19,23.91-.3.4.34.86.69.53Z" fill="#63a2e0"/>
            <path d="M470.36,541.5a157.32,157.32,0,0,0,1,28.54.67.67,0,0,0,1.33,0,156.92,156.92,0,0,0-2.35-28.54Z" fill="#63a2e0"/>
            <path d="M485,573.87c5.43-6.58,10.78-13.48,16.76-19.56.6-.61-.41-1.45-1-.74-5.24,6.79-11,13.18-16.19,20-.16.22.21.52.39.3Z" fill="#63a2e0"/>
            <path d="M518.36,562.12c-.46,7.32-.44,14.62-.65,21.93,0,.47.71.47.72,0,.14-7.31.51-14.6.42-21.93a.25.25,0,0,0-.49,0Z" fill="#63a2e0"/>
            <path d="M532.92,587.67c5.28-4,8.77-9.57,13-14.61.49-.6-.31-1.44-.87-.87-4.54,4.69-7.44,10.85-12.35,15.2-.15.13,0,.4.21.28Z" fill="#63a2e0"/>
            <path d="M562.18,579.56a142.15,142.15,0,0,0,.33,16.12c0,.74,1.21.74,1.15,0-.41-5.37-.51-10.74-.75-16.12a.37.37,0,0,0-.73,0Z" fill="#63a2e0"/>
            <path d="M579.16,599.17c1.38-1.67,2.37-3.6,3.81-5.23s2.9-3.15,4.42-4.64c.55-.54-.4-1.34-.87-.66-1.28,1.83-2.6,3.67-4,5.44-1.25,1.61-2.81,2.95-4,4.58-.29.38.36.88.66.51Z" fill="#63a2e0"/>
            <path d="M601.57,594.17c.42,2.82.54,6.19,1.83,8.78.35.69,1.54.21,1.27-.53-1-2.73-1.61-5.64-2.48-8.42a.32.32,0,0,0-.62.17Z" fill="#63a2e0"/>
            <path d="M617.07,604.08c1.16-1.76,2-3.68,2.95-5.54a.51.51,0,1,0-.94-.39,33.15,33.15,0,0,1-2.94,5.39c-.36.6.56,1.12.93.54Z" fill="#63a2e0"/>
            <path d="M631.23,601.76a19.39,19.39,0,0,0,.42,4,.7.7,0,0,0,1.38-.18,19.88,19.88,0,0,0-.83-4,.5.5,0,0,0-1,.13Z" fill="#63a2e0"/>
            <path d="M623.62,605.86c0,.36,0,.72,0,1.08a5,5,0,0,0,.08,1c.14.52.88.29.79-.22,0-.31-.2-.58-.25-.89a6.5,6.5,0,0,1-.08-1,.28.28,0,0,0-.56,0Z" fill="#63a2e0"/>
            <path d="M609,604.27c.08.59.15,1.19.25,1.78a2.57,2.57,0,0,0,.49,1.57.42.42,0,0,0,.66-.09,2.31,2.31,0,0,0-.08-1.53c-.14-.62-.3-1.23-.46-1.85-.13-.45-.92-.38-.86.12Z" fill="#63a2e0"/>
            <path d="M590.61,601.83c.52,1.79.83,4,1.83,5.62a.25.25,0,0,0,.46-.12c-.09-1.89-1.1-3.89-1.7-5.66-.12-.37-.7-.22-.59.16Z" fill="#63a2e0"/>
            <path d="M570.8,597.79a19.75,19.75,0,0,0,.85,3.77c.46,1.4,1.26,2.65,1.76,4a.37.37,0,1,0,.68-.29,34.12,34.12,0,0,1-1.41-4c-.43-1.2-.85-2.37-1.33-3.56-.11-.26-.59-.27-.55.08Z" fill="#63a2e0"/>
            <path d="M543.44,602.85a13.48,13.48,0,0,0,.85-1.7c.08-.21-.25-.41-.39-.22a13.1,13.1,0,0,0-1,1.6.32.32,0,0,0,.55.32Z" fill="#63a2e0"/>
            <path d="M545.69,598.42l1.6-2.79a15.25,15.25,0,0,0,1.35-2.56c.11-.34-.35-.47-.54-.22a15.37,15.37,0,0,0-1.39,2.67l-1.32,2.72c-.1.2.19.38.3.18Z" fill="#63a2e0"/>
            <path d="M523.53,586.56a139.13,139.13,0,0,0,1.73,14c.07.41.79.32.73-.1-.57-4.62-1.23-9.24-1.76-13.87-.05-.44-.74-.46-.7,0Z" fill="#63a2e0"/>
            <path d="M501,582c-4.07,4-8.7,8.21-11.93,13-.36.54.44,1.13.89.69,4.06-4.1,7.46-9.07,11.29-13.41.15-.17-.09-.41-.25-.25Z" fill="#63a2e0"/>
            <path d="M455.2,565c-.54,3.51.62,6.9,1.17,10.37a126.07,126.07,0,0,0,2.6,13.93c.12.44.71.24.65-.18-.62-4.36-1.71-8.65-2.46-13-.64-3.7-.43-7.67-1.93-11.13Z" fill="#63a2e0"/>
            <path d="M412.27,575.14c4.65-6.23,9.6-12.24,14.14-18.55.33-.46-.44-1.07-.79-.62-4.84,6.13-9.27,12.57-14,18.79-.29.38.36.76.65.38Z" fill="#63a2e0"/>
            <path d="M394.94,546.12c.47,7.26.89,14.62,1.84,21.84a.83.83,0,1,0,1.64-.22,133.55,133.55,0,0,1-2.8-21.62c0-.44-.71-.44-.68,0Z" fill="#63a2e0"/>
          </g>
        </g>
        <path d="M631.63,607.8s-275,0-277-92,293,85,293,85Z" fill="none" stroke="#549ad3" stroke-miterlimit="10" stroke-width="2"/>
        <circle cx="787.77" cy="582.85" r="3.85" fill="#0e0f16"/>
        <circle cx="805.77" cy="579.85" r="3.15" fill="#0e0f16"/>
      </g>
    </g>
  </g>
</svg>
