<svg xmlns="http://www.w3.org/2000/svg" xmlns:xlink="http://www.w3.org/1999/xlink" viewBox="0 0 1000 1000">
  <defs>
    <clipPath id="e86f8e46-8ca3-4c2a-ad89-7573231656c7">
      <path d="M299.21,389.72S329.3,518.9,427.51,533.94s75.23-235.53,302.92-231C883.17,306,948.57,466.61,916.8,591.09c-1.75,6.85-38.37,5.87-38.37,5.87s27.25,27.41,24.32,33.7C874.69,690.77,819.39,735,735.43,735c-258,0-463.64-12.57-469.84-330.2,0,0-146,83.17-190.22-60.16,0,0,27.43,14.15,62.82,1.77s71.66-46,112.36-16.81c0,0,4.43-44.24,36.28-54.86s69.89,9.73,95.55-32.74C382.38,242,394.77,383.53,299.21,389.72Z" fill="#4d88ce"/>
    </clipPath>
  </defs>
  <g id="abc30082-6402-4b7a-8a8b-db5881ea8364" data-name="Layer 3">
    <g id="ae44314b-3944-4e39-a595-d9f0752bb220" data-name="Layer 4">
      <g>
        <g>
          <path d="M299.21,389.72S329.3,518.9,427.51,533.94s75.23-235.53,302.92-231C883.17,306,948.57,466.61,916.8,591.09c-1.75,6.85-38.37,5.87-38.37,5.87s27.25,27.41,24.32,33.7C874.69,690.77,819.39,735,735.43,735c-258,0-463.64-12.57-469.84-330.2,0,0-146,83.17-190.22-60.16,0,0,27.43,14.15,62.82,1.77s71.66-46,112.36-16.81c0,0,4.43-44.24,36.28-54.86s69.89,9.73,95.55-32.74C382.38,242,394.77,383.53,299.21,389.72Z" fill="#4d88ce"/>
          <g clip-path="url(#e86f8e46-8ca3-4c2a-ad89-7573231656c7)">
            <path d="M637.43,271s180,16,195,202-285,357-540,131l111,171,239,74,204-91,106-152-5-236-120-113s-146-34-151-34S637.43,271,637.43,271Z" fill="#2874bf"/>
            <path d="M382.43,242s-19,93-51,98-48,38-44,60,34,156,160,129l-135-131,50-19,25-70,7-67h-12" fill="#2874bf"/>
            <path d="M75.43,345s44,92,190,60h0s-58,44-102,34-99-42-88-94" fill="#2874bf"/>
          </g>
        </g>
        <circle cx="855.88" cy="452.68" r="12.55" fill="#0e0f16"/>
        <path d="M723.43,602s49,164-39,188-50-77-25-129" fill="#4d88ce"/>
        <path d="M717,572.45c5.19,26.4,10.55,52.86,14.89,79.42,2.13,13,3.93,26.07,5.29,39.18,1.38,13.32,1.15,26.86,3.44,40.06.41,2.39,4.19,2.26,4.7,0,2.9-13.05,1.93-26.81,1-40.06a333.58,333.58,0,0,0-5.42-39.8c-5.2-27.07-13.79-53.11-22.19-79.27a.89.89,0,0,0-1.72.47Z" fill="#2874bf"/>
        <path d="M649,661.7c-2.39,9.82-4.48,20.53-8.35,29.88a115.71,115.71,0,0,1-6,12.19c-2,3.54-5.3,6.87-5.87,11-.16,1.14.5,2.81,2,2.61,8.26-1.11,12.17-13.8,14.68-20.56,1.71-4.61,2.08-9.7,2.67-14.56.82-6.71,1.47-13.45,2.42-20.14.13-1-1.29-1.45-1.54-.42Z" fill="#2874bf"/>
        <path d="M728.93,286.46s16.3-82.62,63-70c37,10,10,42-20,39C745.37,252.81,728.93,286.46,728.93,286.46Z" fill="#c0ebf9"/>
        <path d="M716.93,258.46s-12-54-60-52-29,39-4,36S702.93,241.46,716.93,258.46Z" fill="#c0ebf9"/>
      </g>
    </g>
  </g>
</svg>
