<svg xmlns="http://www.w3.org/2000/svg" xmlns:xlink="http://www.w3.org/1999/xlink" viewBox="0 0 1000 1000">
  <defs>
    <clipPath id="af26ca2f-2dc4-485e-be01-4a8527e9eddd">
      <path id="e655acae-1b6b-4d91-9228-1c2b112ed77d" data-name="SVGID" d="M216,148.28S321.41,86.51,407.59,83.07,552.1,203.83,505.32,260.45c-28.47,34.44-113.54,43.36-148-25.77S298.36,157.93,216,148.28Z" fill="#35a31a"/>
    </clipPath>
    <clipPath id="aa645f07-1ee5-4ba9-8db5-0939415cc8aa">
      <path d="M492.29,373.07S504.8,215.73,558.4,211.79c0,0,23.22,3.94,32.16,23.61,0,0-51.82,9.83-85.76,143.57Z" fill="#9e660d"/>
    </clipPath>
    <clipPath id="fcca5faf-9fd0-4ae4-9363-568aa36911cd">
      <path d="M767.94,365.15c-112.94-78.91-217.27-29.47-254-6.92a26.31,26.31,0,0,1-27.57,0c-36.74-22.55-141.07-72-254,6.92-97.15,67.87-67.2,199.12-23,321.6,40.6,112.42,87.85,219.5,176.11,219.5,61.82,0,88.93-29.57,114.66-29.57,22.77,0,52.84,29.57,114.65,29.57,88.26,0,135.51-107.08,176.12-219.5C835.15,564.27,865.09,433,767.94,365.15Z" fill="#e22020"/>
    </clipPath>
  </defs>
  <g style="isolation: isolate">
    <g id="bdadd8a4-8334-4ce1-b45f-246ad469001f" data-name="Layer 3">
      <g>
        <g>
          <path id="b1e10ffa-dc98-4352-a222-392a83150ba8" data-name="SVGID" d="M216,148.28S321.41,86.51,407.59,83.07,552.1,203.83,505.32,260.45c-28.47,34.44-113.54,43.36-148-25.77S298.36,157.93,216,148.28Z" fill="#35a31a"/>
          <g clip-path="url(#af26ca2f-2dc4-485e-be01-4a8527e9eddd)">
            <path d="M185.07,159.65s183.41-63.91,249.17-11.11C493,195.71,482.91,296.17,422.91,302S489,322.12,489,322.12l70.26-158.76L429.61,67,290.67,73.51Z" fill="#428e06"/>
          </g>
        </g>
        <path d="M305.62,134.75c37.26-4.66,79.86-9.31,112.39,13.67,30.1,21.26,45.05,56.54,60.68,88.53,7.22,14.76,17.21,35.42,36.85,33.77,8-.68,8.24-13,0-12.66-15.46.57-23.45-23.19-28.91-34.17-8.55-17.15-17.19-34.34-28.55-49.85-9.88-13.48-21.51-25.63-35.87-34.36-15.4-9.37-32.89-13.22-50.75-14.13-22-1.12-45,.13-66.2,6.53-1.39.42-1.22,2.87.36,2.67Z" fill="#327c01"/>
        <g>
          <path d="M492.29,373.07S504.8,215.73,558.4,211.79c0,0,23.22,3.94,32.16,23.61,0,0-51.82,9.83-85.76,143.57Z" fill="#9e660d"/>
          <g clip-path="url(#aa645f07-1ee5-4ba9-8db5-0939415cc8aa)">
            <path d="M602.83,211.53s-40.76,0-67.62,50.94-41.68,121.35-41.68,121.35l33.34-25,38.91-88,37.05-30.57Z" fill="#8e5606"/>
          </g>
        </g>
        <g>
          <path d="M767.94,365.15c-112.94-78.91-217.27-29.47-254-6.92a26.31,26.31,0,0,1-27.57,0c-36.74-22.55-141.07-72-254,6.92-97.15,67.87-67.2,199.12-23,321.6,40.6,112.42,87.85,219.5,176.11,219.5,61.82,0,88.93-29.57,114.66-29.57,22.77,0,52.84,29.57,114.65,29.57,88.26,0,135.51-107.08,176.12-219.5C835.15,564.27,865.09,433,767.94,365.15Z" fill="#e22020"/>
          <g clip-path="url(#fcca5faf-9fd0-4ae4-9363-568aa36911cd)">
            <path d="M340.23,308.8s78,14.06,106,46.08,63,42.05,95,24.07,158,12.13,188.92,107.15S694,837.26,630,857c-64.82,20-139.2,6.92-130.21,19.92s118,47.09,118,47.09l131-50.9S858,550.2,860,547.2s-27.83-219-27.83-219L650.24,287Z" fill="#c10505" opacity="0.46" style="mix-blend-mode: multiply"/>
          </g>
        </g>
        <ellipse cx="281.76" cy="447.7" rx="41.9" ry="31.89" transform="translate(-242.89 515.28) rotate(-65.16)" fill="#fff" opacity="0.45"/>
      </g>
    </g>
  </g>
</svg>
