<svg xmlns="http://www.w3.org/2000/svg" xmlns:xlink="http://www.w3.org/1999/xlink" viewBox="0 0 1000 1000">
  <defs>
    <clipPath id="ff53e3fc-97b0-4b8d-94a9-88c65e8e496a">
      <path d="M545,361S696.35,151.81,780,224c73,63,25.33,92.41,33,145,7,48,14.68,75.69,0,124-24,79-146.18,165.48-272-61Z" fill="#f13636"/>
    </clipPath>
    <clipPath id="f497486a-9216-4547-9ba2-626359db4e3e">
      <path d="M463.59,361s-151.35-209.19-235-137c-73,63-25.33,92.41-33,145-7,48-14.68,75.69,0,124,24,79,146.18,165.48,272-61Z" fill="#f13636"/>
    </clipPath>
    <clipPath id="a0c22919-4a93-4255-ac14-646205d41a8e">
      <path d="M436.48,453.64c-7-23.52-20-92.28,6.52-113.64,21.92-17.68,93.48-14.36,117.48,6.64s13.52,103.36-5,121C533,489.07,449.48,497.64,436.48,453.64Z" fill="#f13636"/>
    </clipPath>
  </defs>
  <g style="isolation: isolate">
    <g id="abc635ac-7530-4fc3-8972-c74db63e7686" data-name="Layer 3">
      <g>
        <path d="M600,463s72,146,113,180-56.6,66.19-85,123c-27,54-28,73-28,73s-3.2-166.26-11-254c-8-90-65-136-65-136l42-27Z" fill="#f13636"/>
        <path d="M401.37,463s-72,146-113,180,56.59,66.19,85,123c27,54,28,73,28,73s3.2-166.26,11-254c8-90,65-136,65-136l-42-27Z" fill="#f13636"/>
        <g>
          <path d="M545,361S696.35,151.81,780,224c73,63,25.33,92.41,33,145,7,48,14.68,75.69,0,124-24,79-146.18,165.48-272-61Z" fill="#f13636"/>
          <g clip-path="url(#ff53e3fc-97b0-4b8d-94a9-88c65e8e496a)">
            <path d="M832,375c-32-29-149-34-184-9s42-12,92,3,118,53,118,53Z" fill="#c10505" opacity="0.46" style="mix-blend-mode: multiply"/>
            <path d="M821.37,432S798,526,709,522s-161-84-161-84l-7,63L669,609l98-17,78-88-23.63-72" fill="#c10505" opacity="0.46" style="mix-blend-mode: multiply"/>
            <path d="M522.52,416.35a306.29,306.29,0,0,1,63.79-64.17c24-17.74,50.47-31.64,77.7-43.78,2.56-1.14.72-5.16-1.88-4.46C603.06,320,550.88,363,516.85,413c-2.4,3.54,3.21,6.64,5.67,3.31Z" fill="#ce0808"/>
            <path d="M523.7,403c24.67-10,52.25-9.37,77.7-2.82,26.37,6.78,50,20.07,75.09,30,3.55,1.41,5.59-4.12,2.53-6-24-14.74-51.28-26.73-78.88-32.74-26.37-5.74-53.89-5.22-78.67,6.21-3,1.36-.83,6.55,2.23,5.31Z" fill="#ce0808"/>
          </g>
        </g>
        <g>
          <path d="M463.59,361s-151.35-209.19-235-137c-73,63-25.33,92.41-33,145-7,48-14.68,75.69,0,124,24,79,146.18,165.48,272-61Z" fill="#f13636"/>
          <g clip-path="url(#f497486a-9216-4547-9ba2-626359db4e3e)">
            <path d="M176.59,375c32-29,149-34,184-9s-42-12-92,3-118,53-118,53Z" fill="#c10505" opacity="0.46" style="mix-blend-mode: multiply"/>
            <path d="M187.22,432s23.37,94,112.37,90,161-84,161-84l7,63-128,108-98-17-78-88,23.63-72" fill="#c10505" opacity="0.46" style="mix-blend-mode: multiply"/>
            <path d="M479.82,399.94a256.43,256.43,0,0,0-58.25-54.82c-22.1-15.25-46.93-28.36-73.31-34.1-2.83-.61-5.07,3.66-2.1,5,24,10.59,47.8,21.1,69.83,35.48s42.12,32,60.22,51.26c1.74,1.85,5.22-.68,3.61-2.79Z" fill="#ce0808"/>
            <path d="M488.78,419.68c-22.86-15.49-52.86-12.54-78.76-8.74-30,4.41-59.72,13.13-86.27,28.05-2.39,1.35-.78,5.54,1.92,4.55,26.72-9.88,53.85-19.08,81.89-24.47,25.34-4.88,55.88-10.59,78.8,4.74,2.57,1.72,4.95-2.41,2.42-4.13Z" fill="#ce0808"/>
          </g>
        </g>
        <g>
          <path d="M436.48,453.64c-7-23.52-20-92.28,6.52-113.64,21.92-17.68,93.48-14.36,117.48,6.64s13.52,103.36-5,121C533,489.07,449.48,497.64,436.48,453.64Z" fill="#f13636"/>
          <g clip-path="url(#a0c22919-4a93-4255-ac14-646205d41a8e)">
            <path d="M439,329s64-1,91,24,25.9,161.92-93.55,118.46L513,512l79-19,6-179-93-27Z" fill="#c10505" opacity="0.46" style="mix-blend-mode: multiply"/>
          </g>
        </g>
      </g>
    </g>
  </g>
</svg>
