<svg xmlns="http://www.w3.org/2000/svg" xmlns:xlink="http://www.w3.org/1999/xlink" viewBox="0 0 1000 1000">
  <defs>
    <clipPath id="e32cc465-1c16-4799-b884-d38fc186707d">
      <path d="M123,690c.67-11.38,5-27,43-20s206,9,234-26,96-129,123-149,76-145,114-159,111,0,127,29,54,108-9,156S592,628,572,668s-111,86-162,84-131-24-169-27S122,707,123,690Z" fill="#f74343"/>
    </clipPath>
    <clipPath id="beeccf5d-1c70-47a2-881e-434923089eea">
      <path d="M645,309c-14.88,6.61-30.92,33.83-27.46,41.92S666,348,677,358s17,29,20,40,39-1,47,3,10,14,12,22,11,9,16,15-12,15,0,31,24-4,29-16-15-99-26-116,3-80,37-77,36,36,36,36,11,3,13-3-10-50-50-50-67,44-67,67a106.6,106.6,0,0,1-30-3C698,303,672,297,645,309Z" fill="#35a31a"/>
    </clipPath>
  </defs>
  <g style="isolation: isolate">
    <g id="a40d07b5-ce80-40db-85d3-e79c52be8010" data-name="Layer 3">
      <g>
        <g>
          <path d="M123,690c.67-11.38,5-27,43-20s206,9,234-26,96-129,123-149,76-145,114-159,111,0,127,29,54,108-9,156S592,628,572,668s-111,86-162,84-131-24-169-27S122,707,123,690Z" fill="#f74343"/>
          <g clip-path="url(#e32cc465-1c16-4799-b884-d38fc186707d)">
            <path d="M764,383c-19,32-87,152-130,175s-72,27-95,61-43,89-71,98-106,12-141,14-113.78-36.48-136.89-13.24S233,764,233,764l235,22L679,644,834,469Z" fill="#c10505" opacity="0.46" style="mix-blend-mode: multiply"/>
          </g>
        </g>
        <g>
          <path d="M645,309c-14.88,6.61-30.92,33.83-27.46,41.92S666,348,677,358s17,29,20,40,39-1,47,3,10,14,12,22,11,9,16,15-12,15,0,31,24-4,29-16-15-99-26-116,3-80,37-77,36,36,36,36,11,3,13-3-10-50-50-50-67,44-67,67a106.6,106.6,0,0,1-30-3C698,303,672,297,645,309Z" fill="#35a31a"/>
          <g clip-path="url(#beeccf5d-1c70-47a2-881e-434923089eea)">
            <path d="M742,408c2-7-6-26-3-40s22-37,23-46,10-47,18-54,33-23,42-16,12,37,12,37l4,132-38,64H762Z" fill="#2d9110"/>
            <path d="M839,243c2,11,11,54,8,61s23-2,26-7-7-30-12-35S839,243,839,243Z" fill="#2d9110"/>
          </g>
        </g>
      </g>
    </g>
  </g>
</svg>
