<svg xmlns="http://www.w3.org/2000/svg" xmlns:xlink="http://www.w3.org/1999/xlink" viewBox="0 0 1000 1000">
  <defs>
    <clipPath id="af6db45f-000d-4823-86fe-3529d4416a51">
      <path d="M729.89,410.52S734,196.75,594.34,234.57c-43.09,11.67-44,91.56,9,115.8S699.37,365.63,729.89,410.52Z" fill="#35a31a"/>
    </clipPath>
    <clipPath id="ea3cdb18-7125-4a69-834e-913835537443">
      <path d="M330.41,358.45s-19.52-143.52,63.73-153.51c44.89-5.38,65.43,31.52,37.71,67.33C410.3,300.1,350.16,312.67,330.41,358.45Z" fill="#35a31a"/>
    </clipPath>
    <clipPath id="e2fdd918-60d8-4bf6-8f40-6d7e8f5d8fec">
      <path d="M683.42,571.38c-2.8-5.81-132-173.75-149.34-353h.11V164a21,21,0,0,0-21-21H507.8A24.77,24.77,0,0,0,483,167.78v50.63C395,435.66,291.8,522.74,288.21,528.12h24.24c123.89-125.68,196.6-309.71,196.6-309.71h.33C517.44,253,564.17,440,659.41,568Z" fill="#35a31a"/>
    </clipPath>
    <clipPath id="bb953895-1d94-49f6-9c1c-96004095f6e9">
      <path d="M471.35,676.25C443.52,774.1,393.25,806.42,299,814.49c-96.14,8.24-200.2-70-204.68-153.51-5.18-96.34,26.5-196.6,123-196.6,53.87,0,75.41,44,105,49.38,31.52,5.73,86.63-14.18,113.11,5.38C476.73,549.67,491.25,606.28,471.35,676.25Z" fill="#ea2828"/>
    </clipPath>
    <clipPath id="b68ae995-d639-4acc-aa90-9572d8667824">
      <path d="M890.14,600.75c36.36,95,15.47,151-55.15,214-72,64.21-202.22,63.91-255.85-.24-61.88-74-96.59-173.28-19.35-231.09,43.13-32.28,86.73-10,113.68-23.41,28.67-14.31,60.86-63.27,93.78-63.47C818.6,496.19,864.14,532.81,890.14,600.75Z" fill="#ea2828"/>
    </clipPath>
  </defs>
  <g style="isolation: isolate">
    <g id="e9fc9b38-8774-48b7-a75a-c376dad8931d" data-name="Layer 3">
      <g>
        <g>
          <path d="M729.89,410.52S734,196.75,594.34,234.57c-43.09,11.67-44,91.56,9,115.8S699.37,365.63,729.89,410.52Z" fill="#35a31a"/>
          <g clip-path="url(#af6db45f-000d-4823-86fe-3529d4416a51)">
            <path d="M571.89,237.26s26,0,77.21,48.48,88,134.66,88,134.66l33.22-28.73-72.72-156.2L606,218.41Z" fill="#2d9110"/>
          </g>
        </g>
        <g>
          <path d="M330.41,358.45s-19.52-143.52,63.73-153.51c44.89-5.38,65.43,31.52,37.71,67.33C410.3,300.1,350.16,312.67,330.41,358.45Z" fill="#35a31a"/>
          <g clip-path="url(#ea3cdb18-7125-4a69-834e-913835537443)">
            <path d="M439.93,214.82A254.28,254.28,0,0,0,386.07,257c-23,23.81-59.25,73.61-57.46,115.81l57.46-44.89,53.86-36.81,21.54-61-36.72-25.66" fill="#2d9110"/>
          </g>
        </g>
        <path d="M349,307.75c17.43-28.44,40.94-53.14,67.69-73a268.1,268.1,0,0,1,42-25.41,238.89,238.89,0,0,1,23.08-9.82q5.77-2.1,11.64-3.92c3.55-1.09,7.08-1.77,9.84-4.39a2.93,2.93,0,0,0-1.28-4.86c-5.84-1.34-12.52,2-18,3.93-6.13,2.14-12.16,4.54-18.1,7.13a246.87,246.87,0,0,0-94.11,72.47A259.25,259.25,0,0,0,347.69,307a.75.75,0,0,0,1.29.76Z" fill="#358706"/>
        <path d="M524,201.55c33.36,10.29,62.94,30.5,89.12,53.17,13.33,11.55,25.75,24,37.88,36.82,12.4,13.07,24.71,26.29,35.32,40.89,5.82,8,11.15,16.38,16.15,24.92,5.17,8.83,9.4,18.15,15.82,26.15,1.84,2.28,5.72-.19,4.86-2.83-2.81-8.62-7.53-16.22-12.15-24-4.77-8-9.7-15.92-15.23-23.42-10.88-14.75-23.48-28.12-36.26-41.21-25.08-25.71-51-51.22-81.75-70.17a200.23,200.23,0,0,0-53-23,1.41,1.41,0,0,0-.74,2.71Z" fill="#358706"/>
        <g>
          <path d="M683.42,571.38c-2.8-5.81-132-173.75-149.34-353h.11V164a21,21,0,0,0-21-21H507.8A24.77,24.77,0,0,0,483,167.78v50.63C395,435.66,291.8,522.74,288.21,528.12h24.24c123.89-125.68,196.6-309.71,196.6-309.71h.33C517.44,253,564.17,440,659.41,568Z" fill="#35a31a"/>
          <g clip-path="url(#e2fdd918-60d8-4bf6-8f40-6d7e8f5d8fec)">
            <path d="M480.33,156.47s35-10.78,39.5,9.87,43.09,247.77,53.86,280.09S668,581.09,668,581.09l27.83-28.73s-100.55-134.66-105.93-175-42.2-196.61-42.2-196.61l-9.87-42.19L492,126.84Z" fill="#2d9110" stroke="#35a31a" stroke-miterlimit="10"/>
          </g>
        </g>
        <g>
          <path d="M471.35,676.25C443.52,774.1,393.25,806.42,299,814.49c-96.14,8.24-200.2-70-204.68-153.51-5.18-96.34,26.5-196.6,123-196.6,53.87,0,75.41,44,105,49.38,31.52,5.73,86.63-14.18,113.11,5.38C476.73,549.67,491.25,606.28,471.35,676.25Z" fill="#ea2828"/>
          <g clip-path="url(#bb953895-1d94-49f6-9c1c-96004095f6e9)">
            <path d="M288.21,483.24S399.53,502.09,398.63,626,270.26,833.35,171.51,815.39c0,0,136.45,29.63,196.6,11.67S471.35,747.17,483,696s12.57-143.64-9-167.88S288.21,483.24,288.21,483.24Z" fill="#c10505" opacity="0.46" style="mix-blend-mode: multiply"/>
          </g>
        </g>
        <g>
          <path d="M890.14,600.75c36.36,95,15.47,151-55.15,214-72,64.21-202.22,63.91-255.85-.24-61.88-74-96.59-173.28-19.35-231.09,43.13-32.28,86.73-10,113.68-23.41,28.67-14.31,60.86-63.27,93.78-63.47C818.6,496.19,864.14,532.81,890.14,600.75Z" fill="#ea2828"/>
          <g clip-path="url(#b68ae995-d639-4acc-aa90-9572d8667824)">
            <path d="M683.21,528.12,666.5,546.71s44.54-12.3,102.89,12.83S821.46,714,777.47,781.28s-115.8,87.08-173.26,75.41L725.4,880l133.76-45.79,78.11-140L880.71,523.63,768.49,477Z" fill="#c10505" opacity="0.46" style="mix-blend-mode: multiply"/>
          </g>
        </g>
        <ellipse cx="595.68" cy="637.2" rx="30.07" ry="22.89" transform="translate(-216.15 956.24) rotate(-68.38)" fill="#fff" opacity="0.45"/>
        <ellipse cx="583.11" cy="695.55" rx="16.2" ry="12.33" transform="translate(-152.44 1227.31) rotate(-85.89)" fill="#fff" opacity="0.45"/>
        <ellipse cx="192.25" cy="532.59" rx="30.07" ry="22.89" transform="translate(-342.26 345.75) rotate(-50.88)" fill="#fff" opacity="0.45"/>
        <ellipse cx="162.72" cy="584.46" rx="16.2" ry="12.33" transform="translate(-440.59 520.51) rotate(-68.39)" fill="#fff" opacity="0.45"/>
      </g>
    </g>
  </g>
</svg>
