<svg xmlns="http://www.w3.org/2000/svg" xmlns:xlink="http://www.w3.org/1999/xlink" viewBox="0 0 1000 1000">
  <defs>
    <clipPath id="fb7b08b5-ca07-4c62-ac85-6599e7943590">
      <path d="M294,251S204,402,192,469s-41,270-83,297c0,0,125,39,310,51s444-49,444-49-74-324-98-366-69-127-77-176Z" fill="#ea2727"/>
    </clipPath>
    <clipPath id="b8c8a8f9-d6d7-42a9-b4ae-0737dac9dc78">
      <path d="M288,198s198-25,412,0c0,0,9,52,0,75,0,0-288,19-412-8C288,265,272,227,288,198Z" fill="#f23636"/>
    </clipPath>
  </defs>
  <g style="isolation: isolate">
    <g id="a0b5772d-e0e7-4095-973a-7473c77f185d" data-name="Layer 3">
      <g>
        <path d="M294,251S204,402,192,469s-41,270-83,297c0,0,125,39,310,51s444-49,444-49-74-324-98-366-69-127-77-176Z" fill="#ea2727"/>
        <g clip-path="url(#fb7b08b5-ca07-4c62-ac85-6599e7943590)">
          <path d="M579.37,237.11C590,257,670,344,691,404s28,240,2,310S587,867,587,867l330-64L822,371,724,226,579.37,237.11" fill="#c10505" opacity="0.46" style="mix-blend-mode: multiply"/>
          <path d="M407,870c-16-11,14-206,48-306s93-212,86-120-27,122-23,235,28,203,28,203Z" fill="#c10505" opacity="0.46" style="mix-blend-mode: multiply"/>
          <path d="M267,819c-32-37-76-103-81-195s-27-156-27-156S68,726,68,730s2,74,2,74Z" fill="#c10505" opacity="0.46" style="mix-blend-mode: multiply"/>
          <path d="M275,269s171,53,438,10l-5.11-51.76L272,237Z" fill="#c10505" opacity="0.46" style="mix-blend-mode: multiply"/>
        </g>
      </g>
      <g>
        <path d="M288,198s198-25,412,0c0,0,9,52,0,75,0,0-288,19-412-8C288,265,272,227,288,198Z" fill="#f23636"/>
        <g clip-path="url(#b8c8a8f9-d6d7-42a9-b4ae-0737dac9dc78)">
          <path d="M539,163c20,12,62,41,76,63s13,61-9,80l123-27-4-129Z" fill="#ea2727"/>
        </g>
      </g>
    </g>
  </g>
</svg>
