<svg xmlns="http://www.w3.org/2000/svg" xmlns:xlink="http://www.w3.org/1999/xlink" viewBox="0 0 1000 1000"><defs><clipPath id="afd57315-cb3f-49be-a8d6-ee171e02c6d4"><path d="M408.06,294.64C287,173.53,166.55,265,166.55,265L302.13,400.58,437.71,536.15S529.18,415.76,408.06,294.64Z" style="fill:#2abf12"/></clipPath><clipPath id="f1982811-04c8-4a05-8865-d5a74f15ce96"><path d="M441.85,342.61s-30.71-10.6-50.93-30.82-30.83-50.93-30.83-50.93l58-58s31.73,20.14,46.68,35.08,35.07,46.68,35.07,46.68Z" style="fill:#45cc29"/></clipPath><clipPath id="a4ebe19d-c0cd-4577-bc73-f31c9f439c53"><path d="M693.77,554.76h32.36a9.82,9.82,0,0,1,9.82,9.82V782.76a0,0,0,0,1,0,0h-52a0,0,0,0,1,0,0V564.58A9.82,9.82,0,0,1,693.77,554.76Z" style="fill:#2abf12"/></clipPath><clipPath id="a2653762-f9e2-4f88-b47b-b56b9ba08fcb"><rect x="441.45" y="772.26" width="392" height="69" rx="12.43" style="fill:#2abf12"/></clipPath></defs><g id="b1443520-9aba-424a-9ddb-da6ba9be47c7" data-name="Layer 3"><g id="ac462274-dd55-4c9e-962b-ec756b655d2a" data-name="Layer 4"><path d="M441.45,257.26s145.73-166,234-67c65.5,73.5,20.5,637.5,20.5,637.5" style="fill:none;stroke:#4a4c54;stroke-miterlimit:10;stroke-width:25px"/><path d="M408.06,294.64C287,173.53,166.55,265,166.55,265L302.13,400.58,437.71,536.15S529.18,415.76,408.06,294.64Z" style="fill:#2abf12"/><g style="clip-path:url(#afd57315-cb3f-49be-a8d6-ee171e02c6d4)"><path d="M365,247s50,69,60,142-106,56-106,56L450,555l41-88L475,343Z" style="fill:#176800;opacity:0.5"/><path d="M313,247c18.08-2.46-61.24-23-121,15-11,7,30,38,42,51S210,261,313,247Z" style="fill:#60db42"/></g><path d="M441.85,342.61s-30.71-10.6-50.93-30.82-30.83-50.93-30.83-50.93l58-58s31.73,20.14,46.68,35.08,35.07,46.68,35.07,46.68Z" style="fill:#45cc29"/><g style="clip-path:url(#f1982811-04c8-4a05-8865-d5a74f15ce96)"><path d="M441,203s22,128-50,109h0l1,16,60,25.92L483,332l28-50-28-50Z" style="fill:#176800;opacity:0.5"/><path d="M418,213s-47,47-48,50,13,31,16,32-7-24,3-38S428,213,418,213Z" style="fill:#60db42"/></g><rect x="491.45" y="758.26" width="40" height="24" style="fill:#232533"/><path d="M693.77,554.76h32.36a9.82,9.82,0,0,1,9.82,9.82V782.76a0,0,0,0,1,0,0h-52a0,0,0,0,1,0,0V564.58A9.82,9.82,0,0,1,693.77,554.76Z" style="fill:#2abf12"/><g style="clip-path:url(#a4ebe19d-c0cd-4577-bc73-f31c9f439c53)"><path d="M701,548s15,7,22,48,4,156-1,166-47,5-47,5l9,16,66.4-10.74L754,719,743,546Z" style="fill:#176800;opacity:0.5"/></g><rect x="441.45" y="772.26" width="392" height="69" rx="12.43" style="fill:#2abf12"/><g style="clip-path:url(#a2653762-f9e2-4f88-b47b-b56b9ba08fcb)"><path d="M750,772s48-4,50,35c.88,17.24-124,46-224,40l277-3-20-83Z" style="fill:#176800;opacity:0.5"/></g></g></g></svg>