<svg xmlns="http://www.w3.org/2000/svg" xmlns:xlink="http://www.w3.org/1999/xlink" viewBox="0 0 1000 1000"><defs><clipPath id="b223c546-985b-492c-9239-684a09762e02"><path d="M219.9,233.38s120,60,282,45,241-31,241-31l-44,89-188,24-166-39-108-40Z" style="fill:#1e8c03"/></clipPath><clipPath id="ed234518-6114-4c26-b068-ce5a77fa2939"><path d="M212.9,259.38c-8,24-15,83-25,110s-40,83-49,124-41,162-40,171,388,59,388,59,7-76,7-92,9-41,9-41,38,104,83,126,296-89,296-89-58-136-71-155-25-54-29-81-36-139-40-144-119,70-233,71-289-85-289-85Z" style="fill:#2bbf11"/></clipPath><clipPath id="f8dc1f74-cbfc-497d-8413-dab9da0c7d55"><circle cx="516.9" cy="346.38" r="14" style="fill:#ffd522"/></clipPath><clipPath id="ea4c75c8-ecd5-4ff2-80c9-cb8d5d3e87a1"><path d="M110.9,702.38c-12.26-6.61-29-3-25-30s4-43,25-41,167,34,213,40,165,15,170,31,5,55-8,61S225.9,764.38,110.9,702.38Z" style="fill:#62e03f"/></clipPath><clipPath id="bcb793a5-ff2f-4dff-ae4c-5d469ec96194"><path d="M576.9,738.38c-5-17-17-33,12-40s163-29,186-41,92-46.83,107-40.91,43,40.91,29,56.91-179,68-217,79-88,17-98,13S576.9,738.38,576.9,738.38Z" style="fill:#62e03f"/></clipPath></defs><g id="e4930da0-2e15-4c70-8e2d-dab7f84946bf" data-name="Layer 3"><g id="aacc291b-d284-43e9-b3ae-992deda78b3f" data-name="Layer 4"><path d="M219.9,233.38s120,60,282,45,241-31,241-31l-44,89-188,24-166-39-108-40Z" style="fill:#1e8c03"/><g style="clip-path:url(#b223c546-985b-492c-9239-684a09762e02)"><path d="M722.9,244.38c-2,2-166,62-195,65s-140-1-267-65l-57-19,16,35,289,86,170-53,81-37-12-23Z" style="fill:#176800;opacity:0.5"/></g><path d="M212.9,259.38c-8,24-15,83-25,110s-40,83-49,124-41,162-40,171,388,59,388,59,7-76,7-92,9-41,9-41,38,104,83,126,296-89,296-89-58-136-71-155-25-54-29-81-36-139-40-144-119,70-233,71-289-85-289-85Z" style="fill:#2bbf11"/><g style="clip-path:url(#ed234518-6114-4c26-b068-ce5a77fa2939)"><path d="M505,592.62c16.82-9.65,32.33-20.87,44.93-35.71a1.64,1.64,0,0,0-2.32-2.32c-14.14,12.36-28.76,24.44-45,34-2.6,1.53-.26,5.55,2.37,4Z" style="fill:#1e8c03"/><path d="M504.68,588.4c-8.09-3.58-14.37-11.32-20.57-17.42-7-6.89-14.08-13.63-21.68-19.89a2,2,0,0,0-2.85,2.85c6.83,8.41,14.27,16.15,21.89,23.84,6.3,6.37,12.16,13.25,20.75,16.45,3.35,1.24,5.77-4.37,2.46-5.83Z" style="fill:#1e8c03"/><path d="M207.09,285.4c29.47,22,65.82,31.64,100.14,43.28,19.79,6.71,39.71,13.11,59.6,19.51,19.08,6.14,38.1,12.48,57.5,17.56,38.78,10.16,78.53,14.59,118.53,11.28,38.4-3.18,76.57-12.69,113.12-24.66,36.19-11.85,72.6-27.68,104.32-48.95a1.78,1.78,0,0,0-1.8-3.08C742.94,308.09,728,317,712.36,324.65q-22.08,10.89-45.18,19.56c-36,13.53-72.85,23.34-111.17,27.46-38.84,4.17-79.79,3.58-117.84-5.95-39-9.78-76.84-23.06-114.92-35.92-20.17-6.8-40.39-13.42-60.59-20.13-19.22-6.37-37.79-14.54-55-25.32-.67-.42-1.22.6-.61,1Z" style="fill:#1e8c03"/><path d="M485.53,319.92c1,38-1.12,76-8.09,113.4q-2.55,13.6-5.81,27.05c-2.07,8.54-4.88,17.09-6.35,25.75-1.08,6.34-.38,13,4.84,17.4,4.56,3.81,10.81,4.81,16.52,5.55,20.71,2.71,42.56,2.79,63.1-1.4,3.11-.63,2.46-6-.76-5.61-17.31,2.27-34.32,3.8-51.8,2.81-7.07-.4-16.32-.06-22.53-4-8.15-5.24-3.92-15.89-1.86-23.31,9-32.33,14-66,16.33-99.41a459.29,459.29,0,0,0,.44-58.19c-.14-2.58-4.1-2.61-4,0Z" style="fill:#1e8c03"/><path d="M552.2,378.38c-3.73,21.82-6.9,43.72-10.15,65.62-1.51,10.22-2.81,20.45-4,30.71-.63,5.52-1.21,11-1.81,16.55-.56,5.14-2.28,11.22-.86,16.24.54,1.89,3.52,2.55,4.46.59,2-4.23,1.6-9.28,1.94-13.9.38-5.2.84-10.39,1.3-15.59,1-11,2.07-22,3.07-33.06,2-22.26,5-44.45,8.2-66.56.2-1.41-1.92-2-2.17-.6Z" style="fill:#1e8c03"/><path d="M365.53,357.61a431.1,431.1,0,0,0,15.06-58.24c.29-1.56.65-3.27,1.9-4.26,1.47-1.15,3.58-.86,5.41-.51l18.2,3.47c-4,5.42-5.6,12.22-7.15,18.79q-5.08,21.63-11.14,43c-.31,1.08-.78,2.34-1.87,2.64a3.36,3.36,0,0,1-2.23-.46l-15.64-7.27" style="fill:#2bbf11"/><path d="M366.1,357.94c3.2-5,4.36-12.29,6.13-18,2.15-6.89,4.24-13.79,6.14-20.75.91-3.32,1.9-6.62,2.67-10,.67-3,.68-7,2-9.82,2.07-4.46,8.05-1.77,11.51-1s7.19,1.7,10.8,2.48l-1.76-4.34c-7.29,10.64-8.63,25.1-11.73,37.35-1.75,6.87-3.83,13.65-5.92,20.42-.19.59-.83,4.37-1.44,4.61a43,43,0,0,1-4.66-1.55c-3.5-1.5-6.87-3.41-10.27-5.12s-6.3,3.57-2.93,5c4.07,1.75,8.45,3.23,12.31,5.41,2.56,1.45,4.67,4,7.93,3.11,5.77-1.53,6.25-12.77,7.31-17.22,2-8.46,4.18-16.88,6.24-25.33,2-8.18,3.35-16.67,8.25-23.71a3,3,0,0,0-1.76-4.33c-4.28-.72-8.57-1.32-12.86-2-3.2-.48-7.07-1.76-10.32-1.1-6.3,1.29-6,10-7,14.9-1.7,8.64-3.13,17.29-5.12,25.88-1,4.28-2.13,8.52-3.31,12.75-1.09,3.95-3.1,7.84-3.39,11.92,0,.69.9.85,1.23.33Z" style="fill:#1e8c03"/><path d="M609.2,296.32,630.47,288a4.11,4.11,0,0,1,3.07-.35,4.06,4.06,0,0,1,1.73,2c6,11.48,9.47,24.08,12.91,36.57l9,32.5a3.23,3.23,0,0,1-.11,2.79,3.13,3.13,0,0,1-2,.93l-16.35,3.09a3.8,3.8,0,0,1-2.52-.12,3.72,3.72,0,0,1-1.4-2.2,622,622,0,0,1-19-69.4" style="fill:#2bbf11"/><path d="M609.42,297.14c3.68-.94,7.39-1.69,11.06-2.65,1.85-.47,3.63-1,5.43-1.64,1.14-.39,4.12-2.14,5.37-1.9,2.91.57,4.66,7,5.73,9.58,1.4,3.42,2.68,6.91,3.88,10.41,5.17,15,9,30.27,13,45.6.58,2.23,1.23,2.54-.47,3.63-1.28.83-4,.71-5.47.93l-5.52.79-2.76.39c-1.76.25-2.73-.41-2.9-2-2-2.84-2.64-8.05-3.73-11.34-1.19-3.6-2.46-7.18-3.65-10.78-2.39-7.26-4.63-14.38-6.49-21.8-1.93-7.69-2.87-15.56-4.71-23.25-.78-3.25-5.59-1.85-5,1.37,1.86,9.79,5,19.71,7.76,29.29s4.47,19.7,7.52,29.37c.76,2.41,1.63,4.78,2.36,7.2.55,1.8.76,4,1.68,5.7,1.51,2.73,4.18,3,6.94,2.46,4.83-.9,9.58-2.27,14.39-3.28,2.8-.58,5.53-1.07,6-4.37.56-3.85-2-8.7-3.11-12.32-1.54-5.06-3-10.15-4.44-15.24-2.75-9.67-4.59-19.56-7.76-29.13a123.35,123.35,0,0,0-5-12.73c-1.35-2.91-2.55-6.17-6-6.87-3.65-.73-8.42,2.29-11.58,3.78-4.53,2.13-8.78,4.85-13.19,7.23a.85.85,0,0,0,.65,1.55Z" style="fill:#1e8c03"/><path d="M659.45,349.79A65.6,65.6,0,0,0,678.25,378c9.37,8.5,20.1,13.8,31.63,18.75a118.94,118.94,0,0,0,18.53,6c7,1.76,13.91,4.15,21,5.8a154.51,154.51,0,0,0,20.79,3.82c4.9.44,12.75,1.5,16-3a1.61,1.61,0,0,0-.57-2.18c-2.17-1.39-3.73-1-6.25-.86a77.21,77.21,0,0,1-10.09,0c-6.83-.5-13.51-2-20.22-3.3-6-1.16-12-1.82-17.87-3.41-6.11-1.65-12.08-3.82-18.07-5.85-21.44-7.3-41.7-23.42-49.66-45.09-.91-2.46-4.82-1.46-4,1.1Z" style="fill:#1e8c03"/><path d="M172.48,408.88C201,407.7,230.1,402,255,387.51c11-6.38,20.45-14.41,27.71-24.87,7.85-11.28,13.24-25,18.31-37.71,1.25-3.13-3.85-4.53-5.06-1.4-4.77,12.38-9.42,24-17.26,34.79-7.35,10.12-17.36,18.6-28,25.09a148,148,0,0,1-78.23,21.25c-2.72-.05-2.72,4.33,0,4.22Z" style="fill:#1e8c03"/><path d="M541.4,296.88s120,32,186,138,81,194,55,204-123,39-146,42-79,24-79,24l24,55,326-137-161-401Z" style="fill:#176800;opacity:0.5"/><path d="M502.9,590.38s-51,54-84,71-216-16-239-21-81-18-81-18l8,37,403,54-7-123" style="fill:#176800;opacity:0.5"/><circle cx="518.9" cy="349.38" r="14" style="fill:#229e08"/><circle cx="516.9" cy="346.38" r="14" style="fill:#ffd522"/><g style="clip-path:url(#f8dc1f74-cbfc-497d-8413-dab9da0c7d55)"><circle cx="513.9" cy="343.38" r="2" style="fill:#232533"/><circle cx="519.9" cy="343.38" r="2" style="fill:#232533"/><circle cx="513.9" cy="349.38" r="2" style="fill:#232533"/><circle cx="519.9" cy="349.38" r="2" style="fill:#232533"/></g></g><path d="M110.9,702.38c-12.26-6.61-29-3-25-30s4-43,25-41,167,34,213,40,165,15,170,31,5,55-8,61S225.9,764.38,110.9,702.38Z" style="fill:#62e03f"/><g style="clip-path:url(#ea4c75c8-ecd5-4ff2-80c9-cb8d5d3e87a1)"><path d="M406.21,672s47.69,21.24,54.69,34.8-9,65.57-159,39.57-217-39-217-39l222,67,190,1,27-62-16-39Z" style="fill:#176800;opacity:0.15"/></g><path d="M576.9,738.38c-5-17-17-33,12-40s163-29,186-41,92-46.83,107-40.91,43,40.91,29,56.91-179,68-217,79-88,17-98,13S576.9,738.38,576.9,738.38Z" style="fill:#62e03f"/><g style="clip-path:url(#bcb793a5-ff2f-4dff-ae4c-5d469ec96194)"><path d="M753.31,648.77s89.59-30.39,115.59-4.39-86.3,83.83-241.15,120.91h0l8.15,25.09,307-116-51-89Z" style="fill:#176800;opacity:0.15"/></g></g></g></svg>