<svg xmlns="http://www.w3.org/2000/svg" xmlns:xlink="http://www.w3.org/1999/xlink" viewBox="0 0 1000 1000"><defs><clipPath id="bcbb9d6f-759f-4126-bb9d-f78296571da7"><path d="M526,871.86s-7,8-26,8-26-8-26-8v-140h52Z" style="fill:#c15c00"/></clipPath><clipPath id="aaec2765-075f-49c1-a51f-d16008619867"><path d="M808.41,637.48c-71.85-36.84-252.76-267.22-298-325.77a13.13,13.13,0,0,0-20.78,0c-45.26,58.55-226.17,288.93-298,325.77-86.4,44.31,173.61,117.31,307.58,117.9h1.66C634.8,754.79,894.81,681.79,808.41,637.48Z" style="fill:#2bbf11"/></clipPath><clipPath id="fb02895d-b83d-4b05-a268-c6d52cfbc719"><path d="M691.23,398c-44.54-22.85-156.72-165.7-184.79-202a8.13,8.13,0,0,0-12.88,0c-28.07,36.3-140.25,179.15-184.79,202-53.58,27.47,107.64,72.73,190.72,73.1h1C583.59,470.76,744.81,425.5,691.23,398Z" style="fill:#2bbf11"/></clipPath><clipPath id="af3c749b-b245-4599-9b86-31d1ad1c9209"><path d="M638.63,268.86C606.34,252.3,525,148.75,504.67,122.43a5.9,5.9,0,0,0-9.34,0C475,148.75,393.66,252.3,361.37,268.86c-38.84,19.92,78,52.73,138.26,53h.74C560.59,321.59,677.47,288.78,638.63,268.86Z" style="fill:#2bbf11"/></clipPath></defs><g id="b04a9ade-4469-48fd-92de-a4736886732a" data-name="Layer 3"><g id="b9b64014-3575-4351-ac00-5c9fc4bcb1a1" data-name="Layer 4"><path d="M526,871.86s-7,8-26,8-26-8-26-8v-140h52Z" style="fill:#c15c00"/><g style="clip-path:url(#bcbb9d6f-759f-4126-bb9d-f78296571da7)"><path d="M474,760.52s30,4.34,37,7.34,10,92-6,100-53-5-53-5l43,32,43-9,3-146H464l10,20.66h0" style="fill:#a05000"/></g><path d="M808.41,637.48c-71.85-36.84-252.76-267.22-298-325.77a13.13,13.13,0,0,0-20.78,0c-45.26,58.55-226.17,288.93-298,325.77-86.4,44.31,173.61,117.31,307.58,117.9h1.66C634.8,754.79,894.81,681.79,808.41,637.48Z" style="fill:#2bbf11"/><g style="clip-path:url(#aaec2765-075f-49c1-a51f-d16008619867)"><path d="M358,455.86s32,27,155,30c41,1,146,264-174,256,0,0,177,65,335,14s175-107,175-107l-230-221-256,7Z" style="fill:#176800;opacity:0.5"/></g><path d="M691.23,398c-44.54-22.85-156.72-165.7-184.79-202a8.13,8.13,0,0,0-12.88,0c-28.07,36.3-140.25,179.15-184.79,202-53.58,27.47,107.64,72.73,190.72,73.1h1C583.59,470.76,744.81,425.5,691.23,398Z" style="fill:#2bbf11"/><g style="clip-path:url(#fb02895d-b83d-4b05-a268-c6d52cfbc719)"><path d="M385,306.86s25,25,134,25c29,0,47.88,145.55-58.06,139.28h0S634,517.86,732,404.86l-144-125Z" style="fill:#176800;opacity:0.5"/></g><path d="M638.63,268.86C606.34,252.3,525,148.75,504.67,122.43a5.9,5.9,0,0,0-9.34,0C475,148.75,393.66,252.3,361.37,268.86c-38.84,19.92,78,52.73,138.26,53h.74C560.59,321.59,677.47,288.78,638.63,268.86Z" style="fill:#2bbf11"/><g style="clip-path:url(#af3c749b-b245-4599-9b86-31d1ad1c9209)"><path d="M496,106.86s80,227-24,221c0,0,118,50,199-57Z" style="fill:#176800;opacity:0.5"/></g></g></g></svg>