<svg xmlns="http://www.w3.org/2000/svg" xmlns:xlink="http://www.w3.org/1999/xlink" viewBox="0 0 1000 1000"><defs><clipPath id="b65211ba-e461-4b63-a70c-4bdec980ceed"><path d="M514.64,471.3s-105-147.78-122.85-182.5-14.25-84.57,16.91-118.39,112.12-75.8,163.8-41.84c31.16,20.47,56.08,50.74,56.08,50.74S686.45,166.85,729.17,190s78.34,81,71.22,128.19S725.61,425.9,637.48,444.59,514.64,471.3,514.64,471.3Z" style="fill:#2bbf11"/></clipPath><clipPath id="a51b91f0-85f2-41fd-8d0b-3440eb655c23"><path d="M512.86,491.77s136.2-39.17,191.39-45.4,118.4,11.57,141.54,63.21,32.94,133.53-85.46,164.68c0,0,10.68,57.87-39.17,105s-128.19,49-173.59-9.79S498.61,614.62,504,563,512.86,491.77,512.86,491.77Z" style="fill:#2bbf11"/></clipPath><clipPath id="bffc1dd7-e668-4bb2-bdd3-e8e374e4a7ad"><path d="M490.6,483.76S430.07,377.82,389.12,333.31s-127.3-87.24-190.51-25.81-42.73,105-36.5,122.85,17.81,40.95,17.81,40.95-57.87,79.22-34.72,132.64S249.35,692.07,325,671.59,490.6,483.76,490.6,483.76Z" style="fill:#2bbf11"/></clipPath></defs><g id="aa63d7bf-2ca1-47b8-93e9-2a9280b4f540" data-name="Layer 3"><g id="b8930095-c36b-4d0b-a65c-019dc1de2efc" data-name="Layer 4"><path d="M534.22,430.35S454.1,577.23,460.33,677.82s89.39,170.49,134.42,190.51c8,3.56,0,18.69-12.46,15.13S471,844.29,453.21,711.65,519.09,445.48,534.22,430.35Z" style="fill:#176800;opacity:0.5"/><path d="M483.05,477.21s31.59,15.45,49.39,14.56l-8,8s-16.92-4.45-40.95-16Z" style="fill:#176800;opacity:0.5"/><path d="M514.64,471.3s-105-147.78-122.85-182.5-14.25-84.57,16.91-118.39,112.12-75.8,163.8-41.84c31.16,20.47,56.08,50.74,56.08,50.74S686.45,166.85,729.17,190s78.34,81,71.22,128.19S725.61,425.9,637.48,444.59,514.64,471.3,514.64,471.3Z" style="fill:#2bbf11"/><g style="clip-path:url(#b65211ba-e461-4b63-a70c-4bdec980ceed)"><path d="M627.69,150.82s2.67,181.6-113.05,320.48c-103.27,123.92,44.87,0,44.87,0L787,408.09l73-141.54L742.53,141.92Z" style="fill:#176800;opacity:0.5"/><path d="M444.17,257.94c14.61-7.25,28.44-15.37,41.22-25.53,1.41-1.12-.47-3.59-1.93-2.5-12.85,9.58-26.1,18.82-40.14,26.57-1,.53-.12,1.94.85,1.46Z" style="fill:#2bbf11"/><path d="M606.66,300c-9.21,31.46-22.92,61.4-39.53,89.61-8,13.65-16.84,26.92-25.87,39.93-9.32,13.44-19.87,25.94-29.17,39.39-1.27,1.85,1.43,3.59,2.95,2.27,12.23-10.6,22.1-23.51,31.57-36.57a321.1,321.1,0,0,0,25.94-42.83c14.89-29.18,25.88-60.16,34.2-91.78,0-.06-.08-.08-.09,0Z" style="fill:#1e8c07"/></g><path d="M512.86,491.77s136.2-39.17,191.39-45.4,118.4,11.57,141.54,63.21,32.94,133.53-85.46,164.68c0,0,10.68,57.87-39.17,105s-128.19,49-173.59-9.79S498.61,614.62,504,563,512.86,491.77,512.86,491.77Z" style="fill:#2bbf11"/><g style="clip-path:url(#a51b91f0-85f2-41fd-8d0b-3440eb655c23)"><path d="M510.18,491.77S634.81,595.93,780.81,685.84l-12.47,73-72.1,73-105-6.23-66.76-62.32L483.48,632.42l26.7-140.65" style="fill:#176800;opacity:0.5"/><path d="M652.77,599.2a396.32,396.32,0,0,0-34.95-29.34c-12.81-9.42-25.75-18.67-38.45-28.24s-24.81-19.69-37-29.72c-6-4.93-11.9-10-17.76-15.09-5-4.36-11.2-12.09-18-13.26a3,3,0,0,0-3.63,3.63c1.52,6.77,9.68,12.27,14.65,16.59,6.09,5.3,12.41,10.36,18.78,15.33,12.1,9.46,24.85,17.94,37.35,26.84,12.72,9,25.39,18.11,37.88,27.46,12.92,9.67,26.18,18.81,39.17,28.38,1.5,1.11,3.34-1.32,2-2.58Z" style="fill:#1e8c07"/></g><path d="M490.6,483.76S430.07,377.82,389.12,333.31s-127.3-87.24-190.51-25.81-42.73,105-36.5,122.85,17.81,40.95,17.81,40.95-57.87,79.22-34.72,132.64S249.35,692.07,325,671.59,490.6,483.76,490.6,483.76Z" style="fill:#2bbf11"/><g style="clip-path:url(#bffc1dd7-e668-4bb2-bdd3-e8e374e4a7ad)"><path d="M161.22,470.41S317,493.55,498.61,483.76s-69.43,137.09-69.43,137.09L322.35,731.24l-138-36.5-81.9-44.51Z" style="fill:#176800;opacity:0.5"/><path d="M325.49,485.51c29.56,3.07,59.1,5.89,88.87,6.28,14.62.19,29.23.26,43.85,0,7.13-.12,14.23-.63,21.33-1.29,7.26-.67,14.55-.93,21.17-4.19,2.65-1.3,2.24-6.23-.87-6.68-7.11-1-13.87.58-20.93,1.52-7.21,1-14.45,1.72-21.68,2.54a396.37,396.37,0,0,1-43.85,2.38c-29.31.06-58.62-.82-87.89-1.48-.62,0-.59.87,0,.93Z" style="fill:#1e8c07"/></g></g></g></svg>