<svg xmlns="http://www.w3.org/2000/svg" xmlns:xlink="http://www.w3.org/1999/xlink" viewBox="0 0 1000 1000">
  <defs>
    <clipPath id="a840b3ff-aa2e-4b28-8607-3cc63936b9d7">
      <path d="M338.11,425.81s17.81-178.09,105.58-113.22c73.76,54.53,20.35,105.58-80.14,142.47Z" fill="#4d88ce"/>
    </clipPath>
    <clipPath id="f4520198-5d00-4c99-a46f-3ab255f4264f">
      <path d="M356.9,452.76s187.27-45.12,160.89,62.54C488,636.76,341.2,472.36,341.2,472.36Z" fill="#4d88ce"/>
    </clipPath>
    <clipPath id="ae4713bd-c5f6-4e3e-8349-6585678312ed">
      <path d="M345.74,469.06S483.12,623,377.54,644.6c-92,18.83-106.85-75.05-53.42-175.54Z" fill="#4d88ce"/>
    </clipPath>
    <clipPath id="ba365b5f-8759-459f-8f38-0fb9bd286094">
      <path d="M318.48,444.31S139.1,392,161.27,505.77c11.23,57.65,73.23,75.37,164.23-31.5l-4.85-20.69Z" fill="#4d88ce"/>
    </clipPath>
    <clipPath id="f20d6012-adb3-466e-bf41-be293a84f7cb">
      <path d="M338.12,458.51S128.65,399.18,222.6,319.58c94.76-80.29,127.65,133.5,127.65,133.5Z" fill="#4d88ce"/>
    </clipPath>
    <clipPath id="b3602a63-14a2-4d05-9872-576bef34d7f4">
      <path d="M689.15,305.55S852.35,232.06,840,340.5c-10.41,91.14-81.32,70.35-163.45,1.7Z" fill="#4d88ce"/>
    </clipPath>
    <clipPath id="e31f15ea-dd63-4b6b-98d5-f26d63d3c5a1">
      <path d="M675.18,335.29S807.77,475,701.33,505.91c-120.1,34.86-51-174.43-51-174.43Z" fill="#4d88ce"/>
    </clipPath>
    <clipPath id="a0a54ff0-357e-4bf7-83c4-aba538d721e7">
      <path d="M655.61,334S591.16,530.4,519.47,449.3C457,378.66,530.9,318.81,644.76,315.14Z" fill="#4d88ce"/>
    </clipPath>
    <clipPath id="f017df84-b653-4471-88e9-7a9c419b821f">
      <path d="M663.32,297.79S619.05,116.27,531.58,192.25c-44.35,38.52-28.75,101.09,109.28,126.57l15.51-14.52Z" fill="#4d88ce"/>
    </clipPath>
    <clipPath id="a86fa7b4-3311-4b5f-9c1e-e0848c150831">
      <path d="M660.83,321.89s-53.18-211.12,62.69-169.46c116.88,42-51.94,177.26-51.94,177.26Z" fill="#4d88ce"/>
    </clipPath>
    <clipPath id="a347a76f-f904-4fa6-ab56-88c3a0b00682">
      <path d="M582,695.19s-167.88,62-148-45.29c16.68-90.2,86-64.56,163.18,9.6Z" fill="#4d88ce"/>
    </clipPath>
    <clipPath id="fa3faf33-58eb-4974-a9d9-907bbea00043">
      <path d="M598,666.49s-122.61-148.56-14.29-172C706,468,622.52,672,622.52,672Z" fill="#4d88ce"/>
    </clipPath>
    <clipPath id="b5deee33-4f92-449b-bb0b-898ae82f7c77">
      <path d="M617.56,669.38s78.15-190.94,143.85-105.51c57.23,74.4-20.63,128.94-134.37,125Z" fill="#4d88ce"/>
    </clipPath>
    <clipPath id="afed83a8-2a75-48d2-8cf6-955f705d5c2f">
      <path d="M607.27,704.72S638.88,888.87,731.4,819.11c46.9-35.36,35.66-98.86-100.28-133.82l-16.47,13.42Z" fill="#4d88ce"/>
    </clipPath>
    <clipPath id="bff7c016-68e4-48e7-a8e8-df374712c4a1">
      <path d="M611.42,680.85s38.46,214.29-74.26,164.72c-113.69-50,64.07-173.24,64.07-173.24Z" fill="#4d88ce"/>
    </clipPath>
    <clipPath id="b9fe5047-b517-4c91-90d2-36c4ef90f82a">
      <circle cx="340.65" cy="456.33" r="33.07" fill="#ffba1f"/>
    </clipPath>
    <clipPath id="add90185-b420-4fdf-a393-3e3069bd7638">
      <circle cx="663.97" cy="323" r="33.07" fill="#ffba1f"/>
    </clipPath>
    <clipPath id="b53446a1-1a39-411f-a3c8-02824bd4dd7a">
      <circle cx="608.35" cy="679.53" r="33.07" fill="#ffba1f"/>
    </clipPath>
  </defs>
  <g id="ff485d03-f083-425f-8b53-4edf6ac385ca" data-name="Layer 3">
    <g id="b4d6bb26-419f-4fb1-89aa-dbff2b1dbdfd" data-name="Layer 4">
      <g>
        <g>
          <path d="M338.11,425.81s17.81-178.09,105.58-113.22c73.76,54.53,20.35,105.58-80.14,142.47Z" fill="#4d88ce"/>
          <g clip-path="url(#a840b3ff-aa2e-4b28-8607-3cc63936b9d7)">
            <path d="M396.63,293.29s51,16,52,69-98,93-98,93h47l71-42,31-43-16-39-40-33-43-17Z" fill="#0d6099" opacity="0.5"/>
          </g>
        </g>
        <g>
          <path d="M356.9,452.76s187.27-45.12,160.89,62.54C488,636.76,341.2,472.36,341.2,472.36Z" fill="#4d88ce"/>
          <g clip-path="url(#f4520198-5d00-4c99-a46f-3ab255f4264f)">
            <path d="M423.63,440.29s67-5,65,61S407.82,532.71,391.72,520h0l9.91,17.29,40,28,58,2,21-25,14-41-14-25-18-26-35-18Z" fill="#0d6099" opacity="0.5"/>
          </g>
        </g>
        <g>
          <path d="M345.74,469.06S483.12,623,377.54,644.6c-92,18.83-106.85-75.05-53.42-175.54Z" fill="#4d88ce"/>
          <g clip-path="url(#ae4713bd-c5f6-4e3e-8349-6585678312ed)">
            <path d="M350.25,474.29s43.38,76,42.38,131-100,38-103-5l13,42s52,26,53,26,48-16,48-16l20-23,7-41-30-53-41-67-9.38,6" fill="#0d6099" opacity="0.5"/>
          </g>
        </g>
        <g>
          <path d="M318.48,444.31S139.1,392,161.27,505.77c11.23,57.65,73.23,75.37,164.23-31.5l-4.85-20.69Z" fill="#4d88ce"/>
          <g clip-path="url(#ba365b5f-8759-459f-8f38-0fb9bd286094)">
            <path d="M203.63,432.29s65-3,82,32-28,78-28,78l36-28,32-40,7-42-79-3Z" fill="#0d6099" opacity="0.5"/>
          </g>
        </g>
        <g>
          <path d="M338.12,458.51S128.65,399.18,222.6,319.58c94.76-80.29,127.65,133.5,127.65,133.5Z" fill="#4d88ce"/>
          <g clip-path="url(#f20d6012-adb3-466e-bf41-be293a84f7cb)">
            <path d="M217.63,319.29s65.73-48.94,128.36,116h0l4.64-26-57-116-45-7Z" fill="#0d6099" opacity="0.5"/>
          </g>
        </g>
        <g>
          <path d="M689.15,305.55S852.35,232.06,840,340.5c-10.41,91.14-81.32,70.35-163.45,1.7Z" fill="#4d88ce"/>
          <g clip-path="url(#b3602a63-14a2-4d05-9872-576bef34d7f4)">
            <path d="M727.12,289.92s99.51-14.63,91.51,46.37-69,60-69,60l73,20,44-67-33-74-53-7-53.51,21.63" fill="#0d6099" opacity="0.5"/>
          </g>
        </g>
        <g>
          <path d="M675.18,335.29S807.77,475,701.33,505.91c-120.1,34.86-51-174.43-51-174.43Z" fill="#4d88ce"/>
          <g clip-path="url(#e31f15ea-dd63-4b6b-98d5-f26d63d3c5a1)">
            <path d="M673.63,341.29s39,59,47,98-24,69-47,75l46-7,39-44-5-37-77-91Z" fill="#0d6099" opacity="0.5"/>
          </g>
        </g>
        <g>
          <path d="M655.61,334S591.16,530.4,519.47,449.3C457,378.66,530.9,318.81,644.76,315.14Z" fill="#4d88ce"/>
          <g clip-path="url(#a0a54ff0-357e-4bf7-83c4-aba538d721e7)">
            <path d="M594.63,319.29s62,20,5,126,15-8,15-8l44-96,5-35Z" fill="#0d6099" opacity="0.5"/>
          </g>
        </g>
        <g>
          <path d="M663.32,297.79S619.05,116.27,531.58,192.25c-44.35,38.52-28.75,101.09,109.28,126.57l15.51-14.52Z" fill="#4d88ce"/>
          <g clip-path="url(#f017df84-b653-4471-88e9-7a9c419b821f)">
            <path d="M523.63,191.29s59-22,90,27,41,101,41,101l15-25-12-43-64-99Z" fill="#0d6099" opacity="0.5"/>
          </g>
        </g>
        <g>
          <path d="M660.83,321.89s-53.18-211.12,62.69-169.46c116.88,42-51.94,177.26-51.94,177.26Z" fill="#4d88ce"/>
          <g clip-path="url(#a86fa7b4-3311-4b5f-9c1e-e0848c150831)">
            <path d="M650.63,173.29s68-37,88,21-57,121-57,121l49-14,60-73-26-88-78-10-38,17Z" fill="#0d6099" opacity="0.5"/>
          </g>
        </g>
        <g>
          <path d="M582,695.19s-167.88,62-148-45.29c16.68-90.2,86-64.56,163.18,9.6Z" fill="#4d88ce"/>
          <g clip-path="url(#a347a76f-f904-4fa6-ab56-88c3a0b00682)">
            <path d="M536.63,607.29s28,28,27,54-36,50-60,55l53.5-8.12,43.5-13.88L602.25,647Z" fill="#0d6099" opacity="0.5"/>
          </g>
        </g>
        <g>
          <path d="M598,666.49s-122.61-148.56-14.29-172C706,468,622.52,672,622.52,672Z" fill="#4d88ce"/>
          <g clip-path="url(#fa3faf33-58eb-4974-a9d9-907bbea00043)">
            <path d="M560.63,498.29s50-8,67,25-1.23,133.19-1.23,133.19l17.23-8.19,15-132-41-35Z" fill="#0d6099" opacity="0.5"/>
          </g>
        </g>
        <g>
          <path d="M617.56,669.38s78.15-190.94,143.85-105.51c57.23,74.4-20.63,128.94-134.37,125Z" fill="#4d88ce"/>
          <g clip-path="url(#b5deee33-4f92-449b-bb0b-898ae82f7c77)">
            <path d="M692.63,552.29s31-9,53,27-4.08,84.35-61,110l55-10,39-31,13-40-19-48-34-29-45,4Z" fill="#0d6099" opacity="0.5"/>
          </g>
        </g>
        <g>
          <path d="M607.27,704.72S638.88,888.87,731.4,819.11c46.9-35.36,35.66-98.86-100.28-133.82l-16.47,13.42Z" fill="#4d88ce"/>
          <g clip-path="url(#afed83a8-2a75-48d2-8cf6-955f705d5c2f)">
            <path d="M670.63,694.29s61,39,69,86-61,62-76,49l22,12h28l34-24,14-32v-25l-21-35Z" fill="#0d6099" opacity="0.5"/>
          </g>
        </g>
        <g>
          <path d="M611.42,680.85s38.46,214.29-74.26,164.72c-113.69-50,64.07-173.24,64.07-173.24Z" fill="#4d88ce"/>
          <g clip-path="url(#bff7c016-68e4-48e7-a8e8-df374712c4a1)">
            <path d="M597.63,705.29s11,78-13,119-85-3-85-3l36,34,40,4,39-13,8-59L621.53,695Z" fill="#0d6099" opacity="0.5"/>
          </g>
        </g>
        <path d="M355.39,433.53c9.34-17.89,21.23-34.11,31.43-51.46a1.13,1.13,0,0,0-1.77-1.36c-15.3,13.64-25.39,32.68-32.92,51.45-.75,1.88,2.33,3.15,3.26,1.37Z" fill="#2874bf"/>
        <path d="M361.29,440.52c8-11.12,19.46-19.17,29.46-28.32,1-.88-.27-2.39-1.37-1.77-12.49,7-20.21,18.53-28.18,30,0,0,.05.1.09,0Z" fill="#2874bf"/>
        <path d="M315.1,458.17c-20.65,1.56-40.31,6.55-58.45,16.68-2.46,1.38-.3,4.86,2.18,3.72,17.75-8.17,36.82-14.44,56.27-16.74,2.28-.27,2.38-3.84,0-3.66Z" fill="#2874bf"/>
        <path d="M312.77,467.44c-15.72,3.93-30.06,10.47-42.53,20.93-1,.85.36,2.65,1.42,1.84,12.39-9.5,26.41-17.17,41.56-21.14a.85.85,0,0,0-.45-1.63Z" fill="#2874bf"/>
        <path d="M358.77,470.18c9.22-.58,18-1.35,27.19,0,8.8,1.3,17.36,3.75,26.14,5.12a1,1,0,0,0,.55-2,102.87,102.87,0,0,0-28-6.65c-8.71-.8-18-.84-25.86,3.42a.05.05,0,0,0,0,.1Z" fill="#2874bf"/>
        <path d="M362.52,469.83c4.54,12,13.67,22,26.35,25.23a1.13,1.13,0,0,0,.59-2.17c-11.13-4.43-20.74-12.23-25.31-23.51-.4-1-2-.58-1.63.45Z" fill="#2874bf"/>
        <path d="M668.31,299.13c-2-16.81,3-33.08,7-49.21a.94.94,0,0,0-1.81-.5c-5.13,16.18-9,32.83-6.33,49.86.1.62,1.18.48,1.1-.15Z" fill="#2874bf"/>
        <path d="M679,300.07c9.06-12.2,16.5-25.3,21.06-39.83.29-.94-1.23-1.63-1.63-.69-5.93,13.75-12.63,27.18-21.21,39.48-.77,1.1,1,2.08,1.78,1Z" fill="#2874bf"/>
        <path d="M688.91,327.84c9.9-2.43,20.59-3,30.77-2.85,1.17,0,1.11-1.65,0-1.78-11-1.26-20.57.57-30.8,4.53a.05.05,0,0,0,0,.1Z" fill="#2874bf"/>
        <path d="M693,339.51a66.75,66.75,0,0,0,24.29,11.14,1.27,1.27,0,0,0,.68-2.44A80.92,80.92,0,0,1,694,337.73c-1.13-.74-2.1,1-1,1.78Z" fill="#2874bf"/>
        <path d="M635.37,332.69a167.71,167.71,0,0,0-36,22.43c-1.36,1.12.57,3,1.92,1.92A244.17,244.17,0,0,1,636,333.82c.76-.41.09-1.48-.66-1.13Z" fill="#2874bf"/>
        <path d="M598,684.79c-17,13.36-30,31.38-36.23,52.17-.57,1.87,2.24,2.58,2.89.79,7.24-19.79,19.16-37.4,35.59-50.71,1.61-1.3-.66-3.5-2.25-2.25Z" fill="#2874bf"/>
        <path d="M625.43,677.64c8-7.62,16.39-14.95,24.78-22.19.91-.79-.32-2.43-1.31-1.69a267.91,267.91,0,0,0-25.46,21.9c-1.3,1.26.68,3.23,2,2Z" fill="#2874bf"/>
        <path d="M635.14,683.5c17.63-7.39,35.1-14.63,51.18-25.11a1.5,1.5,0,0,0-1.51-2.59c-17.11,8.06-33.39,17.72-50.43,25.9-1,.48-.27,2.24.76,1.8Z" fill="#2874bf"/>
        <path d="M606.79,656.36c-6.68-22.33-8.95-45.1-10-68.28a1.64,1.64,0,0,0-3.28,0c-3,23.38,1.08,47.41,8.76,69.53,1,2.82,5.4,1.67,4.52-1.25Z" fill="#2874bf"/>
        <g>
          <circle cx="340.65" cy="456.33" r="33.07" fill="#ffba1f"/>
          <g clip-path="url(#b9fe5047-b517-4c91-90d2-36c4ef90f82a)">
            <path d="M331.21,423.26s20.42,7,24.42,29-15,37-15,37l19.76,2.81,19.24-20.81v-34l-15-18-33.42,4" fill="#f78f1e"/>
          </g>
        </g>
        <g>
          <circle cx="663.97" cy="323" r="33.07" fill="#ffba1f"/>
          <g clip-path="url(#add90185-b420-4fdf-a393-3e3069bd7638)">
            <path d="M655.61,287.31s24.12,11.63,26.07,33.81-24,39.17-24,39.17L693,356.08l13.61-36.79-22-35Z" fill="#f78f1e"/>
          </g>
        </g>
        <g>
          <circle cx="608.35" cy="679.53" r="33.07" fill="#ffba1f"/>
          <g clip-path="url(#b53446a1-1a39-411f-a3c8-02824bd4dd7a)">
            <path d="M602.17,646.45s20.46,9.84,25.46,32.84-20,36-20,36l28,1,15-34-16-30-26-14-6.46,8.16" fill="#f78f1e"/>
          </g>
        </g>
      </g>
    </g>
  </g>
</svg>
