<svg xmlns="http://www.w3.org/2000/svg" xmlns:xlink="http://www.w3.org/1999/xlink" viewBox="0 0 1000 1000">
  <defs>
    <clipPath id="a0d70e26-fb7f-484c-a564-050d0942e61a">
      <path d="M213.41,120s43,4,89-3,150-29,157-32,35-25,35-25,45.5,96.5,52.5,120.5,67,174,80,216,73,225,83,248,56,133,56,133l-123,45s-77-142-88-166-59-153-71-181-45-113-63-122-21,4-18,35,15,145,15,176,5,82,6,97,2,82,0,103,0,106,3,116l-19,11-104-7a646.38,646.38,0,0,1-17-90c-6-51-17-178-21-200s-19-165-23-195-14-150-18-172S213.41,120,213.41,120Z" fill="#4d88ce"/>
    </clipPath>
    <clipPath id="efb5fe47-c552-40e2-85cb-07e32bd791a1">
      <path d="M300.59,871.51A63,63,0,0,0,295.41,892c-1,12,0,41,7,46s54,5,73,4,58.24-15.77,62-20c8-9-2-47-7-51s-68,13-77,14S300.77,872,300.59,871.51Z" fill="#68a4e0"/>
    </clipPath>
    <clipPath id="b0dd2f03-1e1a-41a2-8f25-c3b2abb92667">
      <path d="M674.41,805c12-4,58-20,64-26s19-18,27-12,23,45,21,51-28,32-65,37-63,15-68,11-20-43-20-48,7-8,15-8S674.41,805,674.41,805Z" fill="#68a4e0"/>
    </clipPath>
  </defs>
  <g id="b920c8e6-63a2-4258-9b8f-ff53cbd76572" data-name="Layer 3">
    <g id="a79e510a-c033-4067-9de7-0d7895951fb7" data-name="Layer 4">
      <g>
        <path d="M213.41,120s3-3,58-14,151-37,168-39,51-15,55-7-29,36-41,44-143,33-143,33l-82-4Z" fill="#1664a5"/>
        <g>
          <path d="M213.41,120s43,4,89-3,150-29,157-32,35-25,35-25,45.5,96.5,52.5,120.5,67,174,80,216,73,225,83,248,56,133,56,133l-123,45s-77-142-88-166-59-153-71-181-45-113-63-122-21,4-18,35,15,145,15,176,5,82,6,97,2,82,0,103,0,106,3,116l-19,11-104-7a646.38,646.38,0,0,1-17-90c-6-51-17-178-21-200s-19-165-23-195-14-150-18-172S213.41,120,213.41,120Z" fill="#4d88ce"/>
          <g clip-path="url(#a0d70e26-fb7f-484c-a564-050d0942e61a)">
            <path d="M299,864.64S346.41,879,351.41,880s60-13,62-16-70.61-482.24-7.8-510.62h0L465.41,580l-14,256L439.62,899.7,272.41,891,299,864.64" fill="#0d6099" opacity="0.5"/>
            <path d="M429.41,87s171,424,197,480,109,207,109,207l-40,20-62,16,13,30,138-61-290-752-65,60" fill="#0d6099" opacity="0.5"/>
          </g>
        </g>
        <g>
          <path d="M300.59,871.51A63,63,0,0,0,295.41,892c-1,12,0,41,7,46s54,5,73,4,58.24-15.77,62-20c8-9-2-47-7-51s-68,13-77,14S300.77,872,300.59,871.51Z" fill="#68a4e0"/>
          <g clip-path="url(#efb5fe47-c552-40e2-85cb-07e32bd791a1)">
            <path d="M370.64,876.67S388.41,891,392.41,906s-8.07,32.9-72.49,36.52C311.41,943,348.41,953,348.41,953l81-15,24-19-21-64Z" fill="#0d6099" opacity="0.3"/>
          </g>
        </g>
        <g>
          <path d="M674.41,805c12-4,58-20,64-26s19-18,27-12,23,45,21,51-28,32-65,37-63,15-68,11-20-43-20-48,7-8,15-8S674.41,805,674.41,805Z" fill="#68a4e0"/>
          <g clip-path="url(#b0dd2f03-1e1a-41a2-8f25-c3b2abb92667)">
            <path d="M695.41,794s37,3,44,13,3,40-40,56l56-4,41-40-31-67Z" fill="#0d6099" opacity="0.3"/>
          </g>
        </g>
        <g>
          <path d="M289,163.88a264.12,264.12,0,0,1-4.92-44.94,3.69,3.69,0,0,1,3.22-4.62c3-.91,6.05-1.79,9.09-2.66,1.66-.48,3.46-.94,5.07-.33,2.77,1,3.52,4.54,3.85,7.49q2.82,25.26,4.58,50.63a3.1,3.1,0,0,1-2.68,3.87,90.24,90.24,0,0,1-9.64,2.85,6,6,0,0,1-4,0c-1.37-.67-2-2.22-2.54-3.66A93.32,93.32,0,0,1,286,149.1" fill="#4d88ce"/>
          <path d="M289.35,163.77c-1-6.73-1.2-13.6-1.86-20.38-.61-6.26-1.29-12.52-1.52-18.8-.13-3.49-.71-6.89,2.68-8.86a21.39,21.39,0,0,1,4.52-1.4c2.83-.85,3.53-1.1,6.62,0s3.11.94,3.65,3.63c.37,1.87.53,3.8.76,5.69.41,3.23.74,6.48,1.07,9.72.64,6.16,1.26,12.33,1.68,18.5.22,3.26.44,6.5.78,9.75s2,8.42-1,10.93c-1.64,1.39-7.05,3.07-9.38,2.95-5.44-.27-5.74-4.31-6.82-8.64-1.48-5.92-1.85-12.27-3.68-18a1,1,0,0,0-1.87.25c-.86,7.57,1.9,18.35,5.63,25,3.29,5.83,10.16,1.78,15.16.49,1.89-.48,4-.66,5-2.55,1.44-2.73.23-7.46.1-10.35-.49-10.39-1.76-20.81-2.79-31.17-.53-5.42.63-16.42-4.71-20.07-2.32-1.59-5-1-7.47-.37-3.45.9-9.4,1.48-12.05,4.07-1.88,1.83-1.59,4.27-1.51,6.71.16,5,.49,10.05.88,15.06.77,9.69,3.15,18.69,5.37,28.1.12.49.82.27.74-.21Z" fill="#0d6099"/>
        </g>
        <g>
          <path d="M429.71,147.43a91.3,91.3,0,0,1-11.42-32.26c-.6-4-1-8.09-2.25-11.93-1.12-3.29-3-6.39-3.39-9.85a3,3,0,0,1,.25-2,3.4,3.4,0,0,1,1.82-1.18l6-2.26c1.82-.68,3.8-1.37,5.67-.82,2.08.62,3.43,2.62,4.42,4.56,4.4,8.54,5.42,18.34,7.65,27.68A108.22,108.22,0,0,0,444.34,137a7.92,7.92,0,0,1,1,4.39c-.45,2.6-3.29,4-5.76,4.87-3.57,1.34-8,2.56-10.88.1" fill="#4d88ce"/>
          <path d="M430.77,146.8c-6.33-9.39-9.53-20.65-11.15-31.82-.72-5-1.24-9.83-3.08-14.58-1.24-3.22-3.3-6.45.09-9.27,1.14-.95,7-2.56,8.37-2.43,5.2.48,7.28,10.37,8.45,14.47,1.41,4.91,2.38,9.91,3.59,14.86a161.59,161.59,0,0,0,5,16.74c1.32,3.65,2.48,7.29-1.72,10-3.12,2-8,3.05-11.19.88-.82-.56-1.63.81-.78,1.34,4.15,2.57,11.68,1.2,15.55-1.47,5.52-3.8,1.55-9.37-.35-14.08-3.37-8.41-4.8-16.93-6.52-25.77-1.11-5.72-2.64-14.23-7.2-18.44s-10.92-.81-15.48,1.48c-5.3,2.67-2.78,7.4-.86,12,3.31,7.91,3.47,16.62,5.79,24.83,2.2,7.78,5.92,15.19,9.41,22.46.68,1.42,3,.08,2.12-1.25Z" fill="#0d6099"/>
        </g>
        <path d="M338,116.87c15.27,58.41,24,118.5,42.21,176.14a357.71,357.71,0,0,0,17.91,46.08c.17.36.67.05.52-.3-15.18-35.62-24.94-73-33-110.75-8-37.39-15-75-26.94-111.35a.35.35,0,0,0-.68.18Z" fill="#0d6099"/>
        <path d="M219.51,176.31c23-.26,46.72-1.36,69.42-5.43,1.67-.3,1.3-3.22-.4-3-11.48,1.53-22.88,3.76-34.41,4.88s-23.06,2.08-34.61,2.69a.43.43,0,0,0,0,.85Z" fill="#0d6099"/>
        <path d="M310.91,166.46c12.27-1,24.34-2.79,36.46-5,1.63-.29.94-2.77-.68-2.49-12,2.14-23.94,4.33-35.85,6.94-.28.06-.22.53.07.5Z" fill="#0d6099"/>
        <path d="M351.75,160.75a340.56,340.56,0,0,0,75.33-16.18c1.16-.4.68-2.23-.51-1.86a452.75,452.75,0,0,1-74.82,16.82c-.75.11-.79,1.3,0,1.22Z" fill="#0d6099"/>
        <path d="M446,139.22c12.56-4.94,25.19-9.76,37.56-15.15a92.83,92.83,0,0,0,30.17-20.48c1-1-.67-2.69-1.59-1.59-7.63,9.12-19.09,15.21-29.69,20.18-12,5.64-24.66,10.1-37,15-1.22.49-.7,2.48.54,2Z" fill="#0d6099"/>
        <path d="M391.87,155.19a537.08,537.08,0,0,1,16.47,75.75c1.85,12.74,2.49,25.23-2,37.54a40,40,0,0,1-23.93,23.92c-1.7.59-.95,3.32.75,2.71,9.76-3.54,18.08-9.77,23.15-19,6.39-11.58,5-24.57,3.54-37.2-3.29-28.13-7.3-57.26-16.72-84.1-.26-.76-1.45-.45-1.22.34Z" fill="#0d6099"/>
        <path d="M450.49,138c12.78,18,19,42.45,38,55.45,8.89,6.09,20.78,9.38,31.36,10.73,10.14,1.29,23.86,1.76,32.78-4.06a1.06,1.06,0,0,0-.82-1.93c-5.48,1-10.67,3-16.27,3.58a74.94,74.94,0,0,1-17.7-.74c-11.17-1.55-22.35-4.24-31.24-11.54C470,175.79,464,154.24,451.74,137.23c-.54-.75-1.79,0-1.25.73Z" fill="#0d6099"/>
        <path d="M284.11,171.74c0,12.71-.23,25.41-.39,38.12-.16,12.34-.16,24.83-3.32,36.86a57.09,57.09,0,0,1-45.25,42.18c-1.47.27-.86,2.58.63,2.26,20.72-4.5,38.47-18.2,44.6-39.06,3.53-12,3.95-24.94,5-37.35a278.17,278.17,0,0,0,.06-43,.68.68,0,0,0-1.36,0Z" fill="#0d6099"/>
        <circle cx="367.91" cy="136.53" r="9.5" fill="#0d6099" opacity="0.5"/>
        <circle cx="365.91" cy="133.53" r="9.5" fill="#ffba1f"/>
      </g>
    </g>
  </g>
</svg>
