<svg xmlns="http://www.w3.org/2000/svg" xmlns:xlink="http://www.w3.org/1999/xlink" viewBox="0 0 1000 1000">
  <defs>
    <clipPath id="fbdb28e0-39d2-4ef5-99b9-004976eee30e">
      <path d="M380.88,380.41s-233-43-253-36-34,53,137,108,152,165,226,206,258.63-8.15,388,63c40,22-184-154-184-154Z" fill="#4d88ce"/>
    </clipPath>
    <clipPath id="f120d85b-a740-4435-bfc2-1e6b4f500cd7">
      <path d="M380.88,380.41s124-152,269-88c142.79,63,45,275,45,275S386.88,500.41,380.88,380.41Z" fill="#4d88ce"/>
    </clipPath>
    <clipPath id="bf6a8f77-9efe-42af-8dd9-8931640021c9">
      <path d="M367.66,381.16s14.22-31.75,31.22-33.75,22,33,112,95,192.48,73,202,78c17,9-4,57-13,58S542.32,538.55,459.6,479,361.43,392.91,367.66,381.16Z" fill="#ffba1f"/>
    </clipPath>
    <clipPath id="ba450d93-97e2-4f36-9446-c9730b4f26ff">
      <path d="M644.13,554.77S663.53,585,657,602.12s-28.18,26.72-41.32,18.43,3.27-8.54-2.24-36.75-7.93-38.93-5.75-44.62S644.13,554.77,644.13,554.77Z" fill="#ffba1f"/>
    </clipPath>
    <clipPath id="af284338-a285-4724-8c7f-adfa8a815faf">
      <path d="M516.79,506s-34.66,9.56-41.2,26.63S478.71,571.35,494,574s3.27-8.54,26.21-25.85,31.91-23.68,34.09-29.37S516.79,506,516.79,506Z" fill="#ffba1f"/>
    </clipPath>
    <clipPath id="b82a7d28-c5d3-453d-8807-3ae57da2f8ec">
      <path d="M586.68,496.06s-20-50.07-48.31-52.77-38.75,58.57-33.28,65.57,30.34,23,68.93,11.72l6.1-18.06s-46.07-16-44.68-36.69,32.82-.48,46.86,31Z" fill="#ffba1f"/>
    </clipPath>
    <clipPath id="afe35cb3-1a86-45c9-9e2d-cf418799b3b3">
      <path d="M598.77,500.69s48.31-23.91,71.2-7-10.3,69.47-19.05,71-38-3.12-59.11-37.33l7.52-17.51s45,18.86,57.76,2.54-24.1-22.28-55.58-8.23Z" fill="#ffba1f"/>
    </clipPath>
    <clipPath id="acc82cf3-dbf1-4c85-8158-ec52d6dbb8ca">
      <ellipse cx="586.64" cy="513.18" rx="22.09" ry="18.28" transform="translate(-102.42 877.45) rotate(-69.04)" fill="#ffba1f"/>
    </clipPath>
  </defs>
  <g id="bec54110-3e62-4512-918a-666324545246" data-name="Layer 3">
    <g id="ba853b8b-cea5-477d-b2e4-38694ab2107a" data-name="Layer 4">
      <g>
        <g>
          <path d="M380.88,380.41s-233-43-253-36-34,53,137,108,152,165,226,206,258.63-8.15,388,63c40,22-184-154-184-154Z" fill="#4d88ce"/>
          <g clip-path="url(#fbdb28e0-39d2-4ef5-99b9-004976eee30e)">
            <path d="M127.88,344.41s81,32,141,72S392.4,539.7,392.4,539.7L212.88,452.41s-123.46-52.49-112-84C108.88,346.41,127.88,344.41,127.88,344.41Z" fill="#2874bf"/>
          </g>
        </g>
        <g>
          <path d="M380.88,380.41s124-152,269-88c142.79,63,45,275,45,275S386.88,500.41,380.88,380.41Z" fill="#4d88ce"/>
          <g clip-path="url(#f120d85b-a740-4435-bfc2-1e6b4f500cd7)">
            <path d="M524.88,276.41s116-1,140,85-70,182-186,162c0,0,16,42,87,62s194-15,194-15l-14-214-79-95-127-8Z" fill="#2874bf"/>
          </g>
        </g>
        <g>
          <path d="M367.66,381.16s14.22-31.75,31.22-33.75,22,33,112,95,192.48,73,202,78c17,9-4,57-13,58S542.32,538.55,459.6,479,361.43,392.91,367.66,381.16Z" fill="#ffba1f"/>
          <g clip-path="url(#bf6a8f77-9efe-42af-8dd9-8931640021c9)">
            <path d="M553.88,430.41s-33,66-113,60l109,67,116,42,62-21v-64Z" fill="#d67500"/>
          </g>
        </g>
        <g>
          <g>
            <path d="M644.13,554.77S663.53,585,657,602.12s-28.18,26.72-41.32,18.43,3.27-8.54-2.24-36.75-7.93-38.93-5.75-44.62S644.13,554.77,644.13,554.77Z" fill="#ffba1f"/>
            <g clip-path="url(#ba450d93-97e2-4f36-9446-c9730b4f26ff)">
              <path d="M653.88,568.41s3,52-45,43l-2,7,18,7,19-2,17-14,5-14Z" fill="#f78f1e"/>
            </g>
          </g>
          <g>
            <path d="M516.79,506s-34.66,9.56-41.2,26.63S478.71,571.35,494,574s3.27-8.54,26.21-25.85,31.91-23.68,34.09-29.37S516.79,506,516.79,506Z" fill="#ffba1f"/>
            <g clip-path="url(#af284338-a285-4724-8c7f-adfa8a815faf)">
              <path d="M553.88,530.41s-61,2-68-17,44-19,44-19l39,15Z" fill="#f78f1e"/>
            </g>
          </g>
          <g>
            <path d="M586.68,496.06s-20-50.07-48.31-52.77-38.75,58.57-33.28,65.57,30.34,23,68.93,11.72l6.1-18.06s-46.07-16-44.68-36.69,32.82-.48,46.86,31Z" fill="#ffba1f"/>
            <g clip-path="url(#b82a7d28-c5d3-453d-8807-3ae57da2f8ec)">
              <path d="M570.36,526.49S499,470.2,539,458.35c2.58-.77,47.35,41.47,47.35,41.47l-.73,23.38-15.29,3.29" fill="#f78f1e"/>
            </g>
          </g>
          <g>
            <path d="M598.77,500.69s48.31-23.91,71.2-7-10.3,69.47-19.05,71-38-3.12-59.11-37.33l7.52-17.51s45,18.86,57.76,2.54-24.1-22.28-55.58-8.23Z" fill="#ffba1f"/>
            <g clip-path="url(#afe35cb3-1a86-45c9-9e2d-cf418799b3b3)">
              <path d="M641.59,487.44s31.8-.84,29.33,26.7-35.15,48.07-69.8,29.32l17.55,19.43,29.21,11.3L663,560.32l16.21-27.82,4.94-37.73-28.51-20.28-14,12.95" fill="#f78f1e"/>
            </g>
          </g>
          <g>
            <ellipse cx="586.64" cy="513.18" rx="22.09" ry="18.28" transform="translate(-102.42 877.45) rotate(-69.04)" fill="#ffba1f"/>
            <g clip-path="url(#acc82cf3-dbf1-4c85-8158-ec52d6dbb8ca)">
              <path d="M576,492.36s15.35-3.82,22.31,9.76-13,38.11-31.16,26.66l17,13.36,15.34-3.82,13-38.1-25.06-13Z" fill="#f78f1e"/>
            </g>
          </g>
        </g>
      </g>
    </g>
  </g>
</svg>
