<svg xmlns="http://www.w3.org/2000/svg" xmlns:xlink="http://www.w3.org/1999/xlink" viewBox="0 0 1000 1000">
  <defs>
    <clipPath id="e8d3a37e-1774-4616-8c5e-70032f49fad7">
      <path d="M392.6,359.49s-17-11-10-50,35-105,47-129,26-57,53-54,35,36,46,77,46,103,49,110,10,17,5,24-9,26-9,26l46-1s-17-35-30-54-45-128-55-146-23-48-46-47-37-5-63,47-52,123-53,148-16,37-16,37l5,15Z" fill="#f49c1c"/>
    </clipPath>
    <clipPath id="f4f972de-be62-4d0f-b39a-2c461876dfe8">
      <path d="M229.6,529.49c-6.58-30.55-29-150-9-162s131,1,196,0,286,2,310,0,71-7,59,45-28,154-28,195-11,98-17,122,5,111,4,132-8,30-84,30-327-3-354,0-66,13-64-56S263.6,687.49,229.6,529.49Z" fill="#4d88ce"/>
    </clipPath>
    <clipPath id="a409d893-07b3-4511-8dae-67cb052fdf6a">
      <path d="M308.29,363.66s-17.69,43.83-16.69,49.83,5,19,17,21,58,7,67,0,27.43-67,27.43-67Z" fill="#c15c00"/>
    </clipPath>
    <clipPath id="a4faa520-455c-44cc-8a92-b96f6f15a0e4">
      <path d="M568,367.76s14.58,57.73,27.58,62.73,56,6,66,3,23-9,17-29a194.76,194.76,0,0,0-15.32-36.3Z" fill="#c15c00"/>
    </clipPath>
  </defs>
  <g id="e50fb5bb-7382-497f-bebe-0569776752e7" data-name="Layer 3">
    <g id="e79668d2-c870-4cc6-9446-157d86186a56" data-name="Layer 4">
      <g>
        <g>
          <path d="M392.6,359.49s-17-11-10-50,35-105,47-129,26-57,53-54,35,36,46,77,46,103,49,110,10,17,5,24-9,26-9,26l46-1s-17-35-30-54-45-128-55-146-23-48-46-47-37-5-63,47-52,123-53,148-16,37-16,37l5,15Z" fill="#f49c1c"/>
          <g clip-path="url(#e8d3a37e-1774-4616-8c5e-70032f49fad7)">
            <path d="M368.25,306.5s50.35-107,66.35-125,73-26,76-23,44,101,95,199c57.43,110.37-11-64-11-64L563.36,242.1,508.71,123.4l-29.11-9.91-34,16.94-79,159.06,1.65,17" fill="#f78f1e"/>
          </g>
        </g>
        <path d="M235.25,363.66s38.35-8.17,205.35-11.17S713.09,356,769.34,367.76L755.6,384.49l-523-6Z" fill="#0d6099"/>
        <g>
          <path d="M229.6,529.49c-6.58-30.55-29-150-9-162s131,1,196,0,286,2,310,0,71-7,59,45-28,154-28,195-11,98-17,122,5,111,4,132-8,30-84,30-327-3-354,0-66,13-64-56S263.6,687.49,229.6,529.49Z" fill="#4d88ce"/>
          <g clip-path="url(#f4f972de-be62-4d0f-b39a-2c461876dfe8)">
            <path d="M191.6,438.49c13-2,221-8,294-16S744.38,440.77,777,454.63s10.61,45.86,10.61,45.86-135-49-211-46-246,10-274,11-111,11-111,11Z" fill="#fff" opacity="0.7"/>
            <path d="M212.6,573.49s102-33,190-27,245,6,278,13,101,24,101,24l-12,35s-93-20-146-24-178,5-229,2-176,11-176,11Z" fill="#fff" opacity="0.7"/>
            <path d="M225.6,710.49c16-5,161-14,202-18s213.92,5.54,236.46,9.77,91.54,29.23,91.54,29.23l-5,32s-79.52-27.63-99.26-28.81-211.74-5.19-230.74-4.19-188,15-188,15Z" fill="#fff" opacity="0.7"/>
            <path d="M221.6,842.49c21-7,218-14,246-15s241-6,302,19l-7,35s-151-22-329-22-221,21-221,21Z" fill="#fff" opacity="0.7"/>
            <path d="M560.6,332.49c13,31,95,179,102,251s-6,203-66,255-364,34-364,34l29,57,547-3,2-603Z" fill="#0d6099" opacity="0.5"/>
          </g>
        </g>
        <g>
          <path d="M308.29,363.66s-17.69,43.83-16.69,49.83,5,19,17,21,58,7,67,0,27.43-67,27.43-67Z" fill="#c15c00"/>
          <g clip-path="url(#a409d893-07b3-4511-8dae-67cb052fdf6a)">
            <path d="M370.33,358.09s24.27,100.4-78.73,66.4l11,14,84,4,29-84-45.27-.4" fill="#a05000"/>
            <path d="M325.6,362.49s-12,12-8,22,62,4,62,4l2.56-26.12Z" fill="#a05000"/>
          </g>
        </g>
        <g>
          <path d="M568,367.76s14.58,57.73,27.58,62.73,56,6,66,3,23-9,17-29a194.76,194.76,0,0,0-15.32-36.3Z" fill="#c15c00"/>
          <g clip-path="url(#a4faa520-455c-44cc-8a92-b96f6f15a0e4)">
            <path d="M591.6,365.49s2,20,8,22,53.17-2,55.08-3-1.08-21-1.08-21Z" fill="#a05000"/>
            <path d="M648.6,366.49s12,33,9,46-26,25-53,23l51,3,26-10,5-17-17-48Z" fill="#a05000"/>
          </g>
        </g>
        <path d="M321.6,383.49c0-2-1-10,3-13s18-18,19-25,38-119,67-171,43-74,84-67,54,74,61,94,47,106,56,118,14,33,21,39,15,16,16,19,1,6-5,6-43,2-44,0-4-19,8-34c0,0-55-102-69-149s-30-81-57-80-43,26-74,90-50,119-44,132,11,25,10,30-3,12-3,12Z" fill="#ffae2c"/>
      </g>
    </g>
  </g>
</svg>
