<svg xmlns="http://www.w3.org/2000/svg" xmlns:xlink="http://www.w3.org/1999/xlink" viewBox="0 0 1000 1000">
  <defs>
    <clipPath id="af6c0f16-c39a-4140-8356-1ae0f26c1945">
      <path d="M607.11,455.13s42.56,39.11,56.79-13.93c0,0,47.41,56.48,62.11-18,0,0,85,61.49,71.35-33.48,0,0,90.43,2.5,77.28-42.25s-93.24-17.21-93.24-17.21,11.1-29.57-14.4-35.35-66.81,17.37-71.81,54.92c0,0-16.27-21.28-36.3-14.4S621,368.6,636.68,394.58c0,0-67,.62-32.39,45.84,0,0-26.6,20.34-41.15,39.9l6.11,8Z" fill="#35a31a"/>
    </clipPath>
    <clipPath id="a6776f8c-d3a3-4b35-adcb-9643ba55daba">
      <path d="M578.28,408.57S518,377.08,571,340.11c0,0-81.5-29.91-4.91-76,0,0-102.05-69.49,8.55-92.39,0,0-38.93-99.13,15.88-102.47s56.33,96.37,56.33,96.37,28.31-24.12,44.91,1.81,7.48,80.92-32.09,101.47c0,0,30.06,9.51,30.45,34.44s-21.59,55.19-56.61,48.25c0,0,26.08,74.4-37.81,54.19,0,0-11.89,37.58-27.73,61.51l-11.27-3.57Z" fill="#35a31a"/>
    </clipPath>
    <clipPath id="eea868c6-0f95-4773-8a09-110f5ca470c8">
      <path d="M142,930.68c-48.88,3.76,16-78.12,28.41-100.31s91.43-148.25,113.62-173.1c20.83-23.33,48.82-41.72,63-69.24s93.2-159.79,124.27-175.76,128.72,14.2,166,74.56S632.93,596,585.88,616.43,425.21,716.74,413.67,733.61,311.59,814.39,290.28,838.36,176.66,928,142,930.68Z" fill="#ff8b00"/>
    </clipPath>
  </defs>
  <g id="f3b44efb-19b1-4576-b1ef-81ea1c79e69f" data-name="Layer 3">
    <g>
      <g>
        <path d="M607.11,455.13s42.56,39.11,56.79-13.93c0,0,47.41,56.48,62.11-18,0,0,85,61.49,71.35-33.48,0,0,90.43,2.5,77.28-42.25s-93.24-17.21-93.24-17.21,11.1-29.57-14.4-35.35-66.81,17.37-71.81,54.92c0,0-16.27-21.28-36.3-14.4S621,368.6,636.68,394.58c0,0-67,.62-32.39,45.84,0,0-26.6,20.34-41.15,39.9l6.11,8Z" fill="#35a31a"/>
        <g clip-path="url(#af6c0f16-c39a-4140-8356-1ae0f26c1945)">
          <path d="M551.05,500.3s122-161,341-147l-24,38-55,13-14,54-69,14-109,16Z" fill="#2d9110"/>
          <path d="M559.55,493.74c16.6-15,32.53-30.7,50.09-44.67a492.27,492.27,0,0,1,54.7-37.78C684.93,399,706.56,387.76,729,379.13c22.14-8.52,45.89-11.41,69.18-15.07,27.64-4.34,55.44-7.84,83.27-10.76,4.16-.44,4.38-6.66,0-6.66-25.23,0-50,3.7-74.81,7.87-24.11,4.05-49.2,7.09-72.32,15.29-22.41,7.94-43.69,19.85-64.11,31.9A500.62,500.62,0,0,0,615,439.52c-20.18,15.88-40.28,33.13-56.48,53.16a.75.75,0,0,0,1.06,1.06Z" fill="#327c01"/>
        </g>
      </g>
      <g>
        <path d="M578.28,408.57S518,377.08,571,340.11c0,0-81.5-29.91-4.91-76,0,0-102.05-69.49,8.55-92.39,0,0-38.93-99.13,15.88-102.47s56.33,96.37,56.33,96.37,28.31-24.12,44.91,1.81,7.48,80.92-32.09,101.47c0,0,30.06,9.51,30.45,34.44s-21.59,55.19-56.61,48.25c0,0,26.08,74.4-37.81,54.19,0,0-11.89,37.58-27.73,61.51l-11.27-3.57Z" fill="#35a31a"/>
        <g clip-path="url(#a6776f8c-d3a3-4b35-adcb-9643ba55daba)">
          <path d="M586.48,68c22.46,58.3,33.83,121.77,31.7,184.25-1,30.33-5.48,60.55-14.6,89.54-5.08,16.15-10.61,32.15-16.11,48.16-3.74,10.88-7.51,21.75-11.4,32.57-1.56,4.34-3.08,8.69-4.61,13-.54,1.52-1.11,3-1.65,4.54-.23.64-.45,1.29-.66,1.93-.12.38-.82,2.05-.27.87-2.64,5.59,5.68,10.5,8.34,4.88,7-14.83,11.33-30.87,16-46.55,5.46-18.14,10.64-36.37,16.1-54.51,17.26-57.38,17.56-118.08,8-176.9A460.86,460.86,0,0,0,588.47,67.42c-.5-1.2-2.47-.7-2,.55Z" fill="#327c01"/>
          <path d="M582.55,60.8s35.15,58.45,38.08,160.73S568.55,450.8,568.55,450.8l43-13s42-61,43-62,37-34,37-34,14-46,14-48-11-32-11-32l29-61-12-39-32-23-61-77Z" fill="#327c01" opacity="0.35"/>
        </g>
      </g>
      <g>
        <path d="M142,930.68c-48.88,3.76,16-78.12,28.41-100.31s91.43-148.25,113.62-173.1c20.83-23.33,48.82-41.72,63-69.24s93.2-159.79,124.27-175.76,128.72,14.2,166,74.56S632.93,596,585.88,616.43,425.21,716.74,413.67,733.61,311.59,814.39,290.28,838.36,176.66,928,142,930.68Z" fill="#ff8b00"/>
        <g clip-path="url(#eea868c6-0f95-4773-8a09-110f5ca470c8)">
          <path d="M379.81,527c17.24,8.48,33.21,19.24,49.3,29.65,1.5,1,3.1-1.2,1.88-2.43-14-14.11-31.27-23.66-49.55-31.07-2.21-.9-3.76,2.8-1.63,3.85Z" fill="#ce6b00"/>
          <path d="M442.53,533.82c14.45,9.44,27.65,20.25,40.48,31.76.8.72,2-.44,1.19-1.2C471.74,552.44,457.62,542.14,443,533c-.52-.32-1,.48-.48.81Z" fill="#ce6b00"/>
          <path d="M421.07,473.75c11.47,2.81,22.38,7.37,33.29,11.81,2.41,1,3.69-2.74,1.7-4-10.26-6.68-21.8-10.08-33.82-12-2.73-.44-4,3.56-1.17,4.25Z" fill="#ce6b00"/>
          <path d="M460.9,447.37c16.91,7.31,33.71,14.95,50.61,22.31,1.62.71,3.07-1.62,1.42-2.43a343,343,0,0,0-52-20,.05.05,0,0,0,0,.1Z" fill="#ce6b00"/>
          <path d="M494.38,508.57c33.1,11.45,52.51,42,81.31,59.89,1.37.85,3.06-1.22,1.76-2.28-13.66-11.22-26.53-23.28-40-34.77-12.68-10.85-26.31-20.45-42.36-25.56-1.74-.55-2.44,2.13-.75,2.72Z" fill="#ce6b00"/>
          <path d="M572.51,487.23c22.57,13,38.38,33.69,52.13,55.31,1.11,1.75,4.31.66,3.52-1.48-9.48-25.43-30.8-43.86-54.09-56.5a1.55,1.55,0,0,0-1.56,2.67Z" fill="#ce6b00"/>
          <path d="M502,590c16.54,6.35,25.8,22.82,35.6,36.53a1.78,1.78,0,0,0,3.08-1.8C532.35,608,521.28,592.5,503,586.16c-2.42-.84-3.38,2.91-1.05,3.8Z" fill="#ce6b00"/>
          <path d="M453.28,626.1c8.38,4.78,16.33,10.19,24.25,15.69,1.51,1.05,3.45-1.42,2-2.58a157.21,157.21,0,0,0-24.67-15.78c-1.76-.93-3.3,1.68-1.56,2.67Z" fill="#ce6b00"/>
          <path d="M390,596.8c11.82,5.68,21.56,14.38,31.29,23a.75.75,0,0,0,1.07-1.06c-8.68-10.16-20.3-16.56-32.31-22-.06,0-.11.06-.05.09Z" fill="#ce6b00"/>
          <path d="M356.13,659a366.11,366.11,0,0,1,34.54,23.67c1.51,1.15,3.55-1.46,2-2.65a272,272,0,0,0-35.26-23.28,1.31,1.31,0,0,0-1.32,2.26Z" fill="#ce6b00"/>
          <path d="M423.81,668.42c12.69,9.68,23.43,21.44,33.56,33.72,1.39,1.68,4.23-.52,3-2.33C451.21,686,439,674.94,425.56,665.42c-1.85-1.31-3.49,1.67-1.75,3Z" fill="#ce6b00"/>
          <path d="M319.83,608.68a52,52,0,0,1,27.08,10.63c1.58,1.2,3.51-1.39,2.1-2.72-8.13-7.7-18-11.21-29.18-10.91a1.5,1.5,0,0,0,0,3Z" fill="#ce6b00"/>
          <path d="M259.47,685.28a107.74,107.74,0,0,1,38.54,13,1.41,1.41,0,0,0,1.42-2.43,86.28,86.28,0,0,0-40-12.53c-1.28-.09-1.22,1.82,0,2Z" fill="#ce6b00"/>
          <path d="M331.94,699.89c12.56,6.24,22.86,15.12,33.78,23.73,1.24,1,3.59-.34,2.43-1.88-8.71-11.61-21.91-19-35.31-24-1.23-.47-2.08,1.55-.9,2.14Z" fill="#ce6b00"/>
          <path d="M339.45,765.73a150.59,150.59,0,0,1,12.41,13c3.83,4.61,7.16,9.56,11.55,13.67a1.65,1.65,0,0,0,2.57-2c-4.85-10.7-15.16-19.67-23.74-27.45-1.87-1.69-4.64,1-2.79,2.79Z" fill="#ce6b00"/>
          <path d="M396,721.24c6,5.34,9.7,12.61,12.18,20.18.73,2.21,4.37,2,4.24-.57-.51-9.82-5.86-17.48-13.58-23.29-2.12-1.6-4.82,1.93-2.84,3.68Z" fill="#ce6b00"/>
          <path d="M256.8,735.55a164.4,164.4,0,0,1,32.05,12.69c1.71.88,3.2-1.61,1.52-2.59a127.81,127.81,0,0,0-32.72-13.18,1.6,1.6,0,0,0-.85,3.08Z" fill="#ce6b00"/>
          <path d="M260.9,784.5C272,789.92,283,795.67,294,801.35c2.14,1.1,4-2,1.89-3.24a368.4,368.4,0,0,0-33.2-16.61c-2-.89-3.78,2-1.75,3Z" fill="#ce6b00"/>
          <path d="M250.87,836.2c8.3,6,15.05,13.55,22.48,20.52a1.7,1.7,0,0,0,2.65-2.05c-5.34-9.43-14-16.36-22.9-22.27-2.4-1.59-4.48,2.17-2.23,3.8Z" fill="#ce6b00"/>
          <path d="M179.87,792.79a82.94,82.94,0,0,1,24.87,13.34c1.82,1.38,4.14-1.66,2.44-3.17a60.69,60.69,0,0,0-26.36-13.6,1.78,1.78,0,0,0-.95,3.43Z" fill="#ce6b00"/>
          <path d="M196.14,851.7c6.3,5.28,12.59,10.56,19.05,15.65.78.62,1.91-.44,1.12-1.13-6.15-5.44-12.46-10.67-18.78-15.91-1-.81-2.36.57-1.39,1.39Z" fill="#ce6b00"/>
          <path d="M135.29,883.28c9.92,1.41,19.25,4.86,28.33,9.05a1.45,1.45,0,0,0,1.46-2.51c-8.76-6.19-18.68-9.15-29.26-10.5-2.23-.29-2.78,3.63-.53,4Z" fill="#ce6b00"/>
          <path d="M191,893.14a31.92,31.92,0,0,1,12,7.52c1.51,1.46,4.36-.51,3-2.33a25.78,25.78,0,0,0-13.81-9.62c-2.84-.88-4,3.51-1.22,4.43Z" fill="#ce6b00"/>
          <path d="M471.55,407.8c0,4,100.91,39,110.46,80.5S412.55,682.8,321.55,736.8s-161,208-209,221l95-5,157-120,199-157,88-53,40-73-28-109-175-62Z" fill="#d85107" opacity="0.35"/>
        </g>
      </g>
    </g>
  </g>
</svg>
