<svg xmlns="http://www.w3.org/2000/svg" xmlns:xlink="http://www.w3.org/1999/xlink" viewBox="0 0 1000 1000">
  <defs>
    <clipPath id="b30d38a2-7bac-499b-aeba-17a521185fb2">
      <path d="M397.78,269.23s60.51-16.94,67.77-46-16.95-58.09-38.73-62.93-31.46-19.36-24.2-33.89,16.94-26.62,29-24.2,31.47,16.94,60.51,41.15,38.73,62.92,46,77.45,31.46,33.88,67.76,43.56,43.57,33.89-4.84,48.41S284.25,315.9,397.78,269.23Z" fill="#a05000"/>
    </clipPath>
    <clipPath id="e0cf1f4a-7a33-425d-9996-7b34158712d7">
      <ellipse cx="773.25" cy="572.08" rx="120" ry="262.55" fill="#ff8b00"/>
    </clipPath>
    <clipPath id="aa7d4d63-a498-446a-b8e9-89b8489b7522">
      <ellipse cx="653.25" cy="572.08" rx="138" ry="301.93" fill="#ff8b00"/>
    </clipPath>
    <clipPath id="e212ae00-9bfc-4fc0-bd95-c56ea5ab32f5">
      <ellipse cx="226.75" cy="572.08" rx="120" ry="262.55" fill="#ff8b00"/>
    </clipPath>
    <clipPath id="e451b554-7414-4578-bdbc-3d3ab52f34d1">
      <ellipse cx="346.75" cy="572.08" rx="138" ry="301.93" fill="#ff8b00"/>
    </clipPath>
    <clipPath id="e89da854-3913-4ab1-9f32-e8b6bfb93539">
      <ellipse cx="504.25" cy="572.08" rx="149" ry="326" fill="#ff8b00"/>
    </clipPath>
  </defs>
  <g id="fc03ee44-3420-4e1f-ad0d-d413b83ca032" data-name="Layer 3">
    <g>
      <path d="M397.78,269.23s60.51-16.94,67.77-46-16.95-58.09-38.73-62.93-31.46-19.36-24.2-33.89,16.94-26.62,29-24.2,31.47,16.94,60.51,41.15,38.73,62.92,46,77.45,31.46,33.88,67.76,43.56,43.57,33.89-4.84,48.41S284.25,315.9,397.78,269.23Z" fill="#a05000"/>
      <g clip-path="url(#b30d38a2-7bac-499b-aeba-17a521185fb2)">
        <path d="M389.25,106.9c14,8,58,23,78,36s44,43,37,70-32,53-24,69,142,37,142,37l25-41-2-32-214-159Z" fill="#6b2b00" opacity="0.29"/>
      </g>
    </g>
    <g>
      <g>
        <ellipse cx="773.25" cy="572.08" rx="120" ry="262.55" fill="#ff8b00"/>
        <g clip-path="url(#e0cf1f4a-7a33-425d-9996-7b34158712d7)">
          <path d="M736.76,299.9s77.49,51,69.49,291-99,289-99,289l-22-74,68-255L706.8,338.5l30-38.6" fill="#d85107" opacity="0.35"/>
          <path d="M269,246s295,24,435,151,53,434-162,455-315-17-315-17l156,80,252-17,138-35,120-63s12-308,12-324-42-200-42-200L538,221Z" fill="#d85107" opacity="0.35"/>
        </g>
      </g>
      <g>
        <ellipse cx="653.25" cy="572.08" rx="138" ry="301.93" fill="#ff8b00"/>
        <g clip-path="url(#aa7d4d63-a498-446a-b8e9-89b8489b7522)">
          <path d="M593.25,269.9s62,20,81,223-57,442-114,399l23-110,14-346-22-139Z" fill="#d85107" opacity="0.35"/>
          <path d="M269,246s295,24,435,151,53,434-162,455-315-17-315-17l156,80,252-17,138-35,120-63s12-308,12-324-42-200-42-200L538,221Z" fill="#d85107" opacity="0.35"/>
        </g>
      </g>
      <g>
        <ellipse cx="226.75" cy="572.08" rx="120" ry="262.55" fill="#ff8b00"/>
        <g clip-path="url(#e212ae00-9bfc-4fc0-bd95-c56ea5ab32f5)">
          <path d="M259.25,285.9s-67,88-66,270c1.21,220.58,60,289,60,289l28.44-29.08L263.25,562.9l29.41-278.09Z" fill="#d85107" opacity="0.35"/>
        </g>
      </g>
      <g>
        <ellipse cx="346.75" cy="572.08" rx="138" ry="301.93" fill="#ff8b00"/>
        <g clip-path="url(#e451b554-7414-4578-bdbc-3d3ab52f34d1)">
          <path d="M414.25,262.9s-77,64-79,300,80,320,80,320l28-48-1-546Z" fill="#d85107" opacity="0.35"/>
          <path d="M269,246s295,24,435,151,53,434-162,455-315-17-315-17l156,80,252-17,138-35,120-63s12-308,12-324-42-200-42-200L538,221Z" fill="#d85107" opacity="0.35"/>
        </g>
      </g>
      <g>
        <ellipse cx="504.25" cy="572.08" rx="149" ry="326" fill="#ff8b00"/>
        <g clip-path="url(#e89da854-3913-4ab1-9f32-e8b6bfb93539)">
          <path d="M269,246s295,24,435,151,53,434-162,455-315-17-315-17l156,80,252-17,138-35,120-63s12-308,12-324-42-200-42-200L538,221Z" fill="#d85107" opacity="0.35"/>
        </g>
      </g>
      <ellipse cx="308.36" cy="363.24" rx="39.9" ry="30.37" transform="translate(-168.01 373.33) rotate(-50.88)" fill="#fff" opacity="0.45"/>
      <ellipse cx="269.17" cy="432.07" rx="21.5" ry="16.37" transform="translate(-231.66 523.21) rotate(-68.39)" fill="#fff" opacity="0.45"/>
    </g>
  </g>
</svg>
