<svg xmlns="http://www.w3.org/2000/svg" xmlns:xlink="http://www.w3.org/1999/xlink" viewBox="0 0 1000 1000">
  <defs>
    <clipPath id="bdd56624-99b6-4d76-9b74-392950044b9b">
      <path d="M244,316s6.72-49.46,34.72-67.46,135,15,180-14c0,0,1,29-22,38,0,0,12,20,37,7,0,0-4,34-88,36S244,316,244,316Z" fill="#ff8b00"/>
    </clipPath>
    <clipPath id="a2df2757-8432-4eea-bdda-fdfc9d833af7">
      <path d="M262.72,571.5c0,5-10,52,30,77s93,19,101,14-90-41-17-98Z" fill="#ff8b00"/>
    </clipPath>
    <clipPath id="f8184e42-56d1-4a33-b39e-e370336acd98">
      <path d="M110.27,442.24a20.58,20.58,0,0,1,1.34-20c20.11-31,91.84-125.7,217.18-125.7,149.85,0,280.12,135.38,280.12,135.38S493.12,594.5,330.49,594.5C192.89,594.5,127.22,478.07,110.27,442.24Z" fill="#ff8b00"/>
    </clipPath>
    <clipPath id="aeecdc4d-489d-4c57-861c-aa4cc94a85ae">
      <path d="M609.45,411.66s20.34-97.48,96.63-114.43S820.51,411.66,868,423.53c0,0-35.6,45.77-101.72,11,0,0,15.26,188.17,125.46,214.45,0,0-119.36,193-305.16,82.22C502.65,681.21,609.45,411.66,609.45,411.66Z" fill="#ff8b00"/>
    </clipPath>
  </defs>
  <g id="aee49586-89ee-46f1-be89-1c80641c66de" data-name="Layer 3">
    <g id="aec101a6-d2af-4d06-9b91-b078dcd36fde" data-name="Layer 4">
      <g>
        <g>
          <path d="M244,316s6.72-49.46,34.72-67.46,135,15,180-14c0,0,1,29-22,38,0,0,12,20,37,7,0,0-4,34-88,36S244,316,244,316Z" fill="#ff8b00"/>
          <g clip-path="url(#bdd56624-99b6-4d76-9b74-392950044b9b)">
            <path d="M378.32,263.39a225.77,225.77,0,0,1,25.29,2.9c8.36,1.57,16.29,4.35,24.47,6.58,13.94,3.81,30.17,5.06,43.76-.73,1.46-.62.7-3.07-.81-3-7.83.5-15.5,1.64-23.38,1.4A104.48,104.48,0,0,1,423.82,267c-7.12-1.87-14.19-3.73-21.55-4.4-7.95-.74-16-.67-23.95-.66a.75.75,0,0,0,0,1.5Z" fill="#ea7a00"/>
            <path d="M392.17,286.87a71.69,71.69,0,0,1,23.43,2.91c7.43,2.22,13.78,6.14,20.6,9.7a56.51,56.51,0,0,0,40.39,4.35,1.32,1.32,0,0,0-.35-2.58c-7.66,0-15.33.75-22.95-.31-8.15-1.13-14.87-4.62-22-8.45a68.64,68.64,0,0,0-39.11-8.24c-1.65.14-1.71,2.69,0,2.62Z" fill="#ea7a00"/>
          </g>
        </g>
        <g>
          <path d="M262.72,571.5c0,5-10,52,30,77s93,19,101,14-90-41-17-98Z" fill="#ff8b00"/>
          <g clip-path="url(#a2df2757-8432-4eea-bdda-fdfc9d833af7)">
            <path d="M311.74,605.15c17.07,8,38.59,7,56.11.77,1.83-.65,1.69-3.7-.49-3.59-9.23.48-18.23,2.75-27.49,3.2s-18.06-.44-26.61-4c-2.05-.84-3.54,2.66-1.52,3.6Z" fill="#ea7a00"/>
            <path d="M317,627.1c19,4.52,38.29,9.79,57.71,4a1.22,1.22,0,0,0-.65-2.35c-18.8,2.67-38.15.43-56.74-2.83-.76-.14-1.09,1-.32,1.17Z" fill="#ea7a00"/>
            <path d="M333.46,652.32c24.54,10.53,54.1,14.87,79.33,4,2.22-1,.54-4.09-1.55-3.69-25.92,5-51.62,7.1-76.87-2.44-1.23-.47-2.13,1.62-.91,2.14Z" fill="#ea7a00"/>
          </g>
        </g>
        <g>
          <path d="M110.27,442.24a20.58,20.58,0,0,1,1.34-20c20.11-31,91.84-125.7,217.18-125.7,149.85,0,280.12,135.38,280.12,135.38S493.12,594.5,330.49,594.5C192.89,594.5,127.22,478.07,110.27,442.24Z" fill="#ff8b00"/>
          <g clip-path="url(#f8184e42-56d1-4a33-b39e-e370336acd98)">
            <path d="M143.72,318.5s95,31,91,127c-3.84,92-109,119-109,119s-55-121-35-164S143.72,318.5,143.72,318.5Z" fill="#ffaa39"/>
            <path d="M205.72,316.5s150-13,200,34,70,111,64,146-116,118-278,56c0,0,47,48,98,63s188-3,217-29,122-125,122-164-108-144-178-147S205.72,316.5,205.72,316.5Z" fill="#d85107" opacity="0.35"/>
            <circle cx="183.72" cy="411.5" r="8" fill="#232533"/>
          </g>
        </g>
        <g>
          <path d="M609.45,411.66s20.34-97.48,96.63-114.43S820.51,411.66,868,423.53c0,0-35.6,45.77-101.72,11,0,0,15.26,188.17,125.46,214.45,0,0-119.36,193-305.16,82.22C502.65,681.21,609.45,411.66,609.45,411.66Z" fill="#ff8b00"/>
          <g clip-path="url(#aeecdc4d-489d-4c57-861c-aa4cc94a85ae)">
            <path d="M740.25,374.66c10.61,14.48,14.79,32.24,19.92,49.15,4.56,15,10.13,33.17,23.7,42.54,1.53,1,3.6-1,2.57-2.57-4.67-6.87-9.45-13.5-13-21.09A240,240,0,0,1,764,417.55c-5.24-15.77-10.84-31.6-21.85-44.37-.9-1-2.74.35-1.92,1.48Z" fill="#ea7a00"/>
            <path d="M738.39,500c10.28,25.43,13.74,52.88,17.09,79.93s5.49,54.19,11.11,80.84c9.86,46.8,32.76,91.65,77.57,113.14a208.55,208.55,0,0,0,77.13,19.74c3,.16,3.41-4.26.69-5.07C899.62,782,876.4,779,854.69,770.1c-21.87-9-40.56-23.46-54.09-42.91-29.51-42.42-33.11-95.55-39.86-145.16-3.86-28.31-10.29-56-21.66-82.29-.17-.39-.85-.11-.69.29Z" fill="#ea7a00"/>
            <path d="M704.08,501.87c2.09,52.69-16.44,103.69-16.33,156.32.09,42.8,14.11,88.6,51.85,112.85,20.4,13.11,44.35,20.06,68,24.58a1.78,1.78,0,0,0,.95-3.43c-19.55-7.38-39.87-13.26-58-23.8a103.41,103.41,0,0,1-41.85-44.55c-21-43-13.76-92.36-8-138,3.53-28,6.5-55.8,4.13-84,0-.42-.67-.43-.65,0Z" fill="#ea7a00"/>
            <path d="M663.29,533.59c-1.06,20.88-6.16,41.62-11.5,61.77-5.27,19.88-12,39.28-18.79,58.68-6.54,18.7-12.63,37.8-13.53,57.75a114.36,114.36,0,0,0,8.81,48.9,104.74,104.74,0,0,0,33.53,43.25c2.42,1.85,5.43-2.15,3.24-4.2-24-22.38-39.25-54.86-38.09-88,.7-19.84,6.87-39.07,12.92-57.82s11.9-37.32,16.48-56.37c5.08-21.13,7.22-42.33,8-64,0-.67-1-.66-1,0Z" fill="#ea7a00"/>
            <path d="M635.88,496a559.13,559.13,0,0,1-21.16,58.86c-8,19.27-17.84,37.66-27.33,56.21-17.67,34.55-34.78,71.12-37.07,110.45-1.21,20.79,1.78,41.47,11.36,60.11,1.2,2.32,5.25.7,4.29-1.81-13.63-35.49-9.57-74.28,2.61-109.56,12.89-37.33,33.55-71.39,48.22-108,8.6-21.49,14.39-43.6,19.89-66a.42.42,0,0,0-.81-.22Z" fill="#ea7a00"/>
            <path d="M642.72,282.5c22-6,89,61,75.5,136.5s41.5,217.5,29,272-133.5,44.5-193-13c0,0-1.5,66.5,28,80s266.5,16.5,316-68,14.5-125.5-32-152-63.5-80.5-35-85,97.5-46.5,72-66-112.5-150.5-174-140S642.72,282.5,642.72,282.5Z" fill="#d85107" opacity="0.35"/>
          </g>
        </g>
      </g>
    </g>
  </g>
</svg>
