<svg xmlns="http://www.w3.org/2000/svg" xmlns:xlink="http://www.w3.org/1999/xlink" viewBox="0 0 1000 1000">
  <defs>
    <clipPath id="bda0055b-7ad8-4e76-9d6e-a013892cf227">
      <circle cx="-520" cy="500" r="328" fill="#ff8b00"/>
    </clipPath>
    <clipPath id="aae16b35-0ade-42bc-a28a-34aa21a72811">
      <path d="M792.15,160.09,486.88,114.18A22.57,22.57,0,0,0,461.64,131L332.89,641.58,841.64,513.31A24.69,24.69,0,0,0,860,485.7L814.39,182.33A26.48,26.48,0,0,0,792.15,160.09Z" fill="#ff8b00"/>
    </clipPath>
  </defs>
  <g id="afc3993b-4d06-4e9a-bc1c-1645d5fc1481" data-name="Layer 3">
    <g>
      <circle cx="-520" cy="500" r="328" fill="#ff8b00"/>
      <g clip-path="url(#bda0055b-7ad8-4e76-9d6e-a013892cf227)">
        <ellipse cx="16.62" cy="371.41" rx="278.02" ry="334.15" transform="translate(-58.08 7.21) rotate(-9.03)" fill="none" stroke="#a05000" stroke-miterlimit="10" stroke-width="16"/>
      </g>
    </g>
    <g>
      <path d="M370,587.19c-15.33,23.7-30.52,48-50.85,67.79a139.32,139.32,0,0,1-34.54,25c-14.27,7.17-29.63,11.78-44.5,17.49-23.67,9.09-49,23-59.25,47.72-5.39,13-4.71,26.94-3.16,40.64,1.59,14.09,4.24,29.1-.86,42.8-9,24.26-39.93,34-43.55,61.14-.38,2.88,4.06,3.19,4.88.66,7.15-22,29.69-33.44,41.2-52.68,15.07-25.19.11-53.73,6-80.48,6.08-27.75,33.36-43,57.6-52.88,13.93-5.66,28.24-10.46,41.72-17.2a141.44,141.44,0,0,0,33.83-23.89c22.45-21.22,38.71-48.09,53.77-74.79a1.32,1.32,0,0,0-2.27-1.33Z" fill="#232533"/>
      <g>
        <path d="M792.15,160.09,486.88,114.18A22.57,22.57,0,0,0,461.64,131L332.89,641.58,841.64,513.31A24.69,24.69,0,0,0,860,485.7L814.39,182.33A26.48,26.48,0,0,0,792.15,160.09Z" fill="#ff8b00"/>
        <g clip-path="url(#aae16b35-0ade-42bc-a28a-34aa21a72811)">
          <rect x="456.41" y="127.81" width="570.03" height="212.31" transform="translate(382.6 -455.74) rotate(45)" fill="#ff9a00"/>
          <line x1="811.48" y1="163" x2="332.89" y2="641.58" fill="none" stroke="#232533" stroke-miterlimit="10" stroke-width="5"/>
          <line x1="466.64" y1="110.22" x2="864.25" y2="507.83" fill="none" stroke="#232533" stroke-miterlimit="10" stroke-width="5"/>
          <polygon points="841.38 131.04 281.38 695.04 630.58 710.23 952.58 568.23 841.38 131.04" fill="#d85107" opacity="0.35"/>
        </g>
      </g>
      <polygon points="230.19 668.32 288.83 681.94 254.76 729.84 230.19 668.32" fill="#ea2727"/>
      <polygon points="162.26 722.66 221.3 710.92 209.98 768.61 162.26 722.66" fill="#ea2727"/>
    </g>
  </g>
</svg>
