<svg xmlns="http://www.w3.org/2000/svg" xmlns:xlink="http://www.w3.org/1999/xlink" viewBox="0 0 1000 1000">
  <defs>
    <clipPath id="b0fc676c-7ce9-4898-823d-2ebddcfa7128">
      <path d="M795.48,867.54,343.41,756.41c-10.76-2.51-24.05-9.16-21.54-19.92h0c2.51-10.76,18.49-9,29.25-6.52l453.45,98.62a20,20,0,0,1,14.93,24h0A20,20,0,0,1,795.48,867.54Z" fill="#a05000"/>
    </clipPath>
    <clipPath id="e6b88cdf-542d-473f-bd70-1a8686aac6ca">
      <path d="M155.54,647.21c-8.39-1.63-35.64,27.38-42.74,54.93-9.06,35.21,16.72,61.75,22,62.67s13-48.78,16-64.14C155.73,675.51,163.92,648.85,155.54,647.21Z" fill="#ea7a00"/>
    </clipPath>
    <clipPath id="bb7e4aff-88b9-430a-8906-423c98a157da">
      <path d="M213.52,631.23c-4.39-6.22-25-7.14-32.76-.2s-16.9,54.18-20.25,76.78c0,0-5.44,26-10.94,57.85s23.05,38.85,28.56,37.54,8.19-26.66,13.76-49.07S217.91,637.46,213.52,631.23Z" fill="#ea7a00"/>
    </clipPath>
    <clipPath id="a42fd13c-e5b1-406d-a690-363a1fad4d6b">
      <path d="M274.16,645.67c-1.44-9.1-36.71-23.74-43-17-8.91,9.57-11,47-19.35,77.84,0,0-6.45,29.49-11.5,66.3s-.7,41.27,15.42,41.79,18.48-10.94,28.83-46.84S275.6,654.78,274.16,645.67Z" fill="#ea7a00"/>
    </clipPath>
    <clipPath id="ab63aeb1-902c-47fd-9c4a-bb1e8c5ec2ce">
      <path d="M290.62,652.86c-10.41-4.06-10.21,15.7-15.26,45.79,0,0-13.5,56.28-18,77s-9.24,28.36-5,31,35.38-4.05,39-10,30.67-103.24,31.13-113.53S301,656.92,290.62,652.86Z" fill="#ea7a00"/>
    </clipPath>
    <clipPath id="a1b96c58-d376-401d-8e70-cf4822e46d9a">
      <path d="M330.26,697.22c-3.08-.73-9.24,28.36-10.36,35.9,0,0-14.22,44.08-8.87,47.53s29.05-11.63,36.26-42.42S333.33,697.94,330.26,697.22Z" fill="#ea7a00"/>
    </clipPath>
  </defs>
  <g style="isolation: isolate">
    <g id="aea7e8f8-3c05-4582-8c88-9e4f78a3c4ee" data-name="Layer 3">
      <g id="bdd1fb81-99da-4bd7-baf8-06c9d5400808" data-name="Layer 4">
        <g>
          <path d="M886.66,348.67c-21-76-100-144-100-144s-149,27-220,27-230-27-230-27-79,68-100,144C218.41,414.75,307.47,706.81,331.05,782a41,41,0,0,0,24.12,25.89c31.65,12.47,103.39,34.8,211.49,34.8,105.22,0,171.08-21.15,201-33.79a43.74,43.74,0,0,0,24.7-27.25C816.12,705.92,904.89,414.65,886.66,348.67Z" fill="#f4ddc1" opacity="0.73"/>
          <path d="M353.57,132.17c55.36,8.8,254.75,36,415.12,1a17.8,17.8,0,0,1,20.88,12.37c4.82,16.42,8.74,42-5.85,59.13,0,0-188,75-445,0,0,0-15.84-24.88-6.25-58.94A18.86,18.86,0,0,1,353.57,132.17Z" fill="#f4ddc1" opacity="0.73"/>
          <polygon points="257.16 465.68 341.16 784.67 782.16 784.67 866.16 465.68 257.16 465.68" fill="#ffd522"/>
          <path d="M782.16,780.67c0,22.65-94,49-215.78,49s-225.22-26.35-225.22-49,98.72-41,220.5-41S782.16,758,782.16,780.67Z" fill="#ffd522"/>
          <ellipse cx="561.66" cy="465.67" rx="304.5" ry="41" fill="#ffba1f"/>
          <path d="M358.16,239.67c-29-.51-77,90-72,156s81,389,101,398-48-319.87-29.5-358.43S471.16,241.67,358.16,239.67Z" fill="#fff" opacity="0.49"/>
          <g>
            <g>
              <path d="M795.48,867.54,343.41,756.41c-10.76-2.51-24.05-9.16-21.54-19.92h0c2.51-10.76,18.49-9,29.25-6.52l453.45,98.62a20,20,0,0,1,14.93,24h0A20,20,0,0,1,795.48,867.54Z" fill="#a05000"/>
              <g clip-path="url(#b0fc676c-7ce9-4898-823d-2ebddcfa7128)">
                <path d="M789.16,814.67c2,4,25,31,0,35s-487-108-487-108l20.37,39.46,516.63,96.54-13-52Z" fill="#843f00"/>
              </g>
            </g>
            <g>
              <path d="M129.4,699.23s15.33-51.62,62.17-53.32,90,2.56,144,67.49l-17.82,59.48s-17.32,19.68-55.58,20.79-90.27,2.22-132-54Z" fill="#a05000"/>
              <g>
                <g>
                  <path d="M155.54,647.21c-8.39-1.63-35.64,27.38-42.74,54.93-9.06,35.21,16.72,61.75,22,62.67s13-48.78,16-64.14C155.73,675.51,163.92,648.85,155.54,647.21Z" fill="#ea7a00"/>
                  <g clip-path="url(#e6b88cdf-542d-473f-bd70-1a8686aac6ca)">
                    <path d="M349.16,707.67s-31,85-125,60-109-55-122-84c0,0-26,82,27,127s162,40,188,22S371.16,739.67,349.16,707.67Z" fill="#c15c00"/>
                    <path d="M130.16,680.67c-.22-6.17,24.73-44.78,90-43s89,50,66,77S132,731.85,130.16,680.67Z" fill="#ff9239"/>
                  </g>
                </g>
                <g>
                  <path d="M213.52,631.23c-4.39-6.22-25-7.14-32.76-.2s-16.9,54.18-20.25,76.78c0,0-5.44,26-10.94,57.85s23.05,38.85,28.56,37.54,8.19-26.66,13.76-49.07S217.91,637.46,213.52,631.23Z" fill="#ea7a00"/>
                  <g clip-path="url(#bb7e4aff-88b9-430a-8906-423c98a157da)">
                    <path d="M349.16,707.67s-31,85-125,60-109-55-122-84c0,0-26,82,27,127s162,40,188,22S371.16,739.67,349.16,707.67Z" fill="#c15c00"/>
                    <path d="M130.16,680.67c-.22-6.17,24.73-44.78,90-43s89,50,66,77S132,731.85,130.16,680.67Z" fill="#ff9239"/>
                  </g>
                </g>
                <g>
                  <path d="M274.16,645.67c-1.44-9.1-36.71-23.74-43-17-8.91,9.57-11,47-19.35,77.84,0,0-6.45,29.49-11.5,66.3s-.7,41.27,15.42,41.79,18.48-10.94,28.83-46.84S275.6,654.78,274.16,645.67Z" fill="#ea7a00"/>
                  <g clip-path="url(#a42fd13c-e5b1-406d-a690-363a1fad4d6b)">
                    <path d="M349.16,707.67s-31,85-125,60-109-55-122-84c0,0-26,82,27,127s162,40,188,22S371.16,739.67,349.16,707.67Z" fill="#c15c00"/>
                    <path d="M130.16,680.67c-.22-6.17,24.73-44.78,90-43s89,50,66,77S132,731.85,130.16,680.67Z" fill="#ff9239"/>
                  </g>
                </g>
                <g>
                  <path d="M290.62,652.86c-10.41-4.06-10.21,15.7-15.26,45.79,0,0-13.5,56.28-18,77s-9.24,28.36-5,31,35.38-4.05,39-10,30.67-103.24,31.13-113.53S301,656.92,290.62,652.86Z" fill="#ea7a00"/>
                  <g clip-path="url(#ab63aeb1-902c-47fd-9c4a-bb1e8c5ec2ce)">
                    <path d="M349.16,707.67s-31,85-125,60-109-55-122-84c0,0-26,82,27,127s162,40,188,22S371.16,739.67,349.16,707.67Z" fill="#c15c00"/>
                    <path d="M130.16,680.67c-.22-6.17,24.73-44.78,90-43s89,50,66,77S132,731.85,130.16,680.67Z" fill="#ff9239"/>
                  </g>
                </g>
                <g>
                  <path d="M330.26,697.22c-3.08-.73-9.24,28.36-10.36,35.9,0,0-14.22,44.08-8.87,47.53s29.05-11.63,36.26-42.42S333.33,697.94,330.26,697.22Z" fill="#ea7a00"/>
                  <g clip-path="url(#a1b96c58-d376-401d-8e70-cf4822e46d9a)">
                    <path d="M349.16,707.67s-31,85-125,60-109-55-122-84c0,0-26,82,27,127s162,40,188,22S371.16,739.67,349.16,707.67Z" fill="#c15c00"/>
                  </g>
                </g>
              </g>
            </g>
          </g>
          <path d="M782.16,229.67c-26,6-86,17-200,19,0,0,77,192,85,295S593.6,817.91,593.6,817.91s98.11,3.67,164.83-36.78S866.54,391.69,866.16,366.67C865.16,299.67,782.16,229.67,782.16,229.67Z" fill="#ffd522" opacity="0.25" style="mix-blend-mode: multiply"/>
          <path d="M416.38,545.45c7.67,0,7.68-11.91,0-11.91s-7.67,11.91,0,11.91Z" fill="#ffba1f"/>
          <path d="M411.63,564.46c7.66,0,7.68-11.9,0-11.9s-7.67,11.9,0,11.9Z" fill="#ffba1f"/>
          <path d="M452,547.83c7.66,0,7.67-11.91,0-11.91s-7.68,11.91,0,11.91Z" fill="#ffba1f"/>
          <path d="M385.49,534.75c7.66,0,7.67-11.9,0-11.9s-7.68,11.9,0,11.9Z" fill="#f78f1e"/>
          <path d="M592.27,560.9c7.66,0,7.67-11.91,0-11.91s-7.68,11.91,0,11.91Z" fill="#f78f1e"/>
          <path d="M459.17,691.62c7.66,0,7.67-11.91,0-11.91s-7.68,11.91,0,11.91Z" fill="#f78f1e"/>
          <path d="M582.76,722.52c7.66,0,7.67-11.91,0-11.91s-7.68,11.91,0,11.91Z" fill="#f78f1e"/>
          <path d="M311.81,610.81c7.66,0,7.67-11.91,0-11.91s-7.68,11.91,0,11.91Z" fill="#f78f1e"/>
          <path d="M654.06,519.31c7.66,0,7.68-11.91,0-11.91s-7.67,11.91,0,11.91Z" fill="#f78f1e"/>
          <path d="M460.36,709.15c5.74,0,5.75-8.93,0-8.93s-5.76,8.93,0,8.93Z" fill="#f78f1e"/>
          <path d="M610.09,555.55c3.83,0,3.84-6,0-6s-3.84,6,0,6Z" fill="#f78f1e"/>
          <path d="M614.84,739.74c3.84,0,3.84-6,0-6s-3.83,6,0,6Z" fill="#f78f1e"/>
          <path d="M430.65,803.92c3.83,0,3.83-6,0-6s-3.84,6,0,6Z" fill="#f78f1e"/>
          <path d="M302.3,565.05c3.83,0,3.84-5.95,0-5.95s-3.84,5.95,0,5.95Z" fill="#f78f1e"/>
          <path d="M511.46,562.68c3.83,0,3.83-6,0-6s-3.84,6,0,6Z" fill="#f78f1e"/>
          <path d="M638.61,645.86c3.83,0,3.84-6,0-6s-3.83,6,0,6Z" fill="#f78f1e"/>
          <path d="M721.8,591.2c3.83,0,3.84-6,0-6s-3.84,6,0,6Z" fill="#f78f1e"/>
          <path d="M742,674.38c3.83,0,3.84-6,0-6s-3.84,6,0,6Z" fill="#f78f1e"/>
          <path d="M806.17,563.86c3.84,0,3.84-6,0-6s-3.83,6,0,6Z" fill="#f78f1e"/>
          <path d="M664.76,744.5c3.83,0,3.83-6,0-6s-3.84,6,0,6Z" fill="#f78f1e"/>
          <path d="M789.54,643.79c5.74,0,5.75-8.93,0-8.93s-5.76,8.93,0,8.93Z" fill="#f78f1e"/>
          <path d="M686.15,751.93c5.74,0,5.75-8.93,0-8.93s-5.76,8.93,0,8.93Z" fill="#f78f1e"/>
          <path d="M739.63,532.08c5.74,0,5.75-8.93,0-8.93s-5.76,8.93,0,8.93Z" fill="#f78f1e"/>
        </g>
      </g>
    </g>
  </g>
</svg>
