<svg xmlns="http://www.w3.org/2000/svg" viewBox="0 0 1000 1000">
  <g id="a1543661-4ebf-4223-b2d1-b192a4898e71" data-name="Layer 3">
    <g id="b4278e25-ad5d-42d2-acfa-5a0cbec6dba0" data-name="Layer 4">
      <g>
        <path d="M128.88,491.45C87,399,90.28,301.78,159.76,224.58S345,102.18,429.93,116.51s156.62,106.64,231.58,159.9c83.81,59.55,208.42,79.4,225,215S815.9,855.36,638.35,876.32,302,901.68,257.9,708.7C227.73,576.71,159.78,559.67,128.88,491.45Z" fill="#efede4"/>
        <circle cx="362.11" cy="374.01" r="149.42" fill="#ffd522"/>
        <path d="M272.24,176.06C248,193,463.48,166.36,512,302s13,149-57,222c-48.95,51-138.74,201.85-30,303,43,40,255.26,51.52,340.17-63.17s116.68-284.58,57.34-345.16c-52.93-54-138.94-67.27-237.09-162.11C504.72,178.58,404.64,83.53,272.24,176.06Z" fill="#fff" opacity="0.41"/>
        <path d="M311.87,336c-3.59,14.05-3.67,52.86-9.6,58.16s-23.6-3.38-31.61-10c-12.69-10.54-16.94-40.82-7.87-55.46S316.89,316.35,311.87,336Z" fill="#fff" opacity="0.41"/>
      </g>
      <path d="M384,250c36,0,88,22,103,91S438,501,385,500s24-25,45-70c25-53.59,11-95-39-119S348,250,384,250Z" fill="#ffba1f" opacity="0.6"/>
    </g>
  </g>
</svg>
