<svg xmlns="http://www.w3.org/2000/svg" xmlns:xlink="http://www.w3.org/1999/xlink" viewBox="0 0 1000 1000">
  <defs>
    <clipPath id="ef074341-5198-4aac-b251-9c8c8a74de28">
      <path d="M722.86,309.71s-31.06-6.19-62.36,44S515.12,532.91,389.77,553.76s-206.14,37.29-213.55,68-2.11,86,141.38,121.51c0,0,241.3-64.06,317.57-189.4S722.86,309.71,722.86,309.71Z" fill="#ffd522"/>
    </clipPath>
    <clipPath id="ae85b020-df49-45ca-935b-f44087f136cb">
      <path d="M763.79,313.46s111.1,61.72,36,257S475.7,875.55,272.24,792.08c-62.3-25.56-15.24-89.64,75.24-121.7S548.94,600,623.57,465.27C699,329.17,690.63,330.75,709,321.53c0,0-14.85-63.28-55.12-87.84l83-38.12S771.86,261.94,763.79,313.46Z" fill="#ffd522"/>
    </clipPath>
  </defs>
  <g id="bbf6cb9e-8ab5-4202-9a49-2f30e7fe9a6c" data-name="Layer 3">
    <g id="a5631fc9-bfc8-4d5f-a421-17e4d7915f97" data-name="Layer 4">
      <g>
        <g>
          <path d="M722.86,309.71s-31.06-6.19-62.36,44S515.12,532.91,389.77,553.76s-206.14,37.29-213.55,68-2.11,86,141.38,121.51c0,0,241.3-64.06,317.57-189.4S722.86,309.71,722.86,309.71Z" fill="#ffd522"/>
          <g clip-path="url(#ef074341-5198-4aac-b251-9c8c8a74de28)">
            <path d="M702.45,259.29s-93.2,263.6-220.38,332.49-270.23,87.34-340.36,47.75l51.35,110.38,163,8.22L583,666.36,797.17,277Z" fill="#ffba1f" opacity="0.6"/>
            <path d="M157.57,631.5s185.93-37.06,223.72-50S500.21,551,562.82,450.65s-420,152.45-420,152.45Z" fill="#fff" opacity="0.41"/>
            <polygon points="168.19 604.81 197.8 621.51 198.13 657.22 179.1 685.25 160.33 663.63 156.34 617.24 168.19 604.81" fill="#a05000"/>
            <path d="M330.23,379c7.66,0,7.67-11.9,0-11.9s-7.68,11.9,0,11.9Z" fill="#ff9e16"/>
            <path d="M330.23,379c7.66,0,7.67-11.9,0-11.9s-7.68,11.9,0,11.9Z" fill="#ff9e16"/>
          </g>
        </g>
        <g>
          <path d="M763.79,313.46s111.1,61.72,36,257S475.7,875.55,272.24,792.08c-62.3-25.56-15.24-89.64,75.24-121.7S548.94,600,623.57,465.27C699,329.17,690.63,330.75,709,321.53c0,0-14.85-63.28-55.12-87.84l83-38.12S771.86,261.94,763.79,313.46Z" fill="#ffd522"/>
          <g clip-path="url(#ae85b020-df49-45ca-935b-f44087f136cb)">
            <path d="M850.62,292.17S727,317.54,740.76,320.11c0,0,50.9,103.55-35.23,240s-306,255-477.59,201l68.33,106s372.82-.79,437.81-58.15S867.79,347.58,850.62,292.17Z" fill="#ffba1f" opacity="0.6"/>
            <path d="M267.63,746.14s101.75-34.25,157.54-60.27c112-52.21,199.13-77.31,280.86-365.19,6.2-21.86-42.66,2.33-42.66,2.33S538.4,573.65,485.2,599.23s-253.88,113-252.66,113.33-4.6,48.57-4.6,48.57Z" fill="#fff" opacity="0.41"/>
            <path d="M244,736.82s22.74,7.76,23.61,9.32,10.18,24.72,11.14,25.48-5.68,24.64-10,26S222.06,772.58,244,736.82Z" fill="#a05000"/>
            <path d="M687.1,202.44s46.9,47.44,53.26,117.49l53.58-8.42L747.06,176.15Z" fill="#ffba1f" opacity="0.6"/>
          </g>
        </g>
        <path d="M731.94,213.31c4.09-1.39,17-16-4.31-29.57-20.27-12.9-48.07,8.26-63.88,19.23s-19.63,32,2.27,36.72S731.94,213.31,731.94,213.31Z" fill="#a05000"/>
      </g>
    </g>
  </g>
</svg>
