<svg xmlns="http://www.w3.org/2000/svg" xmlns:xlink="http://www.w3.org/1999/xlink" viewBox="0 0 1000 1000">
  <defs>
    <clipPath id="a0fa5f12-6920-4564-af88-a0a52991c418">
      <path d="M131.23,643.42c-4.77-32.17,4.32-123.32,28.12-201.21,0,0,88.71,56.25,140.64,45.43s106-43.27,188.23-23.8S776,444.37,767.33,643.42,514.19,803.53,414.66,803.53,157.19,818.68,131.23,643.42Z" fill="#ffd522"/>
    </clipPath>
    <clipPath id="bde39722-9ac7-4818-a960-0cd0ed01b6c2">
      <path d="M767.33,377.3c0,88.42-56.54,145-145,145S425.48,483,425.48,394.61,518.8,193.39,607.22,193.39,767.33,288.87,767.33,377.3Z" fill="#ffd522"/>
    </clipPath>
    <clipPath id="bc8949dc-fed7-4ad8-88d5-cc3d44d794d5">
      <path d="M724,388.64c8.43-51.42,29.85-66.25,38.77-66.25s50.48,12.78,65.17,7.55,39.89-7.85,42,1.6-24.16,43-70.87,51.38c0,0,69.64,6.91,63,33.62-1.06,4.2-47.23,1.55-66.65,7.83s-41.94,21.83-41.94,21.83S718.76,420.38,724,388.64Z" fill="#ea2727"/>
    </clipPath>
  </defs>
  <g id="bf24d7bd-17c9-4423-8922-53c3dc6a6512" data-name="Layer 3">
    <g id="bf719e41-d444-4dd5-81cc-f9059f315a4b" data-name="Layer 4">
      <g>
        <g>
          <path d="M131.23,643.42c-4.77-32.17,4.32-123.32,28.12-201.21,0,0,88.71,56.25,140.64,45.43s106-43.27,188.23-23.8S776,444.37,767.33,643.42,514.19,803.53,414.66,803.53,157.19,818.68,131.23,643.42Z" fill="#ffd522"/>
          <g clip-path="url(#a0fa5f12-6920-4564-af88-a0a52991c418)">
            <path d="M277.92,482.61s82.19-57.22,292.34-13.52c125.73,26.14,88.43,292.34-154,302.75S74,664.68,74,664.68l56.18,148.77,637.75,3.12,49.94-269.45L712.79,433.72,314.33,421.23Z" fill="#ffba1f" opacity="0.6"/>
          </g>
        </g>
        <g>
          <path d="M767.33,377.3c0,88.42-56.54,145-145,145S425.48,483,425.48,394.61,518.8,193.39,607.22,193.39,767.33,288.87,767.33,377.3Z" fill="#ffd522"/>
          <g clip-path="url(#bde39722-9ac7-4818-a960-0cd0ed01b6c2)">
            <path d="M542.17,181.94l-25.25,46.92s42.94-33.39,119.93-1.14S733.6,404.58,663.9,442,487,466,406.92,380.66l-4,79.8L525.53,554.4l173.74,6.24L795,469.09l16.65-172.7L712.79,171.54Z" fill="#ffba1f" opacity="0.6"/>
          </g>
        </g>
        <g>
          <path d="M724,388.64c8.43-51.42,29.85-66.25,38.77-66.25s50.48,12.78,65.17,7.55,39.89-7.85,42,1.6-24.16,43-70.87,51.38c0,0,69.64,6.91,63,33.62-1.06,4.2-47.23,1.55-66.65,7.83s-41.94,21.83-41.94,21.83S718.76,420.38,724,388.64Z" fill="#ea2727"/>
          <g clip-path="url(#bc8949dc-fed7-4ad8-88d5-cc3d44d794d5)">
            <path d="M875.35,381.92s-156.26-.7-161.25,14.28-2.56,48.7-18.45,47.93l71.63,35.12L883.64,438.7Z" fill="#ce0909"/>
          </g>
        </g>
        <path d="M258.88,591.5s101.69,4.32,170.93-41.11,166.6-8.62,166.6,62.74C596.41,714.82,369.22,749.44,258.88,591.5Z" fill="#fff" opacity="0.49"/>
        <ellipse cx="619.26" cy="296.84" rx="31.46" ry="40.03" transform="translate(-39.76 103.72) rotate(-9.28)" fill="#fff"/>
        <ellipse cx="637.05" cy="297.45" rx="8.68" ry="17.57" transform="translate(-39.62 106.59) rotate(-9.28)" fill="#232533"/>
      </g>
    </g>
  </g>
</svg>
