<svg xmlns="http://www.w3.org/2000/svg" xmlns:xlink="http://www.w3.org/1999/xlink" viewBox="0 0 1000 1000">
  <defs>
    <clipPath id="b4597e47-b956-4246-bd04-75ecd43f05b8">
      <path d="M457.84,279.79c88,157.56,30.79,357.3-127.24,444.44A324.46,324.46,0,0,1,186,764.54c-10.95.42-16.14,13.74-8.2,21.29,121.65,115.54,308.78,144.3,463,58.39C827.51,740.23,897.41,505,797.53,316.05,705.05,141.11,500.89,65.34,321.14,127.29c-9.23,3.18-10,15.91-1.25,20.3A324.44,324.44,0,0,1,457.84,279.79Z" fill="#ffd522"/>
    </clipPath>
  </defs>
  <g id="aa7b975d-528d-4ef4-9fc9-88a5d8335c3c" data-name="Layer 3">
    <g id="f62850df-48ed-4107-8d14-4f002f897859" data-name="Layer 4">
      <g>
        <path d="M457.84,279.79c88,157.56,30.79,357.3-127.24,444.44A324.46,324.46,0,0,1,186,764.54c-10.95.42-16.14,13.74-8.2,21.29,121.65,115.54,308.78,144.3,463,58.39C827.51,740.23,897.41,505,797.53,316.05,705.05,141.11,500.89,65.34,321.14,127.29c-9.23,3.18-10,15.91-1.25,20.3A324.44,324.44,0,0,1,457.84,279.79Z" fill="#ffd522"/>
        <g clip-path="url(#b4597e47-b956-4246-bd04-75ecd43f05b8)">
          <path d="M247,118.81s324-9,456,227-123,583-571,461c0,0,196,147,275,140s377-64,414-124,73-370,73-410-173-250-173-250l-275-116Z" fill="#ffba1f" opacity="0.6"/>
          <g opacity="0.45">
            <path d="M532.81,331c3.92,0,7.68-3.45,7.5-7.5a7.63,7.63,0,0,0-7.5-7.5c-3.92,0-7.68,3.45-7.5,7.5a7.63,7.63,0,0,0,7.5,7.5Z" fill="#f78f1e"/>
          </g>
          <g opacity="0.45">
            <path d="M527.52,255.24a15.48,15.48,0,0,0,10.61-4.4,15.23,15.23,0,0,0,4.39-10.6c-.17-3.88-1.44-7.91-4.39-10.61a15,15,0,0,0-21.21,0,15.29,15.29,0,0,0-4.4,10.61c.18,3.88,1.45,7.9,4.4,10.6a15.55,15.55,0,0,0,10.6,4.4Z" fill="#f78f1e"/>
          </g>
          <g opacity="0.45">
            <path d="M568.5,720.48a15.47,15.47,0,0,0,10.6-4.39,15.26,15.26,0,0,0,4.4-10.61c-.18-3.88-1.45-7.9-4.4-10.61a15,15,0,0,0-21.21,0,15.23,15.23,0,0,0-4.39,10.61c.17,3.88,1.45,7.9,4.39,10.61a15.61,15.61,0,0,0,10.61,4.39Z" fill="#f78f1e"/>
          </g>
          <g opacity="0.45">
            <path d="M347.77,790.53a15.47,15.47,0,0,0,10.61-4.39,15.25,15.25,0,0,0,4.39-10.61c-.17-3.88-1.45-7.9-4.39-10.61a15,15,0,0,0-21.22,0,15.23,15.23,0,0,0-4.39,10.61c.17,3.88,1.45,7.9,4.39,10.61a15.63,15.63,0,0,0,10.61,4.39Z" fill="#f78f1e"/>
          </g>
          <g opacity="0.45">
            <path d="M524.88,636.78a23.13,23.13,0,0,0,22.5-22.5c-.26-5.82-2.17-11.85-6.59-15.91a23.38,23.38,0,0,0-15.91-6.59,23.13,23.13,0,0,0-22.5,22.5c.26,5.82,2.17,11.85,6.59,15.91a23.38,23.38,0,0,0,15.91,6.59Z" fill="#f78f1e"/>
          </g>
          <g opacity="0.45">
            <path d="M605.5,298.93a4.5,4.5,0,1,0-4.5-4.5,4.55,4.55,0,0,0,4.5,4.5Z" fill="#f78f1e"/>
          </g>
          <g opacity="0.45">
            <path d="M435,730.34c4.71,0,9.22-4.14,9-9a9.15,9.15,0,0,0-9-9c-4.7,0-9.21,4.14-9,9a9.16,9.16,0,0,0,9,9Z" fill="#f78f1e"/>
          </g>
          <g opacity="0.45">
            <path d="M622.69,696c4.7,0,9.21-4.13,9-9a9.17,9.17,0,0,0-9-9c-4.71,0-9.22,4.14-9,9a9.15,9.15,0,0,0,9,9Z" fill="#f78f1e"/>
          </g>
          <g opacity="0.45">
            <path d="M490.52,218.84c4.7,0,9.21-4.14,9-9a9.16,9.16,0,0,0-9-9c-4.71,0-9.22,4.14-9,9a9.15,9.15,0,0,0,9,9Z" fill="#f78f1e"/>
          </g>
          <g opacity="0.45">
            <path d="M662.34,333.83c4.71,0,9.22-4.14,9-9a9.16,9.16,0,0,0-9-9c-4.71,0-9.22,4.14-9,9a9.16,9.16,0,0,0,9,9Z" fill="#f78f1e"/>
          </g>
        </g>
      </g>
    </g>
  </g>
</svg>
