<svg xmlns="http://www.w3.org/2000/svg" xmlns:xlink="http://www.w3.org/1999/xlink" viewBox="0 0 1000 1000"><defs><clipPath id="a7138d83-091d-489d-b990-b5041e0df2bb"><path d="M583.87,588.08c-14.72-4.74-53-19.05-71.21-58s-33.12-131.66,11.59-178.86c0,0,1.66,12.42,3.31,12.42s38.92-71.21,53-80.32a66.13,66.13,0,0,0,25.67-30.64c4.14-9.93,39.75-33.12,53.82-40.57s56.31-38.09,59.62-43.89c0,0,21.53,82.81,29.81,104.34s39.75,75.35,40.58,88.6,5.8,120.89,0,132.49-19,30.64-29.81,38.09S742,557.44,738.72,564.06s-27.33,25.67-46.37,32.3S607.06,595.53,583.87,588.08Z" style="fill:#2bbf11"/></clipPath><clipPath id="ac1c1b6a-df43-487e-9d89-4a693e888fb1"><path d="M207.93,537.56s36.44,1.66,65.42-5.79,68.73,1.65,85.29,0,50.51-1.66,72,8.28,67.9,48,84.46,54.65,18.22,21.53,27.33,42.23,11.59,34.78,10.76,46.37,3.32,32.3-10.76,42.23S499.41,752,475.4,752,415,734.64,400,733.81s-31.46-11.59-41.4-22.35-31.47-24.85-34.78-30.64,0-14.08-14.9-20.7-48-44.72-57.14-52.17-16.56-35.61-22.36-39.75S203,547.5,207.93,537.56Z" style="fill:#2bbf11"/></clipPath></defs><g id="eab9b3ea-4329-4416-afd7-c2511da45477" data-name="Layer 3"><g id="b96cefd1-57a0-44ed-bcd7-f21f5846ea65" data-name="Layer 4"><path d="M583.87,588.08c-14.72-4.74-53-19.05-71.21-58s-33.12-131.66,11.59-178.86c0,0,1.66,12.42,3.31,12.42s38.92-71.21,53-80.32a66.13,66.13,0,0,0,25.67-30.64c4.14-9.93,39.75-33.12,53.82-40.57s56.31-38.09,59.62-43.89c0,0,21.53,82.81,29.81,104.34s39.75,75.35,40.58,88.6,5.8,120.89,0,132.49-19,30.64-29.81,38.09S742,557.44,738.72,564.06s-27.33,25.67-46.37,32.3S607.06,595.53,583.87,588.08Z" style="fill:#2bbf11"/><g style="clip-path:url(#a7138d83-091d-489d-b990-b5041e0df2bb)"><path d="M717.47,174.08c-6.06,15.47-13.21,30.46-19.82,45.69-6.3,14.5-13.14,28.66-20.35,42.72C662.79,290.81,648,319,634.59,347.9c-7.44,16.07-14.39,32.49-19.13,49.58-.38,1.33,1.72,2.32,2.31,1,12.81-29.42,24.41-59.38,38.7-88.14s28.14-57.89,41.94-86.94c7.6-16,13.69-32.46,19.42-49.19.08-.23-.27-.32-.36-.1Z" style="fill:#1e8c03"/><path d="M722.65,267.07c-15,19.8-36.53,31.33-56.33,45.51-17.1,12.23-34.86,27.31-39.23,48.87a2.16,2.16,0,0,0,4.16,1.14c8.66-21.73,25.16-37.62,43.51-51.4,17.39-13.06,36.37-25.34,48.86-43.55.42-.61-.54-1.13-1-.57Z" style="fill:#1e8c03"/><path d="M639,248.28c8.3,10.81,12.1,22.84,13.3,36.34,1.13,12.7-1.73,25.13-5.93,37.05-.65,1.83,2.14,2.93,3.08,1.3,13.76-23.77,6.69-54.72-9.49-75.43-.42-.54-1.38.19-1,.74Z" style="fill:#1e8c03"/><path d="M698.52,396.83c-13.13,7.12-26.36,14-39.68,20.74-11.9,6-24,12.09-34.16,20.82-18.09,15.47-29.9,40.43-33.33,63.78a2.63,2.63,0,0,0,5.06,1.4c4.49-11.05,7.77-22.51,13.14-33.21s12.36-20.31,21.63-27.91c9.88-8.11,21.24-14.46,31.89-21.5q17.86-11.81,36-23.15a.56.56,0,0,0-.57-1Z" style="fill:#1e8c03"/><path d="M558.39,361.3a166.8,166.8,0,0,1,21.93,24.06c7.11,9.62,10.52,20.36,12.33,32.07,3.84,24.88,5.17,49,2.43,74.06-.18,1.61,2.18,1.7,2.67.36,8.71-24,2.08-51.9-2.21-76.18-2.07-11.69-5.6-22.17-12.57-31.86-6.77-9.41-15.27-15.74-24.25-22.84-.23-.18-.56.12-.33.33Z" style="fill:#1e8c03"/><path d="M751.53,456.55c-8.74,12.34-18.45,24.06-29.95,33.9a215,215,0,0,1-37.29,25.3c-13.8,7.46-28.93,13.66-43.68,19-14,5.08-28.19,10-41,17.71a75,75,0,0,0-16.16,12.45c-4.06,4.35-8.73,10.15-8,16.46.25,2,2.72,3,3.93,1.06,3.3-5.12,5.68-10.07,10.2-14.35a84.73,84.73,0,0,1,15.46-11.33,271.51,271.51,0,0,1,42.53-20.06c14.19-5.28,27.83-10.78,40.94-18.49a178.58,178.58,0,0,0,33.12-25.37c11.4-10.91,22-22.62,30.74-35.77.37-.56-.51-1.05-.89-.52Z" style="fill:#1e8c03"/><path d="M534.63,451.66c6,17.71,15.59,33.82,25.34,49.68a239.2,239.2,0,0,1,13.7,24.86c4.87,10.54,6.48,20.47,6.1,32,0,1.24,1.89,1.86,2.45.66,8-17.33-6.66-39.48-15.64-53.63-11.13-17.54-24.68-33.88-31.68-53.65-.06-.17-.33-.1-.27.08Z" style="fill:#1e8c03"/><path d="M743.29,133.25S625.79,332.79,605.54,431s-32.25,153.23-32.25,153.23l133,29,88-63,32-101-54-221Z" style="fill:#176800;opacity:0.5"/></g><path d="M207.93,537.56s36.44,1.66,65.42-5.79,68.73,1.65,85.29,0,50.51-1.66,72,8.28,67.9,48,84.46,54.65,18.22,21.53,27.33,42.23,11.59,34.78,10.76,46.37,3.32,32.3-10.76,42.23S499.41,752,475.4,752,415,734.64,400,733.81s-31.46-11.59-41.4-22.35-31.47-24.85-34.78-30.64,0-14.08-14.9-20.7-48-44.72-57.14-52.17-16.56-35.61-22.36-39.75S203,547.5,207.93,537.56Z" style="fill:#2bbf11"/><g style="clip-path:url(#ac1c1b6a-df43-487e-9d89-4a693e888fb1)"><path d="M207.48,542.37c37.81,2.77,74.39,13.92,109.92,26.61a.56.56,0,0,0,.43-1c-34.36-17.3-72.26-24.16-110.35-26.71-.73,0-.72,1.08,0,1.13Z" style="fill:#1e8c03"/><path d="M382.24,600.18c32.34,17.43,65.35,34.46,95.94,54.87a423.73,423.73,0,0,1,41.06,31.16q9.39,8.07,18.29,16.67c6,5.77,11.73,12.49,18.9,16.78a1.84,1.84,0,0,0,2.5-2.5C555,709.8,548.14,704,542,698.4s-12.41-10.93-18.84-16.12a436.11,436.11,0,0,0-41.51-29.69c-31.67-19.91-66-35.54-99.05-53.05-.42-.23-.8.42-.37.64Z" style="fill:#1e8c03"/><path d="M399.39,564.76c7.16,14.74,17.28,27.78,27.36,40.62,5.68,7.24,11.51,14.35,17.35,21.47,2.91,3.55,5.89,7,8.86,10.54,2.84,3.34,5.5,7.22,9.48,9.22,1.37.69,3.29-.46,2.75-2.12-1.15-3.57-3.68-6.26-6.1-9.06-3-3.47-6-6.95-9-10.38q-9.12-10.27-18.48-20.33c-11.74-12.56-24-24.67-31.7-40.24-.16-.33-.64,0-.48.28Z" style="fill:#1e8c03"/><path d="M478.84,605.27c4.62,15.67,16.37,27,24.8,40.51a179.66,179.66,0,0,1,11.91,23.33c3.23,7.43,5.85,15.85,10.86,22.28.83,1.07,2.83.19,2.72-1.13-.68-7.78-4.4-15.57-7.56-22.65a167.49,167.49,0,0,0-12-22.29,136.28,136.28,0,0,0-14.41-18.4c-6.14-6.73-12.21-13.21-15.36-21.92-.23-.61-1.19-.37-1,.27Z" style="fill:#1e8c03"/><path d="M463.82,643.78a77.86,77.86,0,0,0-29.26-1.39c-11.58,1.58-23,4.47-34.64,5.5A135.81,135.81,0,0,1,367,646.67a132,132,0,0,1-15.61-3.41c-4.88-1.38-9.86-4-14.95-4.16a1.75,1.75,0,0,0-1.23,3c3.33,3.09,7.95,4.25,12.2,5.59a133.6,133.6,0,0,0,16.38,4,128.91,128.91,0,0,0,31.69,1.64c10.57-.74,20.75-3,31-5.56,11.69-2.89,25.18-6.28,37.19-3.53.3.07.42-.39.13-.45Z" style="fill:#1e8c03"/><path d="M402.2,694.69c19.49,13.14,42,16.72,65.05,14.7A188.21,188.21,0,0,0,501.66,703c6.13-1.71,12.3-3.6,18.67-4.21s12,.74,18,2.48c1.49.43,2.91-1.67,1.6-2.74-7.73-6.29-19-5-28.08-2.74-12,3-23.62,6.79-35.84,8.92-24.28,4.23-51.46,1.14-72.86-11.59-1.05-.62-1.94.95-.94,1.62Z" style="fill:#1e8c03"/><path d="M290,540.89c9.87,4,19.79,6.37,30.15,8.63,5.26,1.15,10.3,2.31,14.58,5.79,3.68,3,6.62,6.64,9.61,10.28.48.58,1.41-.17,1-.8-5.06-8.48-10.53-14.38-20.53-16.35a247.74,247.74,0,0,1-34.35-9.36c-1.16-.4-1.6,1.37-.5,1.81Z" style="fill:#1e8c03"/><path d="M275,595A89.12,89.12,0,0,0,308,607.41c11.71,1.91,24.37,3.24,36.21,2,1.61-.16,2.35-2.86.42-3.13-11.12-1.55-22.45-.88-33.61-2.27-12.21-1.52-24.59-3.93-35.54-9.76a.42.42,0,0,0-.43.73Z" style="fill:#1e8c03"/><path d="M193.29,536.25s61-7,251,96c165.59,89.77,139,150,139,150l-265.5-49.5-129-138Z" style="fill:#176800;opacity:0.5"/></g><path d="M609.31,416.15q-4.56,24.12-9,48.24c-3,16.44-5.61,32.94-10.22,49-4.41,15.43-9.53,30.69-13.14,46.33a150,150,0,0,0-3.59,22.09c-.54,7.07-1.16,15.48,1.91,22,1.48,3.17,5.93,1.3,6.11-1.66.23-3.73-.75-7.38-1.08-11.09A94.25,94.25,0,0,1,580,580a150,150,0,0,1,2.83-23.51c3-15.55,6.33-31,9.18-46.59,2.81-15.42,7.25-30.54,10.63-45.85,3.47-15.69,6.32-31.41,8.72-47.29.2-1.35-1.82-2-2.08-.58Z" style="fill:#1e8c03"/><path d="M727.45,372.66a62.55,62.55,0,0,1-10.38,10.19c-.21.16.06.53.28.37a63.19,63.19,0,0,0,10.7-10c.35-.41-.26-1-.6-.59Z" style="fill:#1e8c03"/><path d="M538.11,700.05a104.75,104.75,0,0,1,24.6,30.71c6.29,11.84,8.79,24.52,13.08,37,.52,1.51,3.26,1.94,3.52,0,1.89-13.72-3.54-28.11-10.21-39.89a93.48,93.48,0,0,0-28.61-31c-1.82-1.26-4.09,1.64-2.38,3.09Z" style="fill:#229e08"/><path d="M580.08,557.08c-5.7,17.68-7.15,36.52-7.47,55A314,314,0,0,0,577.2,671c3.15,18.2,3,36.61,3.29,55,.13,8.62.2,17-1.4,25.53a161,161,0,0,1-6.78,24.08c-6.43,18.12-16.79,36.62-17.18,56.18-.07,3.43,5.28,5.24,6.82,1.85,7-15.53,12.31-32,18.2-48s10.79-32.33,10.86-49.39c.07-18-.24-36.54-2.37-54.47-2.25-19-6.16-37.76-8-56.89-2.15-22.23-3.3-45.11,2.62-66.87a1.64,1.64,0,0,0-3.16-.87Z" style="fill:#1e8c03"/></g></g></svg>