<svg xmlns="http://www.w3.org/2000/svg" xmlns:xlink="http://www.w3.org/1999/xlink" viewBox="0 0 1000 1000"><defs><clipPath id="aa7c89ee-97d8-43ac-9681-7ea4bc7147ae"><path d="M249.69,878.71s-40.82-430-28.3-560.36S360.11,89.93,483.19,130.6,610.44,450.82,615.66,463.34s87.61-88.66,152.28-66.76-130.21,225-162.71,316.05c-5.22,14.6-5.08,166.08-5.08,166.08Z" style="fill:#2bbf11"/></clipPath><clipPath id="a0e99251-560e-48bd-8913-8719e8267c53"><path d="M209.53,792.23s211.81-47.61,420.71,0l-19.43,103-367.27-3.89Z" style="fill:#62e03f"/></clipPath></defs><g id="fc5dd864-07ec-47ca-b5cf-cb0ca9938d22" data-name="Layer 3"><g id="b85aa05b-ecb6-4aea-8241-7f133e048f38" data-name="Layer 4"><path d="M249.69,878.71s-40.82-430-28.3-560.36S360.11,89.93,483.19,130.6,610.44,450.82,615.66,463.34s87.61-88.66,152.28-66.76-130.21,225-162.71,316.05c-5.22,14.6-5.08,166.08-5.08,166.08Z" style="fill:#2bbf11"/><g style="clip-path:url(#aa7c89ee-97d8-43ac-9681-7ea4bc7147ae)"><path d="M189.12,323.91s165.18-94.25,456.67-24.29" style="fill:none;stroke:#ffd522;stroke-miterlimit:10;stroke-width:15px"/><path d="M189.12,269.5s165.18-94.25,456.67-24.29" style="fill:none;stroke:#ffd522;stroke-miterlimit:10;stroke-width:15px"/><path d="M209.53,792.23s211.81-47.61,420.71,0l-19.43,103-367.27-3.89Z" style="fill:#62e03f"/><g style="clip-path:url(#a0e99251-560e-48bd-8913-8719e8267c53)"><path d="M291,859.35c.31-9.73,1.11-19.34,1.14-29.09,0-9.25,1-19.09-.42-28.23-.74-4.83-7.49-3.06-7.92,1.08-.94,9.06.61,19,1.07,28.12.48,9.45,1.73,18.71,2.47,28.12a1.83,1.83,0,0,0,3.66,0Z" style="fill:#62e03f"/><path d="M278.23,862c.55-2.5,1.67-4.71,2.12-7.23.38-2.17.69-4.37,1-6.56.68-5.43.78-11,1-16.43.22-5.15.6-10.3.74-15.46.12-4.75.31-9.78-3.23-13.34-1.34-1.35-4.14-1.63-5.43,0-3,3.79-2.74,7.7-2.38,12.37.41,5.16,1.11,10.3,1.43,15.46s.29,10.32.57,15.47c.15,2.57.43,5.16.67,7.72s1.18,5,1.5,7.73c.13,1.06,1.75,1.51,2,.27Z" style="fill:#229e08"/><path d="M326.26,859.07c3-10.31,4.12-21.51,5.65-32.13.74-5.15.86-10.38,1.16-15.56.33-5.69,1-11.6-.37-17.19-1.53-6.34-9.73-5.2-11.75,0-1.94,5-2,10.91-2.38,16.21-.42,5.5-1.05,11-1,16.54.19,10.65-.15,21.58,1.42,32.13.57,3.85,6.28,3.27,7.23,0Z" style="fill:#229e08"/><path d="M368.07,789.36c-5.85,23.14-6.51,47.19-5.28,71,.5,9.65,14.7,8,13.26-1.79-3.32-22.65-2.61-45.5-1.53-68.3.17-3.71-5.54-4.44-6.45-.87Z" style="fill:#229e08"/><path d="M410.32,788.59c-.33,6.54-1.3,13-1.56,19.57s-.18,13.08-.07,19.58c.11,6.19.51,12.4.51,18.59,0,5.53-1.78,13.3,1.21,18.16a3,3,0,0,0,5.18,0c2.94-4.62,1.4-11.89,1.48-17.18.09-6.53.59-13,.81-19.57.21-6.2.22-12.4.24-18.6,0-6.82-1-13.71-1.24-20.55-.14-4.23-6.35-4.22-6.56,0Z" style="fill:#229e08"/><path d="M452.62,788.94c-1.84,13.74-1.34,26.84-.11,40.61.57,6.38.89,12.73,1.2,19.12.18,3.5.38,7,.3,10.48-.06,2.81-.18,4.32,1.85,6.4a2.39,2.39,0,0,0,2.84.37c4.58-2.72,4-10.58,4.24-15.34.32-6.68-.58-13.44-1.29-20.07-1.47-13.8-2.77-27.69-3-41.57-.08-4-5.51-3.71-6,0Z" style="fill:#229e08"/><path d="M493.39,788.2c-3.59,12.83-4.24,26.26-4.75,39.54-.25,6.58-.84,13.36-.37,19.93.23,3.33.74,6.63.85,10,.12,3.53-.3,6.16,1.86,9.11,1.95,2.64,5.36,2.75,7.29,0s1.69-4.86,1.73-8.11.37-6.64.69-10c.65-6.9.09-14,.06-20.93-.08-13.24.08-26.49-2.29-39.54-.48-2.65-4.41-2.35-5.07,0Z" style="fill:#229e08"/><path d="M541,795.72c-.66,3.12-1.91,6.15-2.46,9.27-.5,2.84-.51,5.87-.72,8.74-.43,6.2-.64,12.41-1.36,18.59a158.22,158.22,0,0,0-1.33,18.59c0,5.24-1.34,12.61,2.75,16.49a4,4,0,0,0,5.57,0c3.87-3.92,2.46-10.36,2.5-15.51,0-6.23-.39-12.39-.81-18.6-.4-5.87-.26-11.72-.1-17.6.08-3.22.48-6.57.32-9.78s-1-6.49-1.23-9.77c-.11-1.69-2.73-2.28-3.13-.42Z" style="fill:#229e08"/><path d="M580.91,798.66c-1.31,5.41-2.89,10.78-3.57,16.32-.76,6.14-1,12.25-1.29,18.44a91.38,91.38,0,0,0,.44,16.54c.71,5-.35,11.33,3.32,15.2a3.22,3.22,0,0,0,5-.65c2.32-4.22.4-9.49,1-14.22.73-5.64,1.2-11.2,1.62-16.87.4-5.51.88-11,.85-16.5,0-5.88-1-11.66-1.7-17.49-.37-3-4.86-4.24-5.71-.77Z" style="fill:#229e08"/></g><path d="M650.65,406.5s77.73,58.3,85.5,138.94" style="fill:none;stroke:#ffd522;stroke-miterlimit:10;stroke-width:15px"/><path d="M682.71,374.43s77.73,58.3,85.5,139" style="fill:none;stroke:#ffd522;stroke-miterlimit:10;stroke-width:15px"/><path d="M320.86,467l80-108a19.09,19.09,0,0,1,29.74-1.17l87.14,100A19.08,19.08,0,0,1,519.88,480L447.4,604.61A19.1,19.1,0,0,1,416.06,607L321.37,490.39A19.11,19.11,0,0,1,320.86,467Z" style="fill:#239e09"/><path d="M373.32,475.52,415.82,410a2.33,2.33,0,0,1,3.68-.32l55.55,59.95a7.17,7.17,0,0,1,.92,8.5l-41.13,69.92a6.34,6.34,0,0,1-10.48.66L373.63,483A6.45,6.45,0,0,1,373.32,475.52Z" style="fill:none;stroke:#ffd522;stroke-miterlimit:10;stroke-width:15px"/><path d="M406.59,478.88l12.11-19.37a6.48,6.48,0,0,1,10.34-.87l14.45,16.25a6.49,6.49,0,0,1,.76,7.57l-12,20.66a4.79,4.79,0,0,1-7.54,1L407.5,486.9A6.49,6.49,0,0,1,406.59,478.88Z" style="fill:#ffd522"/><path d="M202.73,229.66s184.61-102,280.8,11.66S570,658.15,525.31,758.23c-28.54,63.9-306.07,102-306.07,102l6.81,44.69H632.19L638,723.25,837.2,392.9,723.52,353.06l-94.25,55.38L571,120.84,403.85,76.14,240.62,151Z" style="fill:#176800;opacity:0.5"/></g></g></g></svg>