<svg xmlns="http://www.w3.org/2000/svg" xmlns:xlink="http://www.w3.org/1999/xlink" viewBox="0 0 1000 1000"><defs><clipPath id="bc42dce5-f52e-44e7-aaac-f4c75240f17c"><path d="M500,187c-172.87,0-313,140.13-313,313S327.13,813,500,813,813,672.87,813,500,672.87,187,500,187Zm0,534.1c-122.11,0-221.1-99-221.1-221.1s99-221.1,221.1-221.1,221.1,99,221.1,221.1S622.11,721.1,500,721.1Z" style="fill:#2bbf11"/></clipPath><clipPath id="bd3bc385-af6f-4125-8178-8e4a25a15d81"><path d="M500,269.8c-127.14,0-230.2,103.06-230.2,230.2S372.86,730.2,500,730.2,730.2,627.14,730.2,500,627.14,269.8,500,269.8ZM439,596.9a38.67,38.67,0,1,1,38.67-38.67A38.67,38.67,0,0,1,439,596.9Zm0-116.46a38.67,38.67,0,1,1,38.67-38.67A38.67,38.67,0,0,1,439,480.44ZM561,596.9a38.67,38.67,0,1,1,38.67-38.67A38.67,38.67,0,0,1,561,596.9Zm0-116.46a38.67,38.67,0,1,1,38.67-38.67A38.68,38.68,0,0,1,561,480.44Z" style="fill:#28aa09"/></clipPath></defs><g id="f6c9f7cc-3145-4803-afa9-222f734c0fa3" data-name="Layer 3"><g id="a79570db-7c48-4917-8451-d05a1a765fc7" data-name="Layer 4"><path d="M500,187c-172.87,0-313,140.13-313,313S327.13,813,500,813,813,672.87,813,500,672.87,187,500,187Zm0,534.1c-122.11,0-221.1-99-221.1-221.1s99-221.1,221.1-221.1,221.1,99,221.1,221.1S622.11,721.1,500,721.1Z" style="fill:#2bbf11"/><g style="clip-path:url(#bc42dce5-f52e-44e7-aaac-f4c75240f17c)"><path d="M324.39,204.29s209.28-49.14,349.4,59.14S813,650.13,649.22,745.67c-143.82,83.89-292.07,38.21-435.83-55.5L359.88,840.3l225.65,26.38L786.61,730.2l91-303L712.91,187,439,119.67Z" style="fill:#176800;opacity:0.5"/><path d="M478.16,212.11c-34.48,2-69.87,7.48-101.65,21.63-35,15.59-67.76,37.46-94.05,65.46a273.56,273.56,0,0,0-57.27,92.57c-6.7,18.21-9.57,38-11.77,57.19-2.16,18.86-2.79,37.67-.62,56.55,4.47,38.81,16.23,75.78,33.76,110.64,2.42,4.8,10.49,1.46,8.74-3.69-10.36-30.58-16.83-62.3-17.39-94.65a424.55,424.55,0,0,1,2.62-52.63,281.16,281.16,0,0,1,10.38-51.41c9.56-31,23.81-60.75,44.12-86,22.2-27.63,50.48-49.56,80.69-67.84,32.09-19.42,66-35.55,103.27-41.69,3.43-.57,2.64-6.28-.83-6.08Z" style="fill:#42d823"/><path d="M577.67,726.57c9.9-3,19.51-6.14,28.64-11,8.76-4.69,17.44-9.67,26-14.79,17.39-10.47,34.61-22.53,48.61-37.34,7.27-7.68,12-16.44,17.58-25.31,5-8,10.3-16.52,13-25.62a114.81,114.81,0,0,1,6.27-15.67c2-4.44,4.11-8.94,5.82-13.52,3.44-9.2,5.35-19.22,8.23-28.63a190.69,190.69,0,0,0,6.8-34c1.27-11,1.58-23.61-1.69-34.25-1-3.27-6.25-3.68-7,0-2.05,9.52-1.72,19.3-2.52,29s-1.42,19.15-2.23,28.72c-.85,10-2,19.52-5.13,29.05s-5.49,19-8.68,28.43c-1.66,4.89-4.81,8.84-7.27,13.35s-4.74,8.72-7.08,13.1a134.63,134.63,0,0,1-16.88,24.35c-12.76,15-29.38,27.19-45.58,38.2a220.21,220.21,0,0,1-28.86,16.78c-10,4.78-19.79,10-29.8,14.78-2.46,1.18-.73,5.14,1.84,4.37Z" style="fill:#42d823"/></g><path d="M500,269.8c-127.14,0-230.2,103.06-230.2,230.2S372.86,730.2,500,730.2,730.2,627.14,730.2,500,627.14,269.8,500,269.8ZM439,596.9a38.67,38.67,0,1,1,38.67-38.67A38.67,38.67,0,0,1,439,596.9Zm0-116.46a38.67,38.67,0,1,1,38.67-38.67A38.67,38.67,0,0,1,439,480.44ZM561,596.9a38.67,38.67,0,1,1,38.67-38.67A38.67,38.67,0,0,1,561,596.9Zm0-116.46a38.67,38.67,0,1,1,38.67-38.67A38.68,38.68,0,0,1,561,480.44Z" style="fill:#28aa09"/><g style="clip-path:url(#bd3bc385-af6f-4125-8178-8e4a25a15d81)"><polygon points="673.79 263.43 439.04 750.22 607.37 743.85 743.4 629.11 765.54 430.18 673.79 263.43" style="fill:#176800;opacity:0.5"/></g></g></g></svg>