<svg xmlns="http://www.w3.org/2000/svg" xmlns:xlink="http://www.w3.org/1999/xlink" viewBox="0 0 1000 1000"><defs><clipPath id="b83ecdfc-7e24-4124-9086-9b890061af97"><path d="M463.26,249.44S450.05,173.51,455,160.3s64.38-54.47,82.54-46.22,38,52.83,31.36,67.68-61.07-4.95-49.52-28.06,54.48-28.06,69.33-13.21c0,0-33,3.3-42.92,8.26s-8.25,18.16,1.65,21.46,5-34.67-16.5-42.92-52.83,33-51.18,44.57,19.81,74.28,19.81,74.28Z" style="fill:#2abf12"/></clipPath><clipPath id="a011d70e-3ad7-4a99-a5dc-02223e0e4d94"><path d="M831.8,576.28C831.8,771.18,695,887,511.78,887S168.2,771.18,168.2,576.28,316.75,223.39,500,223.39,831.8,381.39,831.8,576.28Z" style="fill:#2abf12"/></clipPath><clipPath id="e3fc8219-005a-4504-bddf-0a8078c52ba2"><path d="M499.38,223.39s53.34,54.58,60.78,75.67,37.21,141.4,28.53,177.37,6.2,172.42,7.44,189.78,21.09,91.79,6.2,124S549,895.68,549,909.33s43.41-54.58,53.33-64.5,39.69-52.1,45.9-63.26,37.21-93,37.21-106.68-22.33-83.1-21.09-93S653.19,441.7,650.71,429.3,616,335,611,320.14s-31-55.81-52.09-70.7-58.3-26.05-58.3-26.05" style="fill:#176800;opacity:0.5"/></clipPath><clipPath id="bf4902e5-dd5b-4519-a654-197729e2ecb7"><path d="M537.73,223.39S669.31,297.82,674.27,309s49.62,117.84,52.1,137.68,27.29,136.45,21.09,155.05S741.25,710.87,738.77,722s-33.49,55.82-45.89,74.42S643.26,887,645.75,887s57-43.41,57-43.41,65.74-107.92,70.7-114.12,29.77-74.42,31-90.55-13.64-105.43-13.64-116.59-28.53-140.17-28.53-140.17l-83.1-94.27-141.51-64.5" style="fill:#176800;opacity:0.5"/></clipPath></defs><g id="b8506b95-5489-4319-b040-0dc72e38209b" data-name="Layer 3"><g id="a71d4942-7a33-4b19-8e64-d7a2e564ac16" data-name="Layer 4"><path d="M463.26,249.44S450.05,173.51,455,160.3s64.38-54.47,82.54-46.22,38,52.83,31.36,67.68-61.07-4.95-49.52-28.06,54.48-28.06,69.33-13.21c0,0-33,3.3-42.92,8.26s-8.25,18.16,1.65,21.46,5-34.67-16.5-42.92-52.83,33-51.18,44.57,19.81,74.28,19.81,74.28Z" style="fill:#2abf12"/><g style="clip-path:url(#b83ecdfc-7e24-4124-9086-9b890061af97)"><polygon points="562.64 144.01 566.36 147.73 547.75 153.93 549 147.73 562.64 144.01" style="fill:#176800;opacity:0.5"/><path d="M484.5,255.64s-17.37-84.34-13.65-89.3,22.33-31,33.49-36a39.52,39.52,0,0,1,22.33-2.49l-43.42,38.46L506.82,247Z" style="fill:#176800;opacity:0.5"/><path d="M545.27,149s-12.4,3.72-12.4,11.16,6.2,12.41,14.88,9.93h0L545.27,149" style="fill:#176800;opacity:0.5"/><path d="M567.6,155.17s0,37.21-27.29,29.77l23.57,5,7.44-6.2,3.72-9.92Z" style="fill:#176800;opacity:0.5"/><path d="M518,114.24s18-1.86,33.16,18.91h0l5.14-.75-1.09-7-18.61-14.88Z" style="fill:#176800;opacity:0.5"/></g><path d="M831.8,576.28C831.8,771.18,695,887,511.78,887S168.2,771.18,168.2,576.28,316.75,223.39,500,223.39,831.8,381.39,831.8,576.28Z" style="fill:#2abf12"/><g style="clip-path:url(#a011d70e-3ad7-4a99-a5dc-02223e0e4d94)"><path d="M469.61,217.19s-2.48,40.93-11.16,69.46-1.24,110.4,2.48,124-7.44,110.4-7.44,131.48-12.41,140.17-6.21,160,16.13,78.15,22.33,111.64,29.77,80.62,29.77,88.06-5-17.36,5-48.37,12.41-53.34,17.37-94.27S549,634,540.31,593s-14.88-78.15-18.6-112.88,11.16-63.26,7.44-102.95S513,275.49,499.38,249.44,475,205.28,475,205.28Z" style="fill:#176800;opacity:0.5"/><path d="M499.38,223.39s53.34,54.58,60.78,75.67,37.21,141.4,28.53,177.37,6.2,172.42,7.44,189.78,21.09,91.79,6.2,124S549,895.68,549,909.33s43.41-54.58,53.33-64.5,39.69-52.1,45.9-63.26,37.21-93,37.21-106.68-22.33-83.1-21.09-93S653.19,441.7,650.71,429.3,616,335,611,320.14s-31-55.81-52.09-70.7-58.3-26.05-58.3-26.05" style="fill:#176800;opacity:0.5"/><g style="clip-path:url(#e3fc8219-005a-4504-bddf-0a8078c52ba2)"><path d="M499.38,223.39s165,99.23,184.82,310.1S416.27,994.91,150.83,652.57l74.42,188.54,193.5,105.43,272.89-14.89,160-120.31,14.88-225.75L782.19,321.38,556.44,193.63l-57.06,29.76" style="fill:#176800;opacity:0.5"/></g><path d="M447.28,223.39s-37.21,62-40.93,74.43S374.1,383.4,375.34,402s11.16,107.91,11.16,116.6-13.64,85.58-17.36,106.67,44.65,75.66,37.21,95.51,12.4,116.59,12.4,116.59l9.93,59.54s-34.73-57-38.45-68.22-55.82-110.39-59.54-121.56S288.51,611.63,291,598s11.16-161.25,17.36-171.17,33.49-90.55,39.69-101.71,52.1-62,55.82-68.23S447.28,223.39,447.28,223.39Z" style="fill:#176800;opacity:0.5"/><path d="M537.73,223.39S669.31,297.82,674.27,309s49.62,117.84,52.1,137.68,27.29,136.45,21.09,155.05S741.25,710.87,738.77,722s-33.49,55.82-45.89,74.42S643.26,887,645.75,887s57-43.41,57-43.41,65.74-107.92,70.7-114.12,29.77-74.42,31-90.55-13.64-105.43-13.64-116.59-28.53-140.17-28.53-140.17l-83.1-94.27-141.51-64.5" style="fill:#176800;opacity:0.5"/><g style="clip-path:url(#bf4902e5-dd5b-4519-a654-197729e2ecb7)"><path d="M499.38,223.39s165,99.23,184.82,310.1S416.27,994.91,150.83,652.57l74.42,188.54,193.5,105.43,272.89-14.89,160-120.31,14.88-225.75L782.19,321.38,556.44,193.63l-57.06,29.76" style="fill:#176800;opacity:0.5"/></g><path d="M406.35,230.84s-129,142.64-131.48,151.32-11.16,120.32-16.12,136.45-8.69,94.27-8.69,102.95,34.73,122.8,37.21,134,58.3,111.63,58.3,114.11-50.85-26-50.85-26L238.9,738.15s-34.73-137.68-31-155,18.61-179.86,22.33-189.78,32.24-74.44,43.41-75.05S406.35,230.84,406.35,230.84Z" style="fill:#176800;opacity:0.5"/><path d="M499.38,223.39s165,99.23,184.82,310.1S416.27,994.91,150.83,652.57l74.42,188.54,193.5,105.43,272.89-14.89,160-120.31,14.88-225.75L782.19,321.38,556.44,193.63l-57.06,29.76" style="fill:#176800;opacity:0.5"/></g></g></g></svg>