<svg xmlns="http://www.w3.org/2000/svg" xmlns:xlink="http://www.w3.org/1999/xlink" viewBox="0 0 1000 1000">
  <defs>
    <clipPath id="fbc8c8d8-2d35-4328-baf7-e82ced6f71ab">
      <path d="M188.65,472.61c17-42.33,89.18-136.88,129.44-155.89,45-21.24,95.15-29.84,108.75-32.72s55.32-8.59,76.64,2.13S540.29,309.51,558.6,360,601,497.89,580.43,553.14s-75.08,149.24-113,181.16-123.28,23-140.78,38.46-62.21,46.41-80.6,29.87-11.49-64.06-34.7-95.17S140.81,591.83,188.65,472.61Z" fill="#ffd522"/>
    </clipPath>
    <clipPath id="a3ac3121-afd7-42cf-bcc8-71a66c6eae76">
      <path d="M832,328.73s-52.6-88-114.61-125.4-155.1,30.44-143.56,91c7,36.84,66,77.78,119.25,40.83S767.44,302.54,832,328.73Z" fill="#2d9110"/>
    </clipPath>
  </defs>
  <g id="ff264ca5-b138-4020-b095-5de22058979a" data-name="Layer 3">
    <g id="b7e1d6b4-1836-45e2-b24f-ebee881aad84" data-name="Layer 4">
      <g>
        <g>
          <path d="M188.65,472.61c17-42.33,89.18-136.88,129.44-155.89,45-21.24,95.15-29.84,108.75-32.72s55.32-8.59,76.64,2.13S540.29,309.51,558.6,360,601,497.89,580.43,553.14s-75.08,149.24-113,181.16-123.28,23-140.78,38.46-62.21,46.41-80.6,29.87-11.49-64.06-34.7-95.17S140.81,591.83,188.65,472.61Z" fill="#ffd522"/>
          <g clip-path="url(#fbc8c8d8-2d35-4328-baf7-e82ced6f71ab)">
            <path d="M420.05,248.48c12,19-93,49-93,49s108-16,169,42,31,278-37,320-283,68-291-203l-41,181,95,236,287-95,109-261-69-273Z" fill="#ffba1f" opacity="0.6"/>
            <path d="M265.05,437.48c-14.85-21.29,30-78,73-92s76-18,89-2-58,38-86,52S288.05,470.48,265.05,437.48Z" fill="#fff" opacity="0.41"/>
            <ellipse cx="503.96" cy="315.27" rx="15.64" ry="34.8" transform="translate(-21.05 594.08) rotate(-60)" fill="#f78f1e"/>
          </g>
        </g>
        <g>
          <g>
            <path d="M548.68,224.41s-7,34.19-8.79,36.7-17.78,33.05-17.78,33.05,44-7.43,45.25-12.49c0,0,5.58,14.35,4.76,17.14s-48.81,11.83-48.81,11.83L513.92,322s-8.51,1.52-13.25-2.89-4.31-9.33-4.31-9.33,26.9-43.47,27.5-52.36S532,219.5,532,219.5,537.77,227.24,548.68,224.41Z" fill="#a05000"/>
            <g>
              <g>
                <path d="M832,328.73s-52.6-88-114.61-125.4-155.1,30.44-143.56,91c7,36.84,66,77.78,119.25,40.83S767.44,302.54,832,328.73Z" fill="#2d9110"/>
                <g clip-path="url(#a3ac3121-afd7-42cf-bcc8-71a66c6eae76)">
                  <path d="M850.08,349.58S735,214.44,670.22,243c-63,27.77-151.09,75-109.33,103.5s0-.21,0-.21l12.47-145.18,134.32-18.46,99.59,60.91Z" fill="#35a31a"/>
                </g>
              </g>
              <path d="M773,280.59c-10.68-11.3-24-19.83-37.45-27.4-13.7-7.69-28.43-13.92-44.29-14.89-32.57-2-61.64,16.52-87.3,34.27-6,4.13-12.29,10-19.28,12.24-5.75,1.82-12.34,1.7-18.26,2.74-6.94,1.23-5.43,13.27,1.68,12.43,5.62-.66,11.34-.65,16.91-1.67,5-.92,9.41-3.33,13.59-6.22,12.94-8.94,25.48-18.51,38.94-26.69,13-7.9,27-14.06,42-16.79,16.34-3,32.27.57,47.3,7.08,16.11,7,30.18,17.07,44.51,27,1.31.9,2.68-1.05,1.65-2.14Z" fill="#327c01"/>
            </g>
          </g>
          <ellipse cx="540.36" cy="221.14" rx="4.09" ry="8.88" transform="translate(173.09 675.02) rotate(-73.28)" fill="#c66a1e"/>
        </g>
      </g>
      <g opacity="0.45">
        <path d="M366.35,454.49c7.66,0,7.67-11.91,0-11.91s-7.67,11.91,0,11.91Z" fill="#f78f1e"/>
      </g>
      <g opacity="0.45">
        <path d="M376.7,602.68c3.83,0,3.84-5.95,0-5.95s-3.83,5.95,0,5.95Z" fill="#f78f1e"/>
      </g>
      <g opacity="0.45">
        <path d="M443,550.91c3.83,0,3.83-5.95,0-5.95s-3.84,5.95,0,5.95Z" fill="#f78f1e"/>
      </g>
      <g opacity="0.45">
        <path d="M271.1,676.06c7.66,0,7.67-11.91,0-11.91s-7.68,11.91,0,11.91Z" fill="#f78f1e"/>
      </g>
      <g opacity="0.45">
        <path d="M192.41,625.46c3.83,0,3.83-6,0-6s-3.84,6,0,6Z" fill="#f78f1e"/>
      </g>
      <g opacity="0.45">
        <path d="M426.4,617c7.66,0,7.68-11.9,0-11.9s-7.67,11.9,0,11.9Z" fill="#f78f1e"/>
      </g>
      <g opacity="0.45">
        <path d="M341.5,692.63c7.66,0,7.67-11.91,0-11.91s-7.67,11.91,0,11.91Z" fill="#f78f1e"/>
      </g>
      <g opacity="0.45">
        <path d="M268,652.25c7.66,0,7.67-11.91,0-11.91s-7.67,11.91,0,11.91Z" fill="#f78f1e"/>
      </g>
      <g opacity="0.45">
        <path d="M378.77,440.13c3.84,0,3.84-6,0-6s-3.83,6,0,6Z" fill="#f78f1e"/>
      </g>
      <g opacity="0.45">
        <path d="M404.66,362.47c3.83,0,3.84-6,0-6s-3.84,6,0,6Z" fill="#f78f1e"/>
      </g>
      <g opacity="0.45">
        <path d="M461.6,461.74c7.67,0,7.68-11.91,0-11.91s-7.67,11.91,0,11.91Z" fill="#f78f1e"/>
      </g>
      <g opacity="0.45">
        <path d="M147.89,580.81c7.66,0,7.67-11.91,0-11.91s-7.68,11.91,0,11.91Z" fill="#f78f1e"/>
      </g>
      <g opacity="0.45">
        <path d="M190.34,641.89c7.66,0,7.67-11.9,0-11.9s-7.68,11.9,0,11.9Z" fill="#f78f1e"/>
      </g>
      <g opacity="0.45">
        <path d="M312.51,462.77c7.66,0,7.67-11.9,0-11.9s-7.67,11.9,0,11.9Z" fill="#f78f1e"/>
      </g>
      <g opacity="0.45">
        <path d="M287.66,579.77c7.66,0,7.68-11.9,0-11.9s-7.67,11.9,0,11.9Z" fill="#f78f1e"/>
      </g>
      <path d="M366.35,531.39a0,0,0,0,0,0,0,0,0,0,0,0,0,0Z" fill="#f78f1e"/>
      <g opacity="0.45">
        <path d="M374.63,518.68c7.66,0,7.68-11.9,0-11.9s-7.67,11.9,0,11.9Z" fill="#f78f1e"/>
      </g>
      <path d="M402.59,383.33a0,0,0,0,0,0-.05,0,0,0,0,0,0,.05Z" fill="#f78f1e"/>
      <g opacity="0.45">
        <path d="M405.69,403.76c7.67,0,7.68-11.91,0-11.91s-7.67,11.91,0,11.91Z" fill="#f78f1e"/>
      </g>
      <g opacity="0.45">
        <path d="M195.51,552.85c7.66,0,7.68-11.9,0-11.9s-7.67,11.9,0,11.9Z" fill="#f78f1e"/>
      </g>
    </g>
  </g>
</svg>
