<svg xmlns="http://www.w3.org/2000/svg" xmlns:xlink="http://www.w3.org/1999/xlink" viewBox="0 0 1000 1000">
  <defs>
    <clipPath id="f9e53128-6e63-42f0-a325-4b476840b032">
      <path d="M510.66,162.15l89.1,225.28a11.48,11.48,0,0,0,10,7.23l241.78,15.12a11.46,11.46,0,0,1,6.59,20.28L671.37,584.42a11.45,11.45,0,0,0-3.8,11.69L727.9,830.73a11.47,11.47,0,0,1-17.25,12.54L506.15,713.39a11.49,11.49,0,0,0-12.3,0L289.35,843.27a11.47,11.47,0,0,1-17.25-12.54l60.33-234.62a11.45,11.45,0,0,0-3.8-11.69L141.92,430.06a11.46,11.46,0,0,1,6.59-20.28l241.78-15.12a11.48,11.48,0,0,0,9.95-7.23l89.1-225.28A11.46,11.46,0,0,1,510.66,162.15Z" fill="#ffd522"/>
    </clipPath>
  </defs>
  <g id="b73b17eb-53a5-4407-b8ae-70f672eb6baa" data-name="Layer 3">
    <g id="a1df415c-3b72-4ee7-9806-a46d06c57344" data-name="Layer 4">
      <g>
        <g>
          <path d="M510.66,162.15l89.1,225.28a11.48,11.48,0,0,0,10,7.23l241.78,15.12a11.46,11.46,0,0,1,6.59,20.28L671.37,584.42a11.45,11.45,0,0,0-3.8,11.69L727.9,830.73a11.47,11.47,0,0,1-17.25,12.54L506.15,713.39a11.49,11.49,0,0,0-12.3,0L289.35,843.27a11.47,11.47,0,0,1-17.25-12.54l60.33-234.62a11.45,11.45,0,0,0-3.8-11.69L141.92,430.06a11.46,11.46,0,0,1,6.59-20.28l241.78-15.12a11.48,11.48,0,0,0,9.95-7.23l89.1-225.28A11.46,11.46,0,0,1,510.66,162.15Z" fill="#ffd522"/>
          <g clip-path="url(#f9e53128-6e63-42f0-a325-4b476840b032)">
            <path d="M483,89.2s63,198,43,411-357,416-357,416l693-59-87-281,122-180-199-37Z" fill="#ffba1f" opacity="0.6"/>
          </g>
        </g>
        <path d="M429.56,403.59c13.61-31.88,25.82-64.22,37-97,5.59-16.43,11.21-32.85,16.55-49.37q4-12.39,7.82-24.83,2-6.45,3.91-12.92c1.2-4,3-8.19,2.71-12.42a4.31,4.31,0,0,0-7.95-2.16c-2.43,3.41-3.07,8-4.17,12-1.2,4.33-2.39,8.67-3.61,13q-3.37,12.06-6.89,24.09c-4.86,16.64-9.86,33.25-15.32,49.71-10.93,32.88-22.53,65.57-34.31,98.15-.89,2.47,3.24,4.26,4.28,1.81Z" fill="#ffeb99"/>
        <path d="M494.14,208.08c-13.69,31.85-27.07,63.8-41.66,95.26C445.2,319,438.31,335,432.4,351.25l-8.79,24.17c-3.07,8.42-8.4,19.64-2.77,27.89a5.74,5.74,0,0,0,6.25,2.54c9.63-2.53,12.84-13.6,16-22s6.3-16.67,9.44-25c6-16,11.2-32.35,15.79-48.83,9.38-33.59,19.92-66.78,30.09-100.14.76-2.47-3.22-4.28-4.28-1.8Z" fill="#ffeb99"/>
        <path d="M177.12,428.33c4.68.46,9.17,1.75,13.86,2.09s9.24.6,13.86.86c9.24.53,18.49.83,27.73,1.15,17.84.61,35.63.94,53.47.52s35.62-1.1,53.43-1.74c18.42-.65,37.1-.6,55.25-4,8.1-1.52,5.72-13.46-1.87-13.82-17.77-.82-35.65,1.51-53.38,2.63-18.12,1.15-36.28,1.88-54.42,2.51-17.84.61-35.64,1.64-53.47,2.57-8.91.46-17.83.81-26.74,1.28-4.62.25-9.24.45-13.86.75s-9.18,1.47-13.86,1.82a1.69,1.69,0,0,0,0,3.38Z" fill="#ffeb99"/>
        <path d="M302.87,813c8.16-16,13.39-34,19-51.1,5.72-17.4,13.53-34.08,20.39-51s14.13-33.82,20.42-51c3.19-8.75,6.25-17.49,9.05-26.36,2.38-7.54,8.43-19.22,3.53-26.64-1.55-2.35-4.65-4-7.52-3.06-8.91,3-11,14.77-13.93,22.7-3.22,8.73-6.24,17.48-9.07,26.35-5.54,17.37-10.12,35-15.08,52.52s-8.82,35.43-14.9,52.56c-6.16,17.32-13.27,35.08-16.71,53.1-.52,2.74,3.36,4.84,4.8,2Z" fill="#ffeb99"/>
      </g>
    </g>
  </g>
</svg>
