<svg xmlns="http://www.w3.org/2000/svg" xmlns:xlink="http://www.w3.org/1999/xlink" viewBox="0 0 1000 1000">
  <defs>
    <clipPath id="adaaaec8-e949-4092-abd7-e3615919f1cc">
      <path d="M161.6,720.61h0c-3.68-14-4.84-32.22,6-46.92C199.86,644.31,270.94,631,304.12,614s73-59.71,74.87-87.2c4.73-68.5-49.28-230.32-41.7-382H611.21S602.68,336.27,565.71,505c-20.1,91.76,11.29,89.08,15.11,145.61h0v.14a201.26,201.26,0,0,1-.3,28.29c-.52,13.47-1.71,28.33-4.39,36.37-2.85,8.53-69.19,19-73,17.06S488,719.19,488,719.19l-12.32,1.89-.95,16.11-19.9,4.74-7.59-13.27L434,731.51v16.11l-19.91,5.69-9.48-10.43-12.32,3.79-1.89,15.17-24.65,7.58-11.37-9.48-15.17,4.74L335.39,778l-25.59,5.69-8.53-10.43L284.21,777l-5.68,12.32s-24.65,2.85-37,1.9-39.81,0-57.82-12.32c-12.73-8.72-16.17-38.44-20.4-52.46-.62-1.83-1.2-3.78-1.74-5.82Z" fill="#ffd522"/>
    </clipPath>
    <clipPath id="ef39a540-39f8-480a-b221-a52945d6bb4c">
      <ellipse cx="474.62" cy="144.81" rx="134.59" ry="28.43" fill="#ffba1f"/>
    </clipPath>
    <clipPath id="a0e2d877-d4c9-4067-a2ac-c9054a5ed32d">
      <path d="M364.74,812.71h0c-3.88-14.82-5.1-34,6.37-49.5,34-31,109-45,144-63s77-63,79-92c5-72.27-52-243-44-403h289s-9,202-48,380c-21.22,96.81,11.91,94,15.94,153.63h0V739a211.43,211.43,0,0,1-.32,29.84c-.54,14.21-1.8,29.89-4.63,38.38-3,9-73,20-77,18s-16-14-16-14l-13,2-1,17-21,5-8-14-14,3v17l-21,6-10-11-13,4-2,16-26,8-12-10-16,5-4,14-27,6-9-11-18,4-6,13s-26,3-39,2-42,0-61-13C374.67,865,371,833.65,366.57,818.87c-.64-1.94-1.26-4-1.82-6.15Z" fill="#ffd522"/>
    </clipPath>
    <clipPath id="aab2803a-c62a-4c8b-b3c3-d5b27f9b16d7">
      <ellipse cx="695" cy="205.21" rx="142" ry="30" fill="#ffba1f"/>
    </clipPath>
  </defs>
  <g id="afabc501-3e7e-43ae-980a-138c80246605" data-name="Layer 3">
    <g id="fd897b78-44a4-431f-b936-d34053e4493e" data-name="Layer 4">
      <g>
        <g>
          <g>
            <path d="M161.6,720.61h0c-3.68-14-4.84-32.22,6-46.92C199.86,644.31,270.94,631,304.12,614s73-59.71,74.87-87.2c4.73-68.5-49.28-230.32-41.7-382H611.21S602.68,336.27,565.71,505c-20.1,91.76,11.29,89.08,15.11,145.61h0v.14a201.26,201.26,0,0,1-.3,28.29c-.52,13.47-1.71,28.33-4.39,36.37-2.85,8.53-69.19,19-73,17.06S488,719.19,488,719.19l-12.32,1.89-.95,16.11-19.9,4.74-7.59-13.27L434,731.51v16.11l-19.91,5.69-9.48-10.43-12.32,3.79-1.89,15.17-24.65,7.58-11.37-9.48-15.17,4.74L335.39,778l-25.59,5.69-8.53-10.43L284.21,777l-5.68,12.32s-24.65,2.85-37,1.9-39.81,0-57.82-12.32c-12.73-8.72-16.17-38.44-20.4-52.46-.62-1.83-1.2-3.78-1.74-5.82Z" fill="#ffd522"/>
            <g clip-path="url(#adaaaec8-e949-4092-abd7-e3615919f1cc)">
              <path d="M459,107.21s10.31,104.24,16,145S521.06,538.15,524.85,560s-4.31,68-30.85,81.26S375.1,706.86,310.65,722,195,750.46,131.51,724.87l52.13,51.18,184.83-19.9,194.3-55.92,48.33-21.8-8.53-219.89,26.54-342.16Z" fill="#e87e15" opacity="0.45"/>
              <path d="M588.46,655.68c-15.17,33.18-61.85,11.57-114.69,37.91C448,706.46,363.55,734.24,341.08,741c-47.39,14.22-136.48,36-178.19-14.21h0l9.48,75.82s182,13.27,216.1,3.79,217-61.6,217-61.6Z" fill="#232533"/>
              <path d="M366.57,182.73c19.9-16.12,32.23,0,31.28,78.66S407.33,421.57,411.12,468s-23.7,14.21-36-103.32S366.57,182.73,366.57,182.73Z" fill="#fff" opacity="0.41"/>
              <path d="M168.48,703.07c-.95-29.38,18-32.22,37.91-42.65,22.92-12,56.87-23.69,71.09-15.16,18,10.79-48.34,22.74-60.66,43.6C209.57,701.12,170.58,768.16,168.48,703.07Z" fill="#fff" opacity="0.41"/>
            </g>
          </g>
          <g>
            <g>
              <ellipse cx="474.62" cy="144.81" rx="134.59" ry="28.43" fill="#ffba1f"/>
              <g clip-path="url(#ef39a540-39f8-480a-b221-a52945d6bb4c)">
                <polygon points="518.22 91.74 467.04 251.92 632.9 155.24 621.53 99.32 518.22 91.74" fill="#ef9b06" opacity="0.6"/>
              </g>
            </g>
            <path d="M474.62,177c-36.21,0-70.28-3-95.95-8.41-28.16-5.95-42.43-14-42.43-23.82S350.51,127,378.67,121c25.67-5.43,59.74-8.41,95.95-8.41s70.28,3,96,8.41c28.16,6,42.43,14,42.43,23.81s-14.27,17.87-42.43,23.82C544.9,174.05,510.83,177,474.62,177Zm0-56.87c-35.69,0-69.21,2.93-94.38,8.25-28.75,6.07-36.42,13.16-36.42,16.39s7.67,10.33,36.42,16.4c25.17,5.32,58.69,8.25,94.38,8.25s69.21-2.93,94.38-8.25c28.75-6.07,36.42-13.16,36.42-16.4s-7.67-10.32-36.42-16.39C543.83,123.1,510.31,120.17,474.62,120.17Z" fill="#ffd522"/>
          </g>
        </g>
        <g>
          <g>
            <path d="M364.74,812.71h0c-3.88-14.82-5.1-34,6.37-49.5,34-31,109-45,144-63s77-63,79-92c5-72.27-52-243-44-403h289s-9,202-48,380c-21.22,96.81,11.91,94,15.94,153.63h0V739a211.43,211.43,0,0,1-.32,29.84c-.54,14.21-1.8,29.89-4.63,38.38-3,9-73,20-77,18s-16-14-16-14l-13,2-1,17-21,5-8-14-14,3v17l-21,6-10-11-13,4-2,16-26,8-12-10-16,5-4,14-27,6-9-11-18,4-6,13s-26,3-39,2-42,0-61-13C374.67,865,371,833.65,366.57,818.87c-.64-1.94-1.26-4-1.82-6.15Z" fill="#ffd522"/>
            <g clip-path="url(#a0e2d877-d4c9-4067-a2ac-c9054a5ed32d)">
              <path d="M756,175.21s18,98,24,141-36,304-32,327,23,73-5,87-153,68-221,84-122,30-189,3l55,54,195-21,205-59,51-23-9-232,28-361Z" fill="#ffba1f" opacity="0.6"/>
              <path d="M815.11,744.21c-16,35-65.26,12.21-121,40-27.22,13.57-116.3,42.89-140,50-50,15-144,38-188-15h0l10,80s192,14,228,4,229-65,229-65Z" fill="#232533"/>
              <path d="M581,245.21c21-17,34,0,33,83s10,169,14,218-25,15-38-109S581,245.21,581,245.21Z" fill="#fff" opacity="0.41"/>
              <path d="M372,794.21c-1-31,19-34,40-45,24.18-12.67,60-25,75-16,19,11.39-51,24-64,46C415.35,792.15,374.22,862.88,372,794.21Z" fill="#fff" opacity="0.41"/>
            </g>
          </g>
          <g>
            <g>
              <ellipse cx="695" cy="205.21" rx="142" ry="30" fill="#ffba1f"/>
              <g clip-path="url(#aab2803a-c62a-4c8b-b3c3-d5b27f9b16d7)">
                <polygon points="741 149.21 687 318.21 862 216.21 850 157.21 741 149.21" fill="#ef9b06" opacity="0.6"/>
              </g>
            </g>
            <path d="M695,239.21c-38.2,0-74.15-3.15-101.24-8.88-29.7-6.27-44.76-14.72-44.76-25.12s15.06-18.85,44.76-25.13c27.09-5.72,63-8.87,101.24-8.87s74.15,3.15,101.24,8.87c29.7,6.28,44.76,14.73,44.76,25.13s-15.06,18.85-44.76,25.12C769.15,236.06,733.2,239.21,695,239.21Zm0-60c-37.66,0-73,3.09-99.58,8.7C565.09,194.32,557,201.8,557,205.21s8.09,10.89,38.42,17.3c26.55,5.61,61.92,8.7,99.58,8.7s73-3.09,99.58-8.7c30.33-6.41,38.42-13.89,38.42-17.3s-8.09-10.89-38.42-17.3C768,182.3,732.66,179.21,695,179.21Z" fill="#ffd522"/>
          </g>
        </g>
      </g>
    </g>
  </g>
</svg>
