<svg xmlns="http://www.w3.org/2000/svg" xmlns:xlink="http://www.w3.org/1999/xlink" viewBox="0 0 1000 1000">
  <defs>
    <clipPath id="a9239817-e380-4bbc-b745-5ecde2c97105">
      <path d="M570.1,457.77s33-89.75-22.44-117.47-155.74-30.36-208.53,13.2,0,125.38,0,125.38Z" fill="#ffd522"/>
    </clipPath>
    <clipPath id="e2430e8c-86d2-4abc-b203-5fcbd7381898">
      <path d="M579.34,366.93c3.15,1.21,9.87,12.48-1,20.2,0,0-153.35,9.83-259,0,0,0-9.27-14.62,1.29-20.2S564.82,361.34,579.34,366.93Z" fill="#ea2727"/>
    </clipPath>
    <clipPath id="f1093d4f-3079-4836-b671-418266af0143">
      <path d="M468.39,324S481.78,233.1,441.6,221.1,372.12,211,372.12,211v37.31s46.23-3.58,55.44,7.56S442.3,305.11,438.11,324C438.11,324,459.18,327.39,468.39,324Z" fill="#ffd522"/>
    </clipPath>
    <clipPath id="acbeecb6-55de-4e55-ab40-47360fefdf1b">
      <path d="M885.54,591.07s52.79-112.19,0-129.35-48.84,85.79-25.08,129.35Z" fill="#97e9ff"/>
    </clipPath>
    <clipPath id="b64fedaa-63bb-46b8-a0e0-30e22b7d274f">
      <path d="M885.54,622.74s52.79,112.19,0,129.35S836.7,666.3,860.46,622.74Z" fill="#97e9ff"/>
    </clipPath>
    <clipPath id="bf3f93e4-e1ad-4319-8995-0f867abc8383">
      <path d="M832.74,553.17S674.44,412.9,407.92,418.91,97.32,495.06,91.3,603.27,167.45,795.64,430,795.64,832.74,663.38,832.74,663.38Z" fill="#ffd522"/>
    </clipPath>
    <clipPath id="e558978f-36c0-4117-b9d0-70512f00249b">
      <path d="M811.63,695.33H838V533H811.63s-11.88,40.91-10.56,80.51S811.63,695.33,811.63,695.33Z" fill="#ea2727"/>
    </clipPath>
    <clipPath id="adbfa600-0978-4388-9614-c62ef8dd2e1e">
      <ellipse cx="125.32" cy="460.41" rx="121.42" ry="139.9" fill="#97e9ff" stroke="#ea2727" stroke-miterlimit="10" stroke-width="10"/>
    </clipPath>
    <clipPath id="a89fa56e-1eba-43d5-97b0-6d66df637866">
      <circle cx="342.75" cy="596.69" r="57.73" fill="#97e9ff" stroke="#ea2727" stroke-miterlimit="10" stroke-width="15"/>
    </clipPath>
    <clipPath id="a472746a-4a82-4590-8100-349eecd123da">
      <circle cx="506.09" cy="596.69" r="57.73" fill="#97e9ff" stroke="#ea2727" stroke-miterlimit="10" stroke-width="15"/>
    </clipPath>
    <clipPath id="e0912771-eab1-4f15-8323-7ae4f235da96">
      <circle cx="669.43" cy="596.69" r="57.73" fill="#97e9ff" stroke="#ea2727" stroke-miterlimit="10" stroke-width="15"/>
    </clipPath>
  </defs>
  <g style="isolation: isolate">
    <g id="f262c50e-858e-4797-948a-1d247836eaf5" data-name="Layer 3">
      <g id="a3370698-9ad9-4bb8-bb3d-d9e449023c60" data-name="Layer 4">
        <g>
          <g>
            <path d="M570.1,457.77s33-89.75-22.44-117.47-155.74-30.36-208.53,13.2,0,125.38,0,125.38Z" fill="#ffd522"/>
            <g clip-path="url(#a9239817-e380-4bbc-b745-5ecde2c97105)">
              <path d="M455.27,316.54S401.16,333.7,384,373.3,461.87,412.89,595.17,405L579.34,463,461.87,478.88l-159.7-18.47-14.52-83.15,56.76-66Z" fill="#ffba1f" opacity="0.6"/>
            </g>
          </g>
          <g>
            <path d="M579.34,366.93c3.15,1.21,9.87,12.48-1,20.2,0,0-153.35,9.83-259,0,0,0-9.27-14.62,1.29-20.2S564.82,361.34,579.34,366.93Z" fill="#ea2727"/>
            <g clip-path="url(#e2430e8c-86d2-4abc-b203-5fcbd7381898)">
              <polygon points="423.6 346.9 477.71 404.97 299.53 399.69 311.41 349.54 423.6 346.9" fill="#ce0909"/>
            </g>
          </g>
          <g>
            <path d="M468.39,324S481.78,233.1,441.6,221.1,372.12,211,372.12,211v37.31s46.23-3.58,55.44,7.56S442.3,305.11,438.11,324C438.11,324,459.18,327.39,468.39,324Z" fill="#ffd522"/>
            <g clip-path="url(#f1093d4f-3079-4836-b671-418266af0143)">
              <path d="M357.61,204.36s77.43,22,81.82,52.79c7.92,55.43,19.8,72.59,19.8,72.59l-39.59-14.52-14.52-48.83-58.07-11.88Z" fill="#ffba1f" opacity="0.6"/>
            </g>
          </g>
          <path d="M365.52,209.64s-17.09-2.29-18.47,19.8c-1.32,21.11,21.11,21.11,21.11,21.11Z" fill="#97e9ff"/>
          <path d="M364.05,205.29c.72-.59,7.4-1.86,12,.19,0,0,5.83,28.83,0,48.68,0,0-8.68,1.75-12-.24S360.74,208,364.05,205.29Z" fill="#ea2727"/>
          <rect x="826.14" y="604.27" width="30.36" height="9.24" transform="translate(1682.64 1217.77) rotate(-180)" fill="#a05000"/>
          <g>
            <path d="M885.54,591.07s52.79-112.19,0-129.35-48.84,85.79-25.08,129.35Z" fill="#97e9ff"/>
            <g clip-path="url(#acbeecb6-55de-4e55-ab40-47360fefdf1b)">
              <path d="M922.49,505.28s-21.12-43.56-50.15-14.52-11.88,100.31-11.88,100.31h-4L813,504l31.67-66,55.43,6.6Z" fill="#79dbf2" opacity="0.48" style="mix-blend-mode: multiply"/>
            </g>
          </g>
          <g>
            <path d="M885.54,622.74s52.79,112.19,0,129.35S836.7,666.3,860.46,622.74Z" fill="#97e9ff"/>
            <g clip-path="url(#b64fedaa-63bb-46b8-a0e0-30e22b7d274f)">
              <path d="M856.5,622.74s-17.16,146.5,66,101.63l-22.44,52.79-73.91-15.83-14.51-72.59,44.87-59.4" fill="#79dbf2" opacity="0.48" style="mix-blend-mode: multiply"/>
            </g>
          </g>
          <path d="M852.54,591.07c4.18-3.14,47.51-8.56,47.51,17.16,0,21.46-37.76,25.78-47.51,18.47C847.26,622.74,836.7,603,852.54,591.07Z" fill="#ea2727"/>
          <g>
            <path d="M832.74,553.17S674.44,412.9,407.92,418.91,97.32,495.06,91.3,603.27,167.45,795.64,430,795.64,832.74,663.38,832.74,663.38Z" fill="#ffd522"/>
            <g clip-path="url(#bf3f93e4-e1ad-4319-8995-0f867abc8383)">
              <g>
                <path d="M811.63,695.33H838V533H811.63s-11.88,40.91-10.56,80.51S811.63,695.33,811.63,695.33Z" fill="#ea2727"/>
                <g clip-path="url(#e558978f-36c0-4117-b9d0-70512f00249b)">
                  <polygon points="789.19 591.07 865.74 661.02 840.66 695.34 786.55 683.46 789.19 591.07" fill="#ce0909"/>
                </g>
              </g>
              <path d="M125.32,460.41s-7.92,137.26,83.14,211.17S711.32,731,950.21,588.43L809,729.65,550.3,833.92,242.78,847.11,56.68,738.89,55.36,525.08Z" fill="#ffba1f" opacity="0.6"/>
              <g>
                <ellipse cx="125.32" cy="460.41" rx="121.42" ry="139.9" fill="#97e9ff"/>
                <g clip-path="url(#adbfa600-0978-4388-9614-c62ef8dd2e1e)">
                  <path d="M125.32,460.41s-7.92,137.26,83.14,211.17S711.32,731,950.21,588.43L809,729.65,550.3,833.92,242.78,847.11,56.68,738.89,55.36,525.08Z" fill="#79dbf2" opacity="0.48" style="mix-blend-mode: multiply"/>
                </g>
                <ellipse cx="125.32" cy="460.41" rx="121.42" ry="139.9" fill="none" stroke="#ea2727" stroke-miterlimit="10" stroke-width="10"/>
              </g>
            </g>
          </g>
          <g>
            <circle cx="342.75" cy="596.69" r="57.73" fill="#97e9ff"/>
            <g clip-path="url(#a89fa56e-1eba-43d5-97b0-6d66df637866)">
              <polygon points="305.47 525.74 372.78 688.08 251.36 653.76 256.64 549.49 305.47 525.74" fill="#79dbf2" opacity="0.48" style="mix-blend-mode: multiply"/>
            </g>
            <circle cx="342.75" cy="596.69" r="57.73" fill="none" stroke="#ea2727" stroke-miterlimit="10" stroke-width="15"/>
          </g>
          <g>
            <circle cx="506.09" cy="596.69" r="57.73" fill="#97e9ff"/>
            <g clip-path="url(#a472746a-4a82-4590-8100-349eecd123da)">
              <polygon points="449.33 509.9 535.12 676.2 433.5 669.6 421.62 590.41 449.33 509.9" fill="#79dbf2" opacity="0.48" style="mix-blend-mode: multiply"/>
            </g>
            <circle cx="506.09" cy="596.69" r="57.73" fill="none" stroke="#ea2727" stroke-miterlimit="10" stroke-width="15"/>
          </g>
          <g>
            <circle cx="669.43" cy="596.69" r="57.73" fill="#97e9ff"/>
            <g clip-path="url(#e0912771-eab1-4f15-8323-7ae4f235da96)">
              <polygon points="627.51 516.5 690.86 674.88 599.79 661.68 590.55 525.74 627.51 516.5" fill="#79dbf2" opacity="0.48" style="mix-blend-mode: multiply"/>
            </g>
            <circle cx="669.43" cy="596.69" r="57.73" fill="none" stroke="#ea2727" stroke-miterlimit="10" stroke-width="15"/>
          </g>
          <path d="M786.55,539.59c-5.28-18.47-201.93-122.74-425-89.74s105.1,25.91,159.7,29C706,489.44,791.83,558.07,786.55,539.59Z" fill="#fff" opacity="0.41"/>
          <path d="M460.55,271.67c10.1,3.36,1.32-43.55-29-48.83C420.79,221,443.39,233.39,447.35,240S456.59,270.35,460.55,271.67Z" fill="#fff" opacity="0.41"/>
          <path d="M538.42,357.46c5.6,3.73,25.08,2.64,9.24-10.56s-47.51-18.48-52.79-18.48,34.31,13.2,38.27,18.48S534.46,354.82,538.42,357.46Z" fill="#fff" opacity="0.41"/>
        </g>
      </g>
    </g>
  </g>
</svg>
