<svg xmlns="http://www.w3.org/2000/svg" xmlns:xlink="http://www.w3.org/1999/xlink" viewBox="0 0 1000 1000">
  <defs>
    <clipPath id="e2e77d62-acb5-4622-9994-7686d39328bd">
      <path d="M846.28,199,728.08,426.66a33.61,33.61,0,0,0,6.25,39.44L917.08,646.05c23.39,23,3.28,62.49-29.1,57.11L635,661.09a33.61,33.61,0,0,0-35.58,18.12L484.73,908.62c-14.68,29.37-58.42,22.44-63.31-10L383.26,645A33.63,33.63,0,0,0,355,616.74L101.4,578.58C68.94,573.69,62,530,91.38,515.27L320.79,400.6A33.61,33.61,0,0,0,338.91,365L296.84,112c-5.38-32.38,34.08-52.49,57.11-29.1l180,182.75a33.61,33.61,0,0,0,39.44,6.25L801,153.72C830.09,138.59,861.41,169.91,846.28,199Z" fill="#ff8b00"/>
    </clipPath>
  </defs>
  <g id="e140c696-814d-4ccd-855c-4cb21850e263" data-name="Layer 3">
    <g id="bb58f763-f671-4966-9c56-64287d3dc5bf" data-name="Layer 4">
      <g>
        <path d="M846.28,199,728.08,426.66a33.61,33.61,0,0,0,6.25,39.44L917.08,646.05c23.39,23,3.28,62.49-29.1,57.11L635,661.09a33.61,33.61,0,0,0-35.58,18.12L484.73,908.62c-14.68,29.37-58.42,22.44-63.31-10L383.26,645A33.63,33.63,0,0,0,355,616.74L101.4,578.58C68.94,573.69,62,530,91.38,515.27L320.79,400.6A33.61,33.61,0,0,0,338.91,365L296.84,112c-5.38-32.38,34.08-52.49,57.11-29.1l180,182.75a33.61,33.61,0,0,0,39.44,6.25L801,153.72C830.09,138.59,861.41,169.91,846.28,199Z" fill="#ff8b00"/>
        <g clip-path="url(#e2e77d62-acb5-4622-9994-7686d39328bd)">
          <path d="M717,288.42,578.16,450.84a13.93,13.93,0,0,0,3.31,20.92L763.75,583.31c4.07,2.5.9,8.72-3.51,6.89L562.85,508.3A13.92,13.92,0,0,0,544,517.91L494.22,725.74c-1.12,4.65-8,3.56-7.64-1.21l16.89-213a13.9,13.9,0,0,0-15-15l-213,16.89c-4.77.37-5.86-6.52-1.21-7.64L482.09,456a13.92,13.92,0,0,0,9.61-18.87L409.8,239.76c-1.83-4.41,4.39-7.58,6.89-3.51L528.24,418.53a13.93,13.93,0,0,0,20.92,3.31L711.58,283C715.21,279.85,720.15,284.79,717,288.42Z" fill="#ea2727"/>
          <path d="M370.21,182.52c7.66,0,7.67-11.91,0-11.91s-7.68,11.91,0,11.91Z" fill="#ffaa39"/>
          <path d="M383.68,316.53c7.66,0,7.67-11.9,0-11.9s-7.67,11.9,0,11.9Z" fill="#ffaa39"/>
          <path d="M356.74,241.93c9.34,0,18.29-8.21,17.86-17.86s-7.85-17.86-17.86-17.86c-9.35,0-18.3,8.22-17.86,17.86s7.84,17.86,17.86,17.86Z" fill="#ffaa39"/>
          <path d="M344.68,139.12c9.34,0,18.29-8.22,17.86-17.86s-7.85-17.86-17.86-17.86c-9.34,0-18.29,8.21-17.86,17.86s7.85,17.86,17.86,17.86Z" fill="#ffaa39"/>
          <path d="M532.59,338.36c9.34,0,18.29-8.21,17.86-17.85s-7.85-17.86-17.86-17.86c-9.35,0-18.3,8.21-17.86,17.86s7.84,17.85,17.86,17.85Z" fill="#ffaa39"/>
          <path d="M759.49,254.69c9.34,0,18.29-8.21,17.86-17.85S769.5,219,759.49,219c-9.34,0-18.29,8.21-17.86,17.86s7.85,17.85,17.86,17.85Z" fill="#ffaa39"/>
          <path d="M633.27,480.18c9.35,0,18.3-8.22,17.86-17.86s-7.84-17.86-17.86-17.86c-9.34,0-18.29,8.21-17.86,17.86s7.85,17.86,17.86,17.86Z" fill="#ffaa39"/>
          <path d="M797.78,651.77c9.34,0,18.29-8.21,17.86-17.86s-7.85-17.86-17.86-17.86c-9.34,0-18.29,8.22-17.86,17.86s7.85,17.86,17.86,17.86Z" fill="#ffaa39"/>
          <path d="M863.72,679.43c9.34,0,18.29-8.22,17.86-17.86s-7.85-17.86-17.86-17.86c-9.34,0-18.29,8.21-17.86,17.86s7.85,17.86,17.86,17.86Z" fill="#ffaa39"/>
          <path d="M582.22,658.86c9.34,0,18.29-8.21,17.86-17.85s-7.85-17.86-17.86-17.86c-9.34,0-18.29,8.21-17.86,17.86s7.85,17.85,17.86,17.85Z" fill="#ffaa39"/>
          <path d="M449.62,775.17a.15.15,0,0,0,0-.3.15.15,0,0,0,0,.3Z" fill="#ffaa39"/>
          <path d="M444,590.08c9.34,0,18.29-8.21,17.86-17.85S454,554.37,444,554.37c-9.34,0-18.29,8.21-17.86,17.86s7.85,17.85,17.86,17.85Z" fill="#ffaa39"/>
          <path d="M452.46,808.48c9.34,0,18.29-8.22,17.86-17.86s-7.85-17.86-17.86-17.86c-9.34,0-18.29,8.21-17.86,17.86s7.85,17.86,17.86,17.86Z" fill="#ffaa39"/>
          <path d="M173.8,566.69c9.34,0,18.29-8.22,17.86-17.86S183.81,531,173.8,531c-9.35,0-18.3,8.21-17.86,17.86s7.84,17.86,17.86,17.86Z" fill="#ffaa39"/>
          <path d="M353.9,440.47c9.34,0,18.29-8.21,17.86-17.86s-7.85-17.86-17.86-17.86c-9.34,0-18.29,8.22-17.86,17.86s7.85,17.86,17.86,17.86Z" fill="#ffaa39"/>
          <path d="M455.3,248c15.32,0,15.34-23.81,0-23.81S440,248,455.3,248Z" fill="#ffaa39"/>
          <path d="M646,311.14c15.32,0,15.34-23.81,0-23.81s-15.35,23.81,0,23.81Z" fill="#ffaa39"/>
          <path d="M695.67,496.92c15.32,0,15.35-23.82,0-23.82s-15.35,23.82,0,23.82Z" fill="#ffaa39"/>
          <path d="M809.83,211.16c15.32,0,15.35-23.81,0-23.81s-15.35,23.81,0,23.81Z" fill="#ffaa39"/>
          <path d="M680.07,610.37c15.32,0,15.35-23.82,0-23.82s-15.35,23.82,0,23.82Z" fill="#ffaa39"/>
          <path d="M429.06,692.62c15.32,0,15.35-23.81,0-23.81s-15.35,23.81,0,23.81Z" fill="#ffaa39"/>
          <path d="M465.93,913.85c15.33,0,15.35-23.81,0-23.81s-15.34,23.81,0,23.81Z" fill="#ffaa39"/>
          <path d="M284.41,565c15.32,0,15.35-23.82,0-23.82s-15.35,23.82,0,23.82Z" fill="#ffaa39"/>
          <path d="M262.43,474.93c15.32,0,15.35-23.81,0-23.81s-15.35,23.81,0,23.81Z" fill="#ffaa39"/>
          <path d="M455.3,443.74c15.32,0,15.34-23.82,0-23.82s-15.35,23.82,0,23.82Z" fill="#ffaa39"/>
          <path d="M346.1,283.21c7.66,0,7.67-11.91,0-11.91s-7.67,11.91,0,11.91Z" fill="#ffaa39"/>
          <path d="M406.37,404.46c7.66,0,7.68-11.91,0-11.91s-7.67,11.91,0,11.91Z" fill="#ffaa39"/>
          <path d="M422,353.4c7.66,0,7.67-11.9,0-11.9s-7.67,11.9,0,11.9Z" fill="#ffaa39"/>
          <path d="M514.15,278.24c7.66,0,7.67-11.9,0-11.9s-7.67,11.9,0,11.9Z" fill="#ffaa39"/>
          <path d="M460.26,288.17c7.66,0,7.67-11.91,0-11.91s-7.67,11.91,0,11.91Z" fill="#ffaa39"/>
          <path d="M557.4,393.82c7.66,0,7.68-11.91,0-11.91s-7.67,11.91,0,11.91Z" fill="#ffaa39"/>
          <path d="M590.73,315.11c7.66,0,7.67-11.9,0-11.9s-7.67,11.9,0,11.9Z" fill="#ffaa39"/>
          <path d="M687.16,247c7.66,0,7.68-11.9,0-11.9s-7.67,11.9,0,11.9Z" fill="#ffaa39"/>
          <path d="M758.78,296c7.66,0,7.67-11.91,0-11.91s-7.67,11.91,0,11.91Z" fill="#ffaa39"/>
          <path d="M802.74,246.33c7.66,0,7.68-11.9,0-11.9s-7.67,11.9,0,11.9Z" fill="#ffaa39"/>
          <path d="M765.16,197.41c7.66,0,7.67-11.91,0-11.91s-7.67,11.91,0,11.91Z" fill="#ffaa39"/>
          <path d="M676.53,369.71c7.66,0,7.67-11.9,0-11.9s-7.68,11.9,0,11.9Z" fill="#ffaa39"/>
          <path d="M738.93,344.19c7.66,0,7.67-11.91,0-11.91s-7.68,11.91,0,11.91Z" fill="#ffaa39"/>
          <path d="M684.33,437.07c7.66,0,7.67-11.9,0-11.9s-7.68,11.9,0,11.9Z" fill="#ffaa39"/>
          <path d="M713.4,392.4c7.66,0,7.67-11.9,0-11.9s-7.68,11.9,0,11.9Z" fill="#ffaa39"/>
          <path d="M639.66,419.35c7.66,0,7.67-11.91,0-11.91s-7.68,11.91,0,11.91Z" fill="#ffaa39"/>
          <path d="M756.65,544.85c7.66,0,7.68-11.9,0-11.9s-7.67,11.9,0,11.9Z" fill="#ffaa39"/>
          <path d="M709.14,528.54c7.67,0,7.68-11.9,0-11.9s-7.67,11.9,0,11.9Z" fill="#ffaa39"/>
          <path d="M835.36,609.38c7.66,0,7.67-11.91,0-11.91s-7.68,11.91,0,11.91Z" fill="#ffaa39"/>
          <path d="M728.29,649.79c7.66,0,7.67-11.9,0-11.9s-7.67,11.9,0,11.9Z" fill="#ffaa39"/>
          <path d="M600.66,578.89c7.66,0,7.67-11.91,0-11.91s-7.68,11.91,0,11.91Z" fill="#ffaa39"/>
          <path d="M645.33,639.16c7.66,0,7.67-11.91,0-11.91s-7.68,11.91,0,11.91Z" fill="#ffaa39"/>
          <path d="M551,588.81c7.66,0,7.68-11.9,0-11.9s-7.67,11.9,0,11.9Z" fill="#ffaa39"/>
          <path d="M539,749.77c7.66,0,7.67-11.9,0-11.9s-7.68,11.9,0,11.9Z" fill="#ffaa39"/>
          <path d="M534,682.41c7.66,0,7.68-11.9,0-11.9s-7.67,11.9,0,11.9Z" fill="#ffaa39"/>
          <path d="M492.17,771.05c7.66,0,7.67-11.91,0-11.91s-7.68,11.91,0,11.91Z" fill="#ffaa39"/>
          <path d="M495,846.21c7.66,0,7.67-11.91,0-11.91s-7.68,11.91,0,11.91Z" fill="#ffaa39"/>
          <path d="M436.86,859c7.66,0,7.68-11.91,0-11.91s-7.67,11.91,0,11.91Z" fill="#ffaa39"/>
          <path d="M419.84,741.26c7.66,0,7.68-11.9,0-11.9s-7.67,11.9,0,11.9Z" fill="#ffaa39"/>
          <path d="M465.22,691.63c7.67,0,7.68-11.91,0-11.91s-7.67,11.91,0,11.91Z" fill="#ffaa39"/>
          <path d="M401.41,627.81c7.66,0,7.67-11.9,0-11.9s-7.68,11.9,0,11.9Z" fill="#ffaa39"/>
          <path d="M458.13,616.47c7.66,0,7.68-11.91,0-11.91s-7.67,11.91,0,11.91Z" fill="#ffaa39"/>
          <path d="M462.39,522.87c7.66,0,7.67-11.91,0-11.91s-7.68,11.91,0,11.91Z" fill="#ffaa39"/>
          <path d="M356,541.31c7.66,0,7.67-11.91,0-11.91s-7.68,11.91,0,11.91Z" fill="#ffaa39"/>
          <path d="M402.12,566.12c7.66,0,7.67-11.9,0-11.9s-7.68,11.9,0,11.9Z" fill="#ffaa39"/>
          <path d="M322,586.69c7.66,0,7.68-11.91,0-11.91s-7.67,11.91,0,11.91Z" fill="#ffaa39"/>
          <path d="M219.89,528.54c7.66,0,7.67-11.9,0-11.9s-7.68,11.9,0,11.9Z" fill="#ffaa39"/>
          <path d="M233.36,584.56c7.66,0,7.67-11.91,0-11.91s-7.68,11.91,0,11.91Z" fill="#ffaa39"/>
          <path d="M180.89,505.14c7.66,0,7.67-11.9,0-11.9s-7.68,11.9,0,11.9Z" fill="#ffaa39"/>
          <path d="M111.4,549.11c7.66,0,7.67-11.91,0-11.91s-7.68,11.91,0,11.91Z" fill="#ffaa39"/>
          <path d="M368.08,381.77c7.66,0,7.68-11.91,0-11.91s-7.67,11.91,0,11.91Z" fill="#ffaa39"/>
          <path d="M331.92,471.82c7.66,0,7.67-11.91,0-11.91s-7.67,11.91,0,11.91Z" fill="#ffaa39"/>
          <path d="M936.67,73s-613,521-665,736,178,154,178,154,305-51,310-61,224-204,224-204Z" fill="#d85107" opacity="0.35"/>
          <path d="M598.59,407.39,548.22,466.3a5,5,0,0,0,1.2,7.59l66.11,40.46a1.41,1.41,0,0,1-1.27,2.5l-71.6-29.71a5,5,0,0,0-6.84,3.49L517.77,566a1.41,1.41,0,0,1-2.77-.44l6.13-77.27a5.06,5.06,0,0,0-5.43-5.43L438.43,489a1.41,1.41,0,0,1-.44-2.77l75.38-18.05a5,5,0,0,0,3.49-6.84l-29.71-71.6a1.41,1.41,0,0,1,2.5-1.27l40.46,66.11a5,5,0,0,0,7.59,1.2l58.91-50.37A1.4,1.4,0,0,1,598.59,407.39Z" fill="#ce0909"/>
        </g>
      </g>
    </g>
  </g>
</svg>
