<svg xmlns="http://www.w3.org/2000/svg" xmlns:xlink="http://www.w3.org/1999/xlink" viewBox="0 0 1000 1000">
  <defs>
    <clipPath id="a41601af-aeec-4c12-a856-1e8c72bfe10c">
      <path d="M596.43,366.76h.29c-1.28-129.1,60.07-221.13,60.07-221.13H342.36s62,91.1,61.35,219.15a5.19,5.19,0,0,0-.21,1.34,4.62,4.62,0,0,0,.07.65c-108.52,38.8-186,141.2-186,261.44,0,96,49.4,180.61,124.54,230.58a47.37,47.37,0,0,0,5.32,3c15.59,15.15,78.09,26.48,152.83,26.48,76,0,139.37-11.72,153.59-27.26a46,46,0,0,0,5.47-3.11C733.66,807.8,782.48,723.61,782.48,628.2,782.48,508,705,405.56,596.43,366.76Z" fill="#ff8b00"/>
    </clipPath>
  </defs>
  <g id="a0f0b37f-bff3-4732-a8d9-da7d1e68f592" data-name="Layer 3">
    <g>
      <g>
        <path d="M596.43,366.76h.29c-1.28-129.1,60.07-221.13,60.07-221.13H342.36s62,91.1,61.35,219.15a5.19,5.19,0,0,0-.21,1.34,4.62,4.62,0,0,0,.07.65c-108.52,38.8-186,141.2-186,261.44,0,96,49.4,180.61,124.54,230.58a47.37,47.37,0,0,0,5.32,3c15.59,15.15,78.09,26.48,152.83,26.48,76,0,139.37-11.72,153.59-27.26a46,46,0,0,0,5.47-3.11C733.66,807.8,782.48,723.61,782.48,628.2,782.48,508,705,405.56,596.43,366.76Z" fill="#ff8b00"/>
        <g clip-path="url(#a41601af-aeec-4c12-a856-1e8c72bfe10c)">
          <polyline points="210.7 692.69 268.22 658.18 283.56 731.03 352.58 683.74 374.31 755.32 442.06 700.36 470.18 773.21 525.14 706.75 567.32 778.33 613.33 702.91 663.18 762.99 684.91 677.35 739.87 710.58 738.6 637.73 788.45 658.18" fill="none" stroke="#ea2727" stroke-linecap="round" stroke-linejoin="round" stroke-width="18"/>
          <path d="M217.09,501s282.48,177.67,565-1.28" fill="none" stroke="#ea2727" stroke-miterlimit="10" stroke-width="47"/>
          <path d="M430.67,132.75s77,30,90,92-2,158-2,158,119,48,157,217-66,285-236,300h272l131-244-47-200-157-116,58-228Z" fill="#d85107" opacity="0.35"/>
          <ellipse cx="340.18" cy="490.26" rx="39.9" ry="30.37" transform="translate(-254.82 444.91) rotate(-50.88)" fill="#fff" opacity="0.45"/>
          <ellipse cx="301" cy="559.09" rx="21.5" ry="16.37" transform="translate(-329.65 633.04) rotate(-68.39)" fill="#fff" opacity="0.45"/>
        </g>
      </g>
      <ellipse cx="499.57" cy="145.62" rx="156.58" ry="33.87" fill="#d85107"/>
    </g>
  </g>
</svg>
