<svg xmlns="http://www.w3.org/2000/svg" xmlns:xlink="http://www.w3.org/1999/xlink" viewBox="0 0 1000 1000">
  <defs>
    <clipPath id="a8436a7c-ef30-40f6-9cbd-f2aed98baec9">
      <path d="M177.75,460c2-18,12-71,49-88s52-10,64-7,5-29-33-33-91,21-115,81-20,134,35,185,172,32,238-46c0,0-72,83-73,152s14,109,87,106,80-48,85-87-33-51-56-43-29,30-19,28,25-17,36-8,14,57-24,69-71-17-59-68,37-102,97-142c0,0,11,86,76,126s164,18,194-13,62-84,45-139-74.63-81.86-108-61c-16,10-24,31-10,26s53-18,79,37-24,122-114,120-99-81-98-105c0,0,53,100.79,157,103,47,1,78,4,94-5s47-30,66-18,22,23,29,19-6-42-37-45-63,17-83,18-119,1-160-60-15-134-8-159,30-142-35-186-160-35-191,30-24,130-12,158,23,84-17,130-119,53-151,12S177.75,460,177.75,460Z" fill="#7f1dff"/>
    </clipPath>
  </defs>
  <g id="bc192b8c-be09-433a-9711-b7d93b7aa1b4" data-name="Layer 3">
    <g id="b548fff4-1d22-4e23-88b9-58c2b8b174ef" data-name="Layer 4">
      <g>
        <path d="M390.75,428s-25,59-74,63-128-2-188,76-15.49,152.67,2,141c6-4-34-55,47-134s163-13,163-13l52-35,8-82Z" fill="#3b00ad"/>
        <path d="M591.75,464s18,48,61,56,78,0,100-62,59-100,103-87,19,18-13,23-53.12,38-62,109c-2,16-70,98-176,56C604.75,559,554.75,513,591.75,464Z" fill="#3b00ad"/>
        <g>
          <path d="M177.75,460c2-18,12-71,49-88s52-10,64-7,5-29-33-33-91,21-115,81-20,134,35,185,172,32,238-46c0,0-72,83-73,152s14,109,87,106,80-48,85-87-33-51-56-43-29,30-19,28,25-17,36-8,14,57-24,69-71-17-59-68,37-102,97-142c0,0,11,86,76,126s164,18,194-13,62-84,45-139-74.63-81.86-108-61c-16,10-24,31-10,26s53-18,79,37-24,122-114,120-99-81-98-105c0,0,53,100.79,157,103,47,1,78,4,94-5s47-30,66-18,22,23,29,19-6-42-37-45-63,17-83,18-119,1-160-60-15-134-8-159,30-142-35-186-160-35-191,30-24,130-12,158,23,84-17,130-119,53-151,12S177.75,460,177.75,460Z" fill="#7f1dff"/>
          <g clip-path="url(#a8436a7c-ef30-40f6-9cbd-f2aed98baec9)">
            <path d="M271.29,361.11S173.75,351,161.75,451s47.93,170.51,182,159.26l-82,29.74-94-28-43-73-5-105,47-86,102-30,38,30-9,25Z" fill="#4a00bf" opacity="0.7"/>
            <path d="M343.75,670s-8,119,72,121,63-67,63-67l-44,2-11-37,24-22h36l50,23-6,49-37,73-102,13-51-42-16-74Z" fill="#4a00bf" opacity="0.7"/>
            <path d="M533.75,667s122,42,195-10,62.32-173.77-25.34-163.39L701.75,503l-33,1,3-20,28-23,27-3,14,2,70,44,16,65-48,114-87,41-101-15Z" fill="#4a00bf" opacity="0.7"/>
            <path d="M367.25,263.51s62-74,174-15,64,202,64,202l38-82-16-129-85-76-142,13Z" fill="#4a00bf" opacity="0.7"/>
          </g>
        </g>
        <g>
          <ellipse cx="542.25" cy="334.51" rx="23" ry="29" fill="#fff"/>
          <ellipse cx="540.25" cy="339.51" rx="4.76" ry="5" transform="translate(-68.76 149.12) rotate(-14.79)" fill="#2e2835"/>
        </g>
        <g>
          <ellipse cx="451.25" cy="334.51" rx="23" ry="29" fill="#fff"/>
          <ellipse cx="453.25" cy="339.51" rx="5" ry="4.76" transform="matrix(0.26, -0.97, 0.97, 0.26, 9.3, 691.11)" fill="#2e2835"/>
        </g>
        <path d="M449.42,413A86.29,86.29,0,0,0,536,418.56a81.25,81.25,0,0,0,13-8c3.14-2.33,7.15-4.76,8.69-8.44.28-.65-.52-1.37-1.15-1.15-3.75,1.3-6.66,4.89-9.88,7.17a94.06,94.06,0,0,1-11,6.66,89.69,89.69,0,0,1-27,8.86c-20.26,3.35-41.14-1.06-58.74-11.47a.47.47,0,0,0-.48.81Z" fill="#2e2835"/>
        <g opacity="0.56">
          <path d="M410.7,253.73c5.37-6.88,10.23-14.94,17.91-19.5,1.67-1,4.55-2.85,6.62-2.73,5.22.3,2.44,4.94.86,7.35a28.32,28.32,0,0,1-8.91,8.31,59.76,59.76,0,0,1-12.51,5.74c-1.14.39-2.29.75-3.44,1.1q-2.78-.1-1.14,1.77c1.31-1.46,2.38-3.14,3.75-4.58a54,54,0,0,1,9.7-8.08,57,57,0,0,1,5.59-3.18c1-.5,4.66-2.17,4.63-2.18l-2.44-1.87.49.81-.41-3.14c-.55,3.81-6.08,8.22-9,10.55a45.39,45.39,0,0,1-13,7.09l5.38,4.1c.05-3,7.05-8.35,9.26-10.26a78.37,78.37,0,0,1,12.61-8.75l-6.39-3.66c.24,6.87-8.92,11.81-14.1,14.48-4.37,2.25-1.33,9.79,3.4,8.05,8.74-3.21,19.68-12.27,19.19-22.53a4.29,4.29,0,0,0-6.39-3.67,89.24,89.24,0,0,0-16,11.88c-4.08,3.82-9.88,8.48-10.08,14.46a4.27,4.27,0,0,0,5.38,4.09,51.77,51.77,0,0,0,18.42-10.93c3.54-3.26,10.87-9.91,9-15.39-4.13-12-28.68,9.87-32.48,14.26-3.46,4-8.2,11.27-1.52,14.86,3,1.62,6.2.46,9.23-.49a82.68,82.68,0,0,0,11.92-4.6c8.41-4.15,27.55-20.34,16.2-30.59-5.53-5-14.27-.42-19.26,3.2-7.38,5.36-12.37,13-16.34,21-1.16,2.35,2.05,5.38,3.9,3Z" fill="#b694f7"/>
        </g>
        <g opacity="0.56">
          <path d="M481.66,210.32a57.87,57.87,0,0,1,11.82-1.1,30.08,30.08,0,0,1,4.45.32,11,11,0,0,1,3.12.8c.94-2,.7-2.8-.73-2.47-1-.49-3.17.07-4.39.06a43.49,43.49,0,0,1-5.81-.38A50.35,50.35,0,0,1,480,204.74v8.59c6.08-1.72,12.42-1.84,18.69-1.44,5.1.32,5-7.42,0-7.88-6.72-.61-13.18-.08-19.88.57-5.17.51-5.83,6.8-1.18,8.75,6.17,2.59,30.69,8.57,31.09-3.62.4-12.38-22.49-5.6-28.21-3.63a2.2,2.2,0,0,0,1.17,4.24Z" fill="#b694f7"/>
        </g>
        <g opacity="0.56">
          <path d="M551.41,224.18a15.89,15.89,0,0,1,8.62,7l4.16-4.17c-1.52-1-3.34-1.49-5-2.32s-3.32-2.05-5.17-2.36a3.55,3.55,0,0,0-3.42,5.88c1.42,1.66,3.75,2.46,5.78,3.15a18.38,18.38,0,0,0,6.23,1.32,3.08,3.08,0,0,0,2.15-5.19c-3.64-3.74-8-5.08-13.17-5a.85.85,0,0,0-.22,1.66Z" fill="#b694f7"/>
        </g>
        <g opacity="0.56">
          <path d="M500.89,243.59a28.69,28.69,0,0,1,6.93,0,26.49,26.49,0,0,1,3.94.72c.75.2,1.49.43,2.22.7,1.32,1.11,1.88.83,1.69-.82.38-2.16-.47-1.41-2.29-1.61A24.73,24.73,0,0,1,510,242a25.35,25.35,0,0,1-6.71-2.92l-1,7.78c2.79-.65,5.92.26,8.35-1.37a3.16,3.16,0,0,0,1.11-4.24c-2.28-3.4-6.87-3.23-10.59-2.75s-6.3,5.74-2.15,7.93c4.76,2.51,21.06,8,22.39-1.19s-16.44-5.92-20.82-4.2c-1.24.49-1.25,2.78.35,2.58Z" fill="#b694f7"/>
        </g>
        <g opacity="0.56">
          <path d="M566.28,255.08c6.85.54,19.3,5.21,21.14,12.89l4.3-5.64c-8.88.22-17.32-2.4-22.15-10.13l-2.71,6.67c4.51-.72,8.62,2.81,11.81,5.52l4.26-7.32c-2.88-1.2-5.79-2.32-8.7-3.43-5.57-2.14-8.25,7.12-2.49,9,3,1,5.89,1.95,8.86,2.84,5,1.49,7.33-5.3,3.37-8-5.77-3.95-11.21-7-18.32-7.57a4.57,4.57,0,0,0-4.54,4.54c.9,13.48,20.6,19.63,31.79,16.6a4.52,4.52,0,0,0,2.67-6.55c-5-10-19.41-12.09-29.29-12.08a1.31,1.31,0,0,0,0,2.62Z" fill="#b694f7"/>
        </g>
      </g>
    </g>
  </g>
</svg>
