<svg xmlns="http://www.w3.org/2000/svg" xmlns:xlink="http://www.w3.org/1999/xlink" viewBox="0 0 1000 1000">
  <defs>
    <clipPath id="bb3a9ff5-8fa3-4128-94f5-74f5232c69ae">
      <circle cx="500" cy="500" r="330.5" fill="#c9c9f4"/>
    </clipPath>
    <clipPath id="a41aa8ca-ae2c-4065-a5ff-ecfe382389e5">
      <path d="M185.48,265.37s294.34,123.62,612.22,0l63.92,158.1L818.73,678.28s-373.39,104.28-649.23-16C169.5,662.31,65.22,376.38,185.48,265.37Z" fill="#7900ff"/>
    </clipPath>
  </defs>
  <g id="b479a097-922f-4ace-b95a-cc3dd4c2fd59" data-name="Layer 3">
    <g id="f00c8608-513e-4cd9-9dd1-a565813c3c02" data-name="Layer 4">
      <g>
        <circle cx="500" cy="500" r="330.5" fill="#c9c9f4"/>
        <g clip-path="url(#bb3a9ff5-8fa3-4128-94f5-74f5232c69ae)">
          <path d="M411.28,155.62s268.27,116.9,253.13,344.8S370.07,851.1,169.08,660.2L217,841.85,571.9,884.74,748.51,779.62l82.41-147.17L873,448.28,797.28,265,589.56,127.87Z" fill="#b9b9ea"/>
          <g>
            <path d="M185.48,265.37s294.34,123.62,612.22,0l63.92,158.1L818.73,678.28s-373.39,104.28-649.23-16C169.5,662.31,65.22,376.38,185.48,265.37Z" fill="#7900ff"/>
            <g clip-path="url(#a41aa8ca-ae2c-4065-a5ff-ecfe382389e5)">
              <path d="M411.28,155.62s268.27,116.9,253.13,344.8S370.07,851.1,169.08,660.2L217,841.85,571.9,884.74,748.51,779.62l82.41-147.17L873,448.28,797.28,265,589.56,127.87Z" fill="#4a00bf" opacity="0.7"/>
            </g>
          </g>
          <circle cx="499.26" cy="520.67" r="145.49" fill="#fff"/>
          <path d="M507,598.36V567.22H443.63v-26L510.76,443h24.91v98.17h19.21v26.07H535.67v31.14Zm0-57.21V488.26l-35.57,52.89Z" fill="#2e2835"/>
        </g>
      </g>
    </g>
  </g>
</svg>
