<svg xmlns="http://www.w3.org/2000/svg" xmlns:xlink="http://www.w3.org/1999/xlink" viewBox="0 0 1000 1000">
  <defs>
    <clipPath id="bb72153d-e894-4397-ac12-007c2ff0eaab">
      <path d="M829.53,333.36H157.18V687.23h0a4.71,4.71,0,0,0,0,.53c0,25.17,150.51,59.52,336.18,59.52s336.17-34.35,336.17-59.52a4.71,4.71,0,0,0,0-.53h0Z" fill="#7f1dff"/>
    </clipPath>
    <clipPath id="e871ee63-437f-448b-8895-0fae5302d016">
      <polygon points="143.24 583.21 215.09 442.74 307.31 630.39 419.9 449.17 523.92 638.97 636.51 442.74 724.44 632.54 809.15 425.58 842.39 513.51 842.39 576.78 810.23 496.35 724.44 688.3 635.44 502.79 517.48 690.44 416.68 511.37 299.8 690.44 214.02 514.58 145.39 632.54 143.24 583.21" fill="#b180ff"/>
    </clipPath>
    <clipPath id="f039e1e5-df10-463d-8975-4b108ebad1c3">
      <path d="M141.1,358s104,67.56,363.51,62.2C736.19,415.43,848.83,358,848.83,358l-5.36-32.17H137.88Z" fill="#a360ff"/>
    </clipPath>
    <clipPath id="bbdf7dd9-545d-42bf-a8a8-01dd886ae4a6">
      <path d="M141.1,663.64s82.31,56.83,351.72,56.83c272.37,0,378.53-77.21,378.53-77.21l-26.81,98.66L502.47,787l-360.3-50.4Z" fill="#a360ff"/>
    </clipPath>
    <clipPath id="b6a93463-eb56-4c64-90b5-3789e1267743">
      <path d="M829.53,333.9c0,25.17-150.51,59.51-336.17,59.51S157.18,359.07,157.18,333.9s151-63.81,336.65-63.81S829.53,308.73,829.53,333.9Z" fill="#ffba1f"/>
    </clipPath>
    <clipPath id="a07c1ec4-929d-4b2a-aa42-2359e8615cee">
      <path d="M790.92,331.82c0,19.7-133.22,46.58-297.56,46.58s-297.57-26.88-297.57-46.58,133.64-49.93,298-49.93S790.92,312.12,790.92,331.82Z" fill="#ffd522"/>
    </clipPath>
    <clipPath id="b2174a09-29c7-49cf-b6e1-b48f77ee3c96">
      <path d="M854.43,275,576.2,315.93l-1.59-9.52,276-53.48a11.2,11.2,0,0,1,13.14,8.9h0A11.21,11.21,0,0,1,854.43,275Z" fill="#7f1dff"/>
    </clipPath>
    <clipPath id="bba42554-d995-4280-ac7d-fa16286180e8">
      <circle cx="560.51" cy="313.12" r="28.82" fill="#7f1dff"/>
    </clipPath>
    <clipPath id="a85d2af7-6186-4be4-b779-015cd1996ed0">
      <path d="M145.57,292.17,423.8,333.09l1.59-9.52-276-53.48A11.2,11.2,0,0,0,136.2,279h0A11.21,11.21,0,0,0,145.57,292.17Z" fill="#7f1dff"/>
    </clipPath>
    <clipPath id="a2ac90fb-1c30-4451-b08f-d7578c0458fb">
      <circle cx="439.49" cy="330.28" r="28.82" fill="#7f1dff"/>
    </clipPath>
  </defs>
  <g id="a0a830d4-41c3-4155-94fc-b7f7e82eaae1" data-name="Layer 3">
    <g id="a49f0648-3864-4ba1-8690-7bf120315b3a" data-name="Layer 4">
      <g>
        <g>
          <path d="M829.53,333.36H157.18V687.23h0a4.71,4.71,0,0,0,0,.53c0,25.17,150.51,59.52,336.18,59.52s336.17-34.35,336.17-59.52a4.71,4.71,0,0,0,0-.53h0Z" fill="#7f1dff"/>
          <g clip-path="url(#bb72153d-e894-4397-ac12-007c2ff0eaab)">
            <path d="M589.33,384.83s100.8,356-308.83,356L540,791.24l289.53-44,69.7-83.64L863.84,301.19Z" fill="#4a00bf" opacity="0.7"/>
            <g>
              <polygon points="143.24 583.21 215.09 442.74 307.31 630.39 419.9 449.17 523.92 638.97 636.51 442.74 724.44 632.54 809.15 425.58 842.39 513.51 842.39 576.78 810.23 496.35 724.44 688.3 635.44 502.79 517.48 690.44 416.68 511.37 299.8 690.44 214.02 514.58 145.39 632.54 143.24 583.21" fill="#b180ff"/>
              <g clip-path="url(#e871ee63-437f-448b-8895-0fae5302d016)">
                <path d="M589.33,384.83s100.8,356-308.83,356L540,791.24l289.53-44,69.7-83.64L863.84,301.19Z" fill="#4a00bf" opacity="0.44"/>
              </g>
            </g>
            <g>
              <path d="M141.1,358s104,67.56,363.51,62.2C736.19,415.43,848.83,358,848.83,358l-5.36-32.17H137.88Z" fill="#a360ff"/>
              <g clip-path="url(#f039e1e5-df10-463d-8975-4b108ebad1c3)">
                <path d="M589.33,384.83s100.8,356-308.83,356L540,791.24l289.53-44,69.7-83.64L863.84,301.19Z" fill="#4a00bf" opacity="0.5"/>
              </g>
            </g>
            <g>
              <path d="M141.1,663.64s82.31,56.83,351.72,56.83c272.37,0,378.53-77.21,378.53-77.21l-26.81,98.66L502.47,787l-360.3-50.4Z" fill="#a360ff"/>
              <g clip-path="url(#bbdf7dd9-545d-42bf-a8a8-01dd886ae4a6)">
                <path d="M589.33,384.83s100.8,356-308.83,356L540,791.24l289.53-44,69.7-83.64L863.84,301.19Z" fill="#4a00bf" opacity="0.5"/>
              </g>
            </g>
          </g>
        </g>
        <g>
          <path d="M829.53,333.9c0,25.17-150.51,59.51-336.17,59.51S157.18,359.07,157.18,333.9s151-63.81,336.65-63.81S829.53,308.73,829.53,333.9Z" fill="#ffba1f"/>
          <g clip-path="url(#b6a93463-eb56-4c64-90b5-3789e1267743)">
            <polygon points="589.33 237.93 410.25 406.28 765.07 393.41 871.35 341.94 719.08 252.94 589.33 237.93" fill="#d87100" opacity="0.38"/>
          </g>
        </g>
        <g>
          <path d="M790.92,331.82c0,19.7-133.22,46.58-297.56,46.58s-297.57-26.88-297.57-46.58,133.64-49.93,298-49.93S790.92,312.12,790.92,331.82Z" fill="#ffd522"/>
          <g clip-path="url(#a07c1ec4-929d-4b2a-aa42-2359e8615cee)">
            <polygon points="589.33 237.93 410.25 406.28 765.07 393.41 817.02 334.75 719.08 252.94 589.33 237.93" fill="#f78f1e" opacity="0.38"/>
          </g>
        </g>
        <g>
          <g>
            <path d="M854.43,275,576.2,315.93l-1.59-9.52,276-53.48a11.2,11.2,0,0,1,13.14,8.9h0A11.21,11.21,0,0,1,854.43,275Z" fill="#7f1dff"/>
            <g clip-path="url(#b2174a09-29c7-49cf-b6e1-b48f77ee3c96)">
              <path d="M873.49,257.23c-2.14,0-292.74,55.76-292.74,55.76l8.58,12.86,291.67-44Z" fill="#4a00bf" opacity="0.7"/>
            </g>
          </g>
          <g>
            <circle cx="560.51" cy="313.12" r="28.82" fill="#7f1dff"/>
            <g clip-path="url(#bba42554-d995-4280-ac7d-fa16286180e8)">
              <path d="M538.42,284.33s27.32,5.07,35.9,22.22-18.23,38.61-18.23,38.61l18.23,9.65,22.51-34.32-7.5-31.09-25.24-17.46Z" fill="#4a00bf" opacity="0.7"/>
            </g>
          </g>
        </g>
        <g>
          <g>
            <path d="M145.57,292.17,423.8,333.09l1.59-9.52-276-53.48A11.2,11.2,0,0,0,136.2,279h0A11.21,11.21,0,0,0,145.57,292.17Z" fill="#7f1dff"/>
            <g clip-path="url(#a85d2af7-6186-4be4-b779-015cd1996ed0)">
              <polygon points="131.45 277.6 425.26 333.36 407.03 347.3 127.16 301.19 131.45 277.6" fill="#4a00bf" opacity="0.7"/>
            </g>
          </g>
          <g>
            <circle cx="439.49" cy="330.28" r="28.82" fill="#7f1dff"/>
            <g clip-path="url(#a2ac90fb-1c30-4451-b08f-d7578c0458fb)">
              <path d="M431.7,301.19s26.3,11.86,23.59,32.17c-4.29,32.17-45,15-45,15l22.52,20.38,29-4.29,21.45-22.52L478.88,313l-19.3-20.38-27.88-2.14Z" fill="#4a00bf" opacity="0.7"/>
            </g>
          </g>
        </g>
      </g>
    </g>
  </g>
</svg>
