<svg xmlns="http://www.w3.org/2000/svg" xmlns:xlink="http://www.w3.org/1999/xlink" viewBox="0 0 1000 1000">
  <defs>
    <clipPath id="aefba333-38f7-4202-943f-11fc5d47334c">
      <path d="M530.62,533.75S508.16,450.66,569.91,353c0,0,3.37,34.8,11.23,41.54,0,0,4.49-51.65,0-57.26,0,0,93.19-98.8,93.19-229,0,0,51.64,85.32,50.52,163.91l-19.09,28.07,19.09-21.33v21.33l-33.68,41.54,33.68-28.07s-10.11,88.7-113.4,178.52L584,498.38h21.33s-46,31.44-59.51,42.66-35.92,80.84-30.31,117.89-22.45-31.44,7.86-101,75.22-115.64,93.19-138.09,67.36-97.68,74.1-162.79c0,0-18.83,76.79-52.77,121.25C600.84,426.71,543.79,489,530.62,533.75Z" fill="#7900ff" opacity="0.7"/>
    </clipPath>
    <clipPath id="b59b93b4-c496-4976-ab78-92fab07f9924">
      <path d="M578.4,648.77h-211c-18.83,0-92.3-1.88-92.3,43.33s17,156.34,17,156.34,3.76,43.32,56.51,43.32H597.24c52.74,0,56.51-43.32,56.51-43.32s17-111.14,17-156.34S597.24,648.77,578.4,648.77Z" fill="#c9c9f4"/>
    </clipPath>
    <clipPath id="fdc8d42b-84a1-4dd5-a78a-236a18ada355">
      <path d="M405.32,592.61h139a7.74,7.74,0,0,1,7.74,7.74v69.14a0,0,0,0,1,0,0H397.57a0,0,0,0,1,0,0V600.35A7.74,7.74,0,0,1,405.32,592.61Z" fill="#c9c9f4"/>
    </clipPath>
    <clipPath id="f5461c75-23bb-4c09-a1fc-cb86b48b0da4">
      <path d="M292.37,760.85S422,746.07,461.43,747.72s180.55,11.48,193.68,0L642,847.84s-9,33.65-48.42,33.65H349S308.78,878.2,303.86,847,292.37,760.85,292.37,760.85Z" fill="#7900ff"/>
    </clipPath>
  </defs>
  <g id="b4053775-aaf2-491f-96cf-37c29292bd86" data-name="Layer 3">
    <g id="f0b972ad-7782-4c4a-bfd6-505544fda81c" data-name="Layer 4">
      <g>
        <g>
          <path d="M530.62,533.75S508.16,450.66,569.91,353c0,0,3.37,34.8,11.23,41.54,0,0,4.49-51.65,0-57.26,0,0,93.19-98.8,93.19-229,0,0,51.64,85.32,50.52,163.91l-19.09,28.07,19.09-21.33v21.33l-33.68,41.54,33.68-28.07s-10.11,88.7-113.4,178.52L584,498.38h21.33s-46,31.44-59.51,42.66-35.92,80.84-30.31,117.89-22.45-31.44,7.86-101,75.22-115.64,93.19-138.09,67.36-97.68,74.1-162.79c0,0-18.83,76.79-52.77,121.25C600.84,426.71,543.79,489,530.62,533.75Z" fill="#7900ff" opacity="0.7"/>
          <g clip-path="url(#aefba333-38f7-4202-943f-11fc5d47334c)">
            <path d="M670.63,94.46s34.64,121.17,18.22,174.89S631.94,405.16,571.4,468.56c-15.53,16.27-72.18,111.74-72.18,111.74L509,631.05l101.11-20.62L758.28,399l16.27-206Z" fill="#7900ff"/>
          </g>
        </g>
        <g>
          <path d="M578.4,648.77h-211c-18.83,0-92.3-1.88-92.3,43.33s17,156.34,17,156.34,3.76,43.32,56.51,43.32H597.24c52.74,0,56.51-43.32,56.51-43.32s17-111.14,17-156.34S597.24,648.77,578.4,648.77Z" fill="#c9c9f4"/>
          <g clip-path="url(#b59b93b4-c496-4976-ab78-92fab07f9924)">
            <path d="M562.37,636.1s28.73,7.39,42.68,50.06S499.18,906.93,263.64,881.49l55.81,19.69,329.09-1.64,22.16-46L690.4,636.1Z" fill="#b9b9ea"/>
          </g>
        </g>
        <g>
          <path d="M405.32,592.61h139a7.74,7.74,0,0,1,7.74,7.74v69.14a0,0,0,0,1,0,0H397.57a0,0,0,0,1,0,0V600.35A7.74,7.74,0,0,1,405.32,592.61Z" fill="#c9c9f4"/>
          <g clip-path="url(#fdc8d42b-84a1-4dd5-a78a-236a18ada355)">
            <rect x="390.85" y="609.84" width="165.78" height="10.67" fill="#b9b9ea"/>
          </g>
        </g>
        <rect x="376.32" y="580.3" width="195.08" height="29.7" rx="5" fill="#d4d4f4"/>
        <g>
          <path d="M292.37,760.85S422,746.07,461.43,747.72s180.55,11.48,193.68,0L642,847.84s-9,33.65-48.42,33.65H349S308.78,878.2,303.86,847,292.37,760.85,292.37,760.85Z" fill="#7900ff"/>
          <g clip-path="url(#f5461c75-23bb-4c09-a1fc-cb86b48b0da4)">
            <path d="M562.37,636.1s28.73,7.39,42.68,50.06S499.18,906.93,263.64,881.49l55.81,19.69,329.09-1.64,22.16-46L690.4,636.1Z" fill="#4a00bf" opacity="0.7"/>
          </g>
        </g>
        <path d="M292,727s-21.87-61.45,24.39-61.45c28,0,66-4.52,66-4.52s-40.66,8.14-68.68,28C296.3,701.39,292,727,292,727Z" fill="#e9e9ff"/>
        <path d="M382.37,604.11V591.33a6.21,6.21,0,0,1,6.2-6.2h55.25S386.89,586,382.37,604.11Z" fill="#e9e9ff"/>
      </g>
    </g>
  </g>
</svg>
