<svg xmlns="http://www.w3.org/2000/svg" xmlns:xlink="http://www.w3.org/1999/xlink" viewBox="0 0 1000 1000">
  <defs>
    <clipPath id="b3d81ab9-ddd4-45c3-8c02-b0c2c687909c">
      <path d="M143,275.66s202-55,350-50,365,50,365,50,37-10,70,0c0,0-7,46-33,54,0,0,24,121,7,208s-59,194-59,194,28,16,15,43c0,0-50-8-56-43,0,0-284,94-603,0,0,0-21,43-56,43,0,0-15-25,13-40,0,0,102-184-47-406,0,0-36-11-37-54C72,274.66,112,259.66,143,275.66Z" fill="#4e88cd"/>
    </clipPath>
  </defs>
  <g id="b885fefb-553c-4703-934c-f336b6f42a14" data-name="Layer 3">
    <g id="a6cb4ac5-093c-476d-bcc6-45f87eb844f2" data-name="Layer 4">
      <g>
        <path d="M117,304.66s-35,62-22,209,66,230,66,230l66-109-52-302Z" fill="#63a2e0"/>
        <g>
          <path d="M143,275.66s202-55,350-50,365,50,365,50,37-10,70,0c0,0-7,46-33,54,0,0,24,121,7,208s-59,194-59,194,28,16,15,43c0,0-50-8-56-43,0,0-284,94-603,0,0,0-21,43-56,43,0,0-15-25,13-40,0,0,102-184-47-406,0,0-36-11-37-54C72,274.66,112,259.66,143,275.66Z" fill="#4e88cd"/>
          <g clip-path="url(#b3d81ab9-ddd4-45c3-8c02-b0c2c687909c)">
            <path d="M264,234.66s330-6,447,97,116,457-398,438l131,27,482,12,23-561-407-45Z" fill="#0d6099" opacity="0.5"/>
            <path d="M125.39,290.19c13.54-9.4,28.19-17.13,43-24.25,1-.49.29-2.28-.78-1.85-15.47,6.38-29.47,15.1-42.82,25.12-.57.43,0,1.4.57,1Z" fill="#0d6099"/>
            <path d="M786.83,306.48c17.59-8.37,35.77-15.92,54-22.75q13.11-4.91,26.45-9.19c8.58-2.76,17.84-4.7,26-8.63a1,1,0,0,0-.5-1.84c-9.26.94-18.46,4.67-27.21,7.68q-13.69,4.71-27.16,10.08A542,542,0,0,0,786.57,306c-.29.16,0,.59.26.45Z" fill="#0d6099"/>
            <path d="M870.71,321c11.83,7.13,27.43,11.23,41,7.08,1.15-.35,1-2.23-.3-2.17-14.09.69-26.88,0-39.64-6.77a1.08,1.08,0,0,0-1.08,1.86Z" fill="#0d6099"/>
            <path d="M829.75,717c-7.84,4.35-15.85,8.38-24,12-8,3.56-17.09,6.05-24.73,10.38-1.39.79-.4,2.69,1,2.44,8.36-1.45,16.87-6,24.5-9.62q12.54-6,24.43-13.2a1.17,1.17,0,0,0-1.18-2Z" fill="#0d6099"/>
            <path d="M835.15,730.35a56.18,56.18,0,0,0,18.65,5.59c1,.1,1.14-1.43.23-1.65a106.35,106.35,0,0,1-17.81-5.76c-1.22-.54-2.3,1.23-1.07,1.82Z" fill="#0d6099"/>
            <path d="M191.05,697.67c5.07,15.68,5.38,31.87,4.92,48.17,0,1,1.54,1.22,1.7.23,2.66-16.46-.7-33-6-48.56-.13-.37-.71-.22-.59.16Z" fill="#0d6099"/>
            <path d="M175.3,730.2c-9.52-.59-18.68.7-27.34,4.84-7.89,3.78-16.69,10.41-20.61,18.42-.31.62.47,1.31,1,.76,6.35-6.56,11.9-12.5,20.24-16.64a53.49,53.49,0,0,1,26.72-5.83c1,.06,1-1.49,0-1.55Z" fill="#0d6099"/>
            <path d="M157.33,357.49a241.08,241.08,0,0,1,28.28,62.18.65.65,0,0,0,1.26-.35,188.3,188.3,0,0,0-28.53-62.42c-.43-.61-1.42-.06-1,.59Z" fill="#0d6099"/>
            <path d="M215.42,513.92c2.33,37.89,4.43,77.24-8.16,113.69-.33.95,1.15,1.33,1.49.41,13.91-36.63,10.62-75.91,7.14-114.1,0-.29-.49-.3-.47,0Z" fill="#0d6099"/>
            <path d="M207,753.66s160-47,233-86,7.63,100-86.19,107S207,753.66,207,753.66Z" fill="#0d6099" opacity="0.5"/>
            <path d="M155,266.66s-42,32-44,38,72-22,109-50Z" fill="#0d6099" opacity="0.5"/>
          </g>
        </g>
      </g>
    </g>
  </g>
</svg>
