<svg xmlns="http://www.w3.org/2000/svg" xmlns:xlink="http://www.w3.org/1999/xlink" viewBox="0 0 1000 1000">
  <defs>
    <clipPath id="fe1f480a-b744-48eb-85ac-1a49108765eb">
      <path d="M642.06,480.69H353.84L369.07,749h0a3.9,3.9,0,0,0,0,.59c0,13.26,57.7,24,128.88,24s128.88-10.75,128.88-24a5.85,5.85,0,0,0,0-.59h0Z" fill="#82bae8"/>
    </clipPath>
  </defs>
  <g id="fd4b8228-2d3e-49dd-8ca7-40cd05ce3507" data-name="Layer 3">
    <g id="abefe2b0-2d0e-4df8-8b03-1bc15db37c9f" data-name="Layer 4">
      <g>
        <ellipse cx="497.95" cy="765.98" rx="137.08" ry="24.02" fill="#e2f2f7"/>
        <ellipse cx="500" cy="241.67" rx="166.08" ry="24.02" fill="#cee8ef"/>
        <path d="M666.08,241.67c0,13.27-74.36,24-166.08,24s-166.08-10.75-166.08-24h-4.69l31.64,524.9H635l31.63-524.9Z" fill="#e2f2f7"/>
        <g>
          <path d="M642.06,480.69H353.84L369.07,749h0a3.9,3.9,0,0,0,0,.59c0,13.26,57.7,24,128.88,24s128.88-10.75,128.88-24a5.85,5.85,0,0,0,0-.59h0Z" fill="#82bae8"/>
          <g clip-path="url(#fe1f480a-b744-48eb-85ac-1a49108765eb)">
            <polygon points="572.93 179.58 474.52 839.21 691.27 822.8 688.93 183.09 572.93 179.58" fill="#0d6099" opacity="0.2"/>
          </g>
        </g>
        <ellipse cx="497.95" cy="481.27" rx="144.11" ry="24.02" fill="#63a2e0"/>
        <path d="M346.81,262.76s17.57,11.72,46.86,8.2l10.55,486.23s-14.06,1.17-25.78-7Z" fill="#fff" opacity="0.49"/>
        <path d="M467.49,210c10.32-.29,26.94,1.17,32.8,1.17,44.64,0,86.35,3.11,118,7.68,47.29,6.84,53.67,15.36,53.67,22.78,0,13.24-27.13,19-53.67,22.79-31.63,4.57-73.64,7.09-118.27,7.09s-86.64-2.52-118.27-7.09c-47.29-6.84-53.67-15.36-53.67-22.79,0-13.23,27.13-18.94,53.67-22.78,16-2.31,66.29-7.56,86.6-8.77l2,13c-18,1.06-30,0-81.65,6.64-34.62,4.44-45.35,7.36-48.06,11.91,2.94,2.08,13.45,7.34,48.06,11.92,30.43,4,70,6.24,111.32,6.24s80.89-2.21,111.32-6.24c34.61-4.58,45.12-9.84,48.06-11.92-2.94-2.08-13.45-7.33-48.06-11.91-30.43-4-70-6.25-111.32-6.25-10,0-20.52-.83-30.17-.58Z" fill="#f3fbff"/>
      </g>
    </g>
  </g>
</svg>
