<svg xmlns="http://www.w3.org/2000/svg" xmlns:xlink="http://www.w3.org/1999/xlink" viewBox="0 0 1000 1000">
  <defs>
    <clipPath id="a65c6117-3526-4888-8bd5-6a7582faffa4">
      <path d="M879.29,482.07H744.38L822,404.48a10.34,10.34,0,0,0-14.63-14.62l-92.21,92.21H633.68l73.48-73.48a19,19,0,0,0-18-30.43L588.76,407.23l39.29-71.34,125.82-36.44a10.34,10.34,0,1,0-5.75-19.86l-106,30.68,65.29-118.52a19.39,19.39,0,1,0-34-18.71L608.4,291.2,577.87,185.8A10.34,10.34,0,1,0,558,191.56l36.27,125.26L555,388.16l-26.32-90.87.11-.42a16.16,16.16,0,0,0-11.58-19.7,16.41,16.41,0,0,0-5.55-.44A16.13,16.13,0,0,0,495,297.33l.12.42L471.4,389.33l-41.28-70.21,32.76-126.23a10.34,10.34,0,1,0-20-5.19L415.3,293.91l-68.38-116.3a19.39,19.39,0,0,0-33.43,19.65l68.58,116.65L275.3,286.2a10.34,10.34,0,1,0-5.19,20L396.9,339.13l41.27,70.21L344.41,385a16.08,16.08,0,0,0-25.17,5.21,16,16,0,0,0-1.91,4.45A16.15,16.15,0,0,0,327.81,414l68.05,68.05H314.42L222.2,389.86a10.34,10.34,0,0,0-14.63,14.62l77.6,77.59H150.26a19.39,19.39,0,1,0,0,38.78H285.57l-78,78a10.34,10.34,0,1,0,14.63,14.63l92.62-92.63h81.45l-73.89,73.89a18.43,18.43,0,0,0,18,30.63l99.81-28.91L400.94,667.8,275.67,704.08a10.34,10.34,0,1,0,5.75,19.86l105.4-30.52L321.73,811.59a19.39,19.39,0,0,0,34,18.71L421,711.78l30.68,106A10.34,10.34,0,0,0,471.53,812L435.1,686.16l39.3-71.34,26.47,91.43-.11.42a16.16,16.16,0,0,0,11.59,19.7,15.84,15.84,0,0,0,4.07.52c.52,0,1,0,1.54-.08.34,0,.67,0,1,0A16.16,16.16,0,0,0,534.5,706.2l-.12-.42,23.91-92.13,41.28,70.21-32.9,126.79a10.34,10.34,0,0,0,7.41,12.61,10.59,10.59,0,0,0,2.6.33,10.34,10.34,0,0,0,10-7.74l27.71-106.78L683,825.73a19.39,19.39,0,0,0,33.43-19.66L648,689.77l106.21,27.57a10.67,10.67,0,0,0,2.61.33,10.34,10.34,0,0,0,2.59-20.35L633.2,664.56l-41.27-70.21,93.52,24.27a16.87,16.87,0,1,0,16.59-29l-68.76-68.76h81.44l92.62,92.63A10.34,10.34,0,0,0,822,598.85l-78-78H879.29a19.39,19.39,0,0,0,0-38.78ZM645.67,424.39,588,482.07H547.52l19.19-34.81Zm-132.9-65.84,20.17,69.64-18.72,34-19.66-33.44ZM389.61,430.12l71.73,18.61,19.6,33.34H441.56Zm-6,149.1L442,520.85h39.92l-19.6,35.59ZM516.78,645l-20.33-70.19,18.86-34.25,19.82,33.71Zm123.44-71.49L568.77,555l-20-34.1h38.85Z" fill="#4e88cd"/>
    </clipPath>
  </defs>
  <g id="b63999d0-114c-47d5-9fc5-3b9eb136cf68" data-name="Layer 3">
    <g id="ea6d6d6b-95c0-4a13-92bb-bbbf64c48125" data-name="Layer 4">
      <g>
        <g>
          <path d="M879.29,482.07H744.38L822,404.48a10.34,10.34,0,0,0-14.63-14.62l-92.21,92.21H633.68l73.48-73.48a19,19,0,0,0-18-30.43L588.76,407.23l39.29-71.34,125.82-36.44a10.34,10.34,0,1,0-5.75-19.86l-106,30.68,65.29-118.52a19.39,19.39,0,1,0-34-18.71L608.4,291.2,577.87,185.8A10.34,10.34,0,1,0,558,191.56l36.27,125.26L555,388.16l-26.32-90.87.11-.42a16.16,16.16,0,0,0-11.58-19.7,16.41,16.41,0,0,0-5.55-.44A16.13,16.13,0,0,0,495,297.33l.12.42L471.4,389.33l-41.28-70.21,32.76-126.23a10.34,10.34,0,1,0-20-5.19L415.3,293.91l-68.38-116.3a19.39,19.39,0,0,0-33.43,19.65l68.58,116.65L275.3,286.2a10.34,10.34,0,1,0-5.19,20L396.9,339.13l41.27,70.21L344.41,385a16.08,16.08,0,0,0-25.17,5.21,16,16,0,0,0-1.91,4.45A16.15,16.15,0,0,0,327.81,414l68.05,68.05H314.42L222.2,389.86a10.34,10.34,0,0,0-14.63,14.62l77.6,77.59H150.26a19.39,19.39,0,1,0,0,38.78H285.57l-78,78a10.34,10.34,0,1,0,14.63,14.63l92.62-92.63h81.45l-73.89,73.89a18.43,18.43,0,0,0,18,30.63l99.81-28.91L400.94,667.8,275.67,704.08a10.34,10.34,0,1,0,5.75,19.86l105.4-30.52L321.73,811.59a19.39,19.39,0,0,0,34,18.71L421,711.78l30.68,106A10.34,10.34,0,0,0,471.53,812L435.1,686.16l39.3-71.34,26.47,91.43-.11.42a16.16,16.16,0,0,0,11.59,19.7,15.84,15.84,0,0,0,4.07.52c.52,0,1,0,1.54-.08.34,0,.67,0,1,0A16.16,16.16,0,0,0,534.5,706.2l-.12-.42,23.91-92.13,41.28,70.21-32.9,126.79a10.34,10.34,0,0,0,7.41,12.61,10.59,10.59,0,0,0,2.6.33,10.34,10.34,0,0,0,10-7.74l27.71-106.78L683,825.73a19.39,19.39,0,0,0,33.43-19.66L648,689.77l106.21,27.57a10.67,10.67,0,0,0,2.61.33,10.34,10.34,0,0,0,2.59-20.35L633.2,664.56l-41.27-70.21,93.52,24.27a16.87,16.87,0,1,0,16.59-29l-68.76-68.76h81.44l92.62,92.63A10.34,10.34,0,0,0,822,598.85l-78-78H879.29a19.39,19.39,0,0,0,0-38.78ZM645.67,424.39,588,482.07H547.52l19.19-34.81Zm-132.9-65.84,20.17,69.64-18.72,34-19.66-33.44ZM389.61,430.12l71.73,18.61,19.6,33.34H441.56Zm-6,149.1L442,520.85h39.92l-19.6,35.59ZM516.78,645l-20.33-70.19,18.86-34.25,19.82,33.71Zm123.44-71.49L568.77,555l-20-34.1h38.85Z" fill="#4e88cd"/>
          <g clip-path="url(#a65c6117-3526-4888-8bd5-6a7582faffa4)">
            <path d="M747.74,23.83S918.36,711.5,53.61,688.23L313.42,955.8l465.34-63.34,224.91-259.81-53-272.74Z" fill="#0d6099" opacity="0.5"/>
          </g>
        </g>
        <path d="M449.42,189.53c-5.19,18.22-10.12,36.49-15.87,54.54-2.8,8.83-6.18,17.44-9.05,26.24-2.59,7.91-6,16.9-5.72,25.3.08,2,3.07,2.54,3.55.48,1-4.43,1.39-9,2.43-13.4s2.51-8.78,3.81-13.15c2.55-8.57,4.68-17.27,7.11-25.88,5.07-17.9,10.2-35.81,14.46-53.93a.37.37,0,0,0-.72-.2Z" fill="#d7f4ff"/>
        <path d="M323.44,176.5c-6.62,12.55-1.61,25.91,4.65,37.47,8.16,15.09,16.29,30.3,25.44,44.82a.73.73,0,0,0,1.25-.74c-6-13.36-12.93-26.22-19.62-39.22-6.25-12.14-16-26.94-9-40.74.91-1.8-1.76-3.38-2.71-1.59Z" fill="#d7f4ff"/>
        <path d="M271.3,289.47c-2.6,3.7-4,7.83-.51,11.51s9.71,5.3,14.36,5.53c.53,0,.8-.82.28-1.05-3.34-1.43-7-2.12-10.24-3.78-2-1-3.69-2.42-4.28-4.65-.68-2.56.72-4.54,2.13-6.54.75-1.07-1-2.08-1.74-1Z" fill="#d7f4ff"/>
        <path d="M332.54,387.42c-10.34,3.93-9.35,16.46-2.28,23.14,5.08,4.79,11.34,8.27,16.61,12.86,5.59,4.88,10.55,10.47,15.95,15.56.21.19.57-.06.41-.31-5.24-8.43-12.76-15.05-20.36-21.31-4.06-3.35-8.23-6.29-10.87-11-2.83-5.05-3.8-12.09,2-15.42,1.83-1.05.61-4.31-1.48-3.52Z" fill="#d7f4ff"/>
        <path d="M214.2,390.29c-6.33,2.89-7.15,10.19-2.64,15.07,3.76,4.06,8.27,7.63,12.25,11.51,4.14,4,7.6,9,12.26,12.46.49.36,1.17-.35.83-.84C233,422.75,227,418.13,222.29,413c-4.09-4.52-16.29-14.91-6.55-20,1.76-.92.21-3.43-1.54-2.63Z" fill="#d7f4ff"/>
        <path d="M147.62,485.82c-4.65,5.15-9.3,11.59-7,18.9,2.38,7.51,10.69,8.7,17.47,9.49,5,.57,9.87.25,14.88.32,5.49.07,10.94.47,16.43.23,5.21-.24,10.38-.46,15.6-.46s10.61.75,15.71-.18a.45.45,0,0,0,0-.86c-7.19-1.43-15.2-.31-22.54-.55-8.12-.26-16.13-.65-24.27-.63-7.15,0-16.11-.29-22.81-2.92-10.51-4.13-5.25-14.52-.54-21.07,1.24-1.72-1.53-3.84-2.95-2.27Z" fill="#d7f4ff"/>
        <path d="M215.46,611.3c-2-1.65-4.14-3.36-3.56-6.39.32-1.7,2.23-3.53,3.43-4.67,2.25-2.13,4.07-4.42,6.18-6.69,3.93-4.26,8.32-8.23,11.19-13.33a.36.36,0,0,0-.56-.43c-3.32,3.14-6.21,6.81-9.36,10.14s-7.05,5.41-10.13,8.67c-4.72,5-4.08,10.2,1.21,14.29,1.12.87,2.73-.66,1.6-1.59Z" fill="#d7f4ff"/>
        <path d="M331.62,615c-9.61-8.68,3.66-20.33,9.59-26.77,7.42-8.05,15.36-15.6,22.79-23.63a.75.75,0,0,0-1.06-1.06c-10.81,10.12-20.65,21.22-31.52,31.29-3.44,3.18-7.15,5.84-7.77,10.81a13.81,13.81,0,0,0,5,12.31c2,1.7,5-1.13,2.95-2.95Z" fill="#d7f4ff"/>
        <path d="M521.75,285.88c-2.85-3.9-7.74-4.49-11.93-2.14-5.22,2.93-7.34,9.42-8.83,14.83-2.34,8.53-4.4,17.16-6.68,25.72-2.56,9.63-5.82,19.16-7.8,28.92a.91.91,0,0,0,1.76.49c4.66-12.75,7.8-26.23,11.63-39.27,1.57-5.34,9.85-37.83,19.68-26.87,1,1.15,3.11-.4,2.17-1.68Z" fill="#d7f4ff"/>
        <path d="M571.48,182.72c-9.36-3.48-7.33,13.63-6.53,17.79,1.21,6.29,3.47,12.36,5.5,18.42,2,5.9,2.88,13,6,18.4a.57.57,0,0,0,1-.29c-.11-4-1.78-7.53-2.82-11.32-1.27-4.6-2.19-9.31-3.32-13.95-1.31-5.39-8.56-26,.11-27.47.88-.15.68-1.33,0-1.58Z" fill="#d7f4ff"/>
        <path d="M700.38,172.43c-6.47-4.33-13.17-6-19.72-.78-3.66,2.93-5.82,7.31-8,11.37-2.85,5.37-5.62,10.76-8.57,16.08-5.73,10.36-10.9,21-16.76,31.32-6.18,10.85-12.54,21.6-18.6,32.51a.91.91,0,0,0,1.58.92c11.23-17.08,21.95-34.65,32.3-52.29a286.21,286.21,0,0,0,13.86-27.42c1.82-4.07,3.6-8.62,6.91-11.75,5.4-5.1,11.18-2.84,16.44,1,.55.4,1.12-.55.54-.93Z" fill="#d7f4ff"/>
        <path d="M595.94,327.65c-5.88,11.44-12,22.77-17.93,34.16-2.91,5.55-6.21,10.91-9.57,16.21-3.1,4.9-7.68,10-9.31,15.55a.92.92,0,0,0,1.53.89c4.18-3.65,6.59-9.67,9.29-14.46,3.24-5.74,6.34-11.56,9.66-17.26a311,311,0,0,0,17.1-34.64c.22-.51-.5-1-.77-.45Z" fill="#d7f4ff"/>
        <path d="M536.5,434.9c-5.11,9.93-12,19.26-16.29,29.58-.12.28.32.53.51.29,6.91-8.66,11.21-19.79,16.18-29.64.14-.26-.26-.5-.4-.23Z" fill="#d7f4ff"/>
        <path d="M661.38,309.27l3.85-1c.06,0,0-.11,0-.09l-3.86,1.05c-.05,0,0,.1,0,.09Z" fill="#d7f4ff"/>
        <path d="M671.64,306.26c16.08-4.13,32.1-8.53,47.94-13.5a.19.19,0,0,0-.1-.36c-16.1,4-32.07,8.62-47.94,13.5a.19.19,0,0,0,.1.36Z" fill="#d7f4ff"/>
        <path d="M722.37,291.72c3.63-1.37,7.26-2.74,10.87-4.16.19-.08.11-.39-.09-.32-3.65,1.31-7.27,2.68-10.91,4-.28.11-.15.56.13.45Z" fill="#d7f4ff"/>
        <path d="M600.34,410.69A363.32,363.32,0,0,1,643.73,398c7.49-1.77,15-3.63,22.4-5.89,7.06-2.17,14.72-4,21.23-7.57.82-.45.21-1.54-.6-1.41-7.54,1.16-15,4.39-22.25,6.76-7.62,2.49-15.17,4.83-23,6.66-14.36,3.38-28,7.44-41.37,13.69-.23.11-.06.52.19.43Z" fill="#d7f4ff"/>
        <path d="M605.72,471.86c7.25-5.54,14.25-11.23,21.21-17.15s14.91-11,20.28-18.32c.31-.42-.29-1-.71-.7-7.35,4.67-13.19,11.84-19.63,17.64-6.94,6.25-14.21,12.26-21.35,18.28-.14.11.05.37.2.25Z" fill="#d7f4ff"/>
        <path d="M404.63,340.57c5.51,10.31,11.76,20.13,17.86,30.09,2.89,4.72,5.91,9.33,9.05,13.87s6.19,9.61,10.47,13.15a.61.61,0,0,0,1-.74c-2.31-5-6.21-9.18-9.44-13.57q-5.19-7.06-10.21-14.26c-6.49-9.3-12-19.31-17.55-29.21-.42-.74-1.53-.08-1.14.67Z" fill="#d7f4ff"/>
        <path d="M467.66,449.09c6.44,7.8,10,17.91,16.95,25.48.68.74,1.63-.2,1.29-1-2.18-5-5.58-9.74-8.54-14.33a65.2,65.2,0,0,0-8.68-11.17c-.67-.68-1.61.32-1,1Z" fill="#d7f4ff"/>
        <path d="M471.65,555.08c5.13-9,10.59-18,15.35-27.2a.47.47,0,0,0-.81-.47c-5.59,8.75-10.57,18-15.8,26.94a.73.73,0,0,0,1.26.73Z" fill="#d7f4ff"/>
        <path d="M377.63,551.77c11.14-8,19.54-19,29.75-28.1.12-.11,0-.31-.17-.22-11.55,7.24-19.49,18.94-30.22,27.23-.63.48,0,1.57.64,1.09Z" fill="#d7f4ff"/>
        <path d="M257.43,555.48c5-5.1,10-10.09,15.31-14.88s11.15-9,16.06-14.06c.36-.37-.11-1-.57-.73-5.68,3.67-10.66,8.78-15.58,13.39q-8.13,7.62-15.78,15.72c-.35.37.2.93.56.56Z" fill="#d7f4ff"/>
        <path d="M329.35,488.08c9.32-.34,18.72-.29,28-.19q6.76.06,13.54.43c4.74.26,9.77,1.25,14.47.74a.82.82,0,0,0,.22-1.61c-8.24-2.5-18.68-1.7-27.26-1.76a225.14,225.14,0,0,0-29,1.88c-.31,0-.34.52,0,.51Z" fill="#d7f4ff"/>
        <path d="M215.09,488.93q15.57.4,31.15.38h15.57c4.58,0,9.33.45,13.85-.27a.87.87,0,0,0,0-1.67c-4.52-.7-9.27-.21-13.85-.19l-15.57.07c-10.39.07-20.77.23-31.15.57a.56.56,0,0,0,0,1.12Z" fill="#d7f4ff"/>
      </g>
    </g>
  </g>
</svg>
