<svg xmlns="http://www.w3.org/2000/svg" xmlns:xlink="http://www.w3.org/1999/xlink" viewBox="0 0 1000 1000">
  <defs>
    <clipPath id="f4ac19e2-b49e-4cfb-af97-13c8b8d6a349">
      <path d="M826.39,306.74,426.7,165.94A39,39,0,0,0,377,189.75L338.88,298.14s-18.81,64.51-51.06,29.56-93.57-81.48-142.46,0c-24.19,40.32,5.38,107.52,59.13,102.14s88.7,2.69,80.64,29.57c-5.4,18-30,86.45-45.75,129.83a38.93,38.93,0,0,0,23.56,50l121.63,43.3s34.95,10.75,34.95-13.44-16.13-96.76,34.94-118.26,118.26,16.13,118.26,64.51-40.32,67.19-48.38,75.25-13.44,37.63,21.5,48.38c22.37,6.89,78.89,25.89,116.66,38.67a39,39,0,0,0,49.26-24.07L850.22,356.29A38.94,38.94,0,0,0,826.39,306.74Z" fill="#4d88ce"/>
    </clipPath>
  </defs>
  <g id="bc2b64ac-2ebe-474b-8171-59c2424ce576" data-name="Layer 3">
    <g id="e542f557-37a1-4308-96f2-3d1c3f3c5e8f" data-name="Layer 4">
      <path d="M856.61,350.7h0v-.05c-.21-1-.46-2-.74-2.95-4.17-16.17-8.44-23.25-8.44-23.25l-1.95,6a38.87,38.87,0,0,0-14.08-8.69L431.7,180.94A39,39,0,0,0,382,204.75L343.88,313.14s-18.81,64.51-51.06,29.56-93.57-81.48-142.46,0a60.66,60.66,0,0,0-8,23.67h0l-4.92,3.44s5.1,25.29,11.82,38.24h0c10.67,22.62,32.14,39.61,60.21,36.8,53.76-5.38,88.7,2.69,80.64,29.57-5.4,18-30,86.45-45.75,129.83a40.09,40.09,0,0,0-1.31,4.44L242,606l-4.64,1.49s2.52,16.78,9.83,29.33a39.61,39.61,0,0,0,2.79,4.23l.3.41h0a38.76,38.76,0,0,0,17.65,12.74l121.63,43.3s34.95,10.75,34.95-13.44-16.13-96.76,34.94-118.26,118.26,16.13,118.26,64.51-40.32,67.19-48.38,75.25a21.91,21.91,0,0,0-5.1,10l-5.86-6.7s1.84,17.84,9.19,29l0,0,0,0h0c4,6.48,11.25,12.37,23.22,16,22.37,6.89,78.89,25.89,116.66,38.67a39,39,0,0,0,49.26-24.07L855.22,371.29A38.77,38.77,0,0,0,856.61,350.7Z" fill="#0d6099"/>
      <g>
        <path d="M826.39,306.74,426.7,165.94A39,39,0,0,0,377,189.75L338.88,298.14s-18.81,64.51-51.06,29.56-93.57-81.48-142.46,0c-24.19,40.32,5.38,107.52,59.13,102.14s88.7,2.69,80.64,29.57c-5.4,18-30,86.45-45.75,129.83a38.93,38.93,0,0,0,23.56,50l121.63,43.3s34.95,10.75,34.95-13.44-16.13-96.76,34.94-118.26,118.26,16.13,118.26,64.51-40.32,67.19-48.38,75.25-13.44,37.63,21.5,48.38c22.37,6.89,78.89,25.89,116.66,38.67a39,39,0,0,0,49.26-24.07L850.22,356.29A38.94,38.94,0,0,0,826.39,306.74Z" fill="#4d88ce"/>
        <g clip-path="url(#f4ac19e2-b49e-4cfb-af97-13c8b8d6a349)">
          <path d="M458,164s136,230,86,444L500,755l104,58,114-18,73-102L896,311,704,217Z" fill="#2874bf"/>
        </g>
      </g>
    </g>
  </g>
</svg>
