<svg xmlns="http://www.w3.org/2000/svg" xmlns:xlink="http://www.w3.org/1999/xlink" viewBox="0 0 1000 1000">
  <defs>
    <clipPath id="aae70fa5-9c4b-48c2-93c7-fcfa6fca72c2">
      <path d="M366.5,481.5s-25,11-27,47,29,45,41,47,50-46,50-46Z" fill="#0d6099"/>
    </clipPath>
    <clipPath id="bf0ffdd3-0e15-461e-8d09-ca27bce5fd70">
      <path d="M342,878c0-6,2-33,27-36s36,9,41,22,1,42-30,45S342,889,342,878Z" fill="#4e88cd"/>
    </clipPath>
    <clipPath id="eb166200-dd69-4ebf-bea4-71d8d553ee81">
      <path d="M399,842c-.95-7.22-7.5-48.5,28.5-58.5s49,0,59,26-10,67-35,70S402.5,868.5,399,842Z" fill="#0d6099"/>
    </clipPath>
    <clipPath id="a107c8a4-eaea-4592-8c41-e60de9124bc3">
      <path d="M331.5,806.5c-.6-9,2-35,29-42s52.55,3.68,54.28,24.84S394.5,834.5,370.5,835.5,332.5,821.5,331.5,806.5Z" fill="#0d6099"/>
    </clipPath>
    <clipPath id="a1180964-d59f-4c52-a74e-cf0793071ffa">
      <path d="M373.5,750.5c0-10,6-47,44-56s62,17,58,45-25,47-46,51S373.5,787.5,373.5,750.5Z" fill="#4e88cd"/>
    </clipPath>
    <clipPath id="f272dc5d-a358-4110-b6b7-6029968c9c1e">
      <path d="M325.5,689.5c-1.9-15.18-8-56,41-73s81,24,75,54-46,57-71,53S327.5,705.5,325.5,689.5Z" fill="#0d6099"/>
    </clipPath>
    <clipPath id="faf6358c-7a1a-4370-94fc-aee86c2f4ef0">
      <path d="M474.5,696.5c-3.65-12.52-4-49,32-56s56,11,60,33,10,60-17,69S488.5,744.5,474.5,696.5Z" fill="#0d6099"/>
    </clipPath>
    <clipPath id="a9e264dd-5061-423b-8a2d-6a02af59961a">
      <path d="M424.5,528.5c-14,5-52,22-55,55s-3,57,25,68,66,16,92-14,27-67,27-67l-63-51Z" fill="#4e88cd"/>
    </clipPath>
    <clipPath id="b8fabb27-dd09-4026-8fd0-b6b0effe8c42">
      <path d="M530.5,560.5c6.65-2.79,27-14,52,2s32,40,12,73-69,17-81-4S499.5,573.5,530.5,560.5Z" fill="#4e88cd"/>
    </clipPath>
    <clipPath id="badb8e78-1ded-49d0-ad5d-e534c5bc4dee">
      <path d="M452.5,538.5c-5.9-12.61-11-52,15-71s62-25,85,2,25,62,0,88S474.5,585.5,452.5,538.5Z" fill="#0d6099"/>
    </clipPath>
    <clipPath id="a655d5d6-d05c-47e6-bc95-c9442c64570f">
      <path d="M485.5,461.5s-21-32-62-36-62,26-65,49,19,70,96,55S485.5,461.5,485.5,461.5Z" fill="#4e88cd"/>
    </clipPath>
    <clipPath id="b48669ab-61f3-47e9-85a9-b0378c825d5a">
      <path d="M533.18,396.2S555.07,345.59,592,310c0,0-90.28-62.92-91.64-88.91s17.78-15,21.88-6.83,145,124.47,192.86,136.78,19.59,23.72,13.22,27.59S609.78,321,609.78,321s-40.15,23.33-61.11,87.58Z" fill="#35a31a"/>
    </clipPath>
    <clipPath id="a562d344-b4a4-4184-b755-4b97e430248b">
      <path d="M444.5,380.5s-1,63,49,78S551.13,438,557,424c8-19-13-69.21-61-75,0,0-38.5-1.5-38.5-.5S444.5,380.5,444.5,380.5Z" fill="#4e88cd"/>
    </clipPath>
    <clipPath id="e6557b1d-8b17-4aba-b3e6-0d78f152b906">
      <path d="M486.68,290.87S548.23,269,592,310v12.31s-31.46-35.56-112.16-6.84C479.84,315.49,470.26,300.45,486.68,290.87Z" fill="#35a31a"/>
    </clipPath>
    <clipPath id="b4407006-cbfb-4e7f-a7a3-63b83f617369">
      <path d="M238.42,309.34s24.62-6.84,53.34-31.46,62.92-20.52,62.92-20.52-12.31-16.41-26-15c0,0-9.57-8.21,43.77-9.58,0,0,4.11-9.57-9.57-8.21,0,0,41-31.46,91.64-20.51s68.4,43.77,52,71.12-27.36,31.46-12.31,42.41,23.25,47.87,0,67-49.24,52-146.36,24.62c0,0,25.31-17.1,28-28,0,0-46.5-2.74-68.39-16.41,0,0,19.15-4.11,26-10.95,0,0-30.09-8.2-50.61-23.25S238.42,309.34,238.42,309.34Z" fill="#35a31a"/>
    </clipPath>
    <clipPath id="b82017fb-2ab6-47c9-8ce1-eee72d4cc20f">
      <path d="M652.58,668.05s3.86-25.26,24.89-56.71,12.88-64.92,12.88-64.92,17.76,10.27,18,24c0,0,9.29,8.53,4.3-44.6,0,0,9-5.21,9.28,8.53,0,0,26.36-44.49,9.46-93.43s-51.6-62.69-76.8-43.14-28,30.91-40.64,17.27-50.3-17.39-66.55,8-45.74,55.08-7,148.25c0,0,14-27.16,24.51-31.18,0,0,8.25,45.85,24.44,65.95,0,0,1.79-19.5,7.77-27.11,0,0,11.73,28.9,29.11,47.48S652.58,668.05,652.58,668.05Z" fill="#35a31a"/>
    </clipPath>
    <clipPath id="b93f4d41-b7b0-4100-a953-fad58fd961bc">
      <path d="M641.36,419.36s14.4-63.72-31.56-102.3l-12.22,1.47s39.06,27,20.15,110.55C617.73,429.08,633.81,436.79,641.36,419.36Z" fill="#35a31a"/>
    </clipPath>
  </defs>
  <g id="b2abf1c5-bdb1-4fea-955c-6f1a157f6da3" data-name="Layer 3">
    <g id="ef726a88-e09f-48f1-84ee-c7940793c2ce" data-name="Layer 4">
      <path d="M376.5,402.5s-23-1-29,27,23,35,23,35l31-34Z" fill="#2874bf"/>
      <path d="M448,464s-11.21-28.72,24.9-38.86S546,410,571,423s86,97,74,131-30,67-61,70S412,538,448,464Z" fill="#0d6099"/>
      <path d="M415,724s70,19,94-23,33-82,33-82l-42.87-43.25L436,622Z" fill="#035684"/>
      <path d="M531.5,469.5s8-14,31-15,60,5,72,24-38,73-38,73-40,2-59-21S531.5,469.5,531.5,469.5Z" fill="#2874bf"/>
      <path d="M633.5,587.5c5,4,17,5,15,35s-43,33-61,16l4-59,17-12Z" fill="#63a2e0"/>
      <g>
        <path d="M366.5,481.5s-25,11-27,47,29,45,41,47,50-46,50-46Z" fill="#0d6099"/>
        <g clip-path="url(#aae70fa5-9c4b-48c2-93c7-fcfa6fca72c2)">
          <path d="M355,485s3,31,16,47-10,44-10,44l32,5,32-12,10.53-36.6L425,516l-49.57-27.8Z" fill="#004e7a"/>
        </g>
      </g>
      <path d="M394.5,435.5s-46-32-10-74,99,29,99,29l-16,66Z" fill="#0d6099"/>
      <g>
        <path d="M342,878c0-6,2-33,27-36s36,9,41,22,1,42-30,45S342,889,342,878Z" fill="#4e88cd"/>
        <g clip-path="url(#bf0ffdd3-0e15-461e-8d09-ca27bce5fd70)">
          <path d="M387.92,840.81S401,853,396,880s-44.51,24.22-44.51,24.22L373,915l31-1,18-23V862l-13-20-21.08-1.19" fill="#0d6099" opacity="0.5"/>
        </g>
      </g>
      <g>
        <path d="M399,842c-.95-7.22-7.5-48.5,28.5-58.5s49,0,59,26-10,67-35,70S402.5,868.5,399,842Z" fill="#0d6099"/>
        <g clip-path="url(#eb166200-dd69-4ebf-bea4-71d8d553ee81)">
          <path d="M476,785s17,45-12,65-65,1-70-11l11,29,13,19,35,3,26-8,14-26,7-31-8-23Z" fill="#004e7a"/>
        </g>
      </g>
      <g>
        <path d="M331.5,806.5c-.6-9,2-35,29-42s52.55,3.68,54.28,24.84S394.5,834.5,370.5,835.5,332.5,821.5,331.5,806.5Z" fill="#0d6099"/>
        <g clip-path="url(#a107c8a4-eaea-4592-8c41-e60de9124bc3)">
          <path d="M394,780s3,39-24,41-41-1-43-30l7,39,19,12,33.31-.47L412,830l3-26V779.69Z" fill="#004e7a"/>
        </g>
      </g>
      <g>
        <path d="M373.5,750.5c0-10,6-47,44-56s62,17,58,45-25,47-46,51S373.5,787.5,373.5,750.5Z" fill="#4e88cd"/>
        <g clip-path="url(#a1180964-d59f-4c52-a74e-cf0793071ffa)">
          <path d="M452,692s27,32,1,68-85,8-85,8l17,26,56,9,25.75-20L486,746l-2.5-28L459,689Z" fill="#0d6099" opacity="0.5"/>
        </g>
      </g>
      <g>
        <path d="M325.5,689.5c-1.9-15.18-8-56,41-73s81,24,75,54-46,57-71,53S327.5,705.5,325.5,689.5Z" fill="#0d6099"/>
        <g clip-path="url(#f272dc5d-a358-4110-b6b7-6029968c9c1e)">
          <path d="M418,639s-3,114-96,59l20,26,24,9,37-5,28-18,14-20,8-26-3-25Z" fill="#004e7a"/>
        </g>
      </g>
      <g>
        <path d="M474.5,696.5c-3.65-12.52-4-49,32-56s56,11,60,33,10,60-17,69S488.5,744.5,474.5,696.5Z" fill="#0d6099"/>
        <g clip-path="url(#faf6358c-7a1a-4370-94fc-aee86c2f4ef0)">
          <path d="M538.81,643S572,693.63,556,718c-21,32-61,19-61,19l32,18,29-5,19-14,7-32-5-44-15-23-23.19,6" fill="#004e7a"/>
        </g>
      </g>
      <g>
        <path d="M424.5,528.5c-14,5-52,22-55,55s-3,57,25,68,66,16,92-14,27-67,27-67l-63-51Z" fill="#4e88cd"/>
        <g clip-path="url(#a9e264dd-5061-423b-8a2d-6a02af59961a)">
          <path d="M481,554s9,157-120,74l19,32,51,14,44.93-8.42L502,636l25-51-2-27Z" fill="#0d6099" opacity="0.5"/>
        </g>
      </g>
      <g>
        <path d="M530.5,560.5c6.65-2.79,27-14,52,2s32,40,12,73-69,17-81-4S499.5,573.5,530.5,560.5Z" fill="#4e88cd"/>
        <g clip-path="url(#b8fabb27-dd09-4026-8fd0-b6b0effe8c42)">
          <path d="M577.11,559.42S598,579,585,616s-57.31,34.15-77.15,8.07h0L516,652l40,19,31-8,19-24,8-40-11-27-21-18-4.89,5.42" fill="#0d6099" opacity="0.5"/>
        </g>
      </g>
      <path d="M568.5,552.5c3.57,9.18,10,27,34,35s60-3,72-23,25-63-20-88-76,11-82,21S561.5,534.5,568.5,552.5Z" fill="#0d6099"/>
      <g>
        <path d="M452.5,538.5c-5.9-12.61-11-52,15-71s62-25,85,2,25,62,0,88S474.5,585.5,452.5,538.5Z" fill="#0d6099"/>
        <g clip-path="url(#badb8e78-1ded-49d0-ad5d-e534c5bc4dee)">
          <path d="M517,457s29,71,12,95-79,0-79,0l26,29,48,6,31-11,15-30-9-64.5-24.79-27.11Z" fill="#004e7a"/>
        </g>
      </g>
      <g>
        <path d="M485.5,461.5s-21-32-62-36-62,26-65,49,19,70,96,55S485.5,461.5,485.5,461.5Z" fill="#4e88cd"/>
        <g clip-path="url(#a655d5d6-d05c-47e6-bc95-c9442c64570f)">
          <path d="M455.93,433.5S475,460,468,490s-48,45-78,39l48,21,64-18,16-41-31-42-31.07-15.5" fill="#0d6099" opacity="0.5"/>
        </g>
      </g>
      <path d="M562.5,461.5c-3.39-7.91-16-29,2-57s49-42,69-20,25,48,1,72S568.5,475.5,562.5,461.5Z" fill="#0d6099"/>
      <g>
        <path d="M533.18,396.2S555.07,345.59,592,310c0,0-90.28-62.92-91.64-88.91s17.78-15,21.88-6.83,145,124.47,192.86,136.78,19.59,23.72,13.22,27.59S609.78,321,609.78,321s-40.15,23.33-61.11,87.58Z" fill="#35a31a"/>
        <g clip-path="url(#b48669ab-61f3-47e9-85a9-b0378c825d5a)">
          <path d="M541.66,271.06S596,301,603,309s0,37,0,37l-48,56.36L544,387s49-70,48-76-21-10-21-10l-27-16-2.34-13.94" fill="#176800" opacity="0.5"/>
          <polygon points="600 270 667 355 729 383 742 376 747 365 742 352 600 270" fill="#176800" opacity="0.5"/>
        </g>
      </g>
      <g>
        <path d="M444.5,380.5s-1,63,49,78S551.13,438,557,424c8-19-13-69.21-61-75,0,0-38.5-1.5-38.5-.5S444.5,380.5,444.5,380.5Z" fill="#4e88cd"/>
        <g clip-path="url(#a562d344-b4a4-4184-b755-4b97e430248b)">
          <path d="M516,344s15.87,43-64.06,89.5L441,405l25-41Z" fill="#0d6099" opacity="0.5"/>
          <path d="M562,398s-36,6-42,73l20,2,22-19,13-29-4-25Z" fill="#0d6099" opacity="0.5"/>
        </g>
      </g>
      <g>
        <g>
          <path d="M486.68,290.87S548.23,269,592,310v12.31s-31.46-35.56-112.16-6.84C479.84,315.49,470.26,300.45,486.68,290.87Z" fill="#35a31a"/>
          <g clip-path="url(#e6557b1d-8b17-4aba-b3e6-0d78f152b906)">
            <path d="M511,282s46,2,61,35l20,12,9-18-9-12-51-20Z" fill="#176800" opacity="0.5"/>
          </g>
        </g>
        <g>
          <path d="M238.42,309.34s24.62-6.84,53.34-31.46,62.92-20.52,62.92-20.52-12.31-16.41-26-15c0,0-9.57-8.21,43.77-9.58,0,0,4.11-9.57-9.57-8.21,0,0,41-31.46,91.64-20.51s68.4,43.77,52,71.12-27.36,31.46-12.31,42.41,23.25,47.87,0,67-49.24,52-146.36,24.62c0,0,25.31-17.1,28-28,0,0-46.5-2.74-68.39-16.41,0,0,19.15-4.11,26-10.95,0,0-30.09-8.2-50.61-23.25S238.42,309.34,238.42,309.34Z" fill="#35a31a"/>
          <g clip-path="url(#b4407006-cbfb-4e7f-a7a3-63b83f617369)">
            <path d="M278.59,360.21c3.43-3.84,6.84-7.63,10-11.72,1.57-2.06-1.65-4.09-3.39-2.61-3.76,3.22-7.2,6.72-10.69,10.22-2.66,2.66,1.62,6.89,4.11,4.11Z" fill="#35a31a"/>
            <path d="M237.73,309.63c18.73.95,38.1-2.16,56.26-6.56,18.93-4.6,36.74-12.15,55-18.86,17.39-6.41,35-11.12,53.61-11.06a138,138,0,0,1,77.34,24.07c6.7,4.54,15,10.54,23.52,8.33,1.34-.35,1.47-2.58,0-2.85-9.07-1.65-15.61-5.89-23.21-10.87a134.65,134.65,0,0,0-21.62-11.46,137.63,137.63,0,0,0-49.43-10.53,150.89,150.89,0,0,0-50.7,7.78c-18,5.89-35.28,13.92-53.48,19.32-22.12,6.57-44.37,8.78-67.25,10.51a1.09,1.09,0,0,0,0,2.18Z" fill="#327c01"/>
            <path d="M372.92,232.22c8,6.21,16.74,11.3,24.39,17.92a140.55,140.55,0,0,1,20.1,22c.42.56,1.34.08,1-.57a89.49,89.49,0,0,0-18.8-22.56c-8-7-17.3-11.71-26.15-17.49-.39-.26-.89.37-.51.66Z" fill="#327c01"/>
            <path d="M336.73,353.07a5.09,5.09,0,0,0,1.22-.25,2.37,2.37,0,0,0,.87-.76c.05-.07-.07-.15-.12-.07-.35.55-1.25,1.27-2,1-.05,0-.06.09,0,.07Z" fill="#327c01"/>
            <path d="M332.74,355.45a53.33,53.33,0,0,0,18.47-7.67.42.42,0,0,0-.43-.73,133.06,133.06,0,0,1-18.32,7.38.53.53,0,0,0,.28,1Z" fill="#327c01"/>
            <path d="M362.3,339a65,65,0,0,0,22.8-27.69c5.09-11.48,9-26.85,7.24-39.48-.22-1.57-2.85-1.52-3.12,0-1.14,6.42-.87,13.09-1.89,19.57a93.62,93.62,0,0,1-4.67,18A65.45,65.45,0,0,1,362,338.55c-.25.19.07.62.34.44Z" fill="#327c01"/>
            <path d="M379,380.88a142.61,142.61,0,0,0,53-40.48,137.39,137.39,0,0,0,17.4-27.7,116,116,0,0,0,5.78-14.82c1.59-5.07,3.64-10.83,3.62-16.17a1.27,1.27,0,0,0-2.49-.34c-2,4.94-2.67,10.53-4.34,15.63a151.21,151.21,0,0,1-6,15.39,139.16,139.16,0,0,1-16.33,27.13,127.21,127.21,0,0,1-51.4,40.09c-.87.38-.12,1.65.75,1.27Z" fill="#327c01"/>
            <path d="M347,214s60.76-25,101,47c38,68-96,134-96,134l-28,20,59,18,100-8,38-83-7.5-57S526,239,527,236s-38-44-38-44l-58-8-37,5Z" fill="#176800" opacity="0.5"/>
          </g>
        </g>
      </g>
      <g>
        <g>
          <path d="M652.58,668.05s3.86-25.26,24.89-56.71,12.88-64.92,12.88-64.92,17.76,10.27,18,24c0,0,9.29,8.53,4.3-44.6,0,0,9-5.21,9.28,8.53,0,0,26.36-44.49,9.46-93.43s-51.6-62.69-76.8-43.14-28,30.91-40.64,17.27-50.3-17.39-66.55,8-45.74,55.08-7,148.25c0,0,14-27.16,24.51-31.18,0,0,8.25,45.85,24.44,65.95,0,0,1.79-19.5,7.77-27.11,0,0,11.73,28.9,29.11,47.48S652.58,668.05,652.58,668.05Z" fill="#35a31a"/>
          <g clip-path="url(#b82017fb-2ab6-47c9-8ce1-eee72d4cc20f)">
            <path d="M601.63,638.07c3.2-4.05,6.41-8,9.27-12.34,1.39-2.08-1.67-4.28-3.38-2.61-3.54,3.44-6.74,7.14-10,10.84-2.49,2.85,1.84,7,4.11,4.11Z" fill="#35a31a"/>
            <path d="M654.55,668.64c-.9-20.54-1.59-40.66,1.31-61.1,2.79-19.74,8.8-38.7,13-58.13,7.18-33,4.58-67.08-10.62-97.58a132.31,132.31,0,0,0-14.73-23c-2.93-3.7-6.15-7.17-9.07-10.88a39.67,39.67,0,0,1-6.78-13.6c-.39-1.26-2.64-1.54-2.85,0-.93,6.85,3.09,13,7.27,18.14,5.47,6.71,11.15,13.05,15.84,20.36A140.1,140.1,0,0,1,667.4,491c3.67,18.4,2.85,36.53-.92,54.84-4,19.44-10.13,38.37-13.15,58-3.25,21.23-4.57,43.79-.92,65.06.21,1.21,2.19.93,2.14-.29Z" fill="#327c01"/>
            <path d="M713.69,524.69c-6.94-8.28-12.8-17.07-21-24.3a88.94,88.94,0,0,0-24.06-15.48c-.64-.28-1.21.6-.56,1a140,140,0,0,1,24.23,17.27c7.5,6.83,13.62,14.94,20.76,22.13.38.4.94-.18.59-.59Z" fill="#327c01"/>
            <path d="M597.52,575.62c-.33-.69.27-1.65.78-2.07.07,0,0-.16-.1-.1a2.39,2.39,0,0,0-.64.95,4.7,4.7,0,0,0-.11,1.24,0,0,0,1,0,.07,0Z" fill="#327c01"/>
            <path d="M596.6,580.1a135.45,135.45,0,0,1,5.18-19.18.42.42,0,0,0-.77-.33A53.83,53.83,0,0,0,595.57,580c-.07.59.93.73,1,.14Z" fill="#327c01"/>
            <path d="M608.9,548.83c6.23-10.29,15.32-18.13,25.91-23.72a90.4,90.4,0,0,1,17.66-7c6.31-1.79,13-2.32,19.23-4.22a1.62,1.62,0,0,0-.43-3.17c-6.54-.16-13.58,1.92-19.77,3.87A86.31,86.31,0,0,0,632.65,523a64.94,64.94,0,0,0-24.24,25.6.28.28,0,0,0,.49.28Z" fill="#327c01"/>
            <path d="M566.2,537.48A127,127,0,0,1,600,481.67a137.61,137.61,0,0,1,25.65-19.8,157.15,157.15,0,0,1,14.17-7.51c4.79-2.22,10.17-3.54,14.78-6.07,1-.57.64-2.5-.64-2.36-4.95.57-9.94,3-14.49,5A114.73,114.73,0,0,0,624,459.06,136.32,136.32,0,0,0,598.27,480a143.36,143.36,0,0,0-33.5,57.12.74.74,0,0,0,1.43.39Z" fill="#327c01"/>
            <path d="M626,413s30.8,27.54,40.4,65.77S670,544,657,590s-2,97-2,97l82-147,5-76-31-75-60-2Z" fill="#176800" opacity="0.5"/>
          </g>
        </g>
        <g>
          <path d="M641.36,419.36s14.4-63.72-31.56-102.3l-12.22,1.47s39.06,27,20.15,110.55C617.73,429.08,633.81,436.79,641.36,419.36Z" fill="#35a31a"/>
          <g clip-path="url(#b93f4d41-b7b0-4100-a953-fad58fd961bc)">
            <path d="M608,337s31.57,11.33,30.79,89.66h0L651,420l-4-35-26-74H608l-16,6Z" fill="#176800" opacity="0.5"/>
          </g>
        </g>
      </g>
      <path d="M398,604a59.17,59.17,0,0,1,10.42-26.78c2.91-4,6.76-8.51,11.26-10.71,7-3.4,10.9,3.49,10.29,9.67-1,9.51-7.73,19.37-15.2,25a27.21,27.21,0,0,1-11.66,5.42c-8,1.26-7.7-6.61-6.1-12.25,2.59-9.17,8.18-21.29,16.86-26.22,3.62-2.06,8.24-2.71,9,2.34.67,4.29-1.35,9.06-3.42,12.69a32.53,32.53,0,0,1-8.12,9.51,32.19,32.19,0,0,1-5.71,3.58,26.49,26.49,0,0,1-3.53,1.46l-1.38.44c-1.55.36-1.82.42-.84.2,0-.1,2.4-5,2.81-5.84a40.83,40.83,0,0,1,3.21-5.2,42,42,0,0,1,10.91-10.49q1.28-.84,2.61-1.59,1-.59,2-1.08c1.64,0,1.89-.39.75-1.21-1.16-2-1.25.63-1.71,1.62a43.92,43.92,0,0,1-2.3,4.21,46.51,46.51,0,0,1-10.86,12.32c-.83.64-1.83,1.15-2.61,1.83a4.93,4.93,0,0,1-1.7.76c1,1.3,1.49,1.31,1.4,0,.53-.55.69-2.46,1.13-3.32a26.14,26.14,0,0,1,2.78-4.15,50.25,50.25,0,0,1,5.77-6.17c1.21-1.11,4.65-4.78,6.31-4.81l-3.23-1.34c-.62-1.09-1-.71-1.21,1.16-.45.92-.93,1.83-1.46,2.71a30.59,30.59,0,0,1-3.87,5.19c-1.49,1.6-6.88,7.15-9,6.51l3.53,6.2a25.6,25.6,0,0,1,5-8,23.14,23.14,0,0,1,3.65-3.12c.51-.35,3.22-1.41,2.19-1.73l-3.21-3.22.21.94.47-3.55c-2.34,5.36-6.91,11.72-12.69,13.52l6.46,3.67a1.78,1.78,0,0,1,.21-2.12c2.19-5.29-5.61-7.35-8.48-3.58a10.05,10.05,0,0,0-2.05,7.1c.27,3,3.19,6.39,6.65,5.06,5.74-2.22,9.84-5.92,13.32-11,2.44-3.53,7.74-10.41,3.6-14.56s-10.51.42-13.94,3A32.8,32.8,0,0,0,395.45,593c-1,2.55,1.09,5.52,3.52,6.2,12.79,3.56,37.09-28.55,22.64-32.92-4.11-1.24-8.34,2.56-11.3,4.84a57.3,57.3,0,0,0-10.22,10.07c-4.41,5.61-10.18,18.09-.43,22,7.91,3.14,16.61-5.86,21.17-11.23,4.36-5.15,13.19-16.52,9.07-23.68-4.73-8.24-15.84-.93-20.8,2.88A53.11,53.11,0,0,0,392.85,592c-3.13,7.15-2.12,16.74,7.85,16,8.05-.61,16.46-6.72,21.62-12.57,5.37-6.09,9.64-14.13,10-22.39.32-7.6-3.86-15.36-12.17-15.77-9.15-.45-16.5,6.31-21.57,13.16-5.86,7.91-11,18.14-12,28.07-.86,9,4.59,17.68,14.24,17.92,8.46.21,16.95-5.4,22.7-11.16A49,49,0,0,0,437.17,579c1.32-8.47-2.1-19.11-11.83-20.42-10-1.34-18.3,8.51-23.4,15.78a55.67,55.67,0,0,0-10,28.84c-.21,3.42,5.58,4.3,6.07.82Z" fill="#63a2e0"/>
      <path d="M376.08,478.16c3.17-7.83,7.49-16.47,14.57-21.46a24.16,24.16,0,0,1,4.88-2.62c.72-.29,4.54-1.89,5.13-1.58,2.38,1.23,1.13,8.09.58,10-2.29,7.78-9.26,12.37-16.11,15.81-3.32,1.66-9.07,5.84-10.81.73-1.23-3.62,2.14-7.92,4.19-10.56,4.34-5.57,9.51-11.17,15.95-14.29.78-.38,3.68-2,4.75-1.73,2.38.64-.21,3.9-1.13,5.51a45.66,45.66,0,0,1-6.07,8.28,42.59,42.59,0,0,1-7.74,6.7c-1.74,1.17-4,1.92-5.61,3.15l1.51.21c.53-.9,1.09-1.78,1.68-2.63a58.6,58.6,0,0,1,8-9.43c2.17-2.1,6.85-7.76,10.14-6.46l-2.55-2c.07.13-2.9,4.2-3.19,4.6A35.41,35.41,0,0,1,390,465.1c-2.78,2.56-6.61,5.56-10.39,6.34l3.71.49-.71-.48,2.21,2.88c.35,1.57.92-.95,1.47-1.82a36.61,36.61,0,0,1,3.32-4.51,14.65,14.65,0,0,1,8.29-5.2l-5.17-6.72a15.17,15.17,0,0,1-9.24,7.16l6.15,6.15a49.73,49.73,0,0,1,3.33-6.75c1.51-2.71-1-5.36-3.75-4.89-5,.85-7.77,4.25-9.22,9-1.06,3.49,2.55,7.4,6.15,6.15a25.11,25.11,0,0,0,14.49-12.18,4.64,4.64,0,0,0-5.17-6.73c-6.49,1.57-11.29,5.54-15.29,10.77-3,3.93-8.17,11-2.44,15,4.8,3.39,11.69-2.22,15.37-5.2,5-4,9.63-9.45,12-15.46,2.28-5.8-1.21-11.38-7.83-10-6.25,1.31-12.12,7.74-16.24,12.2-3.83,4.15-10.47,10.27-10.11,16.46s6.33,8.34,11.51,6.29c11.22-4.45,23.37-16.65,25.87-28.76,1.14-5.54-2.2-11.22-8.24-11s-12.06,4.48-16.52,8.09c-8.48,6.86-21.54,20.12-16,32.17,2.9,6.28,8.78,6.86,14.56,4.25,6.27-2.84,12.55-6.06,17.71-10.69s8.93-11.17,9.37-18.27c.3-4.94-1.41-13.77-7.68-13.93-6.83-.19-14.27,5-19,9.41-6.22,5.79-9.94,13.19-12.64,21.13-1.36,4,4.72,5.48,6.24,1.72Z" fill="#63a2e0"/>
      <path d="M528.61,604.65a26.35,26.35,0,0,1,9.22-13.52c1.38-1,4.08-1.74,5.19-2.9,2-.31,1.77-.8-.55-1.47a32.57,32.57,0,0,1-3.63,8c-1.85,3.06-5.79,9.53-10,9l3.65,2.09c-2.91-3.82-1-9,1.86-12.21a21.8,21.8,0,0,1,4.39-3.74c.34-.22,4.64-2.72,4.2-2.95l-1.77-2.3c.92,2.9-3.59,9-5.18,11.13-1.88,2.49-6.52,8.12-10.05,7.85l3.21,1.34c-1.15-1.06,1-6.88,1.93-8.6,1.62-2.94,4.47-6.19,7.91-6.9l-3.33-.44.78.59-2-2.58c.31,1.81-2.59,5.56-3.7,7.09a26.8,26.8,0,0,1-7.19,6.61l7.34,4.22a16.25,16.25,0,0,1,1.46-8.28,13.38,13.38,0,0,1,2.49-3.52c1.11-1.14,3.09-1.29,1.17-2.51l-2.16-2.81q.25-2.31-.58.83a23.81,23.81,0,0,1-1.49,2.71,18.57,18.57,0,0,1-4.68,4.8,5.09,5.09,0,1,0,6.19,8,27.3,27.3,0,0,0,9.45-14.05c1.15-4.3-.75-9.09-5.94-8.69-10.24.78-16.58,14.64-15.67,23.5.33,3.29,4,6.6,7.35,4.22,6.48-4.64,14.87-13.47,14.67-22.18-.26-11.35-13.51-3.14-17.16,1.14-4.37,5.14-9.37,16.47-4.1,22.56,6.07,7,16.79-4.28,20.34-9,3.27-4.31,10.41-16.27,5-21.11-5.67-5-17.16,5.15-20.39,9.41-3.87,5.1-7.71,19,.9,22s16.67-10.13,19.56-16.21c1.72-3.62,4.58-9.19,2.24-13.15-2.22-3.74-6.51-2.73-9.81-1.34a29.41,29.41,0,0,0-17.5,21.51c-.83,4.16,5.23,5.93,6.42,1.77Z" fill="#63a2e0"/>
      <path d="M391.05,750.75a20.79,20.79,0,0,1,1.89-7,55.74,55.74,0,0,1,3.93-5.22c.2.61-1.37,3.92-1.67,4.63a32.83,32.83,0,0,1-3,5.65,26.52,26.52,0,0,1-1.95,2.68q-3.17,2.61,3.19,1.94c.87-.65,1.61-4.2,2.3-5.32a22.21,22.21,0,0,1,3.75-4.51,21.13,21.13,0,0,1,2.35-2c1.45-.72,1.59-1,.42-.68l-2.67-2,.39.67-.45-3.47c-.81,4.26-3.86,8.57-6.51,11.9-1.33,1.67-2.08,1.35.27,2.85,2.75,1.76,1.72.38,2.53-1.67s2.21-4.86,4.32-5.91h-4.82l.74.38-2.2-2.87c.64,2.08-4.09,6.62-4.67,8.8a4.36,4.36,0,0,0,5.31,5.3c5.92-1.34,10.86-11,8.61-16.65-3.69-9.36-12.79.59-15.32,5.22-2.78,5.07-5.2,15.12,3,16.59,7.75,1.4,12.95-9.42,15.36-15.17,1.14-2.73,3-6.34,1.82-9.3s-4.51-4.12-7.5-3.26c-6.27,1.79-11.84,9.39-14.58,14.91-1.44,2.91-2.94,6.34-2.08,9.65a7.48,7.48,0,0,0,7.24,5.53c7.16-.38,11.67-11.78,13.42-17.47,1.16-3.73,2.16-8.3-.27-11.73a8.1,8.1,0,0,0-8.74-2.81c-8,2.21-10.71,13.26-10.7,20.4,0,4.11,5.89,4,6.28,0Z" fill="#63a2e0"/>
      <path d="M344,675.17a34.23,34.23,0,0,1,4.56-12.65c1.63-2.61,6.48-8.44,8.56-8.51l-2.86-1.18c-.35-.28-.6,3.13-.69,3.61a38,38,0,0,1-1.32,4.92,42.79,42.79,0,0,1-4.34,8.92c-.9,1.45-1.8,3.28-3.14,4.37-1.65,1.33-1.7,1.24-1.48-.7.35-3.09,2.5-6.56,3.86-9.33a42.13,42.13,0,0,1,2.39-4.31c.69-1,2.69-2.64,2.83-3.65,1.05-.74.68-1.26-1.1-1.58l-.08,1.62c-.42,1.67-.44,3.47-.86,5.16-1.55,6.11-4.78,12.82-9.85,16.76l3.51-1.45-1.11.13,3.5,1.46c-3.51-3.5-1.4-11.55,0-15.48a31.47,31.47,0,0,1,3.43-6.71c.64-1,5.1-5.48,4.13-6.15l-2.06-2.68c1.12,4.61-.58,10.44-2.13,14.77a35.57,35.57,0,0,1-3.73,7.42,28.73,28.73,0,0,1-2.07,2.85c-1.07,1.25-3,1.72-.89,2.68s1.09-.13,1-1.61a19.86,19.86,0,0,1,.15-3.7,23.73,23.73,0,0,1,1.84-6.28c1.64-3.63,5.06-8.7,9.14-9.92l-3.73-.49.61.37-2.23-2.9c.72,2.25-2.32,7.68-3.25,9.47a35.77,35.77,0,0,1-2.56,4.23,16.9,16.9,0,0,1-1.71,2.16q-3,2.58,1.84.37l3.26,2.5c.62,1.17-.11.78.47-.32s.76-2.8,1.25-4.06a35.66,35.66,0,0,1,3.77-7l-9.37-2.54a21,21,0,0,1-4.21,9.68c-3.2,4.39,4.22,10.19,7.58,5.85a31,31,0,0,0,6.5-14.19c1-5.74-5.73-8.51-9.19-3.88-3.81,5.12-9.87,14.64-6.65,21.22A6.72,6.72,0,0,0,345,678c3.53-.75,5.91-4.52,7.81-7.28,3.73-5.41,7.89-14.14,6.8-20.93-1.37-8.56-9.85-4.28-13.92-.72A34.08,34.08,0,0,0,335,666.87c-1.23,5.63-2.12,14.85,4.48,17.46,7.12,2.83,12.86-5.58,15.88-10.77a43.51,43.51,0,0,0,5.91-22.29c-.05-3-.15-6.64-2.86-8.58s-5.93-1-8.47.69c-6,4.06-10.28,11.56-12.59,18.24s-3.48,15-.1,21.39c4.57,8.64,11.79,1.77,15.52-3.49a41,41,0,0,0,7.34-22c.24-6-3.15-13.36-10.37-9.83-6.42,3.14-10.25,12.44-13,18.55-2.55,5.74-5.08,13.13,1,17.7,14.24,10.73,27.22-23.5,24.4-33.57-2.54-9.11-11.76-1.46-15.25,2.28a33.67,33.67,0,0,0-9.16,21.7c-.16,3.47,5.59,4.36,6.17.83Z" fill="#2874bf"/>
      <path d="M497.84,694.22a31.49,31.49,0,0,1,3.83-20.2c.73-1.24,1.81-3.67,3.17-4.35.78-1.47,1.68-1.41,2.69.2l.08,1.49c.67,2.72-.11,6.82-.61,9.48a30,30,0,0,1-3,8.76,22.27,22.27,0,0,1-2.65,3.94,27.11,27.11,0,0,1-2.05,2.1l1.38-.62C497,689.74,495.3,683.6,497,677.2c.68-2.51,2.4-7.41,5.57-6.65,4.11,1,2.26,8.06,1.38,10.73-.31,1-3.74,8.82-4.7,8.66.12,0-.59-2.08-.74-3.1a16.84,16.84,0,0,1,3-12.21A9.13,9.13,0,0,1,503,673q2.58-2,1.43-.94c.08.06-.55,3.24-.66,3.73a27.38,27.38,0,0,1-3.42,8.4,24.36,24.36,0,0,1-2.77,3.69c-.5.56-1,1.09-1.58,1.6-1.33.93-1.56,1.21-.67.84L500,693c-2.49-4.75.76-9.91,1.64-14.38l.79-1.4-4.26-2.45c-.1.07-.26,2.44-.34,2.76a11.37,11.37,0,0,1-3.9,5.76l9.55,4a10.1,10.1,0,0,1,2-5.83l-8.7-6.71c-1.3,2.21-3,4.43-3.74,6.91a5.5,5.5,0,0,0,2.49,6.12l.27.14c1.56.84,3.93,1.16,5.46,0l.29-.22c2.74-2.07,3.76-5.75,1.09-8.46l-.12-.13c-4.87-5-12.5,2.68-7.62,7.63l.12.12,1.09-8.47-.31.19h5.46l-.26-.16,2.49,6.12c-.78,2.14-.17.55.63-.64s1.49-2.38,2.22-3.56c3.25-5.23-4.63-11.63-8.7-6.71a21.79,21.79,0,0,0-5.39,13.66c-.21,5.08,6.14,7.06,9.55,4a21.53,21.53,0,0,0,7.2-17.14c-.4-6.29-6.95-10-12.42-6.33s-7.61,12-8.15,18.08c-.49,5.54.11,16,7.94,15.52,6.21-.41,11.66-8.74,14.16-13.76,2.69-5.42,4.89-12.52,3-18.53a9.56,9.56,0,0,0-14.11-5.61c-5.34,3-9,9.28-10.24,15.1s-1,12.94,2.37,18c3.9,5.87,10.93,3.83,14.9-.69,7.36-8.38,13.62-29.72-1.63-34-13.49-3.77-18.38,15.6-16.83,25.17.88,5.41,3.65,12.28,8.4,15.46,5.57,3.72,10.31-1.92,13.06-6.34,3.73-6,5.2-13.31,5.23-20.31,0-5.15.16-13.82-6.63-14.56S496.55,669,494.3,674.21a32.69,32.69,0,0,0-1.61,21.43c.85,3.42,5.65,1.89,5.15-1.42Z" fill="#2874bf"/>
      <path d="M350.14,798.58a16.89,16.89,0,0,1,6.57-11l-4.88-2a9.63,9.63,0,0,1-5.21,11.07l5.79,2.36a6.77,6.77,0,0,1,3.41-8.27l-5.94-2.42c.49,2.49-1.47,3.92-3,5.52-2.6,2.75-.06,8.14,3.92,6.73,5.93-2.08,7.91-8.68,6.86-14.4-.5-2.75-3.8-3.47-5.94-2.42-6.24,3.07-9.53,10.82-6.93,17.36.91,2.29,3.42,3.79,5.79,2.35a17.18,17.18,0,0,0,7.64-19.65,3.37,3.37,0,0,0-5.56-1.46,23.11,23.11,0,0,0-8.16,15.42c-.38,3.17,5.05,3.92,5.62.76Z" fill="#2874bf"/>
      <path d="M358.77,877.75a28.57,28.57,0,0,1,1.29-9.13c.64-2.09,2.27-8,4.89-8.58l-2.58-.33c-.31-1.23-.53-1.06-.65.51-.25.87-.54,1.73-.85,2.58a34.63,34.63,0,0,1-1.84,4.13,39.79,39.79,0,0,1-5.66,8.08l4.62-.59c.48,1.63.78,1.77.89.4l.53-1.43c.64-1.83,1.42-3.63,2.2-5.4.93-2.09,2.46-7.16,4.94-7.85L362,855.59a35.24,35.24,0,0,1-8.39,16.17l7.26,1.91c-.67-2.66.5-4.54,2.53-6.21,3.15-2.59-1-8-4.37-5.67a14.66,14.66,0,0,0-6.69,13c.16,3.45,4.83,6.12,7.41,3.07a41.69,41.69,0,0,0,9.39-20.33c.46-2.74-1.61-5.31-4.55-4.56-6.16,1.58-8.52,8.68-10.79,13.91-1.73,4-5.57,11.47.35,14.08,1.43.64,3.49.8,4.62-.59A48.22,48.22,0,0,0,367,865.9c1.28-3.67,3.59-9.92-1.27-12s-8.48,4-10.21,7.66a28.91,28.91,0,0,0-2.39,16.15c.43,3.48,5.69,3.72,5.63,0Z" fill="#63a2e0"/>
    </g>
  </g>
</svg>
