<svg xmlns="http://www.w3.org/2000/svg" xmlns:xlink="http://www.w3.org/1999/xlink" viewBox="0 0 1000 1000">
  <defs>
    <clipPath id="a488ed07-1801-4225-ac57-433da2c9cc0e">
      <path d="M202.57,374.42S175.22,290.76,249.21,276c51.82-10.36,82.91,15.55,82.91,15.55s25.91-36.28,72.55-31.09c0,0,20.72-82.92,114-82.92s119.18,93.28,119.18,93.28,51.82-10.36,72.55,41.45c0,0,72.55-36.27,119.19,20.73s25.91,119.19-36.28,155.46c0,0-20.73,82.91-88.09,108.82s-134.73-25.91-134.73-25.91-31.09,36.28-82.91,31.09-62.19-36.27-62.19-36.27-31.09,25.91-93.27,15.55-77.73-46.64-77.73-46.64S166.3,550.6,150.75,498.78,150.75,390,202.57,374.42Z" fill="#4d88ce"/>
    </clipPath>
    <clipPath id="bd33af89-1c98-421d-a7dc-8fc66aff5202">
      <path d="M315.5,653s-47,89,0,89S315.5,653,315.5,653Z" fill="#a9e2ff"/>
    </clipPath>
    <clipPath id="a479dad1-1162-4ffd-9bfb-7ffc4fdae02c">
      <path d="M414.5,742s-47,89,0,89S414.5,742,414.5,742Z" fill="#a9e2ff"/>
    </clipPath>
    <clipPath id="ed46556e-eda9-4f38-814f-ec8bbe2d406e">
      <path d="M498.5,653s-47,89,0,89S498.5,653,498.5,653Z" fill="#a9e2ff"/>
    </clipPath>
    <clipPath id="b3a02218-02db-4df6-b81d-939154690864">
      <path d="M684.5,653s-47,89,0,89S684.5,653,684.5,653Z" fill="#a9e2ff"/>
    </clipPath>
    <clipPath id="b57aa913-0e84-4206-9f2d-afc1dff2d5c0">
      <path d="M597.5,742s-47,89,0,89S597.5,742,597.5,742Z" fill="#a9e2ff"/>
    </clipPath>
  </defs>
  <g id="bf7ceb3f-632f-4079-9111-27bd30be9543" data-name="Layer 3">
    <g id="a9e0253e-8fe9-4f2c-aa4c-d9a22054b19c" data-name="Layer 4">
      <g>
        <path d="M202.57,374.42S175.22,290.76,249.21,276c51.82-10.36,82.91,15.55,82.91,15.55s25.91-36.28,72.55-31.09c0,0,20.72-82.92,114-82.92s119.18,93.28,119.18,93.28,51.82-10.36,72.55,41.45c0,0,72.55-36.27,119.19,20.73s25.91,119.19-36.28,155.46c0,0-20.73,82.91-88.09,108.82s-134.73-25.91-134.73-25.91-31.09,36.28-82.91,31.09-62.19-36.27-62.19-36.27-31.09,25.91-93.27,15.55-77.73-46.64-77.73-46.64S166.3,550.6,150.75,498.78,150.75,390,202.57,374.42Z" fill="#4d88ce"/>
        <g clip-path="url(#a488ed07-1801-4225-ac57-433da2c9cc0e)">
          <path d="M189.62,361.46s36.27-57,88.09-51.82,62.18,25.91,62.18,25.91,25.91-57,93.28-31.09c0,0,10.36-67.36,77.73-57s72.54,67.37,72.54,67.37,41.46-15.55,77.73,36.27c0,0,25.91-10.36,51.82,0,0,0,36.28-62.18,108.82-41.46l-285-181.36-248.74,57L184.43,268.19Z" fill="#61a2e2" opacity="0.7"/>
          <path d="M184.43,377s-20.72,88.09,41.46,98.46S314,439.19,314,439.19s-10.36,67.37,46.64,77.73,72.55-5.18,72.55-5.18,15.54,25.91,51.82,15.55,46.63-57,46.63-57,20.73,15.55,77.73-5.18c0,0,31.09,36.28,82.91,25.91s41.46-51.82,41.46-51.82,67.36,25.91,88.09-31.09,0-108.82,0-108.82l82.91,98.46L842.54,548l-93.27,82.91L656,672.38,474.62,662,298.44,641.29,194.8,594.65,122.25,522.1,106.7,439.19l46.64-67.36Z" fill="#2874bf"/>
        </g>
      </g>
      <g>
        <g>
          <path d="M315.5,653s-47,89,0,89S315.5,653,315.5,653Z" fill="#a9e2ff"/>
          <g clip-path="url(#bd33af89-1c98-421d-a7dc-8fc66aff5202)">
            <path d="M308.72,685.37c-2.87,7.76-5.06,15.76-7.72,23.59-2.08,6.14-4.49,13.69.85,18.88,3.78,3.68,8.89-.17,8.19-4.77-.44-2.86-1.39-5.31-1.39-8.31,0-3.18.45-6.41.75-9.58.62-6.49,1.67-12.92,2.08-19.43.11-1.68-2.24-1.77-2.76-.38Z" fill="#ccf1ff"/>
          </g>
        </g>
        <g>
          <path d="M414.5,742s-47,89,0,89S414.5,742,414.5,742Z" fill="#a9e2ff"/>
          <g clip-path="url(#a479dad1-1162-4ffd-9bfb-7ffc4fdae02c)">
            <path d="M410.25,771.4c-2.17,7.75-5.44,15-8.5,22.43-2.76,6.66-3.41,13.83-.53,20.55a4.14,4.14,0,0,0,3.66,2.1,4.6,4.6,0,0,0,2.14-.58,4.17,4.17,0,0,0,2.1-3.66c-.15-7.31-1.59-14-.31-21.34a156.49,156.49,0,0,0,2.55-19.35.57.57,0,0,0-1.11-.15Z" fill="#ccf1ff"/>
          </g>
        </g>
        <g>
          <path d="M498.5,653s-47,89,0,89S498.5,653,498.5,653Z" fill="#a9e2ff"/>
          <g clip-path="url(#ed46556e-eda9-4f38-814f-ec8bbe2d406e)">
            <path d="M491.88,686.86c-1.2,8.95-5.87,17.07-7.47,25.93-.94,5.22-2.51,14,3.83,16.31a2,2,0,0,0,2.22-.91c1.75-2.35,1.17-4.84,1-7.63a55,55,0,0,1,.67-11.88c1.08-7.49,2.35-14.26,1.39-21.82a.8.8,0,0,0-1.6,0Z" fill="#ccf1ff"/>
          </g>
        </g>
        <g>
          <path d="M684.5,653s-47,89,0,89S684.5,653,684.5,653Z" fill="#a9e2ff"/>
          <g clip-path="url(#b3a02218-02db-4df6-b81d-939154690864)">
            <path d="M678.31,683.83c-3,8.4-6.22,17.06-8.2,25.77-1.44,6.31-2,15.87,3.46,20.46a3.34,3.34,0,0,0,5.49-1.45c1.09-3.13.33-5.71-.36-8.86a36.53,36.53,0,0,1-.77-11.7c.76-8,1.88-15.93,2.5-23.94.1-1.28-1.73-1.37-2.12-.28Z" fill="#ccf1ff"/>
          </g>
        </g>
        <g>
          <path d="M597.5,742s-47,89,0,89S597.5,742,597.5,742Z" fill="#a9e2ff"/>
          <g clip-path="url(#b57aa913-0e84-4206-9f2d-afc1dff2d5c0)">
            <path d="M591.47,772.43c-1.46,4.73-2.77,9.49-4.31,14.19-1.39,4.27-3.31,8.41-4.39,12.78-1.52,6.2-2.91,18.25,4.94,20.59a3.67,3.67,0,0,0,4.08-1.66c2-3.43.5-6.1-.07-9.7a66.49,66.49,0,0,1-.6-11.54c.16-8.21,3.24-16.16,2.28-24.4a1,1,0,0,0-1.93-.26Z" fill="#ccf1ff"/>
            <path d="M658.6,755.49c7.66,0,7.67-11.91,0-11.91s-7.67,11.91,0,11.91Z" fill="#ccf1ff"/>
          </g>
        </g>
      </g>
    </g>
  </g>
</svg>
