<svg xmlns="http://www.w3.org/2000/svg" xmlns:xlink="http://www.w3.org/1999/xlink" viewBox="0 0 1000 1000"><defs><clipPath id="b33f3afe-bcca-4b8a-a6e1-06183a1376e2"><path d="M163.62,549.38c0-23.43,16.11-124.45,33.68-155.2s35.13-105.41,38.06-124.44,4.39-86.38,86.38-93.7,114.2,29.28,175.69,134.69,98.09,284,77.6,326.49S471.08,826.09,311.49,767.52,163.62,549.38,163.62,549.38Z" style="fill:#37c61a"/></clipPath><clipPath id="a590a844-62b5-48ee-a935-88fa70254b31"><path d="M307.1,151.15c10.9-7.27,31.13-6.53,35.14,0s21,30.53,10,36.53-47.93,6.14-52.47.07S293.93,159.93,307.1,151.15Z" style="fill:#c15c00"/></clipPath><clipPath id="f2affc91-84d6-4e01-b183-b35a457ae729"><path d="M409.59,684.07c-7.66-7-48.32-61.49-24.89-99.56s84.91-84.91,168.37-101S706.79,457.14,720,454.21s55.64-5.85,83.45,20.5,38.25,69.37,30.84,107.16-52.8,182.73-167,210.54-172.76,7.32-218.14-33.67S425.69,698.71,409.59,684.07Z" style="fill:#83c500"/></clipPath><clipPath id="a291797d-8882-4830-ba6d-496c6ded6867"><path d="M794.64,499.6c2.93-8.79,5.86-27.82,17.57-26.36s13.17,7.33,17.57,10.25,1.46,21.79,0,25.54,0-3.58-13.18-.65S794.64,499.6,794.64,499.6Z" style="fill:#c15c00"/></clipPath><clipPath id="b8dac00a-304e-4cbd-ae34-9cbbffe13ae3"><path d="M440.33,670.9c-18.25-19.78-47.28-67.42-14.85-98.86s80.74-57.8,162.72-75.37S744.86,464.46,769.75,482s48.31,43.92,43.92,89.31S762.43,720.67,703.87,747s-155.2,42.46-200.58,14.64S457.9,689.93,440.33,670.9Z" style="fill:#d9ec00"/></clipPath><clipPath id="acbd407e-bdd9-4875-bc60-f776716b9625"><path d="M490.11,622.58c-1.46-17.57-1.46-71.74,64.42-89.31s128.84-11.71,149.34,5.86,38.06,77.59-10.25,133.23S575,742.46,522.32,682.61C490.11,646,490.11,622.58,490.11,622.58Z" style="fill:#a05000"/></clipPath></defs><g id="aba7489c-023b-41ce-b7c8-7659b0d6045c" data-name="Layer 3"><g id="efe671ba-983a-46d3-84e3-d8519bacf066" data-name="Layer 4"><path d="M163.62,549.38c0-23.43,16.11-124.45,33.68-155.2s35.13-105.41,38.06-124.44,4.39-86.38,86.38-93.7,114.2,29.28,175.69,134.69,98.09,284,77.6,326.49S471.08,826.09,311.49,767.52,163.62,549.38,163.62,549.38Z" style="fill:#37c61a"/><g style="clip-path:url(#b33f3afe-bcca-4b8a-a6e1-06183a1376e2)"><path d="M225.25,234.68s109-34,147-17,103,149,120,202-148,115-140,202-29,176-232-18l109,191,165,38,134-15,114-151,14.4-193.52L472.25,166.68l-211-33Z" style="fill:#176800;opacity:0.5"/></g><path d="M307.1,151.15c10.9-7.27,31.13-6.53,35.14,0s21,30.53,10,36.53-47.93,6.14-52.47.07S293.93,159.93,307.1,151.15Z" style="fill:#c15c00"/><g style="clip-path:url(#a590a844-62b5-48ee-a935-88fa70254b31)"><path d="M302.25,149.68s21-4,31,4,24,43-39,33l12,10,56-4-1-20-27-34Z" style="fill:#a05000"/></g><path d="M384.7,584.51s-13.18,77.6-5.86,109.81,26.35,99.56,70.28,130.3,164,46.85,237.18,0,73.2-76.13,101-111.27,71.74-165.44,29.28-202S384.7,584.51,384.7,584.51Z" style="fill:#1f8e03"/><path d="M409.59,684.07c-7.66-7-48.32-61.49-24.89-99.56s84.91-84.91,168.37-101S706.79,457.14,720,454.21s55.64-5.85,83.45,20.5,38.25,69.37,30.84,107.16-52.8,182.73-167,210.54-172.76,7.32-218.14-33.67S425.69,698.71,409.59,684.07Z" style="fill:#83c500"/><g style="clip-path:url(#f2affc91-84d6-4e01-b183-b35a457ae729)"><path d="M390.25,686.68s113,36,227-50,161-164,64-203c0,0,106-25,151,19s51,227,10,280-248,164-328,130S390.25,686.68,390.25,686.68Z" style="fill:#176800;opacity:0.5"/></g><path d="M794.64,499.6c2.93-8.79,5.86-27.82,17.57-26.36s13.17,7.33,17.57,10.25,1.46,21.79,0,25.54,0-3.58-13.18-.65S794.64,499.6,794.64,499.6Z" style="fill:#c15c00"/><g style="clip-path:url(#a291797d-8882-4830-ba6d-496c6ded6867)"><path d="M800.25,475.68s16-3,22,10-10,24.34-25.5,21.67h0l24.5,7.33,13-3,2-31-22-11Z" style="fill:#a05000"/></g><path d="M440.33,670.9c-18.25-19.78-47.28-67.42-14.85-98.86s80.74-57.8,162.72-75.37S744.86,464.46,769.75,482s48.31,43.92,43.92,89.31S762.43,720.67,703.87,747s-155.2,42.46-200.58,14.64S457.9,689.93,440.33,670.9Z" style="fill:#d9ec00"/><g style="clip-path:url(#b8dac00a-304e-4cbd-ae34-9cbbffe13ae3)"><path d="M390.25,686.68s113,36,227-50,161-164,64-203c0,0,106-25,151,19s51,227,10,280-248,164-328,130S390.25,686.68,390.25,686.68Z" style="fill:#c7cc00"/></g><path d="M490.11,622.58c-1.46-17.57-1.46-71.74,64.42-89.31s128.84-11.71,149.34,5.86,38.06,77.59-10.25,133.23S575,742.46,522.32,682.61C490.11,646,490.11,622.58,490.11,622.58Z" style="fill:#a05000"/><g style="clip-path:url(#acbd407e-bdd9-4875-bc60-f776716b9625)"><path d="M595.25,522.68s56,0,80,28-14,176-183,106l57,70,79,9,61-37,46-87-18-86-110-16Z" style="fill:#894202"/></g><path d="M298.21,308.94c-.95,1.8-2.4,3.78-2.58,5.83-.16,1.82,2.35,3.35,3.85,2.21,1.66-1.26,2.55-3.42,3.58-5.2a2.81,2.81,0,1,0-4.85-2.84Z" style="fill:#1a8400"/><path d="M358.89,318.5c-.07.51-.15,1-.22,1.51a2.15,2.15,0,0,0,.36,1.69,1.83,1.83,0,0,0,.72.57,2,2,0,0,0,2.28-.84c.27-.41.48-.87.72-1.3a2.11,2.11,0,0,0-1-3,2,2,0,0,0-1.63,0,2,2,0,0,0-1.22,1.36Z" style="fill:#1a8400"/><path d="M282,397.6a25.67,25.67,0,0,1-1.63,2.38,8.73,8.73,0,0,0-1.22,2.58c-.57,1.78,2.35,2.59,2.8.77a8.55,8.55,0,0,0,.3-2.84,23,23,0,0,1-.16-2.87,0,0,0,0,0-.09,0Z" style="fill:#1a8400"/><path d="M217.79,463.83c-.41,2-1.32,4.49-.77,6.51a2.7,2.7,0,0,0,4.48,1.19c1.42-1.61,1.71-4,2.26-6a3.16,3.16,0,0,0-2.16-3.81,3.13,3.13,0,0,0-3.81,2.16Z" style="fill:#1a8400"/><path d="M344.59,441.87c-.77,2.27-1.69,6.24.52,8a1.82,1.82,0,0,0,2.8-.36,5.5,5.5,0,0,0,.65-3.31,10.46,10.46,0,0,1,.55-3c.91-2.89-3.56-4.09-4.52-1.25Z" style="fill:#1a8400"/><path d="M411.14,423.5a4.51,4.51,0,0,0-.8,2.18,2.67,2.67,0,0,0,.79,2.19,1.32,1.32,0,0,0,2.17-.57l0-.05c0-.08.08-.16.13-.24a4,4,0,0,0,.25-.79c0-.08.05-.16.07-.23-.07.17-.06.17,0,0s.11-.18,0,0a2.5,2.5,0,0,1,.22-.24,1.82,1.82,0,1,0-2.87-2.21Z" style="fill:#1a8400"/><path d="M287.79,512.93c-1.46,2.7-3.93,5.43-3.67,8.73a1.66,1.66,0,0,0,3.06.83c1.75-2.88.79-6.4.71-9.54a.05.05,0,0,0-.1,0Z" style="fill:#1a8400"/><path d="M231.14,592.11a50.46,50.46,0,0,0,.93,8.24,2.92,2.92,0,0,0,2.08,2.08,3.17,3.17,0,0,0,2.3-.3,2.92,2.92,0,0,0,1.48-2.58,49.21,49.21,0,0,0-1.64-8.13c-.67-2.83-5.39-2.3-5.15.69Z" style="fill:#1a8400"/><path d="M279,628.32a20.85,20.85,0,0,0,3.74,7.93c1.43,1.65,4.7-.11,3.81-2.22a71.73,71.73,0,0,1-3-7c-.85-2.88-5.34-1.67-4.52,1.25Z" style="fill:#1a8400"/><path d="M350.9,543.17l0,1.93a4.55,4.55,0,0,0,.44,2,1.13,1.13,0,0,0,1.95,0,4.71,4.71,0,0,0,.45-2l0-1.93a1.46,1.46,0,0,0-2.91,0Z" style="fill:#1a8400"/><path d="M327.26,533.38l1.36,3a1.74,1.74,0,0,0,3.18-1.34l-1.11-3.15a1.87,1.87,0,1,0-3.43,1.44Z" style="fill:#1a8400"/><path d="M356.36,446.56c.19,2.88.57,6,2.37,8.32a1.93,1.93,0,0,0,1.94.51,1.81,1.81,0,0,0,.48-.2,2,2,0,0,0,1-1.72c-.26-2.36-1.29-4.53-1.56-6.91a2.19,2.19,0,0,0-2.11-2.11,2.12,2.12,0,0,0-2.11,2.11Z" style="fill:#1a8400"/><path d="M354.35,421.75l.28,6a1.08,1.08,0,0,0,2.16,0l.28-6c.08-1.75-2.8-1.75-2.72,0Z" style="fill:#1a8400"/><path d="M365.67,282.32a12.92,12.92,0,0,1,1.29,2.07c.46.85,1.07,1.51,1.56,2.32a2.27,2.27,0,0,0,4.19-1.14,7.6,7.6,0,0,0-.57-4.21,15.56,15.56,0,0,0-2.23-3.28,3,3,0,0,0-4.24,0,3.06,3.06,0,0,0,0,4.24Z" style="fill:#1a8400"/><path d="M453.47,390.14c.65,3.75,1,7.68,2.48,11.19.84,2,4,.9,3.93-1.07-.11-3.79-1.54-7.54-2.53-11.19-.68-2.55-4.32-1.44-3.88,1.07Z" style="fill:#1a8400"/><path d="M509.83,439.19c0,4.36.07,9.34,2.71,13a1.9,1.9,0,0,0,3.5-.94c.44-4-.64-8-.58-12,0-3.62-5.62-3.63-5.63,0Z" style="fill:#1a8400"/><path d="M470.17,491.38a27,27,0,0,0-1,5.49c-.1,2.54,3.49,3.41,4.71,1.28A26.64,26.64,0,0,0,476,493a3,3,0,0,0-2.1-3.69,3.06,3.06,0,0,0-3.69,2.1Z" style="fill:#1a8400"/><path d="M451.46,284.9c.19,2.82-.19,6.27,1.67,8.57a1.68,1.68,0,0,0,2.38,0c1.86-2.3,1.48-5.75,1.67-8.57.24-3.68-6-3.68-5.72,0Z" style="fill:#1a8400"/><path d="M367.64,204.3l.89,1.69a5.38,5.38,0,0,0,1.35,1.58,1.57,1.57,0,0,0,2.64-1.09,5.47,5.47,0,0,0-.11-2.13l-.49-1.86a2.34,2.34,0,1,0-4.28,1.81Z" style="fill:#1a8400"/><path d="M262.84,729.77c3.47,2,7.53,5.26,11.65,5.29a2,2,0,0,0,1.7-3,12.26,12.26,0,0,0-4.55-4.2L266,724.35c-3.42-2.16-6.69,3.43-3.17,5.42Z" style="fill:#1a8400"/><path d="M260.65,690.86a16.65,16.65,0,0,0,3,3.66A11.67,11.67,0,0,0,268,696.8c2,.64,3.64-2.15,2.05-3.53-.92-.8-1.66-1.75-2.5-2.62a11.23,11.23,0,0,1-1.91-2.68c-1.74-3.24-6.88-.25-4.94,2.89Z" style="fill:#1a8400"/><path d="M341.75,747c2.76,2.65,8.13,6.55,12.18,4.9,2-.8,3.18-3.36,1.34-5.07-1.39-1.29-3-1.59-4.73-2.33a13.49,13.49,0,0,1-3.75-2.54c-3.33-3.14-8.35,1.84-5,5Z" style="fill:#1a8400"/><path d="M355.62,702.24l.74.61a1,1,0,0,0,1.68-.7,1.19,1.19,0,0,0-.29-.69l-.61-.74a1.07,1.07,0,0,0-.76-.32,1.09,1.09,0,0,0-.76.32,1.07,1.07,0,0,0-.32.76,1.06,1.06,0,0,0,.32.76Z" style="fill:#1a8400"/><path d="M648.42,826.75l1.18-.64c.43-.23,0-.84-.38-.65L648,826c-.49.23-.06,1,.42.73Z" style="fill:#1a8400"/><path d="M652.41,825.7a.52.52,0,0,0,0-1,.52.52,0,0,0,0,1Z" style="fill:#1a8400"/><path d="M670.4,809.47c1.31-.13,2.62-.25,3.93-.4s2.78-.45,3.58-1.72a1.77,1.77,0,0,0-.63-2.37c-1.1-.8-2.54-.49-3.76-.15s-2.41.7-3.61,1c-1.89.56-1.64,3.81.49,3.59Z" style="fill:#1a7201"/><path d="M617,826.84l3.12,0a6.48,6.48,0,0,0,3.09-.84,1.6,1.6,0,0,0,0-2.75,6.59,6.59,0,0,0-3.09-.84l-3.12,0c-2.9,0-2.9,4.53,0,4.5Z" style="fill:#1a7201"/><path d="M719.19,791.16l.52-.7a3.59,3.59,0,0,0,.25-.33,2.81,2.81,0,0,0,.26-.62,1.19,1.19,0,0,0-1.44-1.45,3,3,0,0,0-.59.24c-.13.08-.24.18-.36.27l-.7.53a1.5,1.5,0,0,0,.76,2.8,1.59,1.59,0,0,0,1.3-.74Z" style="fill:#1a7201"/><path d="M490.68,812.79l1.8.6a.85.85,0,0,0,1-.59.87.87,0,0,0-.59-1l-1.8-.6a.85.85,0,1,0-.45,1.63Z" style="fill:#1a7201"/><path d="M451.12,777.81c1.38,2,2.68,4.16,4.21,6.07,1.36,1.7,3.7,4,6.08,2.6s1.21-4.75.07-6.53c-1.27-2-2.79-3.84-4.21-5.73a3.67,3.67,0,0,0-4.87-1.28,3.58,3.58,0,0,0-1.28,4.87Z" style="fill:#1a7201"/><path d="M529.26,836.67c2.31,2.72,6.75,6.81,10.53,4.65a3.53,3.53,0,0,0,1.77-3.09c-.12-2.46-1.93-3.76-3.68-5.18.47.39,0,0-.18-.18l-.71-.65a19.63,19.63,0,0,1-1.57-1.72c-1.45-1.76-4.68-1.62-6.16,0a4.46,4.46,0,0,0,0,6.17Z" style="fill:#1a7201"/></g></g></svg>