<svg xmlns="http://www.w3.org/2000/svg" xmlns:xlink="http://www.w3.org/1999/xlink" viewBox="0 0 1000 1000"><defs><clipPath id="a47d6445-cb20-49a3-8e60-2a49eaec6467"><path d="M225.21,741.58s124-162,91-274l179,75-59,102s38-26,66-74l51,50s-151,99-188,205C365.21,825.58,276.21,815.58,225.21,741.58Z" style="fill:#83c500"/></clipPath><clipPath id="f3818993-f4ee-4d63-9348-e35f37501d21"><path d="M450.21,365.58c-3-8-12-65-19-79s-16-55-16-55,2-44,17-44,23,8,33,0,30-17,41-9,18,9,25,5,26-4,32-8,18,5,29,0,35,8,43,6,26,8,32,13,11-6,19-1,14,26,19,30,15,0,18,8,14,21,12,28-11,17-6,20,23,4,24,15,14,49,21,55,14,5,12,16-1,49-35,72-120,27-175,27S450.21,365.58,450.21,365.58Z" style="fill:#2bbf11"/></clipPath><clipPath id="bf45c7fb-7d85-48f6-9fb9-ad2eae825d45"><path d="M477.21,553.58c4,12,11,33,24,43s34,28,50,29,37,9,47,13,16,0,22,15,4,31,15,34,32,6,42,10,26-3,46,0,28,6,40-9,10-17,17-27,21-23,18-40-5-30-14-39-168-32-170-32-121-18-121-18Z" style="fill:#2bbf11"/></clipPath><clipPath id="a09793ee-21f0-4356-abf1-a5672809dfe7"><path d="M376.21,377.58c-21-14-55-29-73-58s-32-73-31-79,22-28,32-37,35-21,47-20,3,5,12,8,17-4,25-8,11-9,24-9,30.47,6.47,39.74,16.24,25.26,15.76,23.26,40.76-3,25,0,44,10,22-3,40-20,23-19,39-8,33-8,33Z" style="fill:#2bbf11"/></clipPath><clipPath id="fc70bcae-ee83-4e4b-899d-74fa10b4c2fb"><path d="M191.21,399.58c1-12,2-16-9-21s-9-20-7-33,9-25,8-39-1-15,9-23,19-12,21-26,4-15,18-19,17-17,30-16,21-7,31,0,13,1,28,12,27,3,25,21-1,22,7,35,15,4,16,29,8,27,0,41-2,6-5,27-25,92-25,92-41-17-50-15-12,4-25,0-17,1-23-12-7-18-20-20-21-8-21-8Z" style="fill:#2bbf11"/></clipPath><clipPath id="f4d06f25-15fa-4791-b472-78d641a51ae5"><path d="M536.21,476.58c1-14,24-40,36-42s30-8,44-7,44-2,53-6,20-1,33-6,35-14,50-24,20.7-17,34.35-11.51,30.65,14.51,25.65,25.51-3,17,5,25,11,22,8,31-8,17-3,28,4,27,4,27-14,6-21,18-12,22-14,30-7,34-25,37-36-3-57,0-35,8-47,5-23,1-47-6-29-1-47-17-23-17-28-31-12-21-15-34S536.21,476.58,536.21,476.58Z" style="fill:#2bbf11"/></clipPath><clipPath id="b83ada2d-947f-4438-9907-4fb486533be4"><path d="M313.21,479.58c-13-7-21-16-13-29s21-14,24-23,1-12,3-20,9-5,19-16,6-23,22-31,16-5,32-11,32.18-13.92,44.59-8.46,20.41-.54,29.41,8.46,7,11,22,14,18,0,22,15,16,50,28,50,13,5,16,20,11,12,8,25,8,11,4,28,6,26-9,37-35,16-35,16-23-7-32,3-15,13-30,14-9,1-28,0-21,6-36-4-18-2-35-22-28-33-28-33Z" style="fill:#2bbf11"/></clipPath></defs><g id="ab75bb47-5287-4899-8fc4-06eee7674b32" data-name="Layer 3"><g id="f4999270-a04f-4401-9fe6-7d6a8e5f2954" data-name="Layer 4"><path d="M225.21,741.58s124-162,91-274l179,75-59,102s38-26,66-74l51,50s-151,99-188,205C365.21,825.58,276.21,815.58,225.21,741.58Z" style="fill:#83c500"/><g style="clip-path:url(#a47d6445-cb20-49a3-8e60-2a49eaec6467)"><path d="M318.71,493.08s22,33,23,39,18,29,21,33,45,22,52,22,29,1,29,1l-8,56,22-24,35.82-57.71-40.82-23.29L322.34,473.4Z" style="fill:#649100"/><path d="M487.71,586.08s16,29,17,30,1,22,1,22-61,39-63,43-42,37-49,46l-35,45s-38,22-42,23-87-40-87-40l17,33,82,41,40,5,20-34,60-80,40-15-6-19,79-70-71-40Z" style="fill:#649100"/><path d="M371.71,539.08s-40,91-56,130,53-88,78-112Z" style="fill:#649100"/><path d="M425.71,567.08s-24,51-32,66,48-71,48-71Z" style="fill:#649100"/><path d="M266.62,773s29.09-42.94,49.09-60.94-40,73-40,73Z" style="fill:#649100"/></g><path d="M450.21,365.58c-3-8-12-65-19-79s-16-55-16-55,2-44,17-44,23,8,33,0,30-17,41-9,18,9,25,5,26-4,32-8,18,5,29,0,35,8,43,6,26,8,32,13,11-6,19-1,14,26,19,30,15,0,18,8,14,21,12,28-11,17-6,20,23,4,24,15,14,49,21,55,14,5,12,16-1,49-35,72-120,27-175,27S450.21,365.58,450.21,365.58Z" style="fill:#2bbf11"/><g style="clip-path:url(#f3818993-f4ee-4d63-9348-e35f37501d21)"><path d="M707.71,204.08c1,2,23,62,13,77s-13,22-4,33,15,24,6,33-35,25-47,31-26,15-49,13-62-10-71-13-38,0-38,0l-20,28,23,50,98,23s100-11,103-12,81-56,81-56,26-59,24-61-71-90-71-90Z" style="fill:#176800;opacity:0.5"/></g><path d="M477.21,553.58c4,12,11,33,24,43s34,28,50,29,37,9,47,13,16,0,22,15,4,31,15,34,32,6,42,10,26-3,46,0,28,6,40-9,10-17,17-27,21-23,18-40-5-30-14-39-168-32-170-32-121-18-121-18Z" style="fill:#2bbf11"/><g style="clip-path:url(#bf45c7fb-7d85-48f6-9fb9-ad2eae825d45)"><path d="M803.71,610.08c-3,4-22,25-30,32s-20,22-25,29-21,18-31,14-24-6-24-6-23-1-29-8-19-11-23-13-16-20-24-22-38-14-43-15-75-17-75-17l42.39,28.76,70.61,22.24,13,39,70,18,63,2,35-36,16-50Z" style="fill:#176800;opacity:0.5"/></g><path d="M376.21,377.58c-21-14-55-29-73-58s-32-73-31-79,22-28,32-37,35-21,47-20,3,5,12,8,17-4,25-8,11-9,24-9,30.47,6.47,39.74,16.24,25.26,15.76,23.26,40.76-3,25,0,44,10,22-3,40-20,23-19,39-8,33-8,33Z" style="fill:#2bbf11"/><g style="clip-path:url(#a09793ee-21f0-4356-abf1-a5672809dfe7)"><path d="M405.71,157.08l-30,17s47,28,50,46-17.69,31.94-2.34,44,19.34,31,19.34,31l-7,17s-23,22-40,27-33,2-50-10-29-13-29-13l-28,3-26,2-13,34,39,39,53,18,73-5,84.52-33.35,11.48-64.65-5-82-36-66-46-10Z" style="fill:#176800;opacity:0.5"/></g><path d="M191.21,399.58c1-12,2-16-9-21s-9-20-7-33,9-25,8-39-1-15,9-23,19-12,21-26,4-15,18-19,17-17,30-16,21-7,31,0,13,1,28,12,27,3,25,21-1,22,7,35,15,4,16,29,8,27,0,41-2,6-5,27-25,92-25,92-41-17-50-15-12,4-25,0-17,1-23-12-7-18-20-20-21-8-21-8Z" style="fill:#2bbf11"/><g style="clip-path:url(#fc70bcae-ee83-4e4b-899d-74fa10b4c2fb)"><path d="M219.71,232.08s31-3,44-1,18,2,26,17,31,37,31,37L336,323l-2.75,33.38-17.56,27.66s9,26-11,36-37,8-37,8-15,2-36-4-41-10-41-10l-22-11,13,42s47,27,54,30,36,13,48,13h42l73-47,1-122L350.2,248l-73.49-57.91Z" style="fill:#176800;opacity:0.5"/></g><path d="M536.21,476.58c1-14,24-40,36-42s30-8,44-7,44-2,53-6,20-1,33-6,35-14,50-24,20.7-17,34.35-11.51,30.65,14.51,25.65,25.51-3,17,5,25,11,22,8,31-8,17-3,28,4,27,4,27-14,6-21,18-12,22-14,30-7,34-25,37-36-3-57,0-35,8-47,5-23,1-47-6-29-1-47-17-23-17-28-31-12-21-15-34S536.21,476.58,536.21,476.58Z" style="fill:#2bbf11"/><g style="clip-path:url(#f4d06f25-15fa-4791-b472-78d641a51ae5)"><path d="M802.71,368.08s-1,39,1,47-4,37-5,52-8,48-8,48-25,14-33,26-13,22-32,14-36,20-36,20l-52-2s-31.86,14.52-54,0-46-35-46-35l9-12-22,6L479.8,547l53.48,69.32s101.43,23.78,104.43,24.78,97,2,97,2l97-34,20-120-5-102-26-22Z" style="fill:#176800;opacity:0.5"/></g><path d="M313.21,479.58c-13-7-21-16-13-29s21-14,24-23,1-12,3-20,9-5,19-16,6-23,22-31,16-5,32-11,32.18-13.92,44.59-8.46,20.41-.54,29.41,8.46,7,11,22,14,18,0,22,15,16,50,28,50,13,5,16,20,11,12,8,25,8,11,4,28,6,26-9,37-35,16-35,16-23-7-32,3-15,13-30,14-9,1-28,0-21,6-36-4-18-2-35-22-28-33-28-33Z" style="fill:#2bbf11"/><g style="clip-path:url(#b83ada2d-947f-4438-9907-4fb486533be4)"><path d="M471.71,319.08c16,14,38,73,32,95s16,32-16,42-26,29-37,40-14.13,13.24-45.06,12.62-76-9.73-76-9.73-38-32.89-40-33.89-26,0-26,0l9,68,34.85,54.48,68.15,28.52,82-8.58,126.48-19.94,29.57-74.48-13-119-65-81Z" style="fill:#176800;opacity:0.5"/></g><path d="M289.21,646.58s6-51,3-62,28-12,28-12l-15,74Z" style="fill:#83c500"/><path d="M456.21,684.58s21,1,21,13-37,13-91,53Z" style="fill:#649100"/><path d="M293.66,274.9c-.31,1.39-.61,3.31.3,4.54a1.48,1.48,0,0,0,2.52,0c.53-1.1.51-2.35,1-3.49a2,2,0,1,0-3.79-1.05Z" style="fill:#229e08"/><path d="M263,290.8l-1.64,2.77a6.22,6.22,0,0,0-1.23,3.66,2.66,2.66,0,0,0,3.95,2.27,6.21,6.21,0,0,0,2.49-2.89l1.53-2.83a3,3,0,0,0-5.1-3Z" style="fill:#229e08"/><path d="M236.54,331.52c.83-.95,2.07-2,2.25-3.28a2.91,2.91,0,0,0-.74-2.82,3,3,0,0,0-2.82-.74c-1.34.29-2.22,1.45-3.14,2.4a3.14,3.14,0,0,0,4.45,4.44Z" style="fill:#229e08"/><path d="M280.18,323.22l1,.52a2.94,2.94,0,0,0,1.16.34l.53,0a1.5,1.5,0,0,0,1.29-2.25l-.24-.42a3.24,3.24,0,0,0-.89-.88l-.95-.66a1.93,1.93,0,0,0-2.63.69,2,2,0,0,0,.69,2.63Z" style="fill:#229e08"/><path d="M301,318.38c-.44,3.24-1.34,7.52,1,10.22a1.52,1.52,0,0,0,2.36-.3,7.88,7.88,0,0,0,1-4.64,51.94,51.94,0,0,1,.32-5.28A2.36,2.36,0,0,0,303.3,316a2.4,2.4,0,0,0-2.34,2.34Z" style="fill:#229e08"/><path d="M273.45,372l-.71,1.05a1.2,1.2,0,0,0,.42,1.61,1.21,1.21,0,0,0,1.61-.43l.7-1.05a1.17,1.17,0,0,0-2-1.18Z" style="fill:#229e08"/><path d="M217.21,392.29c-.32-1.76-.67-3.68-2.08-5a1.58,1.58,0,0,0-2.43.32c-1.14,1.53-1,3.58-1,5.38a2.81,2.81,0,1,0,5.53-.75Z" style="fill:#229e08"/><path d="M241.46,364.36c1.57-1.12,3.66-2.32,4.16-4.34a1.47,1.47,0,0,0-1.4-1.84c-1.91-.17-3.59,1.26-5,2.29a2.31,2.31,0,0,0-.8,3.08,2.27,2.27,0,0,0,3.08.81Z" style="fill:#229e08"/><path d="M292.81,363.1c.23,2.53.65,5.6,3.58,6.28a2.2,2.2,0,0,0,2.38-1,4.22,4.22,0,0,0,.73-2.85,14.91,14.91,0,0,0-.31-1.75c0-.2-.08-.41-.11-.61.05.31.05.28,0-.1A3.21,3.21,0,0,0,296,360c-1.57.07-3.31,1.39-3.14,3.14Z" style="fill:#229e08"/><path d="M286.65,401.67c-.27.55-.63,1.05-.92,1.58-.2.37.34-.36-.11.16-.23.25-.44.5-.68.74s-.41.38-.6.58-1.06,1.31-.53.65a6.5,6.5,0,0,0-1.15,1.87c-.05.13-.35.84-.09.25a3,3,0,0,0,2.51,4.37,6.49,6.49,0,0,0,5.33-2.26,15.59,15.59,0,0,0,2.72-4.15c.77-1.8.59-4.11-1.35-5.13a3.8,3.8,0,0,0-5.13,1.34Z" style="fill:#229e08"/><path d="M246.28,408.55c.28-.47.67-.86,1-1.32a3.86,3.86,0,0,0,.48-1.92,4.52,4.52,0,0,0-1.31-3.69,1.33,1.33,0,0,0-2.06.26,4.56,4.56,0,0,0-.36,3.93,4.36,4.36,0,0,0,.77,1.59c.39.44,1,.73,1.42,1.16a.05.05,0,0,0,.08,0Z" style="fill:#229e08"/><path d="M201,337.49a11.68,11.68,0,0,0-.6,3.44,1.6,1.6,0,0,0,3.13.42,11,11,0,0,0,.23-3.48,1.41,1.41,0,0,0-2.76-.38Z" style="fill:#229e08"/><path d="M209.86,310.31a14.85,14.85,0,0,0,1.1-4.37c0-1.46-2.18-2.2-2.88-.78a14.52,14.52,0,0,0-.93,4.4,1.44,1.44,0,0,0,1,1.73,1.42,1.42,0,0,0,1.73-1Z" style="fill:#229e08"/><path d="M233,265.34a17.18,17.18,0,0,0-.84,3.78,3.35,3.35,0,0,0,2.43,3.19,3.46,3.46,0,0,0,3.73-1.52,9.91,9.91,0,0,0,.88-2.06l.58-1.52a3.52,3.52,0,0,0-2.45-4.32,3.59,3.59,0,0,0-4.33,2.45Z" style="fill:#229e08"/><path d="M268.08,264.72l2.16-.68a6.24,6.24,0,0,0,1.35-.5,4.36,4.36,0,0,0,1.3-1.3,2.42,2.42,0,0,0-1.44-3.53,4.13,4.13,0,0,0-2.75.3l-2,.83a2.53,2.53,0,1,0,1.34,4.88Z" style="fill:#229e08"/><path d="M271.06,285.65c-.2.21-.42.4-.62.62a3.49,3.49,0,0,0-.41.54,2.3,2.3,0,0,0-.32,1.2l0,.31a2.07,2.07,0,0,0,.41,1.13,1.92,1.92,0,0,0,1,.68,2.58,2.58,0,0,0,2.17-.17c.25-.15.48-.32.73-.48a2.67,2.67,0,0,0,1.12-1.46,2.32,2.32,0,0,0-.44-2.12,2.44,2.44,0,0,0-3.64-.25Z" style="fill:#229e08"/><path d="M305.45,332.1c1.84-.07,4.14.18,5.48-1.35a2.15,2.15,0,0,0-.42-3.32c-1.86-1-3.79-.14-5.63.44a2.17,2.17,0,0,0-1.55,2.37,2.14,2.14,0,0,0,2.12,1.86Z" style="fill:#229e08"/><path d="M251.55,362.44a13.81,13.81,0,0,0,3.2-1.12,1.9,1.9,0,0,0-.95-3.5,13.48,13.48,0,0,0-3.38.55A2.12,2.12,0,0,0,249,361a2.16,2.16,0,0,0,2.6,1.48Z" style="fill:#229e08"/><path d="M218.28,404.86l.82.35c.22.09.48.23.69.29a4.82,4.82,0,0,0,.85.11,1.76,1.76,0,0,0,1.63-1.1,1.83,1.83,0,0,0-.37-1.95,6.52,6.52,0,0,0-1.58-1.18,2,2,0,0,0-2.76.72,2.08,2.08,0,0,0-.21,1.56,1.94,1.94,0,0,0,.93,1.2Z" style="fill:#229e08"/><path d="M215,377.57c.11-.46.24-.92.32-1.38a1.64,1.64,0,0,0-3-1.28c-.27.39-.49.82-.73,1.22a1.87,1.87,0,1,0,3.42,1.44Z" style="fill:#229e08"/><path d="M290.3,370.62a3.59,3.59,0,0,0,1.26-1.71,4.4,4.4,0,0,0,.1-1.2,1.93,1.93,0,0,0-1-1.66l-.2-.1a4,4,0,0,0-1.17-.38,2.51,2.51,0,0,0-1.38.19l-.53.22-.52.22a2.77,2.77,0,0,0-.79,4.14,2.81,2.81,0,0,0,4.19.28Z" style="fill:#229e08"/><path d="M201.22,289.78c2.57-1.54,5.31-2.71,7.88-4.23,1.56-.92.54-3.61-1.26-3a26.94,26.94,0,0,0-8.32,5c-1.26,1,.36,3,1.7,2.21Z" style="fill:#229e08"/><path d="M306.88,301.46l1.06,1a.42.42,0,0,0,.66-.51l-.77-1.27a.61.61,0,1,0-.95.74Z" style="fill:#229e08"/><path d="M315.25,217.21a5,5,0,0,1,1.09,0,3.16,3.16,0,0,0,1.31-.35,6.25,6.25,0,0,0,2-1.83,1.55,1.55,0,0,0-2.19-2.19,6.32,6.32,0,0,0-1.86,2,3.08,3.08,0,0,0-.36,1.21,6.4,6.4,0,0,1-.05,1.16,0,0,0,0,0,.06.06Z" style="fill:#229e08"/><path d="M347.22,205.14c1.52-.2,3-.37,4.57-.61a7.31,7.31,0,0,0,4-1.67c1.15-1,.4-2.74-.83-3.13-2.68-.88-5.72.4-8.36,1.08-2.34.6-1.93,4.66.58,4.33Z" style="fill:#229e08"/><path d="M352.93,222.74a9.87,9.87,0,0,0,5.27,4.34,1.91,1.91,0,0,0,2.26-1.11,2,2,0,0,0-.78-2.4,12.54,12.54,0,0,1-3.11-3,2.17,2.17,0,0,0-2.89-.76,2.13,2.13,0,0,0-.75,2.89Z" style="fill:#229e08"/><path d="M390.37,225.29c2.95-.51,6.17-.85,8.38-3a1.9,1.9,0,0,0-.82-3.14c-3.05-.61-5.95.65-8.88,1.39-3.15.79-1.78,5.32,1.32,4.79Z" style="fill:#229e08"/><path d="M381.39,256.3l-2.4,5.3a18,18,0,0,0-1.48,5.39c-.23,1.76,2.52,2.87,3.61,1.49a17.84,17.84,0,0,0,2.84-4.79l2.14-5.4c1.07-2.69-3.51-4.65-4.71-2Z" style="fill:#229e08"/><path d="M378.2,294.16a15,15,0,0,0,7-2.26.85.85,0,0,0-.85-1.46,48,48,0,0,1-6.33,2.43c-.69.18-.58,1.37.18,1.29Z" style="fill:#229e08"/><path d="M405.64,300.53a21.75,21.75,0,0,0,1.74-1.85c.51-.66,1-1.34,1.47-2a2,2,0,0,0-.53-2.66,2.11,2.11,0,0,0-2.71.16c-.57.48-1.19.93-1.72,1.45s-1,1.12-1.5,1.67a2.3,2.3,0,0,0,3.25,3.25Z" style="fill:#229e08"/><path d="M403.71,260.3l2.05,2.73a13.88,13.88,0,0,0,1.18,1.56,9,9,0,0,0,1.7,1.17c1.57,1,4.15-.68,3.37-2.6a17,17,0,0,0-.72-1.7,8.22,8.22,0,0,0-1.38-1.62l-2.37-2.49a2.44,2.44,0,0,0-3.2-.19,2.41,2.41,0,0,0-.63,3.14Z" style="fill:#229e08"/><path d="M429.23,296.56V297a.37.37,0,0,0,.37.37A.38.38,0,0,0,430,297v-.47a.39.39,0,0,0-.38-.38.38.38,0,0,0-.37.38Z" style="fill:#229e08"/><path d="M399.27,324.67c2.33-2.46,5.47-5,6-8.52a2,2,0,0,0-2.42-2.42c-3.53.72-5.82,3.9-8.15,6.37-2.86,3,1.71,7.61,4.57,4.57Z" style="fill:#229e08"/><path d="M413.62,281.32l1.17.94a1.85,1.85,0,0,0,1.2.5,1.72,1.72,0,0,0,1.19-.5,1.67,1.67,0,0,0,.5-1.19,1.64,1.64,0,0,0-.5-1.19l-1.17-.94a1.83,1.83,0,0,0-1.2-.5,1.73,1.73,0,0,0-1.19.5,1.71,1.71,0,0,0-.49,1.19,1.63,1.63,0,0,0,.49,1.19Z" style="fill:#229e08"/><path d="M412.28,220.75l-.23,4c-.07,1.1,1.59,1.08,1.68,0l.33-4c.1-1.14-1.71-1.15-1.78,0Z" style="fill:#229e08"/><path d="M386,200.2l.89.59a2.91,2.91,0,0,0,1.06.4.71.71,0,0,0,.8-1,5,5,0,0,0-.31-.49,2.81,2.81,0,0,0-.54-.49l-.91-.68a1,1,0,0,0-1.34.35,1,1,0,0,0,.35,1.35Z" style="fill:#229e08"/><path d="M353.93,255a15.09,15.09,0,0,0,.36,4.7,1,1,0,0,0,1.81,0,14.82,14.82,0,0,0,.36-4.7,1.27,1.27,0,0,0-2.53,0Z" style="fill:#229e08"/><path d="M358.6,283.06c1.64,1.51,4.29,3.89,6.62,2.5a2.23,2.23,0,0,0,1-2.48c-.49-1.43-1.56-2-2.9-2.43a11.39,11.39,0,0,1-2.12-1c-2.08-1.16-4.47,1.69-2.62,3.39Z" style="fill:#229e08"/><path d="M494,213.64a10.52,10.52,0,0,0,1.28-2.32c.08-.29.16-.58.25-.87a2.28,2.28,0,0,0-.74-2.52,3.39,3.39,0,0,0-3.16-.17,5.5,5.5,0,0,0-2.57,2.08,3.68,3.68,0,0,0-.92,2.22,3,3,0,0,0,1.24,2.47,3.15,3.15,0,0,0,4.62-.89Z" style="fill:#229e08"/><path d="M530.06,200.8a36.83,36.83,0,0,0,5.56-.35.62.62,0,0,0,0-1.18,34.46,34.46,0,0,0-5.56-.35.94.94,0,0,0,0,1.88Z" style="fill:#229e08"/><path d="M542,243.75c-.39,3.53-.72,8.38,2.31,10.86,1,.84,3.12.42,3-1.23a12,12,0,0,0-1.6-4.7,17,17,0,0,1-1.74-5.19c-.2-1.18-1.82-.75-1.93.26Z" style="fill:#229e08"/><path d="M513.9,271.36l-3.72,5.33c-1.13,1.61-2.17,3.48-1.63,5.49a1.61,1.61,0,0,0,1.54,1.17c2.23-.18,3.59-1.77,4.84-3.49s2.66-3.71,4-5.56c2.18-3-2.88-6-5-2.94Z" style="fill:#229e08"/><path d="M488.25,272.13c-1.64,1.85-4.61,5.51-2.81,8a2.66,2.66,0,0,0,2.92,1.19c1.72-.69,2.2-1.86,2.77-3.49a12.19,12.19,0,0,1,1.32-2.51c1.65-2.51-2.18-5.51-4.2-3.23Z" style="fill:#229e08"/><path d="M524.11,234.28a31.16,31.16,0,0,1,3-3.36,17.12,17.12,0,0,0,2.85-3.51c.67-1.08-.45-2.76-1.74-2.28a8.49,8.49,0,0,0-2.39,1.14,12.2,12.2,0,0,0-1.7,1.67,37.43,37.43,0,0,0-3,4.07c-1.12,1.75,1.61,4,3,2.27Z" style="fill:#229e08"/><path d="M537.23,288.38c3-.37,7-.48,9.5-2.31,1.51-1.11,1.19-4-1-3.85-3,.15-6,1.94-8.91,2.85-1.71.54-1.52,3.56.45,3.31Z" style="fill:#229e08"/><path d="M517.22,308.53l.2,1.62a12.89,12.89,0,0,0,.28,2.07c.45,1.41,1.67,2.88,3.31,2.63s2.44-1.91,2.39-3.41a20.82,20.82,0,0,0-.75-3.64,2.75,2.75,0,0,0-3-2,2.71,2.71,0,0,0-2.39,2.71Z" style="fill:#229e08"/><path d="M499.69,325.53c.93-.73,1.88-1.44,2.8-2.19a21.66,21.66,0,0,0,2.4-2.57,2.08,2.08,0,0,0,.17-2.71,2.05,2.05,0,0,0-2.67-.53,29.39,29.39,0,0,0-3.09,2.33c-.9.86-1.73,1.8-2.59,2.69a2.11,2.11,0,0,0,3,3Z" style="fill:#229e08"/><path d="M578.55,200.57,575,203.21c-1.33,1-2.34,1.73-2.79,3.37a1.56,1.56,0,0,0,1.49,2,5.75,5.75,0,0,0,3.82-1.48l3.43-2.44a2.43,2.43,0,0,0,.85-3.21,2.37,2.37,0,0,0-3.21-.84Z" style="fill:#229e08"/><path d="M579.13,234.14l3.9,3.18a1.3,1.3,0,0,0,1.79,0,1.27,1.27,0,0,0,0-1.79l-4-3.11a1.27,1.27,0,0,0-1.73,0,1.23,1.23,0,0,0,0,1.72Z" style="fill:#229e08"/><path d="M621.65,212.18c2.67.55,5.58,1.64,8.29.74,1.08-.36,1.57-2.1.35-2.66-2.68-1.23-5.52-.55-8.34-.29-1.18.11-1.64,1.93-.3,2.21Z" style="fill:#229e08"/><path d="M632.35,248a37,37,0,0,1,3.26,2.59,1.09,1.09,0,0,0,1.42.08,1.06,1.06,0,0,0,.28-1.39,16.51,16.51,0,0,0-3.73-3.39c-1.28-.9-2.54,1.24-1.23,2.11Z" style="fill:#229e08"/><path d="M609.87,283.08a44.09,44.09,0,0,0,5.21-5c.87-1.1-.25-3.09-1.65-2.14a45.88,45.88,0,0,0-5.62,5.09c-1.35,1.31.68,3.31,2.06,2.06Z" style="fill:#229e08"/><path d="M591.38,267.47a56.6,56.6,0,0,0,6.29-6.29c.72-.87-.45-2.1-1.26-1.26-2.07,2.13-4.12,4.28-6.29,6.29-.85.79.4,2,1.26,1.26Z" style="fill:#229e08"/><path d="M643.1,229.48a26.24,26.24,0,0,0,4.8.92c2,.13,2.89-3,1-3.84a24.72,24.72,0,0,0-4.62-1.51,2.3,2.3,0,0,0-1.22,4.43Z" style="fill:#229e08"/><path d="M603.07,188.55a9.14,9.14,0,0,0-2.34,1.57,12,12,0,0,0-1.55,2.25,2.08,2.08,0,0,0,2.83,2.82c.61-.37,1.26-.62,1.88-1s1.19-.81,1.83-1.15a2.65,2.65,0,0,0,.94-3.59,2.68,2.68,0,0,0-3.59-.94Z" style="fill:#229e08"/><path d="M673.9,222.88a63.69,63.69,0,0,0,7.11,2.24c.83.18,1.48-1.06.62-1.46a66.18,66.18,0,0,0-7.23-2.59c-1.16-.37-1.64,1.42-.5,1.81Z" style="fill:#229e08"/><path d="M690.82,258.12c2,3.29,4.82,6.94,8.8,7.77a1.7,1.7,0,0,0,1.65-2.82c-2.15-2.72-5.21-4.57-7.43-7.28-1.39-1.7-4.15.5-3,2.33Z" style="fill:#229e08"/><path d="M665.61,287.16c-1.83,1.6-3.62,3.26-5.36,4.94s-3.32,3.13-4.09,5.46a1.75,1.75,0,0,0,2.55,1.95c2-1.18,3.16-3,4.62-4.81a69.07,69.07,0,0,1,4.67-5.15c1.54-1.56-.76-3.8-2.39-2.39Z" style="fill:#229e08"/><path d="M656.75,266.53a29.33,29.33,0,0,0,5.43-1.65c2.18-1,1-4.26-1.16-4.28a30.53,30.53,0,0,0-5.69.77,2.68,2.68,0,0,0,1.42,5.16Z" style="fill:#229e08"/><path d="M631,316.39l.53,1.32a.94.94,0,0,0,1.81-.5l-.53-1.31a.94.94,0,1,0-1.81.49Z" style="fill:#229e08"/><path d="M565.37,341.9c1.28-1.33,2.59-2.65,3.93-3.94a15.44,15.44,0,0,0,3.4-4.15c.45-.92-.32-2.37-1.49-1.93-3.49,1.32-6.07,4.65-8.56,7.31-1.69,1.8,1,4.5,2.72,2.71Z" style="fill:#229e08"/><path d="M598.66,357.09a35.68,35.68,0,0,0,4.48,2c.86.27,1.25-.91.58-1.37a33.25,33.25,0,0,0-4.11-2.23c-1.08-.55-2,1.1-1,1.62Z" style="fill:#229e08"/><path d="M651,357.72a91.84,91.84,0,0,0,7.76-5.33c.63-.52,0-1.72-.82-1.41a93,93,0,0,0-8.36,4.31c-1.61.84-.08,3.44,1.42,2.43Z" style="fill:#229e08"/><path d="M691.65,322.7c-.29,2.95-.84,6.73,1.56,8.92a1.47,1.47,0,0,0,2.28-.3,6.72,6.72,0,0,0,.37-4.34c-.26-1.58-.72-3.13-1-4.72-.34-1.95-3.06-1.26-3.22.44Z" style="fill:#229e08"/><path d="M653.84,326.85l-1.1,1.9a6.79,6.79,0,0,0-.52,1,3.71,3.71,0,0,0-.16,1.36,1.41,1.41,0,0,0,2.11,1.22,6.53,6.53,0,0,0,.91-.65,4.24,4.24,0,0,0,.69-1.16l1-2a1.73,1.73,0,0,0-.6-2.31,1.71,1.71,0,0,0-2.31.6Z" style="fill:#229e08"/><path d="M583.33,302.43A13.24,13.24,0,0,0,579.5,307a2.1,2.1,0,0,0,.53,2.66,2,2,0,0,0,2.71-.16,53.1,53.1,0,0,1,3.37-4.24,2,2,0,0,0-2.78-2.79Z" style="fill:#229e08"/><path d="M566.78,362.39c.93,1.55,1.76,3.47,3.65,4a1.56,1.56,0,0,0,1.9-1.08c.47-1.93-.78-3.61-1.67-5.21a2.25,2.25,0,1,0-3.88,2.28Z" style="fill:#229e08"/><path d="M533.63,360.25c1-.83,2.13-1.4,3.16-2.15a7,7,0,0,0,2.11-2.63c.42-.79-.5-2-1.35-1.35a7.16,7.16,0,0,0-2.39,2.62c-.56,1.13-.95,2.37-1.61,3.45,0,.05,0,.09.08.06Z" style="fill:#229e08"/><path d="M419.75,389.29a15.45,15.45,0,0,0,3.56-4c1.14-1.9-1.54-4-3.09-2.39-.53.56-1.05,1.12-1.61,1.64a12.22,12.22,0,0,1-1.53,1.25,2.2,2.2,0,1,0,2.67,3.46Z" style="fill:#229e08"/><path d="M456.22,381.11c3.25-.38,6.52-.32,9.71-1a1,1,0,0,0,0-2c-3.22-.77-6.45-.37-9.71,0-1.9.22-1.92,3.22,0,3Z" style="fill:#229e08"/><path d="M455.46,410.55c.16,2.88-.31,6.82,1.37,9.25a1.71,1.71,0,0,0,2.91,0,7.2,7.2,0,0,0,.68-4.41l-.28-4.84c-.17-3-4.86-3-4.68,0Z" style="fill:#229e08"/><path d="M408,445.54a.38.38,0,0,0,0-.75.38.38,0,0,0,0,.75Z" style="fill:#229e08"/><path d="M372.65,441.72c2.27-4.7,5.66-9.81,6.53-15,.25-1.51-1.51-2.88-2.74-1.6-3.64,3.78-5.68,9.43-8.08,14.06-1.48,2.85,2.9,5.37,4.29,2.51Z" style="fill:#229e08"/><path d="M415.31,424.32l2.1.22c.67.06.84-1.1.16-1.2l-2.09-.31a.65.65,0,1,0-.17,1.29Z" style="fill:#229e08"/><path d="M425.57,447.27a41.29,41.29,0,0,0,0,4.72c.06.53.89.75,1,.13a41.53,41.53,0,0,0,.51-4.85c.09-.95-1.48-1-1.5,0Z" style="fill:#229e08"/><path d="M389.74,475.21a15.66,15.66,0,0,0-4.81-1.76,6.79,6.79,0,0,0-4.95,1.18,1.43,1.43,0,0,0,.34,2.57,14.56,14.56,0,0,0,4,.32,21,21,0,0,1,4.48-.09c1.25.23,2.29-1.62.94-2.22Z" style="fill:#229e08"/><path d="M428.88,470a26,26,0,0,0-1.71,3.16,13.6,13.6,0,0,0-.76,1.81,5.15,5.15,0,0,0,.22,2.58,2.42,2.42,0,0,0,4,1.06,6.06,6.06,0,0,0,1.26-1.32,10.09,10.09,0,0,0,.68-1.86,20.88,20.88,0,0,1,1.17-2.6c1.68-3.2-2.93-5.91-4.86-2.83Z" style="fill:#229e08"/><path d="M482.1,436.93c-3.42,1.26-7.19,2.3-10,4.66a1.28,1.28,0,0,0,.9,2.16c3.51,0,7-1.49,10.34-2.39,2.88-.76,1.53-5.44-1.22-4.43Z" style="fill:#229e08"/><path d="M398.13,388.36c-.18.8-.38,1.6-.54,2.4a8.46,8.46,0,0,0,.15,3.05,2.13,2.13,0,0,0,1.79,1.55,2.17,2.17,0,0,0,2.15-1,7.52,7.52,0,0,0,1.07-2.32c.15-.75.24-1.52.36-2.28a2.65,2.65,0,0,0-1.81-3.17,2.62,2.62,0,0,0-3.17,1.8Z" style="fill:#229e08"/><path d="M353.93,419l2.61-1.84a11.21,11.21,0,0,0,2.56-2.8c1.28-1.76-.82-3.87-2.64-3.44a9.52,9.52,0,0,0-3.11,1.13l-2.55,1.61a3.14,3.14,0,0,0-1.11,4.23c.85,1.31,2.82,2.11,4.24,1.11Z" style="fill:#229e08"/><path d="M330.33,469.32c2,3.12,5.05,6.58,8.94,6.9,1.76.15,2.51-2.22,1.39-3.36a28.54,28.54,0,0,0-3.66-2.7,14.66,14.66,0,0,1-3-3,2.19,2.19,0,0,0-2.89-.75,2.13,2.13,0,0,0-.76,2.88Z" style="fill:#229e08"/><path d="M434.45,358.55a.19.19,0,0,0,0-.37.19.19,0,0,0,0,.37Z" style="fill:#229e08"/><path d="M419.25,359l5.26-1.79a2.12,2.12,0,0,0,1.44-2.54,2.08,2.08,0,0,0-2.54-1.44l-5.23,1.88a2.08,2.08,0,0,0-1.41,2.48,2,2,0,0,0,2.48,1.41Z" style="fill:#229e08"/><path d="M598.66,459.64l2.62-2.1a1.56,1.56,0,0,0,0-2.19,1.59,1.59,0,0,0-2.19,0l-2.62,2.1a1.57,1.57,0,0,0,0,2.19,1.6,1.6,0,0,0,2.19,0Z" style="fill:#229e08"/><path d="M636.75,447.34l1.82-.35a1.32,1.32,0,0,0-.35-2.58l-1.84.17a1.4,1.4,0,1,0,.37,2.76Z" style="fill:#229e08"/><path d="M635.17,463.26c-.1,4.77-1.29,10,2.43,13.74a2,2,0,0,0,3.37-.89c.89-4.55-1.63-8.39-1.77-12.85a2,2,0,0,0-4,0Z" style="fill:#229e08"/><path d="M615.41,502.66c-2,2.81-4.48,5.31-6,8.43a.8.8,0,0,0,1.25,1c2.52-2.47,4.13-5.68,6.18-8.54.63-.89-.83-1.73-1.46-.86Z" style="fill:#229e08"/><path d="M588.13,498.37c-1.07-2.27-1-4.75-1.9-7.1-.68-1.85-3.66-2.23-4.16,0-.76,3.37.71,6.39,2.42,9.23,1.42,2.37,4.78.3,3.64-2.13Z" style="fill:#229e08"/><path d="M643.77,510.45a19.73,19.73,0,0,0,6.45-3.46,1.42,1.42,0,0,0-1-2.4,18.64,18.64,0,0,0-6.63,1.61,2.27,2.27,0,0,0-1.53,2.72,2.21,2.21,0,0,0,2.71,1.53Z" style="fill:#229e08"/><path d="M680.56,487.51c2.27-2,4.76-4.11,6.2-6.82a1.24,1.24,0,0,0-1.38-1.79c-3.11,1-5.72,3.2-8.21,5.23a2.41,2.41,0,0,0,0,3.38,2.45,2.45,0,0,0,3.39,0Z" style="fill:#229e08"/><path d="M683.83,449.61a21.33,21.33,0,0,1,5.25-3,2.56,2.56,0,0,0,1-3.22,2.62,2.62,0,0,0-3-1.49,15.86,15.86,0,0,0-7.44,3.53c-1.26,1-1,3.15,0,4.18a3,3,0,0,0,4.18,0Z" style="fill:#229e08"/><path d="M714.11,467.6a19.61,19.61,0,0,0,3.2,6,1.23,1.23,0,0,0,2-1.19c-.67-1.91-1.55-3.72-2.26-5.62s-3.68-1-3,.83Z" style="fill:#229e08"/><path d="M699.88,506.27c-1.82,3.27-4.36,6.68-4.55,10.52-.08,1.58,1.84,2.07,2.88,1.19,2.76-2.33,3.9-6.36,5.31-9.58,1.06-2.43-2.29-4.57-3.64-2.13Z" style="fill:#229e08"/><path d="M643.26,554.06l1.57-2.88A2.2,2.2,0,1,0,641,549l-1.57,2.89a2.2,2.2,0,1,0,3.8,2.22Z" style="fill:#229e08"/><path d="M667.16,548.86c1.41-1.11,2.83-2.17,4.31-3.18s2.75-1.91,3.3-3.8a1.75,1.75,0,0,0-2.13-2.13c-1.92.33-2.9,1.6-4.11,3s-2.37,2.6-3.62,3.86c-1.48,1.49.69,3.49,2.25,2.25Z" style="fill:#229e08"/><path d="M663.91,527.76a14,14,0,0,0,3.22,2.36c1.41.74,3.64,1,4.82-.31a2.1,2.1,0,0,0,.55-2c-.87-2.47-3.82-2.48-5.81-3.6-2.23-1.26-4.72,1.77-2.78,3.6Z" style="fill:#229e08"/><path d="M602.52,549.41l1.57-.52a3,3,0,0,0,1.71-1.32,2.86,2.86,0,0,0-3.23-4.2l-1.57.53a3,3,0,0,0-1.71,1.31,2.85,2.85,0,0,0,1,3.91,2.83,2.83,0,0,0,2.2.29Z" style="fill:#229e08"/><path d="M606.19,563.67l1.63-1.46a4,4,0,0,0,1.26-2.46,1.91,1.91,0,0,0-1.8-2.37,4,4,0,0,0-2.75.56l-1.86,1.17a2.9,2.9,0,1,0,3.52,4.56Z" style="fill:#229e08"/><path d="M701.58,536.43a13,13,0,0,0,1.49,5c.93,1.68,2.74,3.79,4.87,2.94a1.92,1.92,0,0,0,1.27-1.89,3.58,3.58,0,0,0-1.4-2.55,8.25,8.25,0,0,1-2.45-4c-.5-2.06-4-1.68-3.78.51Z" style="fill:#229e08"/><path d="M737.11,525.78a10.7,10.7,0,0,0-1.35,2.43,4.57,4.57,0,0,0-.25,2.94,1.89,1.89,0,0,0,3.14.83,7.51,7.51,0,0,0,.77-.92c.19-.3.31-.65.48-1a8.85,8.85,0,0,1,.5-.84s.28-.37.18-.25l.29-.32a2.39,2.39,0,1,0-3.76-2.9Z" style="fill:#229e08"/><path d="M734.19,496a.19.19,0,0,0,0-.38.19.19,0,0,0,0,.38Z" style="fill:#229e08"/><path d="M732.84,498c3-2.14,6.26-4.12,8.76-6.91.75-.83,0-2.48-1.19-2-3.5,1.29-6.5,3.44-9.6,5.47-2.18,1.42-.09,5,2,3.48Z" style="fill:#229e08"/><path d="M749.47,467.91c1.5,1.31,3.23,2.81,5.21,3.24a.8.8,0,0,0,.61-1.45c-1.55-1.12-3.41-1.76-5-2.82-.61-.4-1.36.54-.79,1Z" style="fill:#229e08"/><path d="M772,485.86a0,0,0,1,0,0-.09,0,0,0,1,0,0,.09Z" style="fill:#229e08"/><path d="M765.75,495.35c-2,2.91-4,6-3.33,9.67.35,1.8,2.58,2,3.76,1,2.35-2,3.13-5.12,4.59-7.74,1.85-3.31-2.9-6-5-2.93Z" style="fill:#229e08"/><path d="M772.23,462.85l2.62-.53a2,2,0,0,0,1.41-2.48,2.07,2.07,0,0,0-2.48-1.41l-2.62.53a2,2,0,0,0-1.41,2.48,2.07,2.07,0,0,0,2.48,1.41Z" style="fill:#229e08"/><path d="M784.67,416.58a23.13,23.13,0,0,0,.14,4.16c.18,1.36,1.17,3.2,2.8,2.95s1.7-2.11,1.44-3.31c-.31-1.43-.84-2.78-1.07-4.24-.31-2-3.21-1.35-3.31.44Z" style="fill:#229e08"/><path d="M761.45,408.83l-1.32.79a1.08,1.08,0,0,0,1.09,1.86l1.31-.78a1.08,1.08,0,0,0-1.08-1.87Z" style="fill:#229e08"/><path d="M718.72,437.08c3.08-.13,7-1.1,8-4.5a2.07,2.07,0,0,0-1.41-2.48c-2-.84-4.7-.09-6.56.14a3.53,3.53,0,0,0-3.42,3.42,3.46,3.46,0,0,0,3.42,3.42Z" style="fill:#229e08"/><path d="M757.79,433c1,.08,1.92.21,2.88.24a6.31,6.31,0,0,0,3-.92,1.81,1.81,0,0,0,0-3.08,5.87,5.87,0,0,0-3-1.13c-1-.06-1.92-.05-2.88-.08a2.49,2.49,0,0,0,0,5Z" style="fill:#229e08"/><path d="M518.62,579.57a18.76,18.76,0,0,0,4.27-1.67.66.66,0,0,0-.33-1.22,19.19,19.19,0,0,0-4.44,1.08c-1.15.35-.64,2.19.5,1.81Z" style="fill:#229e08"/><path d="M536.14,576.83l1.61,2.86a1.55,1.55,0,1,0,2.67-1.56l-1.53-2.91a1.59,1.59,0,0,0-2.75,1.61Z" style="fill:#229e08"/><path d="M545.52,601.75c1.93-.83,3.82-1.57,5.12-3.31.6-.79-.22-1.79-1-1.83-2.16-.11-4.06,1-5.91,2a1.86,1.86,0,0,0-.66,2.5,1.88,1.88,0,0,0,2.5.66Z" style="fill:#229e08"/><path d="M575.17,607.86l2.87,3.08a24,24,0,0,0,3.35,2.84,2.37,2.37,0,0,0,3.08-.62,2.44,2.44,0,0,0-.18-3.14,22.11,22.11,0,0,0-2.76-2.88l-3-2.59c-2.28-1.94-5.4,1.08-3.31,3.31Z" style="fill:#229e08"/><path d="M612.21,611.85c-.5,0-1-.26-1.46-.27a5.55,5.55,0,0,0-2.07.56,6.91,6.91,0,0,0-3.3,3.15,2.21,2.21,0,0,0,.34,2.61,2.25,2.25,0,0,0,2.61.34,6.57,6.57,0,0,0,3.34-3,5.19,5.19,0,0,0,.68-1.84c0-.52-.12-1-.09-1.54,0,0,0,0,0,0Z" style="fill:#229e08"/><path d="M627.2,612.3a10.22,10.22,0,0,0-1.11,3c-.21,1.19.15,2.91,1.31,3.55s2.25-.37,2.86-1.38a7.28,7.28,0,0,0,.65-1.7,4.59,4.59,0,0,1,.5-1,2.44,2.44,0,0,0-4.21-2.46Z" style="fill:#229e08"/><path d="M628.89,634.71c2.52,1.47,5.25,3.36,8.28,3.35a1.76,1.76,0,0,0,1.23-3c-1.83-2.12-4.76-3.1-7.14-4.44-2.63-1.48-5,2.52-2.37,4.05Z" style="fill:#229e08"/><path d="M660.88,624.06c2.39-1.14,5.29-2.09,7.14-4.07a1,1,0,0,0-1-1.64c-2.68.37-5.15,2.22-7.46,3.52-1.44.81-.17,2.88,1.28,2.19Z" style="fill:#229e08"/><path d="M682.75,627.43c0,2.36.19,4.68,1.66,6.6.52.67,1.87.8,2.06-.27.34-1.92.24-3.84.51-5.76a2.15,2.15,0,1,0-4.23-.57Z" style="fill:#229e08"/><path d="M667.72,643c-.83,2.48-1.66,5.92.34,8a2.15,2.15,0,0,0,3.32-.43,6.09,6.09,0,0,0,.81-3.34,12.12,12.12,0,0,1,.59-2.86c1-3.25-4-4.58-5.06-1.4Z" style="fill:#229e08"/><path d="M692.93,655.35a34.28,34.28,0,0,0-4.35,1.24,13.63,13.63,0,0,0-4,2.49c-1.78,1.45.14,4.38,2.19,3.76,2.59-.78,4.89-2,7.4-3,2.77-1.09,1.76-5.2-1.24-4.52Z" style="fill:#229e08"/><path d="M717.56,632.82a25.22,25.22,0,0,1,1.89-1.84,7.64,7.64,0,0,0,1-.9,10.55,10.55,0,0,0,.8-1.28,1.71,1.71,0,0,0-1.91-2.48,8,8,0,0,0-1.43.49,5.79,5.79,0,0,0-1.35,1.07,25.93,25.93,0,0,0-1.9,2,2.12,2.12,0,0,0,0,2.92,2.1,2.1,0,0,0,2.92,0Z" style="fill:#229e08"/><path d="M741.8,615.14l2.62.21c.67.06.64-1,0-1L741.8,614c-.71-.08-.73,1.07,0,1.13Z" style="fill:#229e08"/><path d="M767.47,617.45c-1.31,3.25-2.66,7-1.39,10.49a2,2,0,0,0,3.6.47c1.75-2.58,2.12-5.78,3.36-8.61a3,3,0,1,0-5.57-2.35Z" style="fill:#229e08"/><path d="M743.3,638.89a42,42,0,0,0-2.71,3.25,6.4,6.4,0,0,0-1.59,3.64,1.23,1.23,0,0,0,1.55,1.18,7.88,7.88,0,0,0,2.85-2.41,38.24,38.24,0,0,1,2.68-2.87c1.82-1.78-1.06-4.65-2.78-2.79Z" style="fill:#229e08"/><path d="M722.68,664.89a19.1,19.1,0,0,1-1.91,3.19,5.69,5.69,0,0,0-1,1.79,2.49,2.49,0,0,0,1,2.72c2.91,1.7,5.34-3,6.33-5.1a2.64,2.64,0,0,0-.92-3.53,2.6,2.6,0,0,0-3.53.93Z" style="fill:#229e08"/><g style="opacity:0.26"><path d="M546.51,304.37c.67-1.05,1.44-2.06,2.09-3.12,1.37-2.21-1.78,1.93-.11.12a46.94,46.94,0,0,0,6.39-8c1.3-2.27,2.3-4.68,3.66-6.93.54-.89,1.1-1.77,1.69-2.64.33-.49,3-4,1.18-1.73-1.68,2,.59-.61.9-1,.87-1,1.75-1.94,2.68-2.86,1.65-1.67,3.5-3.13,5.17-4.78s3.3-3.56,5.09-5.21c.8-.74,1.64-1.42,2.45-2.15-2.58,2.32,1.38-1,1.67-1.19l-8.61,2.33a52.08,52.08,0,0,1,7.9,0c.73.05,5.44.32,1.94.16-3.34-.16,1.21.33,1.7.44,1,.23,2,.49,3,.77.63.18,5.6,1.95,1.32.23-4.07-1.64,0,.29.88.74,4.14,2.06-5.51-5.08-2.16-1.54l-4.83-6.26a6.88,6.88,0,0,1,1.18,2l-3.23-7.65.29,1.09-1.16-8.66,0,1.14,1.18-8.81-.27,1.13,8.68-14.88-.58.74,15.22-8.88-.66.1,9.49-1.28-.6,0,9.81,1.32a4.4,4.4,0,0,1-1.13-.37l9.43,4a5.35,5.35,0,0,1-1-.67l8.52,6.59a6.75,6.75,0,0,1-.89-1l7,9.11a11.28,11.28,0,0,1-1-1.72l5,11.87a3.52,3.52,0,0,1-.22-1.07l1.89,14.1c-.45-10-2.62-20.37-7.71-29.07-5.56-9.49-13.88-16.48-23-22.34-4-2.59-7.84-5.67-12-8-5.91-3.28-12.82-6.23-19.58-7.37s-14.15-2.58-21.2-2.59a93.81,93.81,0,0,0-21,2.64,30.1,30.1,0,0,0-3,.89c-5.21,1.81-11.93,4.3-16.68,7.14-16.05,9.6-26.42,23.4-32.29,40.91a36.14,36.14,0,0,0-1.32,5.31c-1.09,6.28-2.25,12.86-2.34,19.28-.21,16.54,4.24,31.86,11.67,46.42l-4.83-11.44A66.71,66.71,0,0,0,502,321.41c5.83,10.38,17.2,18.86,28.61,22s26.72,1.73,36.89-4.83,19.22-16.4,22-28.61c3-13,1.21-24.93-4.83-36.89q-.69-1.29-1.26-2.64l4.83,11.45a34.92,34.92,0,0,1-1.58-5.68v25.47a37.43,37.43,0,0,1,2.16-6.86l-5.09,12.07a52.77,52.77,0,0,1,5.83-9.74L581,308.24a40.16,40.16,0,0,1,5.74-5.92L575,311.37a57.82,57.82,0,0,1,9.53-5.5L570.05,312a24.61,24.61,0,0,1,4.61-1.27l-16.18,2.17a30.92,30.92,0,0,1,6.38.07l-16.28-2.18c2.77.46,5.3,1.36,8,2.06,7.28,1.87,15.19,2.13,22.7,2.82,21.57,2,42.38-4.34,56.14-22.15,7.26-9.39,12.92-22,12.61-34.34a62.26,62.26,0,0,0-1.8-13.26c-1.48-5.82-5.92-14.15-10.78-18.09l5.39,7c-7.74-11.32-18.22-19.2-32.46-19.48-9-.18-15.42,2.95-23.44,6.17,1.06-.42,5.29-2.23,1.92-.83-2.47,1-5,2-7.38,3.13a66.06,66.06,0,0,0-6.17,3.26,112.74,112.74,0,0,0-14.62,11l7.53-4.39A60.26,60.26,0,0,0,531,255.31c-4.35,5.47-8.41,11.08-11.29,17.48-3.45,7.66-3.65,15.45-2.59,23.63.86,6.73,4.26,13.53,11.56,15.19a16.36,16.36,0,0,0,17.79-7.24Z" style="fill:#7bf25f"/></g><g style="opacity:0.26"><path d="M373.76,456.78a158,158,0,0,0,18.58-6.3c9.25-3.59,17.27-8.89,26.31-12.83l-9.81,4.15c8-3.29,16-6.32,22.19-12.71,5.85-6,9.15-13.53,11.53-21.44,6.07-20.14-7.27-41.59-26.87-47.33-15.85-4.64-33.76-1-45.37,11.15a132.81,132.81,0,0,0-13,16.77c-6,8.81-9.25,18.76-13.36,28.53l3.08-7.32c-1.14,2.64-2.35,5.25-3.68,7.8-5.08,9.76-4.75,21,2.1,29.89a27.14,27.14,0,0,0,28.28,9.64Z" style="fill:#7bf25f"/></g><g style="opacity:0.26"><path d="M626.91,506.24q6.09.12,12.17.44c6.69.37,13.4-1.21,20-2.11l-9.65,1.3c7.89-1,15.81-1.82,23.76-2.29,3.82-.22,7.64-.28,11.46-.5,12.13-.66,22.44-4.9,30-14.32,5.41-6.74,10.06-14.18,9.65-23.31a35.62,35.62,0,0,0-9.65-23.32c-5.22-5.68-11.59-10.38-19.13-12.46-5.82-1.6-11.7-1.3-17.58-.69-8.68.91-17.34,2.08-26,3.42-5.93.92-12,1.8-17.84,3.29-8,2.06-16.12,6.78-23.5,10.63-12.06,6.31-19,23.33-14.77,36.32,4.43,13.7,16.36,23.31,31,23.6Z" style="fill:#7bf25f"/></g><g style="opacity:0.26"><path d="M242.91,369.63c8.25-5.72,16.85-13.39,22.09-22,3.42-5.61,6.51-11.24,10.52-16.48l-6.74,8.72c5.83-7.29,11.94-13.73,14.42-23.19a65.38,65.38,0,0,0,1.87-17.57,42,42,0,0,0-20.54-35.8c-13.53-7.92-28.26-6.65-41.86,0-12.23,6-23.35,18.48-25.59,32.17a171.35,171.35,0,0,0-2.61,24.13c0,2.16,0,4.33.05,6.49,0,1.38.12,2.73.25,4.11l1.33,9.9,3.75,8.89c1.54,3.56,2.94,7.41,5.07,10.64,7.76,11.79,25.11,18.89,38,10Z" style="fill:#7bf25f"/></g><g style="opacity:0.26"><path d="M352,241.78c-2.89,7.65-4.6,15.21-2.17,23.4,3.64,12.26,10.21,22.89,23.25,26.49s29.25-4.47,32.32-18.36A31,31,0,0,0,403.66,253,38.38,38.38,0,0,0,397,242.94c-3-3.52,2.88,3.82.87,1.16-2.28-3-4.24-5.69-7.24-8a37.81,37.81,0,0,0-9.91-5.15c-1.51-.59-6.93-2.86-1.18-.37-11.81-5.1-22.9-1.1-27.54,11.21Z" style="fill:#7bf25f"/></g></g></g></svg>