<svg xmlns="http://www.w3.org/2000/svg" xmlns:xlink="http://www.w3.org/1999/xlink" viewBox="0 0 1000 1000"><defs><clipPath id="aa3611bd-9087-4217-bd44-4abd2aa159bc"><polygon points="551.44 603.14 775.01 391.34 795.93 425.33 586.74 724.73 551.44 603.14" style="fill:#2bbf11"/></clipPath><clipPath id="b9e40528-f9d7-4ef2-818a-214e8f1278f8"><path d="M217.68,589.35s-107.5-48.13-124-147.9,99.82-90.12,137.76-59.16l1.68,23.78s-90.92-37.16-108.18-3.16c-13.85,27.27,9.38,108.8,99.09,158.18Z" style="fill:#2bbf11"/></clipPath><clipPath id="b061ea3c-5d6e-40bb-9c9d-e13c870c0241"><path d="M572.12,732.09H235a26.81,26.81,0,0,1-26.81-26.81l20.29-383.82a9,9,0,0,1,9-8.54H570.94a9.43,9.43,0,0,1,9.42,9l18.57,383.39A26.82,26.82,0,0,1,572.12,732.09Z" style="fill:#2bbf11"/></clipPath><clipPath id="a0472ff8-6e32-4506-aef4-d848c363ea3f"><path d="M793.93,282.91l-19,112s2,17,8,26,13,8,13,8l112-6Z" style="fill:#2bbf11"/></clipPath></defs><g id="e439ed7f-d951-4295-a722-fe91bbf305f5" data-name="Layer 3"><g id="b91b0112-135b-4184-a054-87da22e3d26d" data-name="Layer 4"><polygon points="551.44 603.14 775.01 391.34 795.93 425.33 586.74 724.73 551.44 603.14" style="fill:#2bbf11"/><g style="clip-path:url(#aa3611bd-9087-4217-bd44-4abd2aa159bc)"><polyline points="783.73 339 620.55 685.6 834.93 398.91 783.73 339" style="fill:#176800;opacity:0.5"/></g><path d="M217.68,589.35s-107.5-48.13-124-147.9,99.82-90.12,137.76-59.16l1.68,23.78s-90.92-37.16-108.18-3.16c-13.85,27.27,9.38,108.8,99.09,158.18Z" style="fill:#2bbf11"/><g style="clip-path:url(#b9e40528-f9d7-4ef2-818a-214e8f1278f8)"><path d="M130.2,396.23s-23.27,8.68-8.27,67.68,101,129,101,129l10-50-83-70L130.2,396.23" style="fill:#176800;opacity:0.5"/><path d="M236.93,409.91s-46-50-112-44l13-13,72,8,28,18Z" style="fill:#176800;opacity:0.5"/></g><path d="M572.12,732.09H235a26.81,26.81,0,0,1-26.81-26.81l20.29-383.82a9,9,0,0,1,9-8.54H570.94a9.43,9.43,0,0,1,9.42,9l18.57,383.39A26.82,26.82,0,0,1,572.12,732.09Z" style="fill:#2bbf11"/><g style="clip-path:url(#b061ea3c-5d6e-40bb-9c9d-e13c870c0241)"><path d="M428.93,296.91s98,27,112,64,61,457-353,322l11,49,86,19,345-1-44-458Z" style="fill:#176800;opacity:0.5"/></g><path d="M793.93,282.91l-19,112s2,17,8,26,13,8,13,8l112-6Z" style="fill:#2bbf11"/><g style="clip-path:url(#a0472ff8-6e32-4506-aef4-d848c363ea3f)"><polygon points="898.93 385.91 777.93 428.91 808.93 437.91 917.93 428.91 898.93 385.91" style="fill:#176800;opacity:0.5"/></g><circle cx="403.93" cy="483.91" r="68" style="fill:#ffd522"/><circle cx="401.91" cy="487.5" r="10" style="fill:#2bbf11"/><path d="M406.07,477.06c-2.4-9.16-3.7-18.77-.54-27.92,3.41-9.89,13.91-17.38,24-11.13,9.85,6.08,6.22,19-.27,26.15-6,6.62-14.34,9.39-22.69,11.81-2.92.84-2.51,5.94.74,5.52,11.49-1.49,22.54-7.9,28.06-18.35,4.67-8.83,5.72-21.19-3.9-27.07-8.5-5.2-19.72-1.12-25.75,6-8.78,10.35-7.39,24-4.18,36.24.77,2.91,5.29,1.68,4.52-1.25Z" style="fill:#2bbf11"/><path d="M408.83,483.4c8.65-4,18.34-9.47,28.17-9,10.07.53,16.83,13.33,10.85,21.7-5.23,7.32-15.15,9.88-23,5.21-3.92-2.34-7.14-6.15-9.88-9.73-2.51-3.26-4-6.61-8.18-7.86a2,2,0,0,0-2.55,1.94c-.46,5.83,5.73,11.95,9.78,15.59a38.14,38.14,0,0,0,14.77,8.35c10.57,3,22.3-2.48,25.39-13.32,2.59-9.06-1.41-19.94-10.56-23.41-12-4.56-26.19,1.48-36.09,8.31a1.26,1.26,0,0,0,1.27,2.18Z" style="fill:#2bbf11"/><path d="M397.73,485.68c-7.16,8-11.62,18.38-11.52,29.25.08,8.76,5,18.47,14.57,19.92,10.32,1.56,16.68-8.3,17.74-17.35A35.16,35.16,0,0,0,416.15,501c-1.76-4.62-4.4-12-9.07-14.23a1.89,1.89,0,0,0-2.82,1.62c.18,3.37,2.37,5.74,4,8.61a38.59,38.59,0,0,1,4.6,11.79c1.46,7.89-1,19.37-9.78,22.16-11.29,3.58-14.1-12.32-13.25-20a40.63,40.63,0,0,1,10.49-22.72c1.58-1.75-1-4.35-2.58-2.59Z" style="fill:#2bbf11"/><path d="M400.79,480.52c-13-9.52-50.6-14.79-47.74,11.17,1,9.19,9.77,15.1,18.59,15.13,10.85,0,20.45-7.44,25.62-16.53a1.32,1.32,0,0,0-2.06-1.59c-5.73,5.32-11.34,11.26-19.3,12.93S357,498.9,357.75,489.26c1.48-18.65,31.1-9.95,40.91-5.1a2.11,2.11,0,0,0,2.13-3.64Z" style="fill:#2bbf11"/><path d="M401.63,480.65c-6.11-2.83-12.6-5.35-18.06-9.34-6.35-4.64-15.59-15-5.44-20.88,7.11-4.1,14.9-1.09,17.59,6.55,2.34,6.68,1,13.8,2.47,20.61a1.6,1.6,0,0,0,3.07,0c1.81-9.36,2.93-21-3.35-29-5.7-7.27-15.93-7.86-23.42-3-8.24,5.35-7.24,14.8-1.81,21.9,6.74,8.8,17.29,13.35,27.79,15.85,1.58.37,2.76-2,1.16-2.74Z" style="fill:#2bbf11"/></g></g></svg>