<svg xmlns="http://www.w3.org/2000/svg" xmlns:xlink="http://www.w3.org/1999/xlink" viewBox="0 0 1000 1000"><defs><clipPath id="a16a9e34-ea0f-4e36-853c-a5669d0afd4a"><path d="M551.54,637.48c27,2,124-4,194,0s-33,38-5,57,120-4,152,20-44,91-361,73-448-32.86-429-112C115.54,621.48,551.54,637.48,551.54,637.48Z" style="fill:#2abf12"/></clipPath><clipPath id="b7228768-22c8-4bf3-ab8b-09787876b096"><path d="M674.54,255.48h-517l31,416h0c0,.17,0,.34,0,.5,0,25.68,101.85,46.5,227.5,46.5s227.5-20.82,227.5-46.5c0-.16,0-.33,0-.5h0Z" style="fill:#edeef9"/></clipPath><clipPath id="adc88fcf-6445-4ee8-9311-a4ffe6c7aaaa"><path d="M335.54,333.48c-1.91-20,4-43,18-43s208-5,227-8,73-24,66-31-48-17-58-15-2-20,13-21,51,4,73,24,22,65,14,94-8,104-5,162-62,186-74,90,14-128,0-168-60-73-72-26-12,129-44,96-1-99-45-117S339.54,375.48,335.54,333.48Z" style="fill:#2bbf11"/></clipPath></defs><g id="a54f6a0a-ab5b-44f5-9cda-a08344b0c744" data-name="Layer 3"><g id="b81c13f1-121c-4dd4-b5da-1051a6bda16e" data-name="Layer 4"><path d="M551.54,637.48c27,2,124-4,194,0s-33,38-5,57,120-4,152,20-44,91-361,73-448-32.86-429-112C115.54,621.48,551.54,637.48,551.54,637.48Z" style="fill:#2abf12"/><g style="clip-path:url(#a16a9e34-ea0f-4e36-853c-a5669d0afd4a)"><path d="M521.54,608.48s171,5,172,66-234,80-341,80-273-32-273-32l66,35,255,50,318,4,181-33,30-66-67-44-101-60Z" style="fill:#176800;opacity:0.5"/></g><path d="M674.54,255.48h-517l31,416h0c0,.17,0,.34,0,.5,0,25.68,101.85,46.5,227.5,46.5s227.5-20.82,227.5-46.5c0-.16,0-.33,0-.5h0Z" style="fill:#edeef9"/><g style="clip-path:url(#b7228768-22c8-4bf3-ab8b-09787876b096)"><path d="M496.49,253.7s-19.95,506.78-339,417.78l35,49,197,33,285-53,33-444-211-2.78" style="fill:#d8daea"/></g><ellipse cx="416.04" cy="255.98" rx="258.5" ry="46.5" style="fill:#d8daea"/><polygon points="584.33 231.98 582.54 299.48 653.54 269.48 650.54 245.48 584.33 231.98" style="fill:#229e08"/><path d="M335.54,333.48c-1.91-20,4-43,18-43s208-5,227-8,73-24,66-31-48-17-58-15-2-20,13-21,51,4,73,24,22,65,14,94-8,104-5,162-62,186-74,90,14-128,0-168-60-73-72-26-12,129-44,96-1-99-45-117S339.54,375.48,335.54,333.48Z" style="fill:#2bbf11"/><g style="clip-path:url(#adc88fcf-6445-4ee8-9311-a4ffe6c7aaaa)"><path d="M549.77,371.26s-26.23-5.78-26.23,15.22,0,124-52,65l11,35,25,19,19-9,23.23-125.22" style="fill:#176800;opacity:0.5"/><path d="M582.54,224.48s48-5,65,7,41,18,35,79-21.86,183.3-28.43,219.15-24.57,49.85-57.57-2.15l6,64,7,35,34,9,35-43,22-94-7-119,9-95-21-59-79-19-23,7Z" style="fill:#176800;opacity:0.5"/></g><path d="M373.54,318.48s-155.35,264.5-216,187c-18-23,18-97,18-97" style="fill:none;stroke:#4a4c54;stroke-linecap:round;stroke-miterlimit:10;stroke-width:16px"/><polygon points="167.95 395.18 171.65 444.85 192.54 417.48 190.54 398.48 174.54 386.48 167.95 395.18" style="fill:#edeef9"/></g></g></svg>