<svg xmlns="http://www.w3.org/2000/svg" xmlns:xlink="http://www.w3.org/1999/xlink" viewBox="0 0 1000 1000"><defs><clipPath id="bd8f7ba4-54bf-4927-92c7-dc39ccea8ed1"><path d="M186.5,284.51l-17.83,6.07s1.93,74.18,91.73,122.2l7.77-18.23S197.28,358.15,186.5,284.51Z" style="fill:#2abf12"/></clipPath><clipPath id="fc980b52-e902-4872-b7b7-c0fc409f8203"><path d="M249.54,401.75c6.18-12.47,56.82-73.44,133.24-28.06S590,514.62,656.52,542.84s175,64,174.81,102.84S794,739.59,637.77,704.06,185.52,531.08,249.54,401.75Z" style="fill:#2bbf11"/></clipPath></defs><g id="f10d6cc7-1bae-4363-8abc-0beccb8ca489" data-name="Layer 3"><g id="aff7dcf5-cabd-4745-a660-af186dc835cf" data-name="Layer 4"><path d="M186.5,284.51l-17.83,6.07s1.93,74.18,91.73,122.2l7.77-18.23S197.28,358.15,186.5,284.51Z" style="fill:#2abf12"/><g style="clip-path:url(#bd8f7ba4-54bf-4927-92c7-dc39ccea8ed1)"><path d="M176.58,279s13,71,77,131l15-37-82-101Z" style="fill:#176800;opacity:0.5"/></g><path d="M249.54,401.75c6.18-12.47,56.82-73.44,133.24-28.06S590,514.62,656.52,542.84s175,64,174.81,102.84S794,739.59,637.77,704.06,185.52,531.08,249.54,401.75Z" style="fill:#2bbf11"/><g style="clip-path:url(#fc980b52-e902-4872-b7b7-c0fc409f8203)"><path d="M393.58,349s33,69,142,140,213,118,226,164-136,49-259,22c0,0,240,122,349,32s-17-124-114-163S393.58,349,393.58,349Z" style="fill:#176800;opacity:0.5"/><path d="M259.35,385.12c15.79,5.44,22.4,23.09,30.79,35.95A54.37,54.37,0,0,0,307,437.88c8.47,5.25,18.07,8.21,27.17,12.13,34.14,14.68,52.5,51,86.24,66.41,8.72,4,18,6.47,26.86,10A57.21,57.21,0,0,1,459.57,533c4.15,3,7,7.08,10.44,10.83,6.85,7.51,16.57,9.55,25.86,12.59a225.63,225.63,0,0,1,31.93,13.53c19.73,10,38.31,22.15,57.58,33s38,22.13,57.79,31.78c21.94,10.68,44.07,21.45,67.61,28.13,23.19,6.59,46.77,11.77,70.85,13.56.73.05.71-1,0-1.12A272,272,0,0,1,717,660.18c-20.68-7.75-41.35-16.17-61.07-26.13s-38.66-21-57.49-32.27c-19.24-11.48-37.8-24-57.51-34.69A296.08,296.08,0,0,0,511.6,553c-5-2-10-3.88-15.15-5.51S486,544.72,481.33,542c-4.12-2.38-6.85-6-10.1-9.37a51.73,51.73,0,0,0-11.47-8.86c-8-4.6-17-7.32-25.72-10.21-18.51-6.12-32.47-17-46.2-30.5-12.76-12.6-25.46-25.88-41.36-34.55-9.43-5.15-19.83-8-29.59-12.33-9.95-4.46-16.8-10.78-23.18-19.45-9.47-12.88-16.09-30.8-33.78-33.72a1.08,1.08,0,0,0-.58,2.08Z" style="fill:#229e08"/><path d="M283.26,370.43c20.17-6.07,39.91,5.77,56.71,15.63q27,15.87,54,31.82c8.7,5.17,16.82,10.63,24.09,17.73a223.58,223.58,0,0,0,21.05,18.69c15.54,11.81,32.17,22.05,49,31.93,36.17,21.27,73.81,39.82,110.5,60.13,18.35,10.15,36.77,20.14,55.07,30.38,18.58,10.41,37.48,20.24,56,30.69,19.41,10.93,39.43,20.72,58.42,32.41,9.15,5.63,18.14,11.53,27,17.57,4.45,3,9.69,5.62,13.44,9.49,4.09,4.22,7.11,8.45,11.77,12.12,3.87,3.05,9.35-2,5.57-5.57a41.65,41.65,0,0,0-11-7.67,72.11,72.11,0,0,1-12.66-8.23c-7.79-6-16.33-11-24.84-15.92-17-9.77-34.36-18.86-51.25-28.81-9.45-5.56-19.29-10.51-28.85-15.89s-19-11-28.74-16.09c-19.15-10.07-38-20.69-57-31.07-37.57-20.55-74.37-42.46-112.15-62.63-17.74-9.47-35.65-19.28-51.69-31.48s-29-27.65-46.12-38.11c-20.19-12.34-41.35-23.32-62-34.92-17-9.57-36.83-20.43-56.64-12.93-.44.17-.27.87.2.73Z" style="fill:#229e08"/><path d="M250.05,389.62c-10.17,43.71,24.13,80,54.73,105.65,16.65,14,33.82,27.3,51.27,40.26,17.74,13.19,35.65,26.58,54.65,37.91,38.9,23.19,80.85,40.78,123.14,56.75,22.4,8.46,45.12,16,67.53,24.5,11.64,4.39,22.93,10.25,34.3,15.34,10.83,4.86,21.72,9.42,32.7,13.94,42.34,17.42,94.13,28.88,136.41,4.82.74-.42.08-1.51-.66-1.13-39.4,20.3-84.24,11.81-123.82-3.25-21-8-41.1-18.26-62.16-26q-32.39-12-64.31-25.24c-21.4-8.84-42.94-17.22-63.92-27.07q-28.83-13.53-56.44-29.46c-18.41-10.6-37-20.84-55.11-32A544.21,544.21,0,0,1,325.42,507c-18.08-14.38-36.84-29.55-51.63-47.4-15.88-19.18-26.51-44-20.31-69.07.55-2.23-2.92-3.18-3.43-.95Z" style="fill:#229e08"/><path d="M252.26,383.51c2.82,11.93,5.59,24.51,12.13,35.06a43.51,43.51,0,0,0,10.92,11.79,71.8,71.8,0,0,1,8.27,6.67c3.41,3.5,5.08,7.55,7,12,4.92,11.54,14.58,18.83,24,26.68,10.9,9.08,22.23,17.73,35.1,23.83,6.27,3,12.74,5.58,18.68,9.21,6.44,3.94,12,9,17.5,14.14a115.44,115.44,0,0,0,33.66,22.29,435.15,435.15,0,0,1,41.58,20.16c13.34,7.54,26.6,15.21,40,22.67a127.86,127.86,0,0,0,22.74,9.56,120.21,120.21,0,0,1,22.6,9.88c11.79,6.67,22.56,17.33,36.47,19.26a1.41,1.41,0,0,0,.75-2.71c-12.44-4.05-23.12-11.07-33.56-18.81a69.11,69.11,0,0,0-14.54-8.08c-7.28-3-15.1-4.59-22.09-8.32C486.8,574.58,461.3,558.2,434,545.22c-13.28-6.31-25.91-12-37.32-21.51C387,515.64,378.05,507,366.45,501.6c-12.86-5.92-26-10.12-37.78-18.26-6.21-4.3-12.1-9-18-13.76-5.25-4.22-10.57-8.65-14.33-14.32s-4.46-12.72-8.46-18.16c-4.35-5.92-11.25-9.4-16.32-14.63-10.41-10.71-13.35-25.77-15.62-40-.38-2.4-4.29-1.43-3.71,1Z" style="fill:#68db42"/><path d="M265.55,375c5.53,3.78,12,3.8,18.15,5.83,7.59,2.49,11.1,10.06,17.84,13.93,6.3,3.61,13.51,5.08,19.58,9.2,6.66,4.52,12.33,10.52,18.68,15.46,10.59,8.22,22.76,14.19,34.71,20.15,12.84,6.41,24.43,13.37,34.22,24.07a.61.61,0,0,0,.95-.74c-15.17-24.09-46.57-29.65-67.66-46.72-5.57-4.5-10.22-10-16-14.34-6.52-4.91-13.8-6.61-21-10.12-6.75-3.3-10.35-10.4-17.19-13.46-6.64-3-14.33-2.22-20.53-6.33-1.92-1.28-3.68,1.79-1.8,3.07Z" style="fill:#68db42"/></g><path d="M817.25,681a.38.38,0,0,0,0-.75.38.38,0,0,0,0,.75Z" style="fill:#229e08"/><path d="M675.52,670.78l4.08,1.31c.23.07.32-.28.1-.36l-4.06-1.4c-.28-.1-.41.36-.12.45Z" style="fill:#229e08"/><path d="M605.16,633.34l6.25,2.09c1.21.4,1.72-1.5.53-1.9l-6.25-2.09c-1.21-.4-1.72,1.5-.53,1.9Z" style="fill:#53cc32"/><path d="M625.63,640.47c10.75,8.32,23.32,13.26,36.07,17.63,6.71,2.3,13.35,4.86,20,7.44,6.77,2.66,13,6.49,19.72,9.13,1.07.42,1.88-1.15,1.1-1.88-9.24-8.61-24-11.86-35.64-15.57-13.8-4.38-27.8-9.66-39.35-18.6-1.32-1-3.19.82-1.86,1.85Z" style="fill:#53cc32"/><path d="M710.36,681.4c4.9,2.1,9.81,4.64,14.94,6.11a1,1,0,0,0,.73-1.72c-4.51-2.65-9.64-4.44-14.44-6.5-1.43-.61-2.67,1.49-1.23,2.11Z" style="fill:#53cc32"/><path d="M428,477.18c6,5.43,12.51,10.64,19.69,14.4a.28.28,0,0,0,.28-.48c-6.71-4.58-13.26-9.12-19.24-14.65-.49-.45-1.23.28-.73.73Z" style="fill:#53cc32"/><path d="M473,506.51c12.86,11.09,27.61,18.93,42.76,26.44,15.89,7.87,31.75,16.22,48.08,23.13q11.91,5,24.15,9.25c8.71,3,16.82,6.21,23.88,12.3,6.08,5.24,12,10.56,18.45,15.34a216.31,216.31,0,0,0,20.51,12.87c16.76,9.67,34.14,17.26,51.88,24.88.49.21.92-.49.43-.72-30.2-14.27-60.88-28.74-85.41-51.92-5.84-5.51-11.2-10.68-18.69-13.89-7.72-3.31-15.91-5.56-23.75-8.61-17.14-6.67-33.83-14.25-50.38-22.25-17.43-8.43-34.89-17.12-50.66-28.44-.95-.68-2.14.85-1.25,1.62Z" style="fill:#53cc32"/><path d="M723.49,642.83a1.41,1.41,0,0,0,0-2.81,1.41,1.41,0,0,0,0,2.81Z" style="fill:#53cc32"/><path d="M247.74,439.3c3.73,14.73,10.4,27.84,18.49,40.68a424.13,424.13,0,0,0,25,36.18c9.46,12,21.49,20,34.15,28.24,7.13,4.65,14.34,9.16,21.53,13.71,6.54,4.14,13.2,9.59,20.38,12.48,1.3.53,2.24-1.38,1.32-2.27-5.13-4.94-12.21-8.46-18.15-12.4-6.55-4.34-13.07-8.73-19.66-13-13-8.4-25.49-16.36-36-27.82-19.87-21.61-35.65-48.85-47-75.82,0,0-.11,0-.09,0Z" style="fill:#68db42"/><path d="M395.17,587.44q11.07,7,22.34,13.61c7.39,4.34,15.13,9.08,23,12.46a.47.47,0,0,0,.48-.81c-7.19-4.75-15.19-8.75-22.69-13s-15.08-8.75-22.52-13.29c-.67-.41-1.28.63-.61,1.05Z" style="fill:#53cc32"/><path d="M475,630.51c24.66,10.14,49.51,19.8,74.35,29.51q18.2,7.11,36.58,13.66c12.62,4.47,25.74,10.22,38.94,12.57,2.22.39,4-2.82,1.66-3.94-11.78-5.54-25.11-8.58-37.49-12.59q-19-6.16-37.92-12.46c-25.59-8.48-50.72-18.1-75.72-28.2-.89-.36-1.28,1.09-.4,1.45Z" style="fill:#53cc32"/><path d="M322.77,363.43c17.58.37,34.53,8.47,49.21,17.55,7.38,4.56,14.51,9.54,21.56,14.57,7.49,5.35,14.69,11.73,22.82,16.07,1.55.83,3.3-1.22,1.93-2.5-6.82-6.4-15.28-11.32-23-16.63-7.84-5.43-15.68-10.87-23.9-15.71-15.18-8.93-30.85-15-48.67-14.48a.57.57,0,0,0,0,1.13Z" style="fill:#68db42"/><ellipse cx="340.58" cy="398.46" rx="6" ry="5.5" style="fill:#176800;opacity:0.5"/><path d="M337.89,396.55a2.47,2.47,0,0,0-.67,1.09c-.15.53.69.92.92.38a9.54,9.54,0,0,1,1.07-1.63c.44-.63-.54-1.36-1.06-.82a10.33,10.33,0,0,0-1.49,1.81L338,398a2.36,2.36,0,0,1,1.17-1.46l-.6.08.13,0-.46-.35c.08.12-1,1.41-1.09,1.48l.62-.08-.14-.05.48.37-.08-.13.08.62c.21-.76.67-2,1.5-2.29s.85-2-.25-1.84a3.92,3.92,0,0,0-3.17,4.63c.35,1.3,2.21.73,2-.55a2.17,2.17,0,0,1,1.4-2.37l-.65-1.53c-1.49.78-3,3.21-2.44,4.93l1.78-.76c-.66-1,.58-2.43,1.58-2.57l-.5-1.81c-1.83.76-2,2.3-2.86,3.86a1,1,0,0,0,1.59,1.23,17.29,17.29,0,0,0,2.19-3.16c.58-.89-.8-2-1.49-1.15a9.67,9.67,0,0,0-1.77,2.46,3.47,3.47,0,0,0,.21,2.8l1.54-1.54c-.49-.27-.33-1.08-.17-1.53a2.35,2.35,0,0,1,1.35-1.41l-.52-1.88c-1.38.57-2.84,1.19-3.48,2.66a3.47,3.47,0,0,0,1.09,4c1.08.84,2.53-.48,1.54-1.54a1.85,1.85,0,0,1-.42-1.95c.32-.78,1.13-1,1.84-1.32,1.2-.53.28-2.16-.83-2-3.23.55-4.82,4.52-2.13,6.79l1.54-1.54a1.51,1.51,0,0,1-.47-2,4.26,4.26,0,0,1,2.07-1.36c1-.43.29-2.13-.75-1.78a4.68,4.68,0,0,0-3.05,3,3.12,3.12,0,0,0,1.26,3.79,1.13,1.13,0,0,0,1.54-1.54,2.49,2.49,0,0,1,.95-2.77l-1.34-1.35a34,34,0,0,1-2.13,2.88l1.58,1.22c.42-.8.64-2.77,1.62-3.07a.94.94,0,0,0-.25-1.84c-2.7.1-4.68,3.41-2.86,5.6.75.91,2-.25,1.53-1.19-.17-.36.3-1.22.46-1.55a2.7,2.7,0,0,1,1.05-1.17.84.84,0,0,0-.65-1.53,3.91,3.91,0,0,0-2.37,1.46,4,4,0,0,0-.56,3.07l2-.55c-.15-.59.4-2.12,1.19-2.2l-.25-1.85a3.88,3.88,0,0,0-2.57,3.25c-.09.6,0,1.32.66,1.55s1.15-.32,1.52-.81c.54-.72,1.83-2.84.33-3.27-1.29-.37-2.42,1.64-2.51,2.66a.75.75,0,0,0,1.39.38,4.58,4.58,0,0,1,1.15-1.6l-1-1a3.61,3.61,0,0,0-.93,2.07l1,.13a1.67,1.67,0,0,1,.33-.73.41.41,0,0,0-.65-.49Z" style="fill:#68db42"/><ellipse cx="339.58" cy="469.46" rx="6" ry="5.5" style="fill:#176800;opacity:0.5"/><path d="M336.89,467.55a2.47,2.47,0,0,0-.67,1.09c-.15.53.69.92.92.38a9.54,9.54,0,0,1,1.07-1.63c.44-.63-.54-1.36-1.06-.82a10.33,10.33,0,0,0-1.49,1.81L337,469a2.36,2.36,0,0,1,1.17-1.46l-.6.08.13,0-.46-.35c.08.12-1,1.41-1.09,1.48l.62-.08-.14-.05.48.37-.08-.13.08.62c.21-.76.67-2,1.5-2.29s.85-2-.25-1.84a3.92,3.92,0,0,0-3.17,4.63c.35,1.3,2.21.73,2-.55a2.17,2.17,0,0,1,1.4-2.37l-.65-1.53c-1.49.78-3,3.21-2.44,4.93l1.78-.76c-.66-1,.58-2.43,1.58-2.57l-.5-1.81c-1.83.76-2,2.3-2.86,3.86a1,1,0,0,0,1.59,1.23,17.29,17.29,0,0,0,2.19-3.16c.58-.89-.8-2-1.49-1.15a9.67,9.67,0,0,0-1.77,2.46,3.47,3.47,0,0,0,.21,2.8l1.54-1.54c-.49-.27-.33-1.08-.17-1.53a2.35,2.35,0,0,1,1.35-1.41l-.52-1.88c-1.38.57-2.84,1.19-3.48,2.66a3.47,3.47,0,0,0,1.09,4c1.08.84,2.53-.48,1.54-1.54a1.85,1.85,0,0,1-.42-1.95c.32-.78,1.13-1,1.84-1.32,1.2-.53.28-2.16-.83-2-3.23.55-4.82,4.52-2.13,6.79l1.54-1.54a1.51,1.51,0,0,1-.47-2,4.26,4.26,0,0,1,2.07-1.36c1-.43.29-2.13-.75-1.78a4.68,4.68,0,0,0-3.05,3,3.12,3.12,0,0,0,1.26,3.79,1.13,1.13,0,0,0,1.54-1.54,2.49,2.49,0,0,1,.95-2.77l-1.34-1.35a34,34,0,0,1-2.13,2.88l1.58,1.22c.42-.8.64-2.77,1.62-3.07a.94.94,0,0,0-.25-1.84c-2.7.1-4.68,3.41-2.86,5.6.75.91,2-.25,1.53-1.19-.17-.36.3-1.22.46-1.55a2.7,2.7,0,0,1,1.05-1.17.84.84,0,0,0-.65-1.53,3.91,3.91,0,0,0-2.37,1.46,4,4,0,0,0-.56,3.07l2-.55c-.15-.59.4-2.12,1.19-2.2l-.25-1.85a3.88,3.88,0,0,0-2.57,3.25c-.09.6,0,1.32.66,1.55s1.15-.32,1.52-.81c.54-.72,1.83-2.84.33-3.27-1.29-.37-2.42,1.64-2.51,2.66a.75.75,0,0,0,1.39.38,4.58,4.58,0,0,1,1.15-1.6l-1-1a3.61,3.61,0,0,0-.93,2.07l1,.13a1.67,1.67,0,0,1,.33-.73.41.41,0,0,0-.65-.49Z" style="fill:#68db42"/><ellipse cx="280.58" cy="482.46" rx="6" ry="5.5" style="fill:#176800;opacity:0.5"/><path d="M277.89,480.55a2.47,2.47,0,0,0-.67,1.09c-.15.53.69.92.92.38a9.54,9.54,0,0,1,1.07-1.63c.44-.63-.54-1.36-1.06-.82a10.33,10.33,0,0,0-1.49,1.81L278,482a2.36,2.36,0,0,1,1.17-1.46l-.6.08.13,0-.46-.35c.08.12-1,1.41-1.09,1.48l.62-.08-.14-.05.48.37-.08-.13.08.62c.21-.76.67-2,1.5-2.29s.85-2-.25-1.84a3.92,3.92,0,0,0-3.17,4.63c.35,1.3,2.21.73,2-.55a2.17,2.17,0,0,1,1.4-2.37l-.65-1.53c-1.49.78-3,3.21-2.44,4.93l1.78-.76c-.66-1,.58-2.43,1.58-2.57l-.5-1.81c-1.83.76-2,2.3-2.86,3.86a1,1,0,0,0,1.59,1.23,17.29,17.29,0,0,0,2.19-3.16c.58-.89-.8-2-1.49-1.15a9.67,9.67,0,0,0-1.77,2.46,3.47,3.47,0,0,0,.21,2.8l1.54-1.54c-.49-.27-.33-1.08-.17-1.53a2.35,2.35,0,0,1,1.35-1.41l-.52-1.88c-1.38.57-2.84,1.19-3.48,2.66a3.47,3.47,0,0,0,1.09,4c1.08.84,2.53-.48,1.54-1.54a1.85,1.85,0,0,1-.42-1.95c.32-.78,1.13-1,1.84-1.32,1.2-.53.28-2.16-.83-2-3.23.55-4.82,4.52-2.13,6.79l1.54-1.54a1.51,1.51,0,0,1-.47-2,4.26,4.26,0,0,1,2.07-1.36c1-.43.29-2.13-.75-1.78a4.68,4.68,0,0,0-3.05,3,3.12,3.12,0,0,0,1.26,3.79,1.13,1.13,0,0,0,1.54-1.54,2.49,2.49,0,0,1,.95-2.77l-1.34-1.35a34,34,0,0,1-2.13,2.88l1.58,1.22c.42-.8.64-2.77,1.62-3.07a.94.94,0,0,0-.25-1.84c-2.7.1-4.68,3.41-2.86,5.6.75.91,2-.25,1.53-1.19-.17-.36.3-1.22.46-1.55a2.7,2.7,0,0,1,1.05-1.17.84.84,0,0,0-.65-1.53,3.91,3.91,0,0,0-2.37,1.46,4,4,0,0,0-.56,3.07l2-.55c-.15-.59.4-2.12,1.19-2.2l-.25-1.85a3.88,3.88,0,0,0-2.57,3.25c-.09.6,0,1.32.66,1.55s1.15-.32,1.52-.81c.54-.72,1.83-2.84.33-3.27-1.29-.37-2.42,1.64-2.51,2.66a.75.75,0,0,0,1.39.38,4.58,4.58,0,0,1,1.15-1.6l-1-1a3.61,3.61,0,0,0-.93,2.07l1,.13a1.67,1.67,0,0,1,.33-.73.41.41,0,0,0-.65-.49Z" style="fill:#68db42"/><ellipse cx="407.58" cy="442.46" rx="6" ry="5.5" style="fill:#176800;opacity:0.5"/><path d="M404.89,440.55a2.47,2.47,0,0,0-.67,1.09c-.15.53.69.92.92.38a9.54,9.54,0,0,1,1.07-1.63c.44-.63-.54-1.36-1.06-.82a10.33,10.33,0,0,0-1.49,1.81L405,442a2.36,2.36,0,0,1,1.17-1.46l-.6.08.13,0-.46-.35c.08.12-1,1.41-1.09,1.48l.62-.08-.14-.05.48.37-.08-.13.08.62c.21-.76.67-2,1.5-2.29s.85-2-.25-1.84a3.92,3.92,0,0,0-3.17,4.63c.35,1.3,2.21.73,2-.55a2.17,2.17,0,0,1,1.4-2.37l-.65-1.53c-1.49.78-3,3.21-2.44,4.93l1.78-.76c-.66-1,.58-2.43,1.58-2.57l-.5-1.81c-1.83.76-2,2.3-2.86,3.86a1,1,0,0,0,1.59,1.23,17.29,17.29,0,0,0,2.19-3.16c.58-.89-.8-2-1.49-1.15a9.67,9.67,0,0,0-1.77,2.46,3.47,3.47,0,0,0,.21,2.8l1.54-1.54c-.49-.27-.33-1.08-.17-1.53a2.35,2.35,0,0,1,1.35-1.41l-.52-1.88c-1.38.57-2.84,1.19-3.48,2.66a3.47,3.47,0,0,0,1.09,4c1.08.84,2.53-.48,1.54-1.54a1.85,1.85,0,0,1-.42-1.95c.32-.78,1.13-1,1.84-1.32,1.2-.53.28-2.16-.83-2-3.23.55-4.82,4.52-2.13,6.79l1.54-1.54a1.51,1.51,0,0,1-.47-2,4.26,4.26,0,0,1,2.07-1.36c1-.43.29-2.13-.75-1.78a4.68,4.68,0,0,0-3.05,3,3.12,3.12,0,0,0,1.26,3.79,1.13,1.13,0,0,0,1.54-1.54,2.49,2.49,0,0,1,.95-2.77l-1.34-1.35a34,34,0,0,1-2.13,2.88l1.58,1.22c.42-.8.64-2.77,1.62-3.07a.94.94,0,0,0-.25-1.84c-2.7.1-4.68,3.41-2.86,5.6.75.91,2-.25,1.53-1.19-.17-.36.3-1.22.46-1.55a2.7,2.7,0,0,1,1.05-1.17.84.84,0,0,0-.65-1.53,3.91,3.91,0,0,0-2.37,1.46,4,4,0,0,0-.56,3.07l2-.55c-.15-.59.4-2.12,1.19-2.2l-.25-1.85a3.88,3.88,0,0,0-2.57,3.25c-.09.6,0,1.32.66,1.55s1.15-.32,1.52-.81c.54-.72,1.83-2.84.33-3.27-1.29-.37-2.42,1.64-2.51,2.66a.75.75,0,0,0,1.39.38,4.58,4.58,0,0,1,1.15-1.6l-1-1a3.61,3.61,0,0,0-.93,2.07l1,.13a1.67,1.67,0,0,1,.33-.73.41.41,0,0,0-.65-.49Z" style="fill:#68db42"/><ellipse cx="481.58" cy="468.46" rx="6" ry="5.5" style="fill:#176800;opacity:0.5"/><path d="M478.89,466.55a2.47,2.47,0,0,0-.67,1.09c-.15.53.69.92.92.38a9.54,9.54,0,0,1,1.07-1.63c.44-.63-.54-1.36-1.06-.82a10.33,10.33,0,0,0-1.49,1.81L479,468a2.36,2.36,0,0,1,1.17-1.46l-.6.08.13,0-.46-.35c.08.12-1,1.41-1.09,1.48l.62-.08-.14-.05.48.37-.08-.13.08.62c.21-.76.67-2,1.5-2.29s.85-2-.25-1.84a3.92,3.92,0,0,0-3.17,4.63c.35,1.3,2.21.73,2-.55a2.17,2.17,0,0,1,1.4-2.37l-.65-1.53c-1.49.78-3,3.21-2.44,4.93l1.78-.76c-.66-1,.58-2.43,1.58-2.57l-.5-1.81c-1.83.76-2,2.3-2.86,3.86a1,1,0,0,0,1.59,1.23,17.29,17.29,0,0,0,2.19-3.16c.58-.89-.8-2-1.49-1.15a9.67,9.67,0,0,0-1.77,2.46,3.47,3.47,0,0,0,.21,2.8l1.54-1.54c-.49-.27-.33-1.08-.17-1.53a2.35,2.35,0,0,1,1.35-1.41l-.52-1.88c-1.38.57-2.84,1.19-3.48,2.66a3.47,3.47,0,0,0,1.09,4c1.08.84,2.53-.48,1.54-1.54a1.85,1.85,0,0,1-.42-1.95c.32-.78,1.13-1,1.84-1.32,1.2-.53.28-2.16-.83-2-3.23.55-4.82,4.52-2.13,6.79l1.54-1.54a1.51,1.51,0,0,1-.47-2,4.26,4.26,0,0,1,2.07-1.36c1-.43.29-2.13-.75-1.78a4.68,4.68,0,0,0-3.05,3,3.12,3.12,0,0,0,1.26,3.79,1.13,1.13,0,0,0,1.54-1.54,2.49,2.49,0,0,1,.95-2.77l-1.34-1.35a34,34,0,0,1-2.13,2.88l1.58,1.22c.42-.8.64-2.77,1.62-3.07a.94.94,0,0,0-.25-1.84c-2.7.1-4.68,3.41-2.86,5.6.75.91,2-.25,1.53-1.19-.17-.36.3-1.22.46-1.55a2.7,2.7,0,0,1,1.05-1.17.84.84,0,0,0-.65-1.53,3.91,3.91,0,0,0-2.37,1.46,4,4,0,0,0-.56,3.07l2-.55c-.15-.59.4-2.12,1.19-2.2l-.25-1.85a3.88,3.88,0,0,0-2.57,3.25c-.09.6,0,1.32.66,1.55s1.15-.32,1.52-.81c.54-.72,1.83-2.84.33-3.27-1.29-.37-2.42,1.64-2.51,2.66a.75.75,0,0,0,1.39.38,4.58,4.58,0,0,1,1.15-1.6l-1-1a3.61,3.61,0,0,0-.93,2.07l1,.13a1.67,1.67,0,0,1,.33-.73.41.41,0,0,0-.65-.49Z" style="fill:#68db42"/><ellipse cx="466.58" cy="426.46" rx="6" ry="5.5" style="fill:#176800;opacity:0.5"/><path d="M463.89,424.55a2.47,2.47,0,0,0-.67,1.09c-.15.53.69.92.92.38a9.54,9.54,0,0,1,1.07-1.63c.44-.63-.54-1.36-1.06-.82a10.33,10.33,0,0,0-1.49,1.81L464,426a2.36,2.36,0,0,1,1.17-1.46l-.6.08.13,0-.46-.35c.08.12-1,1.41-1.09,1.48l.62-.08-.14-.05.48.37-.08-.13.08.62c.21-.76.67-2,1.5-2.29s.85-2-.25-1.84a3.92,3.92,0,0,0-3.17,4.63c.35,1.3,2.21.73,2-.55a2.17,2.17,0,0,1,1.4-2.37l-.65-1.53c-1.49.78-3,3.21-2.44,4.93l1.78-.76c-.66-1,.58-2.43,1.58-2.57l-.5-1.81c-1.83.76-2,2.3-2.86,3.86a1,1,0,0,0,1.59,1.23,17.29,17.29,0,0,0,2.19-3.16c.58-.89-.8-2-1.49-1.15a9.67,9.67,0,0,0-1.77,2.46,3.47,3.47,0,0,0,.21,2.8l1.54-1.54c-.49-.27-.33-1.08-.17-1.53a2.35,2.35,0,0,1,1.35-1.41l-.52-1.88c-1.38.57-2.84,1.19-3.48,2.66a3.47,3.47,0,0,0,1.09,4c1.08.84,2.53-.48,1.54-1.54a1.85,1.85,0,0,1-.42-1.95c.32-.78,1.13-1,1.84-1.32,1.2-.53.28-2.16-.83-2-3.23.55-4.82,4.52-2.13,6.79l1.54-1.54a1.51,1.51,0,0,1-.47-2,4.26,4.26,0,0,1,2.07-1.36c1-.43.29-2.13-.75-1.78a4.68,4.68,0,0,0-3.05,3,3.12,3.12,0,0,0,1.26,3.79,1.13,1.13,0,0,0,1.54-1.54,2.49,2.49,0,0,1,.95-2.77l-1.34-1.35a34,34,0,0,1-2.13,2.88l1.58,1.22c.42-.8.64-2.77,1.62-3.07a.94.94,0,0,0-.25-1.84c-2.7.1-4.68,3.41-2.86,5.6.75.91,2-.25,1.53-1.19-.17-.36.3-1.22.46-1.55a2.7,2.7,0,0,1,1.05-1.17.84.84,0,0,0-.65-1.53,3.91,3.91,0,0,0-2.37,1.46,4,4,0,0,0-.56,3.07l2-.55c-.15-.59.4-2.12,1.19-2.2l-.25-1.85a3.88,3.88,0,0,0-2.57,3.25c-.09.6,0,1.32.66,1.55s1.15-.32,1.52-.81c.54-.72,1.83-2.84.33-3.27-1.29-.37-2.42,1.64-2.51,2.66a.75.75,0,0,0,1.39.38,4.58,4.58,0,0,1,1.15-1.6l-1-1a3.61,3.61,0,0,0-.93,2.07l1,.13a1.67,1.67,0,0,1,.33-.73.41.41,0,0,0-.65-.49Z" style="fill:#68db42"/><ellipse cx="587.58" cy="505.46" rx="6" ry="5.5" style="fill:#176800;opacity:0.5"/><path d="M584.89,503.55a2.47,2.47,0,0,0-.67,1.09c-.15.53.69.92.92.38a9.54,9.54,0,0,1,1.07-1.63c.44-.63-.54-1.36-1.06-.82a10.33,10.33,0,0,0-1.49,1.81L585,505a2.36,2.36,0,0,1,1.17-1.46l-.6.08.13,0-.46-.35c.08.12-1,1.41-1.09,1.48l.62-.08-.14-.05.48.37-.08-.13.08.62c.21-.76.67-2,1.5-2.29s.85-2-.25-1.84a3.92,3.92,0,0,0-3.17,4.63c.35,1.3,2.21.73,2-.55a2.17,2.17,0,0,1,1.4-2.37l-.65-1.53c-1.49.78-3,3.21-2.44,4.93l1.78-.76c-.66-1,.58-2.43,1.58-2.57l-.5-1.81c-1.83.76-2,2.3-2.86,3.86a1,1,0,0,0,1.59,1.23,17.29,17.29,0,0,0,2.19-3.16c.58-.89-.8-2-1.49-1.15a9.67,9.67,0,0,0-1.77,2.46,3.47,3.47,0,0,0,.21,2.8l1.54-1.54c-.49-.27-.33-1.08-.17-1.53a2.35,2.35,0,0,1,1.35-1.41l-.52-1.88c-1.38.57-2.84,1.19-3.48,2.66a3.47,3.47,0,0,0,1.09,4c1.08.84,2.53-.48,1.54-1.54a1.85,1.85,0,0,1-.42-1.95c.32-.78,1.13-1,1.84-1.32,1.2-.53.28-2.16-.83-2-3.23.55-4.82,4.52-2.13,6.79l1.54-1.54a1.51,1.51,0,0,1-.47-2,4.26,4.26,0,0,1,2.07-1.36c1-.43.29-2.13-.75-1.78a4.68,4.68,0,0,0-3,3,3.12,3.12,0,0,0,1.26,3.79,1.13,1.13,0,0,0,1.54-1.54,2.49,2.49,0,0,1,1-2.77l-1.34-1.35a34,34,0,0,1-2.13,2.88l1.58,1.22c.42-.8.64-2.77,1.62-3.07a.94.94,0,0,0-.25-1.84c-2.7.1-4.68,3.41-2.86,5.6.75.91,2-.25,1.53-1.19-.17-.36.3-1.22.46-1.55a2.7,2.7,0,0,1,1-1.17.84.84,0,0,0-.65-1.53,3.91,3.91,0,0,0-2.37,1.46,4,4,0,0,0-.56,3.07l2-.55c-.15-.59.4-2.12,1.19-2.2l-.25-1.85a3.88,3.88,0,0,0-2.57,3.25c-.09.6,0,1.32.66,1.55s1.15-.32,1.52-.81c.54-.72,1.83-2.84.33-3.27-1.29-.37-2.42,1.64-2.51,2.66a.75.75,0,0,0,1.39.38,4.58,4.58,0,0,1,1.15-1.6l-1-1a3.61,3.61,0,0,0-.93,2.07l1,.13a1.67,1.67,0,0,1,.33-.73.41.41,0,0,0-.65-.49Z" style="fill:#68db42"/><ellipse cx="733.58" cy="575.46" rx="6" ry="5.5" style="fill:#176800;opacity:0.5"/><path d="M730.89,573.55a2.47,2.47,0,0,0-.67,1.09c-.15.53.69.92.92.38a9.54,9.54,0,0,1,1.07-1.63c.44-.63-.54-1.36-1.06-.82a10.33,10.33,0,0,0-1.49,1.81L731,575a2.36,2.36,0,0,1,1.17-1.46l-.6.08.13,0-.46-.35c.08.12-1,1.41-1.09,1.48l.62-.08-.14,0,.48.37-.08-.13.08.62c.21-.76.67-2,1.5-2.29s.85-2-.25-1.84a3.92,3.92,0,0,0-3.17,4.63c.35,1.3,2.21.73,2-.55a2.17,2.17,0,0,1,1.4-2.37l-.65-1.53c-1.49.78-3,3.21-2.44,4.93l1.78-.76c-.66-1,.58-2.43,1.58-2.57l-.5-1.81c-1.83.76-2,2.3-2.86,3.86a1,1,0,0,0,1.59,1.23,17.29,17.29,0,0,0,2.19-3.16c.58-.89-.8-2-1.49-1.15a9.67,9.67,0,0,0-1.77,2.46,3.47,3.47,0,0,0,.21,2.8l1.54-1.54c-.49-.27-.33-1.08-.17-1.53a2.35,2.35,0,0,1,1.35-1.41l-.52-1.88c-1.38.57-2.84,1.19-3.48,2.66a3.47,3.47,0,0,0,1.09,4c1.08.84,2.53-.48,1.54-1.54a1.85,1.85,0,0,1-.42-2c.32-.78,1.13-1,1.84-1.32,1.2-.53.28-2.16-.83-2-3.23.55-4.82,4.52-2.13,6.79l1.54-1.54a1.51,1.51,0,0,1-.47-2,4.26,4.26,0,0,1,2.07-1.36c1-.43.29-2.13-.75-1.78a4.68,4.68,0,0,0-3,3,3.12,3.12,0,0,0,1.26,3.79,1.13,1.13,0,0,0,1.54-1.54,2.49,2.49,0,0,1,1-2.77l-1.34-1.35a34,34,0,0,1-2.13,2.88l1.58,1.22c.42-.8.64-2.77,1.62-3.07a.94.94,0,0,0-.25-1.84c-2.7.1-4.68,3.41-2.86,5.6.75.91,2-.25,1.53-1.19-.17-.36.3-1.22.46-1.55a2.7,2.7,0,0,1,1-1.17.84.84,0,0,0-.65-1.53,3.91,3.91,0,0,0-2.37,1.46,4,4,0,0,0-.56,3.07l2-.55c-.15-.59.4-2.12,1.19-2.2l-.25-1.85a3.88,3.88,0,0,0-2.57,3.25c-.09.6,0,1.32.66,1.55s1.15-.32,1.52-.81c.54-.72,1.83-2.84.33-3.27-1.29-.37-2.42,1.64-2.51,2.66a.75.75,0,0,0,1.39.38,4.58,4.58,0,0,1,1.15-1.6l-1-1a3.61,3.61,0,0,0-.93,2.07l1,.13a1.67,1.67,0,0,1,.33-.73.41.41,0,0,0-.65-.49Z" style="fill:#68db42"/><ellipse cx="658.58" cy="706.46" rx="6" ry="5.5" style="fill:#176800;opacity:0.5"/><path d="M655.89,704.55a2.47,2.47,0,0,0-.67,1.09c-.15.53.69.92.92.38a9.54,9.54,0,0,1,1.07-1.63c.44-.63-.54-1.36-1.06-.82a10.33,10.33,0,0,0-1.49,1.81L656,706a2.36,2.36,0,0,1,1.17-1.46l-.6.08.13,0-.46-.35c.08.12-1,1.41-1.09,1.48l.62-.08-.14,0,.48.37-.08-.13.08.62c.21-.76.67-2,1.5-2.29s.85-2-.25-1.84a3.92,3.92,0,0,0-3.17,4.63c.35,1.3,2.21.73,2-.55a2.17,2.17,0,0,1,1.4-2.37l-.65-1.53c-1.49.78-3,3.21-2.44,4.93l1.78-.76c-.66-1,.58-2.43,1.58-2.57l-.5-1.81c-1.83.76-2,2.3-2.86,3.86a1,1,0,0,0,1.59,1.23,17.29,17.29,0,0,0,2.19-3.16c.58-.89-.8-2-1.49-1.15a9.67,9.67,0,0,0-1.77,2.46,3.47,3.47,0,0,0,.21,2.8l1.54-1.54c-.49-.27-.33-1.08-.17-1.53a2.35,2.35,0,0,1,1.35-1.41l-.52-1.88c-1.38.57-2.84,1.19-3.48,2.66a3.47,3.47,0,0,0,1.09,4c1.08.84,2.53-.48,1.54-1.54a1.85,1.85,0,0,1-.42-2c.32-.78,1.13-1,1.84-1.32,1.2-.53.28-2.16-.83-2-3.23.55-4.82,4.52-2.13,6.79l1.54-1.54a1.51,1.51,0,0,1-.47-2,4.26,4.26,0,0,1,2.07-1.36c1-.43.29-2.13-.75-1.78a4.68,4.68,0,0,0-3,3,3.12,3.12,0,0,0,1.26,3.79,1.13,1.13,0,0,0,1.54-1.54,2.49,2.49,0,0,1,1-2.77l-1.34-1.35a34,34,0,0,1-2.13,2.88l1.58,1.22c.42-.8.64-2.77,1.62-3.07a.94.94,0,0,0-.25-1.84c-2.7.1-4.68,3.41-2.86,5.6.75.91,2-.25,1.53-1.19-.17-.36.3-1.22.46-1.55a2.7,2.7,0,0,1,1-1.17.84.84,0,0,0-.65-1.53,3.91,3.91,0,0,0-2.37,1.46,4,4,0,0,0-.56,3.07l2-.55c-.15-.59.4-2.12,1.19-2.2l-.25-1.85a3.88,3.88,0,0,0-2.57,3.25c-.09.6,0,1.32.66,1.55s1.15-.32,1.52-.81c.54-.72,1.83-2.84.33-3.27-1.29-.37-2.42,1.64-2.51,2.66a.75.75,0,0,0,1.39.38,4.58,4.58,0,0,1,1.15-1.6l-1-1a3.61,3.61,0,0,0-.93,2.07l1,.13a1.67,1.67,0,0,1,.33-.73.41.41,0,0,0-.65-.49Z" style="fill:#68db42"/><ellipse cx="518.58" cy="665.46" rx="6" ry="5.5" style="fill:#176800;opacity:0.5"/><path d="M515.89,663.55a2.47,2.47,0,0,0-.67,1.09c-.15.53.69.92.92.38a9.54,9.54,0,0,1,1.07-1.63c.44-.63-.54-1.36-1.06-.82a10.33,10.33,0,0,0-1.49,1.81L516,665a2.36,2.36,0,0,1,1.17-1.46l-.6.08.13,0-.46-.35c.08.12-1,1.41-1.09,1.48l.62-.08-.14,0,.48.37-.08-.13.08.62c.21-.76.67-2,1.5-2.29s.85-2-.25-1.84a3.92,3.92,0,0,0-3.17,4.63c.35,1.3,2.21.73,2-.55a2.17,2.17,0,0,1,1.4-2.37l-.65-1.53c-1.49.78-3,3.21-2.44,4.93l1.78-.76c-.66-1,.58-2.43,1.58-2.57l-.5-1.81c-1.83.76-2,2.3-2.86,3.86a1,1,0,0,0,1.59,1.23,17.29,17.29,0,0,0,2.19-3.16c.58-.89-.8-2-1.49-1.15a9.67,9.67,0,0,0-1.77,2.46,3.47,3.47,0,0,0,.21,2.8l1.54-1.54c-.49-.27-.33-1.08-.17-1.53a2.35,2.35,0,0,1,1.35-1.41l-.52-1.88c-1.38.57-2.84,1.19-3.48,2.66a3.47,3.47,0,0,0,1.09,4c1.08.84,2.53-.48,1.54-1.54a1.85,1.85,0,0,1-.42-2c.32-.78,1.13-1,1.84-1.32,1.2-.53.28-2.16-.83-2-3.23.55-4.82,4.52-2.13,6.79l1.54-1.54a1.51,1.51,0,0,1-.47-2,4.26,4.26,0,0,1,2.07-1.36c1-.43.29-2.13-.75-1.78a4.68,4.68,0,0,0-3,3,3.12,3.12,0,0,0,1.26,3.79,1.13,1.13,0,0,0,1.54-1.54,2.49,2.49,0,0,1,1-2.77l-1.34-1.35a34,34,0,0,1-2.13,2.88l1.58,1.22c.42-.8.64-2.77,1.62-3.07a.94.94,0,0,0-.25-1.84c-2.7.1-4.68,3.41-2.86,5.6.75.91,2-.25,1.53-1.19-.17-.36.3-1.22.46-1.55a2.7,2.7,0,0,1,1-1.17.84.84,0,0,0-.65-1.53,3.91,3.91,0,0,0-2.37,1.46,4,4,0,0,0-.56,3.07l2-.55c-.15-.59.4-2.12,1.19-2.2l-.25-1.85a3.88,3.88,0,0,0-2.57,3.25c-.09.6,0,1.32.66,1.55s1.15-.32,1.52-.81c.54-.72,1.83-2.84.33-3.27-1.29-.37-2.42,1.64-2.51,2.66a.75.75,0,0,0,1.39.38,4.58,4.58,0,0,1,1.15-1.6l-1-1a3.61,3.61,0,0,0-.93,2.07l1,.13a1.67,1.67,0,0,1,.33-.73.41.41,0,0,0-.65-.49Z" style="fill:#68db42"/><ellipse cx="387.58" cy="602.46" rx="6" ry="5.5" style="fill:#176800;opacity:0.5"/><path d="M384.89,600.55a2.47,2.47,0,0,0-.67,1.09c-.15.53.69.92.92.38a9.54,9.54,0,0,1,1.07-1.63c.44-.63-.54-1.36-1.06-.82a10.33,10.33,0,0,0-1.49,1.81L385,602a2.36,2.36,0,0,1,1.17-1.46l-.6.08.13,0-.46-.35c.08.12-1,1.41-1.09,1.48l.62-.08-.14,0,.48.37-.08-.13.08.62c.21-.76.67-2,1.5-2.29s.85-2-.25-1.84a3.92,3.92,0,0,0-3.17,4.63c.35,1.3,2.21.73,2-.55a2.17,2.17,0,0,1,1.4-2.37l-.65-1.53c-1.49.78-3,3.21-2.44,4.93l1.78-.76c-.66-1,.58-2.43,1.58-2.57l-.5-1.81c-1.83.76-2,2.3-2.86,3.86a1,1,0,0,0,1.59,1.23,17.29,17.29,0,0,0,2.19-3.16c.58-.89-.8-2-1.49-1.15a9.67,9.67,0,0,0-1.77,2.46,3.47,3.47,0,0,0,.21,2.8l1.54-1.54c-.49-.27-.33-1.08-.17-1.53a2.35,2.35,0,0,1,1.35-1.41l-.52-1.88c-1.38.57-2.84,1.19-3.48,2.66a3.47,3.47,0,0,0,1.09,4c1.08.84,2.53-.48,1.54-1.54a1.85,1.85,0,0,1-.42-2c.32-.78,1.13-1,1.84-1.32,1.2-.53.28-2.16-.83-2-3.23.55-4.82,4.52-2.13,6.79l1.54-1.54a1.51,1.51,0,0,1-.47-2,4.26,4.26,0,0,1,2.07-1.36c1-.43.29-2.13-.75-1.78a4.68,4.68,0,0,0-3.05,3,3.12,3.12,0,0,0,1.26,3.79,1.13,1.13,0,0,0,1.54-1.54,2.49,2.49,0,0,1,.95-2.77l-1.34-1.35a34,34,0,0,1-2.13,2.88l1.58,1.22c.42-.8.64-2.77,1.62-3.07a.94.94,0,0,0-.25-1.84c-2.7.1-4.68,3.41-2.86,5.6.75.91,2-.25,1.53-1.19-.17-.36.3-1.22.46-1.55a2.7,2.7,0,0,1,1.05-1.17.84.84,0,0,0-.65-1.53,3.91,3.91,0,0,0-2.37,1.46,4,4,0,0,0-.56,3.07l2-.55c-.15-.59.4-2.12,1.19-2.2l-.25-1.85a3.88,3.88,0,0,0-2.57,3.25c-.09.6,0,1.32.66,1.55s1.15-.32,1.52-.81c.54-.72,1.83-2.84.33-3.27-1.29-.37-2.42,1.64-2.51,2.66a.75.75,0,0,0,1.39.38,4.58,4.58,0,0,1,1.15-1.6l-1-1a3.61,3.61,0,0,0-.93,2.07l1,.13a1.67,1.67,0,0,1,.33-.73.41.41,0,0,0-.65-.49Z" style="fill:#68db42"/><ellipse cx="296.58" cy="536.46" rx="6" ry="5.5" style="fill:#176800;opacity:0.5"/><path d="M293.89,534.55a2.47,2.47,0,0,0-.67,1.09c-.15.53.69.92.92.38a9.54,9.54,0,0,1,1.07-1.63c.44-.63-.54-1.36-1.06-.82a10.33,10.33,0,0,0-1.49,1.81L294,536a2.36,2.36,0,0,1,1.17-1.46l-.6.08.13,0-.46-.35c.08.12-1,1.41-1.09,1.48l.62-.08-.14,0,.48.37-.08-.13.08.62c.21-.76.67-2,1.5-2.29s.85-2-.25-1.84a3.92,3.92,0,0,0-3.17,4.63c.35,1.3,2.21.73,2-.55a2.17,2.17,0,0,1,1.4-2.37l-.65-1.53c-1.49.78-3,3.21-2.44,4.93l1.78-.76c-.66-1,.58-2.43,1.58-2.57l-.5-1.81c-1.83.76-2,2.3-2.86,3.86a1,1,0,0,0,1.59,1.23,17.29,17.29,0,0,0,2.19-3.16c.58-.89-.8-2-1.49-1.15a9.67,9.67,0,0,0-1.77,2.46,3.47,3.47,0,0,0,.21,2.8l1.54-1.54c-.49-.27-.33-1.08-.17-1.53a2.35,2.35,0,0,1,1.35-1.41l-.52-1.88c-1.38.57-2.84,1.19-3.48,2.66a3.47,3.47,0,0,0,1.09,4c1.08.84,2.53-.48,1.54-1.54a1.85,1.85,0,0,1-.42-2c.32-.78,1.13-1,1.84-1.32,1.2-.53.28-2.16-.83-2-3.23.55-4.82,4.52-2.13,6.79l1.54-1.54a1.51,1.51,0,0,1-.47-2,4.26,4.26,0,0,1,2.07-1.36c1-.43.29-2.13-.75-1.78a4.68,4.68,0,0,0-3.05,3,3.12,3.12,0,0,0,1.26,3.79,1.13,1.13,0,0,0,1.54-1.54,2.49,2.49,0,0,1,.95-2.77l-1.34-1.35a34,34,0,0,1-2.13,2.88l1.58,1.22c.42-.8.64-2.77,1.62-3.07a.94.94,0,0,0-.25-1.84c-2.7.1-4.68,3.41-2.86,5.6.75.91,2-.25,1.53-1.19-.17-.36.3-1.22.46-1.55a2.7,2.7,0,0,1,1.05-1.17.84.84,0,0,0-.65-1.53,3.91,3.91,0,0,0-2.37,1.46,4,4,0,0,0-.56,3.07l2-.55c-.15-.59.4-2.12,1.19-2.2l-.25-1.85a3.88,3.88,0,0,0-2.57,3.25c-.09.6,0,1.32.66,1.55s1.15-.32,1.52-.81c.54-.72,1.83-2.84.33-3.27-1.29-.37-2.42,1.64-2.51,2.66a.75.75,0,0,0,1.39.38,4.58,4.58,0,0,1,1.15-1.6l-1-1a3.61,3.61,0,0,0-.93,2.07l1,.13a1.67,1.67,0,0,1,.33-.73.41.41,0,0,0-.65-.49Z" style="fill:#68db42"/><ellipse cx="243.58" cy="433.46" rx="6" ry="5.5" style="fill:#176800;opacity:0.5"/><path d="M240.89,431.55a2.47,2.47,0,0,0-.67,1.09c-.15.53.69.92.92.38a9.54,9.54,0,0,1,1.07-1.63c.44-.63-.54-1.36-1.06-.82a10.33,10.33,0,0,0-1.49,1.81L241,433a2.36,2.36,0,0,1,1.17-1.46l-.6.08.13,0-.46-.35c.08.12-1,1.41-1.09,1.48l.62-.08-.14-.05.48.37-.08-.13.08.62c.21-.76.67-2,1.5-2.29s.85-2-.25-1.84a3.92,3.92,0,0,0-3.17,4.63c.35,1.3,2.21.73,2-.55a2.17,2.17,0,0,1,1.4-2.37l-.65-1.53c-1.49.78-3,3.21-2.44,4.93l1.78-.76c-.66-1,.58-2.43,1.58-2.57l-.5-1.81c-1.83.76-2,2.3-2.86,3.86a1,1,0,0,0,1.59,1.23,17.29,17.29,0,0,0,2.19-3.16c.58-.89-.8-2-1.49-1.15a9.67,9.67,0,0,0-1.77,2.46,3.47,3.47,0,0,0,.21,2.8l1.54-1.54c-.49-.27-.33-1.08-.17-1.53a2.35,2.35,0,0,1,1.35-1.41l-.52-1.88c-1.38.57-2.84,1.19-3.48,2.66a3.47,3.47,0,0,0,1.09,4c1.08.84,2.53-.48,1.54-1.54a1.85,1.85,0,0,1-.42-1.95c.32-.78,1.13-1,1.84-1.32,1.2-.53.28-2.16-.83-2-3.23.55-4.82,4.52-2.13,6.79l1.54-1.54a1.51,1.51,0,0,1-.47-2,4.26,4.26,0,0,1,2.07-1.36c1-.43.29-2.13-.75-1.78a4.68,4.68,0,0,0-3.05,3,3.12,3.12,0,0,0,1.26,3.79,1.13,1.13,0,0,0,1.54-1.54,2.49,2.49,0,0,1,.95-2.77l-1.34-1.35a34,34,0,0,1-2.13,2.88l1.58,1.22c.42-.8.64-2.77,1.62-3.07a.94.94,0,0,0-.25-1.84c-2.7.1-4.68,3.41-2.86,5.6.75.91,2-.25,1.53-1.19-.17-.36.3-1.22.46-1.55a2.7,2.7,0,0,1,1-1.17.84.84,0,0,0-.65-1.53,3.91,3.91,0,0,0-2.37,1.46,4,4,0,0,0-.56,3.07l2-.55c-.15-.59.4-2.12,1.19-2.2l-.25-1.85a3.88,3.88,0,0,0-2.57,3.25c-.09.6,0,1.32.66,1.55s1.15-.32,1.52-.81c.54-.72,1.83-2.84.33-3.27-1.29-.37-2.42,1.64-2.51,2.66a.75.75,0,0,0,1.39.38,4.58,4.58,0,0,1,1.15-1.6l-.95-1a3.61,3.61,0,0,0-.93,2.07l1,.13a1.67,1.67,0,0,1,.33-.73.41.41,0,0,0-.65-.49Z" style="fill:#68db42"/><ellipse cx="296.58" cy="362.46" rx="6" ry="5.5" style="fill:#176800;opacity:0.5"/><path d="M293.89,360.55a2.47,2.47,0,0,0-.67,1.09c-.15.53.69.92.92.38a9.54,9.54,0,0,1,1.07-1.63c.44-.63-.54-1.36-1.06-.82a10.33,10.33,0,0,0-1.49,1.81L294,362a2.36,2.36,0,0,1,1.17-1.46l-.6.08.13,0-.46-.35c.08.12-1,1.41-1.09,1.48l.62-.08-.14-.05.48.37-.08-.13.08.62c.21-.76.67-2,1.5-2.29s.85-2-.25-1.84a3.92,3.92,0,0,0-3.17,4.63c.35,1.3,2.21.73,2-.55a2.17,2.17,0,0,1,1.4-2.37l-.65-1.53c-1.49.78-3,3.21-2.44,4.93l1.78-.76c-.66-1,.58-2.43,1.58-2.57l-.5-1.81c-1.83.76-2,2.3-2.86,3.86a1,1,0,0,0,1.59,1.23,17.29,17.29,0,0,0,2.19-3.16c.58-.89-.8-2-1.49-1.15a9.67,9.67,0,0,0-1.77,2.46,3.47,3.47,0,0,0,.21,2.8l1.54-1.54c-.49-.27-.33-1.08-.17-1.53a2.35,2.35,0,0,1,1.35-1.41l-.52-1.88c-1.38.57-2.84,1.19-3.48,2.66a3.47,3.47,0,0,0,1.09,4c1.08.84,2.53-.48,1.54-1.54a1.85,1.85,0,0,1-.42-1.95c.32-.78,1.13-1,1.84-1.32,1.2-.53.28-2.16-.83-2-3.23.55-4.82,4.52-2.13,6.79l1.54-1.54a1.51,1.51,0,0,1-.47-2,4.26,4.26,0,0,1,2.07-1.36c1-.43.29-2.13-.75-1.78a4.68,4.68,0,0,0-3.05,3,3.12,3.12,0,0,0,1.26,3.79,1.13,1.13,0,0,0,1.54-1.54,2.49,2.49,0,0,1,.95-2.77l-1.34-1.35a34,34,0,0,1-2.13,2.88l1.58,1.22c.42-.8.64-2.77,1.62-3.07a.94.94,0,0,0-.25-1.84c-2.7.1-4.68,3.41-2.86,5.6.75.91,2-.25,1.53-1.19-.17-.36.3-1.22.46-1.55a2.7,2.7,0,0,1,1.05-1.17.84.84,0,0,0-.65-1.53,3.91,3.91,0,0,0-2.37,1.46,4,4,0,0,0-.56,3.07l2-.55c-.15-.59.4-2.12,1.19-2.2l-.25-1.85a3.88,3.88,0,0,0-2.57,3.25c-.09.6,0,1.32.66,1.55s1.15-.32,1.52-.81c.54-.72,1.83-2.84.33-3.27-1.29-.37-2.42,1.64-2.51,2.66a.75.75,0,0,0,1.39.38,4.58,4.58,0,0,1,1.15-1.6l-1-1a3.61,3.61,0,0,0-.93,2.07l1,.13a1.67,1.67,0,0,1,.33-.73.41.41,0,0,0-.65-.49Z" style="fill:#68db42"/><ellipse cx="422.58" cy="491.46" rx="6" ry="5.5" style="fill:#176800;opacity:0.5"/><path d="M419.89,489.55a2.47,2.47,0,0,0-.67,1.09c-.15.53.69.92.92.38a9.54,9.54,0,0,1,1.07-1.63c.44-.63-.54-1.36-1.06-.82a10.33,10.33,0,0,0-1.49,1.81L420,491a2.36,2.36,0,0,1,1.17-1.46l-.6.08.13,0-.46-.35c.08.12-1,1.41-1.09,1.48l.62-.08-.14-.05.48.37-.08-.13.08.62c.21-.76.67-2,1.5-2.29s.85-2-.25-1.84a3.92,3.92,0,0,0-3.17,4.63c.35,1.3,2.21.73,2-.55a2.17,2.17,0,0,1,1.4-2.37l-.65-1.53c-1.49.78-3,3.21-2.44,4.93l1.78-.76c-.66-1,.58-2.43,1.58-2.57l-.5-1.81c-1.83.76-2,2.3-2.86,3.86a1,1,0,0,0,1.59,1.23,17.29,17.29,0,0,0,2.19-3.16c.58-.89-.8-2-1.49-1.15a9.67,9.67,0,0,0-1.77,2.46,3.47,3.47,0,0,0,.21,2.8l1.54-1.54c-.49-.27-.33-1.08-.17-1.53a2.35,2.35,0,0,1,1.35-1.41l-.52-1.88c-1.38.57-2.84,1.19-3.48,2.66a3.47,3.47,0,0,0,1.09,4c1.08.84,2.53-.48,1.54-1.54a1.85,1.85,0,0,1-.42-1.95c.32-.78,1.13-1,1.84-1.32,1.2-.53.28-2.16-.83-2-3.23.55-4.82,4.52-2.13,6.79l1.54-1.54a1.51,1.51,0,0,1-.47-2,4.26,4.26,0,0,1,2.07-1.36c1-.43.29-2.13-.75-1.78a4.68,4.68,0,0,0-3.05,3,3.12,3.12,0,0,0,1.26,3.79,1.13,1.13,0,0,0,1.54-1.54,2.49,2.49,0,0,1,.95-2.77l-1.34-1.35a34,34,0,0,1-2.13,2.88l1.58,1.22c.42-.8.64-2.77,1.62-3.07a.94.94,0,0,0-.25-1.84c-2.7.1-4.68,3.41-2.86,5.6.75.91,2-.25,1.53-1.19-.17-.36.3-1.22.46-1.55a2.7,2.7,0,0,1,1.05-1.17.84.84,0,0,0-.65-1.53,3.91,3.91,0,0,0-2.37,1.46,4,4,0,0,0-.56,3.07l2-.55c-.15-.59.4-2.12,1.19-2.2l-.25-1.85a3.88,3.88,0,0,0-2.57,3.25c-.09.6,0,1.32.66,1.55s1.15-.32,1.52-.81c.54-.72,1.83-2.84.33-3.27-1.29-.37-2.42,1.64-2.51,2.66a.75.75,0,0,0,1.39.38,4.58,4.58,0,0,1,1.15-1.6l-1-1a3.61,3.61,0,0,0-.93,2.07l1,.13a1.67,1.67,0,0,1,.33-.73.41.41,0,0,0-.65-.49Z" style="fill:#68db42"/><ellipse cx="403.58" cy="547.46" rx="6" ry="5.5" style="fill:#176800;opacity:0.5"/><path d="M400.89,545.55a2.47,2.47,0,0,0-.67,1.09c-.15.53.69.92.92.38a9.54,9.54,0,0,1,1.07-1.63c.44-.63-.54-1.36-1.06-.82a10.33,10.33,0,0,0-1.49,1.81L401,547a2.36,2.36,0,0,1,1.17-1.46l-.6.08.13,0-.46-.35c.08.12-1,1.41-1.09,1.48l.62-.08-.14,0,.48.37-.08-.13.08.62c.21-.76.67-2,1.5-2.29s.85-2-.25-1.84a3.92,3.92,0,0,0-3.17,4.63c.35,1.3,2.21.73,2-.55a2.17,2.17,0,0,1,1.4-2.37l-.65-1.53c-1.49.78-3,3.21-2.44,4.93l1.78-.76c-.66-1,.58-2.43,1.58-2.57l-.5-1.81c-1.83.76-2,2.3-2.86,3.86a1,1,0,0,0,1.59,1.23,17.29,17.29,0,0,0,2.19-3.16c.58-.89-.8-2-1.49-1.15a9.67,9.67,0,0,0-1.77,2.46,3.47,3.47,0,0,0,.21,2.8l1.54-1.54c-.49-.27-.33-1.08-.17-1.53a2.35,2.35,0,0,1,1.35-1.41l-.52-1.88c-1.38.57-2.84,1.19-3.48,2.66a3.47,3.47,0,0,0,1.09,4c1.08.84,2.53-.48,1.54-1.54a1.85,1.85,0,0,1-.42-2c.32-.78,1.13-1,1.84-1.32,1.2-.53.28-2.16-.83-2-3.23.55-4.82,4.52-2.13,6.79l1.54-1.54a1.51,1.51,0,0,1-.47-2,4.26,4.26,0,0,1,2.07-1.36c1-.43.29-2.13-.75-1.78a4.68,4.68,0,0,0-3.05,3,3.12,3.12,0,0,0,1.26,3.79,1.13,1.13,0,0,0,1.54-1.54,2.49,2.49,0,0,1,.95-2.77l-1.34-1.35a34,34,0,0,1-2.13,2.88l1.58,1.22c.42-.8.64-2.77,1.62-3.07a.94.94,0,0,0-.25-1.84c-2.7.1-4.68,3.41-2.86,5.6.75.91,2-.25,1.53-1.19-.17-.36.3-1.22.46-1.55a2.7,2.7,0,0,1,1.05-1.17.84.84,0,0,0-.65-1.53,3.91,3.91,0,0,0-2.37,1.46,4,4,0,0,0-.56,3.07l2-.55c-.15-.59.4-2.12,1.19-2.2l-.25-1.85a3.88,3.88,0,0,0-2.57,3.25c-.09.6,0,1.32.66,1.55s1.15-.32,1.52-.81c.54-.72,1.83-2.84.33-3.27-1.29-.37-2.42,1.64-2.51,2.66a.75.75,0,0,0,1.39.38,4.58,4.58,0,0,1,1.15-1.6l-1-1a3.61,3.61,0,0,0-.93,2.07l1,.13a1.67,1.67,0,0,1,.33-.73.41.41,0,0,0-.65-.49Z" style="fill:#68db42"/><ellipse cx="497.58" cy="569.46" rx="6" ry="5.5" style="fill:#176800;opacity:0.5"/><path d="M494.89,567.55a2.47,2.47,0,0,0-.67,1.09c-.15.53.69.92.92.38a9.54,9.54,0,0,1,1.07-1.63c.44-.63-.54-1.36-1.06-.82a10.33,10.33,0,0,0-1.49,1.81L495,569a2.36,2.36,0,0,1,1.17-1.46l-.6.08.13,0-.46-.35c.08.12-1,1.41-1.09,1.48l.62-.08-.14,0,.48.37-.08-.13.08.62c.21-.76.67-2,1.5-2.29s.85-2-.25-1.84a3.92,3.92,0,0,0-3.17,4.63c.35,1.3,2.21.73,2-.55a2.17,2.17,0,0,1,1.4-2.37l-.65-1.53c-1.49.78-3,3.21-2.44,4.93l1.78-.76c-.66-1,.58-2.43,1.58-2.57l-.5-1.81c-1.83.76-2,2.3-2.86,3.86a1,1,0,0,0,1.59,1.23,17.29,17.29,0,0,0,2.19-3.16c.58-.89-.8-2-1.49-1.15a9.67,9.67,0,0,0-1.77,2.46,3.47,3.47,0,0,0,.21,2.8l1.54-1.54c-.49-.27-.33-1.08-.17-1.53a2.35,2.35,0,0,1,1.35-1.41l-.52-1.88c-1.38.57-2.84,1.19-3.48,2.66a3.47,3.47,0,0,0,1.09,4c1.08.84,2.53-.48,1.54-1.54a1.85,1.85,0,0,1-.42-2c.32-.78,1.13-1,1.84-1.32,1.2-.53.28-2.16-.83-2-3.23.55-4.82,4.52-2.13,6.79l1.54-1.54a1.51,1.51,0,0,1-.47-2,4.26,4.26,0,0,1,2.07-1.36c1-.43.29-2.13-.75-1.78a4.68,4.68,0,0,0-3.05,3,3.12,3.12,0,0,0,1.26,3.79,1.13,1.13,0,0,0,1.54-1.54,2.49,2.49,0,0,1,.95-2.77l-1.34-1.35a34,34,0,0,1-2.13,2.88l1.58,1.22c.42-.8.64-2.77,1.62-3.07a.94.94,0,0,0-.25-1.84c-2.7.1-4.68,3.41-2.86,5.6.75.91,2-.25,1.53-1.19-.17-.36.3-1.22.46-1.55a2.7,2.7,0,0,1,1.05-1.17.84.84,0,0,0-.65-1.53,3.91,3.91,0,0,0-2.37,1.46,4,4,0,0,0-.56,3.07l2-.55c-.15-.59.4-2.12,1.19-2.2l-.25-1.85a3.88,3.88,0,0,0-2.57,3.25c-.09.6,0,1.32.66,1.55s1.15-.32,1.52-.81c.54-.72,1.83-2.84.33-3.27-1.29-.37-2.42,1.64-2.51,2.66a.75.75,0,0,0,1.39.38,4.58,4.58,0,0,1,1.15-1.6l-1-1a3.61,3.61,0,0,0-.93,2.07l1,.13a1.67,1.67,0,0,1,.33-.73.41.41,0,0,0-.65-.49Z" style="fill:#68db42"/><ellipse cx="529.58" cy="525.46" rx="6" ry="5.5" style="fill:#176800;opacity:0.5"/><path d="M526.89,523.55a2.47,2.47,0,0,0-.67,1.09c-.15.53.69.92.92.38a9.54,9.54,0,0,1,1.07-1.63c.44-.63-.54-1.36-1.06-.82a10.33,10.33,0,0,0-1.49,1.81L527,525a2.36,2.36,0,0,1,1.17-1.46l-.6.08.13,0-.46-.35c.08.12-1,1.41-1.09,1.48l.62-.08-.14,0,.48.37-.08-.13.08.62c.21-.76.67-2,1.5-2.29s.85-2-.25-1.84a3.92,3.92,0,0,0-3.17,4.63c.35,1.3,2.21.73,2-.55a2.17,2.17,0,0,1,1.4-2.37l-.65-1.53c-1.49.78-3,3.21-2.44,4.93l1.78-.76c-.66-1,.58-2.43,1.58-2.57l-.5-1.81c-1.83.76-2,2.3-2.86,3.86a1,1,0,0,0,1.59,1.23,17.29,17.29,0,0,0,2.19-3.16c.58-.89-.8-2-1.49-1.15a9.67,9.67,0,0,0-1.77,2.46,3.47,3.47,0,0,0,.21,2.8l1.54-1.54c-.49-.27-.33-1.08-.17-1.53a2.35,2.35,0,0,1,1.35-1.41l-.52-1.88c-1.38.57-2.84,1.19-3.48,2.66a3.47,3.47,0,0,0,1.09,4c1.08.84,2.53-.48,1.54-1.54a1.85,1.85,0,0,1-.42-2c.32-.78,1.13-1,1.84-1.32,1.2-.53.28-2.16-.83-2-3.23.55-4.82,4.52-2.13,6.79l1.54-1.54a1.51,1.51,0,0,1-.47-2,4.26,4.26,0,0,1,2.07-1.36c1-.43.29-2.13-.75-1.78a4.68,4.68,0,0,0-3,3,3.12,3.12,0,0,0,1.26,3.79,1.13,1.13,0,0,0,1.54-1.54,2.49,2.49,0,0,1,1-2.77l-1.34-1.35a34,34,0,0,1-2.13,2.88l1.58,1.22c.42-.8.64-2.77,1.62-3.07a.94.94,0,0,0-.25-1.84c-2.7.1-4.68,3.41-2.86,5.6.75.91,2-.25,1.53-1.19-.17-.36.3-1.22.46-1.55a2.7,2.7,0,0,1,1-1.17.84.84,0,0,0-.65-1.53,3.91,3.91,0,0,0-2.37,1.46,4,4,0,0,0-.56,3.07l2-.55c-.15-.59.4-2.12,1.19-2.2l-.25-1.85a3.88,3.88,0,0,0-2.57,3.25c-.09.6,0,1.32.66,1.55s1.15-.32,1.52-.81c.54-.72,1.83-2.84.33-3.27-1.29-.37-2.42,1.64-2.51,2.66a.75.75,0,0,0,1.39.38,4.58,4.58,0,0,1,1.15-1.6l-1-1a3.61,3.61,0,0,0-.93,2.07l1,.13a1.67,1.67,0,0,1,.33-.73.41.41,0,0,0-.65-.49Z" style="fill:#68db42"/><ellipse cx="584.58" cy="580.46" rx="6" ry="5.5" style="fill:#176800;opacity:0.5"/><path d="M581.89,578.55a2.47,2.47,0,0,0-.67,1.09c-.15.53.69.92.92.38a9.54,9.54,0,0,1,1.07-1.63c.44-.63-.54-1.36-1.06-.82a10.33,10.33,0,0,0-1.49,1.81L582,580a2.36,2.36,0,0,1,1.17-1.46l-.6.08.13,0-.46-.35c.08.12-1,1.41-1.09,1.48l.62-.08-.14,0,.48.37-.08-.13.08.62c.21-.76.67-2,1.5-2.29s.85-2-.25-1.84a3.92,3.92,0,0,0-3.17,4.63c.35,1.3,2.21.73,2-.55a2.17,2.17,0,0,1,1.4-2.37l-.65-1.53c-1.49.78-3,3.21-2.44,4.93l1.78-.76c-.66-1,.58-2.43,1.58-2.57l-.5-1.81c-1.83.76-2,2.3-2.86,3.86a1,1,0,0,0,1.59,1.23,17.29,17.29,0,0,0,2.19-3.16c.58-.89-.8-2-1.49-1.15a9.67,9.67,0,0,0-1.77,2.46,3.47,3.47,0,0,0,.21,2.8l1.54-1.54c-.49-.27-.33-1.08-.17-1.53a2.35,2.35,0,0,1,1.35-1.41l-.52-1.88c-1.38.57-2.84,1.19-3.48,2.66a3.47,3.47,0,0,0,1.09,4c1.08.84,2.53-.48,1.54-1.54a1.85,1.85,0,0,1-.42-2c.32-.78,1.13-1,1.84-1.32,1.2-.53.28-2.16-.83-2-3.23.55-4.82,4.52-2.13,6.79l1.54-1.54a1.51,1.51,0,0,1-.47-2,4.26,4.26,0,0,1,2.07-1.36c1-.43.29-2.13-.75-1.78a4.68,4.68,0,0,0-3,3,3.12,3.12,0,0,0,1.26,3.79,1.13,1.13,0,0,0,1.54-1.54,2.49,2.49,0,0,1,1-2.77l-1.34-1.35a34,34,0,0,1-2.13,2.88l1.58,1.22c.42-.8.64-2.77,1.62-3.07a.94.94,0,0,0-.25-1.84c-2.7.1-4.68,3.41-2.86,5.6.75.91,2-.25,1.53-1.19-.17-.36.3-1.22.46-1.55a2.7,2.7,0,0,1,1-1.17.84.84,0,0,0-.65-1.53,3.91,3.91,0,0,0-2.37,1.46,4,4,0,0,0-.56,3.07l2-.55c-.15-.59.4-2.12,1.19-2.2l-.25-1.85a3.88,3.88,0,0,0-2.57,3.25c-.09.6,0,1.32.66,1.55s1.15-.32,1.52-.81c.54-.72,1.83-2.84.33-3.27-1.29-.37-2.42,1.64-2.51,2.66a.75.75,0,0,0,1.39.38,4.58,4.58,0,0,1,1.15-1.6l-1-1a3.61,3.61,0,0,0-.93,2.07l1,.13a1.67,1.67,0,0,1,.33-.73.41.41,0,0,0-.65-.49Z" style="fill:#68db42"/><ellipse cx="459.58" cy="629.46" rx="6" ry="5.5" style="fill:#176800;opacity:0.5"/><path d="M456.89,627.55a2.47,2.47,0,0,0-.67,1.09c-.15.53.69.92.92.38a9.54,9.54,0,0,1,1.07-1.63c.44-.63-.54-1.36-1.06-.82a10.33,10.33,0,0,0-1.49,1.81L457,629a2.36,2.36,0,0,1,1.17-1.46l-.6.08.13,0-.46-.35c.08.12-1,1.41-1.09,1.48l.62-.08-.14,0,.48.37-.08-.13.08.62c.21-.76.67-2,1.5-2.29s.85-2-.25-1.84a3.92,3.92,0,0,0-3.17,4.63c.35,1.3,2.21.73,2-.55a2.17,2.17,0,0,1,1.4-2.37l-.65-1.53c-1.49.78-3,3.21-2.44,4.93l1.78-.76c-.66-1,.58-2.43,1.58-2.57l-.5-1.81c-1.83.76-2,2.3-2.86,3.86a1,1,0,0,0,1.59,1.23,17.29,17.29,0,0,0,2.19-3.16c.58-.89-.8-2-1.49-1.15a9.67,9.67,0,0,0-1.77,2.46,3.47,3.47,0,0,0,.21,2.8l1.54-1.54c-.49-.27-.33-1.08-.17-1.53a2.35,2.35,0,0,1,1.35-1.41l-.52-1.88c-1.38.57-2.84,1.19-3.48,2.66a3.47,3.47,0,0,0,1.09,4c1.08.84,2.53-.48,1.54-1.54a1.85,1.85,0,0,1-.42-2c.32-.78,1.13-1,1.84-1.32,1.2-.53.28-2.16-.83-2-3.23.55-4.82,4.52-2.13,6.79l1.54-1.54a1.51,1.51,0,0,1-.47-2,4.26,4.26,0,0,1,2.07-1.36c1-.43.29-2.13-.75-1.78a4.68,4.68,0,0,0-3.05,3,3.12,3.12,0,0,0,1.26,3.79,1.13,1.13,0,0,0,1.54-1.54,2.49,2.49,0,0,1,.95-2.77l-1.34-1.35a34,34,0,0,1-2.13,2.88l1.58,1.22c.42-.8.64-2.77,1.62-3.07a.94.94,0,0,0-.25-1.84c-2.7.1-4.68,3.41-2.86,5.6.75.91,2-.25,1.53-1.19-.17-.36.3-1.22.46-1.55a2.7,2.7,0,0,1,1.05-1.17.84.84,0,0,0-.65-1.53,3.91,3.91,0,0,0-2.37,1.46,4,4,0,0,0-.56,3.07l2-.55c-.15-.59.4-2.12,1.19-2.2l-.25-1.85a3.88,3.88,0,0,0-2.57,3.25c-.09.6,0,1.32.66,1.55s1.15-.32,1.52-.81c.54-.72,1.83-2.84.33-3.27-1.29-.37-2.42,1.64-2.51,2.66a.75.75,0,0,0,1.39.38,4.58,4.58,0,0,1,1.15-1.6l-1-1a3.61,3.61,0,0,0-.93,2.07l1,.13a1.67,1.67,0,0,1,.33-.73.41.41,0,0,0-.65-.49Z" style="fill:#68db42"/><ellipse cx="620.58" cy="647.46" rx="6" ry="5.5" style="fill:#176800;opacity:0.5"/><path d="M617.89,645.55a2.47,2.47,0,0,0-.67,1.09c-.15.53.69.92.92.38a9.54,9.54,0,0,1,1.07-1.63c.44-.63-.54-1.36-1.06-.82a10.33,10.33,0,0,0-1.49,1.81L618,647a2.36,2.36,0,0,1,1.17-1.46l-.6.08.13,0-.46-.35c.08.12-1,1.41-1.09,1.48l.62-.08-.14,0,.48.37-.08-.13.08.62c.21-.76.67-2,1.5-2.29s.85-2-.25-1.84a3.92,3.92,0,0,0-3.17,4.63c.35,1.3,2.21.73,2-.55a2.17,2.17,0,0,1,1.4-2.37l-.65-1.53c-1.49.78-3,3.21-2.44,4.93l1.78-.76c-.66-1,.58-2.43,1.58-2.57l-.5-1.81c-1.83.76-2,2.3-2.86,3.86a1,1,0,0,0,1.59,1.23,17.29,17.29,0,0,0,2.19-3.16c.58-.89-.8-2-1.49-1.15a9.67,9.67,0,0,0-1.77,2.46,3.47,3.47,0,0,0,.21,2.8l1.54-1.54c-.49-.27-.33-1.08-.17-1.53a2.35,2.35,0,0,1,1.35-1.41l-.52-1.88c-1.38.57-2.84,1.19-3.48,2.66a3.47,3.47,0,0,0,1.09,4c1.08.84,2.53-.48,1.54-1.54a1.85,1.85,0,0,1-.42-2c.32-.78,1.13-1,1.84-1.32,1.2-.53.28-2.16-.83-2-3.23.55-4.82,4.52-2.13,6.79l1.54-1.54a1.51,1.51,0,0,1-.47-2,4.26,4.26,0,0,1,2.07-1.36c1-.43.29-2.13-.75-1.78a4.68,4.68,0,0,0-3,3,3.12,3.12,0,0,0,1.26,3.79,1.13,1.13,0,0,0,1.54-1.54,2.49,2.49,0,0,1,1-2.77l-1.34-1.35a34,34,0,0,1-2.13,2.88l1.58,1.22c.42-.8.64-2.77,1.62-3.07a.94.94,0,0,0-.25-1.84c-2.7.1-4.68,3.41-2.86,5.6.75.91,2-.25,1.53-1.19-.17-.36.3-1.22.46-1.55a2.7,2.7,0,0,1,1-1.17.84.84,0,0,0-.65-1.53,3.91,3.91,0,0,0-2.37,1.46,4,4,0,0,0-.56,3.07l2-.55c-.15-.59.4-2.12,1.19-2.2l-.25-1.85a3.88,3.88,0,0,0-2.57,3.25c-.09.6,0,1.32.66,1.55s1.15-.32,1.52-.81c.54-.72,1.83-2.84.33-3.27-1.29-.37-2.42,1.64-2.51,2.66a.75.75,0,0,0,1.39.38,4.58,4.58,0,0,1,1.15-1.6l-1-1a3.61,3.61,0,0,0-.93,2.07l1,.13a1.67,1.67,0,0,1,.33-.73.41.41,0,0,0-.65-.49Z" style="fill:#68db42"/><ellipse cx="562.58" cy="657.46" rx="6" ry="5.5" style="fill:#176800;opacity:0.5"/><path d="M559.89,655.55a2.47,2.47,0,0,0-.67,1.09c-.15.53.69.92.92.38a9.54,9.54,0,0,1,1.07-1.63c.44-.63-.54-1.36-1.06-.82a10.33,10.33,0,0,0-1.49,1.81L560,657a2.36,2.36,0,0,1,1.17-1.46l-.6.08.13,0-.46-.35c.08.12-1,1.41-1.09,1.48l.62-.08-.14,0,.48.37-.08-.13.08.62c.21-.76.67-2,1.5-2.29s.85-2-.25-1.84a3.92,3.92,0,0,0-3.17,4.63c.35,1.3,2.21.73,2-.55a2.17,2.17,0,0,1,1.4-2.37l-.65-1.53c-1.49.78-3,3.21-2.44,4.93l1.78-.76c-.66-1,.58-2.43,1.58-2.57l-.5-1.81c-1.83.76-2,2.3-2.86,3.86a1,1,0,0,0,1.59,1.23,17.29,17.29,0,0,0,2.19-3.16c.58-.89-.8-2-1.49-1.15a9.67,9.67,0,0,0-1.77,2.46,3.47,3.47,0,0,0,.21,2.8l1.54-1.54c-.49-.27-.33-1.08-.17-1.53a2.35,2.35,0,0,1,1.35-1.41l-.52-1.88c-1.38.57-2.84,1.19-3.48,2.66a3.47,3.47,0,0,0,1.09,4c1.08.84,2.53-.48,1.54-1.54a1.85,1.85,0,0,1-.42-2c.32-.78,1.13-1,1.84-1.32,1.2-.53.28-2.16-.83-2-3.23.55-4.82,4.52-2.13,6.79l1.54-1.54a1.51,1.51,0,0,1-.47-2,4.26,4.26,0,0,1,2.07-1.36c1-.43.29-2.13-.75-1.78a4.68,4.68,0,0,0-3,3,3.12,3.12,0,0,0,1.26,3.79,1.13,1.13,0,0,0,1.54-1.54,2.49,2.49,0,0,1,1-2.77l-1.34-1.35a34,34,0,0,1-2.13,2.88l1.58,1.22c.42-.8.64-2.77,1.62-3.07a.94.94,0,0,0-.25-1.84c-2.7.1-4.68,3.41-2.86,5.6.75.91,2-.25,1.53-1.19-.17-.36.3-1.22.46-1.55a2.7,2.7,0,0,1,1-1.17.84.84,0,0,0-.65-1.53,3.91,3.91,0,0,0-2.37,1.46,4,4,0,0,0-.56,3.07l2-.55c-.15-.59.4-2.12,1.19-2.2l-.25-1.85a3.88,3.88,0,0,0-2.57,3.25c-.09.6,0,1.32.66,1.55s1.15-.32,1.52-.81c.54-.72,1.83-2.84.33-3.27-1.29-.37-2.42,1.64-2.51,2.66a.75.75,0,0,0,1.39.38,4.58,4.58,0,0,1,1.15-1.6l-1-1a3.61,3.61,0,0,0-.93,2.07l1,.13a1.67,1.67,0,0,1,.33-.73.41.41,0,0,0-.65-.49Z" style="fill:#68db42"/><ellipse cx="652.58" cy="590.46" rx="6" ry="5.5" style="fill:#176800;opacity:0.5"/><path d="M649.89,588.55a2.47,2.47,0,0,0-.67,1.09c-.15.53.69.92.92.38a9.54,9.54,0,0,1,1.07-1.63c.44-.63-.54-1.36-1.06-.82a10.33,10.33,0,0,0-1.49,1.81L650,590a2.36,2.36,0,0,1,1.17-1.46l-.6.08.13,0-.46-.35c.08.12-1,1.41-1.09,1.48l.62-.08-.14,0,.48.37-.08-.13.08.62c.21-.76.67-2,1.5-2.29s.85-2-.25-1.84a3.92,3.92,0,0,0-3.17,4.63c.35,1.3,2.21.73,2-.55a2.17,2.17,0,0,1,1.4-2.37l-.65-1.53c-1.49.78-3,3.21-2.44,4.93l1.78-.76c-.66-1,.58-2.43,1.58-2.57l-.5-1.81c-1.83.76-2,2.3-2.86,3.86a1,1,0,0,0,1.59,1.23,17.29,17.29,0,0,0,2.19-3.16c.58-.89-.8-2-1.49-1.15a9.67,9.67,0,0,0-1.77,2.46,3.47,3.47,0,0,0,.21,2.8l1.54-1.54c-.49-.27-.33-1.08-.17-1.53a2.35,2.35,0,0,1,1.35-1.41l-.52-1.88c-1.38.57-2.84,1.19-3.48,2.66a3.47,3.47,0,0,0,1.09,4c1.08.84,2.53-.48,1.54-1.54a1.85,1.85,0,0,1-.42-2c.32-.78,1.13-1,1.84-1.32,1.2-.53.28-2.16-.83-2-3.23.55-4.82,4.52-2.13,6.79l1.54-1.54a1.51,1.51,0,0,1-.47-2,4.26,4.26,0,0,1,2.07-1.36c1-.43.29-2.13-.75-1.78a4.68,4.68,0,0,0-3,3,3.12,3.12,0,0,0,1.26,3.79,1.13,1.13,0,0,0,1.54-1.54,2.49,2.49,0,0,1,1-2.77l-1.34-1.35a34,34,0,0,1-2.13,2.88l1.58,1.22c.42-.8.64-2.77,1.62-3.07a.94.94,0,0,0-.25-1.84c-2.7.1-4.68,3.41-2.86,5.6.75.91,2-.25,1.53-1.19-.17-.36.3-1.22.46-1.55a2.7,2.7,0,0,1,1-1.17.84.84,0,0,0-.65-1.53,3.91,3.91,0,0,0-2.37,1.46,4,4,0,0,0-.56,3.07l2-.55c-.15-.59.4-2.12,1.19-2.2l-.25-1.85a3.88,3.88,0,0,0-2.57,3.25c-.09.6,0,1.32.66,1.55s1.15-.32,1.52-.81c.54-.72,1.83-2.84.33-3.27-1.29-.37-2.42,1.64-2.51,2.66a.75.75,0,0,0,1.39.38,4.58,4.58,0,0,1,1.15-1.6l-1-1a3.61,3.61,0,0,0-.93,2.07l1,.13a1.67,1.67,0,0,1,.33-.73.41.41,0,0,0-.65-.49Z" style="fill:#68db42"/><ellipse cx="686.58" cy="633.46" rx="6" ry="5.5" style="fill:#176800;opacity:0.5"/><path d="M683.89,631.55a2.47,2.47,0,0,0-.67,1.09c-.15.53.69.92.92.38a9.54,9.54,0,0,1,1.07-1.63c.44-.63-.54-1.36-1.06-.82a10.33,10.33,0,0,0-1.49,1.81L684,633a2.36,2.36,0,0,1,1.17-1.46l-.6.08.13,0-.46-.35c.08.12-1,1.41-1.09,1.48l.62-.08-.14,0,.48.37-.08-.13.08.62c.21-.76.67-2,1.5-2.29s.85-2-.25-1.84a3.92,3.92,0,0,0-3.17,4.63c.35,1.3,2.21.73,2-.55a2.17,2.17,0,0,1,1.4-2.37l-.65-1.53c-1.49.78-3,3.21-2.44,4.93l1.78-.76c-.66-1,.58-2.43,1.58-2.57l-.5-1.81c-1.83.76-2,2.3-2.86,3.86a1,1,0,0,0,1.59,1.23,17.29,17.29,0,0,0,2.19-3.16c.58-.89-.8-2-1.49-1.15a9.67,9.67,0,0,0-1.77,2.46,3.47,3.47,0,0,0,.21,2.8l1.54-1.54c-.49-.27-.33-1.08-.17-1.53a2.35,2.35,0,0,1,1.35-1.41l-.52-1.88c-1.38.57-2.84,1.19-3.48,2.66a3.47,3.47,0,0,0,1.09,4c1.08.84,2.53-.48,1.54-1.54a1.85,1.85,0,0,1-.42-2c.32-.78,1.13-1,1.84-1.32,1.2-.53.28-2.16-.83-2-3.23.55-4.82,4.52-2.13,6.79l1.54-1.54a1.51,1.51,0,0,1-.47-2,4.26,4.26,0,0,1,2.07-1.36c1-.43.29-2.13-.75-1.78a4.68,4.68,0,0,0-3,3,3.12,3.12,0,0,0,1.26,3.79,1.13,1.13,0,0,0,1.54-1.54,2.49,2.49,0,0,1,1-2.77l-1.34-1.35a34,34,0,0,1-2.13,2.88l1.58,1.22c.42-.8.64-2.77,1.62-3.07a.94.94,0,0,0-.25-1.84c-2.7.1-4.68,3.41-2.86,5.6.75.91,2-.25,1.53-1.19-.17-.36.3-1.22.46-1.55a2.7,2.7,0,0,1,1-1.17.84.84,0,0,0-.65-1.53,3.91,3.91,0,0,0-2.37,1.46,4,4,0,0,0-.56,3.07l2-.55c-.15-.59.4-2.12,1.19-2.2l-.25-1.85a3.88,3.88,0,0,0-2.57,3.25c-.09.6,0,1.32.66,1.55s1.15-.32,1.52-.81c.54-.72,1.83-2.84.33-3.27-1.29-.37-2.42,1.64-2.51,2.66a.75.75,0,0,0,1.39.38,4.58,4.58,0,0,1,1.15-1.6l-1-1a3.61,3.61,0,0,0-.93,2.07l1,.13a1.67,1.67,0,0,1,.33-.73.41.41,0,0,0-.65-.49Z" style="fill:#68db42"/><ellipse cx="734.58" cy="634.46" rx="6" ry="5.5" style="fill:#176800;opacity:0.5"/><path d="M731.89,632.55a2.47,2.47,0,0,0-.67,1.09c-.15.53.69.92.92.38a9.54,9.54,0,0,1,1.07-1.63c.44-.63-.54-1.36-1.06-.82a10.33,10.33,0,0,0-1.49,1.81L732,634a2.36,2.36,0,0,1,1.17-1.46l-.6.08.13,0-.46-.35c.08.12-1,1.41-1.09,1.48l.62-.08-.14,0,.48.37-.08-.13.08.62c.21-.76.67-2,1.5-2.29s.85-2-.25-1.84a3.92,3.92,0,0,0-3.17,4.63c.35,1.3,2.21.73,2-.55a2.17,2.17,0,0,1,1.4-2.37l-.65-1.53c-1.49.78-3,3.21-2.44,4.93l1.78-.76c-.66-1,.58-2.43,1.58-2.57l-.5-1.81c-1.83.76-2,2.3-2.86,3.86a1,1,0,0,0,1.59,1.23,17.29,17.29,0,0,0,2.19-3.16c.58-.89-.8-2-1.49-1.15a9.67,9.67,0,0,0-1.77,2.46,3.47,3.47,0,0,0,.21,2.8l1.54-1.54c-.49-.27-.33-1.08-.17-1.53a2.35,2.35,0,0,1,1.35-1.41l-.52-1.88c-1.38.57-2.84,1.19-3.48,2.66a3.47,3.47,0,0,0,1.09,4c1.08.84,2.53-.48,1.54-1.54a1.85,1.85,0,0,1-.42-2c.32-.78,1.13-1,1.84-1.32,1.2-.53.28-2.16-.83-2-3.23.55-4.82,4.52-2.13,6.79l1.54-1.54a1.51,1.51,0,0,1-.47-2,4.26,4.26,0,0,1,2.07-1.36c1-.43.29-2.13-.75-1.78a4.68,4.68,0,0,0-3,3,3.12,3.12,0,0,0,1.26,3.79,1.13,1.13,0,0,0,1.54-1.54,2.49,2.49,0,0,1,1-2.77l-1.34-1.35a34,34,0,0,1-2.13,2.88l1.58,1.22c.42-.8.64-2.77,1.62-3.07a.94.94,0,0,0-.25-1.84c-2.7.1-4.68,3.41-2.86,5.6.75.91,2-.25,1.53-1.19-.17-.36.3-1.22.46-1.55a2.7,2.7,0,0,1,1-1.17.84.84,0,0,0-.65-1.53,3.91,3.91,0,0,0-2.37,1.46,4,4,0,0,0-.56,3.07l2-.55c-.15-.59.4-2.12,1.19-2.2l-.25-1.85a3.88,3.88,0,0,0-2.57,3.25c-.09.6,0,1.32.66,1.55s1.15-.32,1.52-.81c.54-.72,1.83-2.84.33-3.27-1.29-.37-2.42,1.64-2.51,2.66a.75.75,0,0,0,1.39.38,4.58,4.58,0,0,1,1.15-1.6l-1-1a3.61,3.61,0,0,0-.93,2.07l1,.13a1.67,1.67,0,0,1,.33-.73.41.41,0,0,0-.65-.49Z" style="fill:#68db42"/></g></g></svg>