<svg xmlns="http://www.w3.org/2000/svg" xmlns:xlink="http://www.w3.org/1999/xlink" viewBox="0 0 1000 1000"><defs><clipPath id="b172bbf3-ab7d-4bdf-91fd-0c21bf7b22c8"><path d="M245.76,487.69c-16-6-145-65.55-115.2-135s100.85-34.72,129-54.56,121.51-39.67,119,55.39S245.76,487.69,245.76,487.69Z" style="fill:#37c61a"/></clipPath><clipPath id="ea718265-39e7-469b-958c-6ad9fb5f9c07"><path d="M742.41,569.78s80.33,33.78,133.47,7,45.48,70-44.38,80.1-129.66-76.46-129.66-76.46Z" style="fill:#37c61a"/></clipPath><clipPath id="a04ecfa0-dd58-4616-a915-31b34fea8488"><path d="M709.26,597.34s77.26,59.37,142.33,45.55,29.28,88.65-70.76,74S662.35,597.34,662.35,597.34Z" style="fill:#37c61a"/></clipPath><clipPath id="bec20ce5-2c3e-44b6-9e1e-f34e1236a610"><path d="M279.25,483.81s-94.42,24-148.75-14.35-61.89,69.89,35.8,95.94,156.05-63.08,156.05-63.08Z" style="fill:#37c61a"/></clipPath><clipPath id="ba9f2917-12ab-45d3-97ec-4e9a54354317"><path d="M782.91,571.25c10.19,54.34-196.81,89.18-297.81,66.34-104.88-23.71-259-138-237.46-187.36,26.25-60.18,164.74-169.76,312.55-136.34S770.31,504.06,782.91,571.25Z" style="fill:#83c500"/></clipPath></defs><g id="b8b1e82a-ad29-421d-aa21-66efef03e812" data-name="Layer 3"><g id="acef2e9f-d36c-47ca-8f89-746672313b2a" data-name="Layer 4"><path d="M245.76,487.69c-16-6-145-65.55-115.2-135s100.85-34.72,129-54.56,121.51-39.67,119,55.39S245.76,487.69,245.76,487.69Z" style="fill:#37c61a"/><g style="clip-path:url(#b172bbf3-ab7d-4bdf-91fd-0c21bf7b22c8)"><path d="M247.11,289.89s73.57-21.49,75.22,11.57-105,167-195.9,105l78.53,81,63.64,8.27,82.66-47.94,56.21-74.4-8.27-69.43L343,264.26Z" style="fill:#176800;opacity:0.5"/></g><path d="M742.41,569.78s80.33,33.78,133.47,7,45.48,70-44.38,80.1-129.66-76.46-129.66-76.46Z" style="fill:#37c61a"/><g style="clip-path:url(#ea718265-39e7-469b-958c-6ad9fb5f9c07)"><path d="M861.85,574.79s32.89,0,33.83,13.15S874.07,668.75,727.49,602l-4.7,14.09,50.74,39.47,92.08,1.88,32.89-10.34,16.91-41.34-4.7-35.71Z" style="fill:#176800;opacity:0.5"/></g><path d="M709.26,597.34s77.26,59.37,142.33,45.55,29.28,88.65-70.76,74S662.35,597.34,662.35,597.34Z" style="fill:#37c61a"/><g style="clip-path:url(#a04ecfa0-dd58-4616-a915-31b34fea8488)"><path d="M860,637.74s-.11,18.64-4.69,31c-9.4,25.37-109,36.65-165.38-47.92l-18.79,18.79,34.76,53.56,57.32,30.07,60.14,1.88L858.1,711l28.18-31.95,1.88-35.71L868.43,634Z" style="fill:#176800;opacity:0.5"/></g><path d="M279.25,483.81s-94.42,24-148.75-14.35-61.89,69.89,35.8,95.94,156.05-63.08,156.05-63.08Z" style="fill:#37c61a"/><g style="clip-path:url(#bec20ce5-2c3e-44b6-9e1e-f34e1236a610)"><path d="M218.21,477.07S160,619,73.5,468.61l17.85,67.65,26.31,45.11,89.27,2.82,77.45-14L307,536.26l-53.65-49.51Z" style="fill:#176800;opacity:0.5"/></g><path d="M782.91,571.25c10.19,54.34-196.81,89.18-297.81,66.34-104.88-23.71-259-138-237.46-187.36,26.25-60.18,164.74-169.76,312.55-136.34S770.31,504.06,782.91,571.25Z" style="fill:#83c500"/><g style="clip-path:url(#ba9f2917-12ab-45d3-97ec-4e9a54354317)"><ellipse cx="532.93" cy="432.67" rx="155.32" ry="331.74" transform="translate(-6.61 857.06) rotate(-77.26)" style="fill:#37c61a;stroke:#229e08;stroke-miterlimit:10;stroke-width:6px"/><path d="M283.1,428.59c-10.47-20.69,94.64-103.36,175-91,26,4-22,69-52,102C379.72,468.61,327.1,515.59,283.1,428.59Z" style="fill:#60db42"/><path d="M596.69,372.77s53.51,137.06,42.93,228.16c0,0,119.31,7.77,166.49-42,0,0-39.68-182.09-147.26-222.74S596.69,372.77,596.69,372.77Z" style="fill:#37c61a;stroke:#229e08;stroke-miterlimit:10;stroke-width:6px"/><path d="M510.91,347.66S403.11,454.93,381.1,546.14c-1.34,5.6,158.56,64.43,258.63,55.21,0,0,75.26-72.81-62.06-249.21Z" style="fill:#37c61a;stroke:#229e08;stroke-miterlimit:10;stroke-width:6px"/><path d="M451.4,296.64s30.21,54.2,49,65,90.09,27.72,101.07,26.12S666,355,670.73,348.68,575,295.2,575,295.2Z" style="fill:#37c61a;stroke:#229e08;stroke-miterlimit:10;stroke-width:6px"/><path d="M490.44,268.23S596.1,363.59,589.1,487.59s-211.49,137-336.75,6l-6.25,69,252,104,150,3,125-26L822.31,564,785.1,421.59,669.64,306.42Z" style="fill:#176800;opacity:0.5"/></g><circle cx="252.07" cy="329.57" r="8.27" style="fill:#232533"/></g></g></svg>