<svg xmlns="http://www.w3.org/2000/svg" xmlns:xlink="http://www.w3.org/1999/xlink" viewBox="0 0 1000 1000"><defs><clipPath id="baac96e6-1ea3-47aa-a423-21ce331f951e"><path d="M335.46,388.15s-54.35,239-118.58,320.72a9.71,9.71,0,0,0,4.8,15.34c39.27,11.86,148.7,44.42,202.19,55.31a17.36,17.36,0,0,0,19.36-10c20-45.41,87.15-208.17,99.53-377.57Z" style="fill:#38c61a"/></clipPath><clipPath id="bab890ee-9a24-4767-9bd6-f5402e716873"><path d="M215.69,392c-38.06-12.94-25.34-63.72-10-104.41s-13.82-99,10.75-112.87,180.42,61.43,360.85,49.14,221-76.37,234.17-23c17.66,71.4-13.82,52.21,7.68,153.55,12.83,60.47-122.84,84.46-314.79,86.76S254.08,405,215.69,392Z" style="fill:#2bbf11"/></clipPath><clipPath id="a033619e-33d8-4ba2-bc03-fc06dee4a129"><path d="M495.16,292.17c-3.84-17.66-32.25-92.13,7.68-96s89.83-4.61,112.09-16.12,49.14-24.57,66.8,56c15.86,72.39,44.1,258.7,69.15,318.19A13.78,13.78,0,0,1,741,573.2c-34.43,7.1-111.44,22.21-179.06,29.91a14.64,14.64,0,0,1-16.19-12.91c-3.06-26.91-9.69-85-13.72-118.37C526.64,427.3,495.16,292.17,495.16,292.17Z" style="fill:#37c61a"/></clipPath></defs><g id="fb19bb70-8669-45b8-bc83-63270536210b" data-name="Layer 3"><g id="be6c0960-51b4-46ee-89b5-de5aa6bd59a9" data-name="Layer 4"><path d="M213.47,767.87a94.29,94.29,0,0,0,24.46-28.12c5.87-10.3,11.52-22.65,11.22-34.72-.06-2.4-3.76-3.83-4.89-1.32-4.76,10.58-7.54,21.78-13.11,32.07a142.14,142.14,0,0,1-20.8,29c-2,2.12.94,4.83,3.12,3.12Z" style="fill:#a05000"/><path d="M250.4,780.83c14.21-18.53,27.73-38.13,35.32-60.41.83-2.44-2.86-3.93-4.11-1.74-11.45,20.13-21.58,41-35.1,59.88-1.71,2.39,2.16,4.51,3.89,2.27Z" style="fill:#a05000"/><path d="M284.77,791.61c15.55-15.7,28.39-34.09,35.5-55.14.65-2-2.41-3.26-3.35-1.41-9.71,19.15-20.69,37.59-35,53.7-1.71,1.93,1,4.71,2.85,2.85Z" style="fill:#a05000"/><path d="M316.61,803a298.62,298.62,0,0,0,23.7-31c7.07-10.77,14.05-22,17.95-34.4.94-3-3.1-4.23-4.71-2-7.4,10.31-13.22,21.71-20,32.42s-13.94,21.18-21.68,31.23c-2.1,2.73,2.53,6.31,4.78,3.69Z" style="fill:#a05000"/><path d="M356.35,814.34c14.78-17.39,25-39.28,30.82-61.27.6-2.29-2.82-3.9-3.94-1.66-10.18,20.2-17,41.63-30.85,59.86-1.73,2.27,2.11,5.25,4,3.07Z" style="fill:#a05000"/><path d="M395.56,821.57c9.72-19,20.45-39.49,24.36-60.61.39-2.12-2.53-3.69-3.68-1.55-4.92,9.12-8.4,19-12.26,28.63-4.16,10.36-8.34,20.73-12.79,31-1.26,2.91,2.85,5.52,4.37,2.56Z" style="fill:#a05000"/><path d="M432.42,828.52c1.25-10.91,2-21.79,2.86-32.73.91-11.16,3.48-21.77,6.32-32.56a2.22,2.22,0,0,0-4-1.7c-11.67,19.55-8.59,45.23-8.9,67,0,2.47,3.48,2.33,3.75,0Z" style="fill:#a05000"/><path d="M181,746.52c13.63-8.63,28-17.81,38.42-30.35,1.17-1.41-.33-3.88-2.1-2.72-13.51,8.8-25.3,20.18-38.22,29.83-1.88,1.41-.19,4.56,1.9,3.24Z" style="fill:#a05000"/><path d="M541,638.14c8.67-21.56,18-43.26,20.82-66.51.23-1.85-2.61-2.07-3.13-.43-6.86,22.06-11.12,44.86-19.77,66.36-.52,1.29,1.57,1.85,2.08.58Z" style="fill:#a05000"/><path d="M587,647.14c5.37-20.86,10-42.7,11.55-64.21.19-2.52-3.66-2.92-4.32-.58-5.87,20.74-8.93,42.85-11,64.28-.21,2.18,3.24,2.57,3.78.51Z" style="fill:#a05000"/><path d="M631.47,639.77c2.37-10.43,1.77-20.59.31-31.09-1.53-11-2.87-22.14-4.5-33.17-.22-1.54-2.52-1.32-2.89,0-2.81,10-.95,20.28.71,30.29,1.81,11,3.7,22.27,2.41,33.43-.26,2.27,3.46,2.73,4,.54Z" style="fill:#a05000"/><path d="M668.48,633.43c-4.09-20.17-5-40.43-5.44-60.95,0-1.79-2.83-2.3-3.22-.44-4.36,20.73-1.81,42.48,4.95,62.42a1.93,1.93,0,0,0,3.71-1Z" style="fill:#a05000"/><path d="M707.93,624.23c-3.47-17.3-6.24-34.65-10.3-51.83-.51-2.13-4-1.72-3.87.52,1.44,18,5.51,35,10.46,52.33.69,2.4,4.19,1.39,3.71-1Z" style="fill:#a05000"/><path d="M747.27,618.57c-.65-5.49-3.18-9.78-5.45-14.76a183.66,183.66,0,0,1-6.94-17.54c-3.54-10.51-6-23.17-14.37-31.09-1.06-1-3.11,0-2.59,1.5,3.94,11.47,6.27,23.62,10.84,34.84,3.86,9.46,8.87,22.19,18.44,27.1,0,0,.08,0,.07,0Z" style="fill:#a05000"/><path d="M782.1,599.88c-4.73-9.7-12.59-17-20.39-24.19-8.82-8.2-18.4-17-28.87-23-1.89-1.08-3.5,1.33-2.22,2.87,7.41,8.91,17.21,16.47,26.25,23.66,8.1,6.46,18.51,12.35,23.53,21.7.61,1.12,2.26.13,1.7-1Z" style="fill:#a05000"/><path d="M197.29,756.56a186.09,186.09,0,0,0,22.77-25.08c3.34-4.43,6.38-9.1,9.3-13.82s6.34-9.94,7.33-15.57c.33-1.84-1.8-3.41-3.29-1.92-3.62,3.66-5.93,8.44-8.51,12.85-2.81,4.79-5.8,9.45-8.88,14.07-6.36,9.54-13.13,18.93-20.38,27.82a1.17,1.17,0,0,0,1.66,1.65Z" style="fill:#a05000"/><path d="M233.12,775.11c8.48-5.25,14-16,19.07-24.32,5.55-9.12,11.72-19.4,13.87-30a2.12,2.12,0,0,0-3.85-1.62C256,727.87,252,738.33,247,747.74c-4.62,8.72-11.77,17.62-13.92,27.32a0,0,0,0,0,.07.05Z" style="fill:#a05000"/><path d="M269.44,785.72c6.56-9.22,12.84-18.17,18.11-28.21C292,749,298.67,738.58,299,728.81a1.8,1.8,0,0,0-3-1.26c-3.42,3.56-5.11,8-7.21,12.37-2.41,5-4.76,10.11-7.2,15.14-4.77,9.78-9.09,19.83-14,29.52a1.13,1.13,0,0,0,1.94,1.14Z" style="fill:#a05000"/><path d="M305.7,791.27c11.83-14.36,23.26-30.9,27.32-49.36.51-2.31-2.7-3.87-3.94-1.66-9.07,16.13-16,33.27-26.18,48.86-1.08,1.67,1.5,3.73,2.8,2.16Z" style="fill:#a05000"/><path d="M338.25,805.05c13.88-16.22,27.8-37.86,28.76-59.83.1-2.3-3.56-3.48-4.55-1.23-4.34,9.89-7.08,20.39-11.43,30.3a175.29,175.29,0,0,1-15.73,28.49c-1.19,1.74,1.56,3.89,2.95,2.27Z" style="fill:#a05000"/><path d="M378.67,818.52c6.67-20.2,16.27-39.65,20.73-60.56.6-2.83-3.4-4.87-4.89-2.06-10.17,19.19-14.3,40.74-20.18,61.42-.8,2.81,3.43,3.93,4.34,1.2Z" style="fill:#a05000"/><path d="M417,823.39c4.79-18.7,10.08-38.08,12-57.33.27-2.67-3.49-2.69-4.33-.58-7,17.73-10.43,37.59-13.21,56.39-.52,3.54,4.58,5.19,5.52,1.52Z" style="fill:#a05000"/><path d="M562.84,645.18c4.33-20.31,10.32-40.78,8.71-61.78-.16-2.1-3.33-2.82-3.86-.53C563,603,563.23,624,559.32,644.21c-.45,2.29,3,3.29,3.52,1Z" style="fill:#a05000"/><path d="M614,644.1c.57-10.56.6-21.06.47-31.64-.13-9.9.16-20.52-2.29-30.17-.45-1.75-3.36-1.91-3.71,0-1.8,9.79-1,20.25-.81,30.17.21,10.56.37,21.09.9,31.64a2.72,2.72,0,0,0,5.44,0Z" style="fill:#a05000"/><path d="M651.22,639c-1.93-21.31-1.77-43-6.18-64.06-.29-1.38-2.2-.93-2.31.31-1.85,21.51,2.29,43,5.54,64.15.25,1.66,3.1,1.28,3-.4Z" style="fill:#a05000"/><path d="M688.49,626.32a180.51,180.51,0,0,1-5.35-28.22c-.95-8.62-1.14-17.47-2.85-26a1.51,1.51,0,0,0-2.89,0c-3.85,17.85,1.81,38.32,7.29,55.25.78,2.4,4.47,1.41,3.8-1Z" style="fill:#a05000"/><path d="M726.07,621.54c-2.08-10.42-4.08-20.85-6.31-31.24-2.1-9.77-3.71-20.18-7.82-29.34-.85-1.91-3.74-.85-3.75,1-.07,10,3,20.34,5.48,30,2.66,10.29,5.8,20.37,9.14,30.46a1.69,1.69,0,0,0,3.26-.9Z" style="fill:#a05000"/><path d="M767.62,603.43C752.54,588.31,746.49,565.84,730,552c-1.33-1.12-3.66.32-2.57,2,11.7,17.92,21.54,37.6,37.3,52.41,1.93,1.82,4.8-1,2.92-2.92Z" style="fill:#a05000"/><path d="M335.46,388.15s-54.35,239-118.58,320.72a9.71,9.71,0,0,0,4.8,15.34c39.27,11.86,148.7,44.42,202.19,55.31a17.36,17.36,0,0,0,19.36-10c20-45.41,87.15-208.17,99.53-377.57Z" style="fill:#38c61a"/><g style="clip-path:url(#baac96e6-1ea3-47aa-a423-21ce331f951e)"><path d="M237.33,670.71S413,716.39,481.78,714.22l-34.27,65.5L190.26,732.19Z" style="fill:#6eeae6;opacity:0.8"/><path d="M287.64,487.24s55.19,20.44,262.93,30.91L519.74,581S313.61,568.5,259.24,535.1Z" style="fill:#6eeae6;opacity:0.8"/><path d="M509.78,423.43S455.63,680.17,387.46,701.27s-197.2,0-197.2,0l19.48,45.45,249.94,47.07L563.56,413.18l-53.78,10.25" style="fill:#176800;opacity:0.5"/></g><path d="M215.69,392c-38.06-12.94-25.34-63.72-10-104.41s-13.82-99,10.75-112.87,180.42,61.43,360.85,49.14,221-76.37,234.17-23c17.66,71.4-13.82,52.21,7.68,153.55,12.83,60.47-122.84,84.46-314.79,86.76S254.08,405,215.69,392Z" style="fill:#2bbf11"/><g style="clip-path:url(#bab890ee-9a24-4767-9bd6-f5402e716873)"><path d="M299.65,183.58s-19,0-21.79,34.09-.56,103.87-5,126.59-19,65.74-19,65.74l53.09,21.91s19-58.43,22.35-82.78,0-113.61,3.92-129.84,22.35-26,22.35-26Z" style="fill:#6eeae6;opacity:0.8"/><path d="M454.59,206.25s-14.7,27.59-12.82,58.43,3,122.54,1.13,142-6.37,44.94-6.37,44.94l51.23,2.94s8.67-51.94,5.66-78.72-5.44-138.76,8.4-163.11Z" style="fill:#6eeae6;opacity:0.8"/><path d="M689.78,192.45s24.23,9.74,36.07,33.27,2.69,125.79,7,143.64,19.38,75.47,19.38,75.47l-79.14,13.8L638.63,211.12Z" style="fill:#6eeae6;opacity:0.8"/><path d="M812.25,157,704,195.43s43,1.54,63,36.86,6.91,137.43-8.44,155.09c-7.13,8.19-95.83,27.64-206.19,34.22l-41-210.81-43-.77s48.8,204.48,20.61,212.9-230.3-10.21-313.14-67L190.35,402l149.72,48.37,404.62-13.82,92.13-49.14Z" style="fill:#176800;opacity:0.5"/></g><path d="M495.16,292.17c-3.84-17.66-32.25-92.13,7.68-96s89.83-4.61,112.09-16.12,49.14-24.57,66.8,56c15.86,72.39,44.1,258.7,69.15,318.19A13.78,13.78,0,0,1,741,573.2c-34.43,7.1-111.44,22.21-179.06,29.91a14.64,14.64,0,0,1-16.19-12.91c-3.06-26.91-9.69-85-13.72-118.37C526.64,427.3,495.16,292.17,495.16,292.17Z" style="fill:#37c61a"/><g style="clip-path:url(#a033619e-33d8-4ba2-bc03-fc06dee4a129)"><path d="M522.17,465.44c3.25.89,138,11.1,202.07-25.31l27.73,53s-81.29,18.95-108.07,20.72-116,7.55-123.35,4S522.17,465.44,522.17,465.44Z" style="fill:#6eeae6;opacity:0.8"/><path d="M471.05,286.24s56,3.76,96.57.42,117.67-12.12,122.54-21.73l25.15,51.81S608.19,342.23,557.88,339.3s-70.6-7.1-70.6-7.1Z" style="fill:#6eeae6;opacity:0.8"/><path d="M478.27,210a477,477,0,0,0,79.08-4.61c42.23-6.14,76-16.89,91.36,13.82s71.41,294.06,59.12,317.86S584.22,604.66,525.1,590.84l32.25,23L654.09,610l110.56-37.62-13-36.08s-84.46-377-86.76-376.22S476,192.36,476,192.36Z" style="fill:#176800;opacity:0.5"/></g></g></g></svg>