<svg xmlns="http://www.w3.org/2000/svg" xmlns:xlink="http://www.w3.org/1999/xlink" viewBox="0 0 1000 1000">
  <defs>
    <clipPath id="ba99901d-2d54-4371-a2dc-067ae9d7ce21">
      <path d="M297.69,429.65S266.28,416.71,257,313.25c0,0,18.48,9.24,51.73,12.93s66.52,44.34,66.52,44.34Z" fill="#35a31a"/>
    </clipPath>
    <clipPath id="f3af64fa-7a8a-4a51-9777-df5702203bc2">
      <path d="M290.3,438.89s-40.65-12.94-59.13-3.7-40.64,9.24-40.64,9.24,29.56,27.71,36.95,44.34,42.49,42.5,77.6,37S290.3,438.89,290.3,438.89Z" fill="#35a31a"/>
    </clipPath>
    <clipPath id="aecab0ed-2616-4505-b219-016a8c9f2e00">
      <path d="M482.47,431.78S449.21,369,460.3,328.32s5.54-53.58,5.54-53.58,44.34,29.56,73.9,48,18.48,72.06,18.48,72.06Z" fill="#35a31a"/>
    </clipPath>
    <clipPath id="afcde6a8-b6da-4e2b-aa13-9e527b1e5715">
      <path d="M670.9,396.39s46.19-24,73.91-20.32,53.58,9.24,64.66,3.69c0,0-20.32,35.11-31.41,61s-44.34,49.89-66.51,38.8S670.9,396.39,670.9,396.39Z" fill="#35a31a"/>
    </clipPath>
    <clipPath id="bb789e83-2340-43a7-8b4c-09833691ab27">
      <path d="M637.65,616.26s49.88,14.78,73.9,0,44.34-37,57.28-37c0,0-44.35-27.71-79.45-57.27C689.38,522,589.74,554.28,637.65,616.26Z" fill="#35a31a"/>
    </clipPath>
    <clipPath id="a2a301bd-3511-4a6c-b20d-51009209845d">
      <circle cx="400.23" cy="473.07" r="124.71" fill="#7900ff"/>
    </clipPath>
    <clipPath id="f759b482-d2ba-4cc6-bca4-57274d0fc090">
      <circle cx="605.31" cy="471.22" r="121.02" fill="#7900ff"/>
    </clipPath>
    <clipPath id="af5c4806-6d82-49af-b22b-ed082d6526f5">
      <circle cx="524.94" cy="595.93" r="129.33" fill="#7f1dff"/>
    </clipPath>
  </defs>
  <g id="f8200c4e-d0ba-4e4d-921e-84c50c57a28c" data-name="Layer 3">
    <g id="b2e2a15d-777a-48d6-a8c7-b89799ee735e" data-name="Layer 4">
      <g>
        <circle cx="404.85" cy="473.99" r="125.64" fill="none"/>
        <circle cx="597" cy="473.99" r="125.64" fill="none"/>
        <circle cx="513.86" cy="592.24" r="125.64" fill="none"/>
        <g>
          <path d="M297.69,429.65S266.28,416.71,257,313.25c0,0,18.48,9.24,51.73,12.93s66.52,44.34,66.52,44.34Z" fill="#35a31a"/>
          <g clip-path="url(#ba99901d-2d54-4371-a2dc-067ae9d7ce21)">
            <path d="M244.06,298.74s53,49,62,58-30.54,75.12-30.54,75.12l37.17-2.21,62.6-81.3-29.23-22.61-67-26Z" fill="#176800" opacity="0.5"/>
            <path d="M257.44,316c12.63,6.72,22,17.67,31.1,28.47,10.27,12.24,20.44,24.57,30.91,36.64,1.44,1.67,4.38-.55,3.09-2.38-9.47-13.44-20.44-25.78-31.47-38-9.51-10.5-19.76-20.24-32.64-26.47-1.12-.55-2.12,1.1-1,1.7Z" fill="#327c01"/>
            <path d="M302.91,332.72c.21,8.6-1.37,17-1.59,25.59a1.59,1.59,0,0,0,3.11.42c1.94-8.5,1-17.42.37-26-.09-1.21-1.92-1.24-1.89,0Z" fill="#327c01"/>
            <path d="M272.87,344.51c7.06,2.69,12.74,4.29,20.38,3.39,1.18-.13,1.26-1.91,0-1.9-6.49.08-13.93-.38-20.05-2.72-.76-.29-1.09.94-.33,1.23Z" fill="#327c01"/>
            <path d="M288.38,373c8.53,2.39,16.27,2.95,24.77.15.5-.16.45-1-.13-1-7.94,1-16.48,1.37-24.36-.2a.53.53,0,0,0-.28,1Z" fill="#327c01"/>
          </g>
        </g>
        <g>
          <path d="M290.3,438.89s-40.65-12.94-59.13-3.7-40.64,9.24-40.64,9.24,29.56,27.71,36.95,44.34,42.49,42.5,77.6,37S290.3,438.89,290.3,438.89Z" fill="#35a31a"/>
          <g clip-path="url(#f3af64fa-7a8a-4a51-9777-df5702203bc2)">
            <path d="M171.06,440.74s84,4,94,18-7,78,14,83l44-15-25-74.06-15.4-39.26-63.62,4.32Z" fill="#176800" opacity="0.5"/>
            <path d="M186.45,444.83c18.82,6.25,37.89,11.6,56.46,18.62a235.57,235.57,0,0,1,26.3,11.43c8.36,4.38,16.19,9.72,24.55,14.07a1.09,1.09,0,0,0,1.32-1.71c-12.52-13.18-31.73-21.06-48.41-27.44-19.25-7.36-39.78-12-60-15.72a.39.39,0,0,0-.2.75Z" fill="#327c01"/>
            <path d="M234.85,441.24c7.74,5.76,14.77,14,18.37,23a1.47,1.47,0,1,0,2.7-1.14c-4.48-10-10.67-17.69-20.25-23.24-.92-.54-1.63.79-.82,1.39Z" fill="#327c01"/>
            <path d="M238.42,481.48c5.85.63,10.72.8,16.32-1.31a63.37,63.37,0,0,0,14.51-7.67c1.06-.76,0-2.53-1-1.76-8.39,6.14-19.39,9.15-29.8,9.55a.6.6,0,0,0,0,1.19Z" fill="#327c01"/>
          </g>
        </g>
        <g>
          <path d="M482.47,431.78S449.21,369,460.3,328.32s5.54-53.58,5.54-53.58,44.34,29.56,73.9,48,18.48,72.06,18.48,72.06Z" fill="#35a31a"/>
          <g clip-path="url(#aecab0ed-2616-4505-b219-016a8c9f2e00)">
            <path d="M458.06,257.74s52,78,74,144,49-48,49-48l-50-68Z" fill="#176800" opacity="0.5"/>
            <path d="M465.57,272.21c11.94,20.92,22.72,42.65,33.18,64.34,5.1,10.58,10.09,21.23,14.86,32,2.51,5.66,4.9,11.36,7.34,17,2.21,5.13,4.23,10.72,8,14.91a1.53,1.53,0,0,0,2.58-1.07c-.16-5.67-2.67-11.1-4.81-16.27-2.23-5.39-4.63-10.72-7-16-5-11-10.13-21.87-15.65-32.58-11.24-21.78-24-42.44-37.32-63a.67.67,0,0,0-1.16.67Z" fill="#327c01"/>
            <path d="M471.14,340.45c6.49,3.68,12.44,7.7,19.35,10.65,4.89,2.09,11.49,5.06,16.55,2.19a1.35,1.35,0,0,0-.32-2.44c-2.77-1-5.74-1-8.61-1.69a88.16,88.16,0,0,1-8.57-2.61c-6-2-12.36-3.95-17.94-6.89-.51-.28-1,.5-.46.79Z" fill="#327c01"/>
            <path d="M477.94,367.11c6.22,3.21,12.68,6.71,19.4,8.71,5.76,1.7,14,4.27,19.92,2.42a1.45,1.45,0,0,0,0-2.78c-5.78-2.12-13-1.33-19.13-2.52-7.07-1.37-13.49-2.92-19.94-6.26-.28-.14-.53.28-.25.43Z" fill="#327c01"/>
            <path d="M524.73,331.43a41.51,41.51,0,0,1-1.8,18.54c-2,6-6.08,10.43-9.68,15.5-.88,1.24.84,2.87,2.07,2.07,12.26-8,12.75-23.39,10.37-36.24-.1-.54-1-.42-1,.13Z" fill="#327c01"/>
          </g>
        </g>
        <g>
          <path d="M670.9,396.39s46.19-24,73.91-20.32,53.58,9.24,64.66,3.69c0,0-20.32,35.11-31.41,61s-44.34,49.89-66.51,38.8S670.9,396.39,670.9,396.39Z" fill="#35a31a"/>
          <g clip-path="url(#afcde6a8-b6da-4e2b-aa13-9e527b1e5715)">
            <path d="M679.06,453.74s118-49,148-97c0,0-34,135-69,138S682.06,482.74,679.06,453.74Z" fill="#176800" opacity="0.5"/>
            <path d="M806.75,380.71C798.05,387,788.15,392,779,397.79c-9.45,5.95-19.11,11.59-29,16.77s-20,10-30.4,14.17c-9.9,4-20.54,6.61-30.07,11.39a1.84,1.84,0,0,0,.92,3.41c10.58-.78,21-5.21,30.69-9.23a299.52,299.52,0,0,0,30-14.36c9.8-5.37,19.35-11.2,28.68-17.35,9.71-6.4,18.13-14.16,27.49-21,.55-.4,0-1.31-.53-.91Z" fill="#327c01"/>
            <path d="M725.62,428.64a70.82,70.82,0,0,1,12.65-29.79c.38-.52-.45-1.15-.88-.68a52.27,52.27,0,0,0-13.71,30.21c-.12,1.09,1.75,1.35,1.94.26Z" fill="#327c01"/>
            <path d="M745.51,425c10.52,6.25,21.15,11.13,33.5,12a1.09,1.09,0,0,0,.29-2.14c-11.41-2.41-23.07-5-33.47-10.36a.32.32,0,0,0-.32.55Z" fill="#327c01"/>
            <path d="M770,390.07c-4.47,6.26-7.84,12.88-8.28,20.69a.92.92,0,0,0,1.8.24c1.72-7.07,3.52-14.15,7.27-20.47.3-.51-.46-.93-.79-.46Z" fill="#327c01"/>
          </g>
        </g>
        <g>
          <path d="M637.65,616.26s49.88,14.78,73.9,0,44.34-37,57.28-37c0,0-44.35-27.71-79.45-57.27C689.38,522,589.74,554.28,637.65,616.26Z" fill="#35a31a"/>
          <g clip-path="url(#bb789e83-2340-43a7-8b4c-09833691ab27)">
            <path d="M613.64,553.51s87.42,23.23,195.42,28.23l-83,70L632.6,634.42l-35.54-61.68,16.58-19.23" fill="#176800" opacity="0.5"/>
            <path d="M666.83,564.59c18.37,5.63,38,8.57,57,11.5,18.56,2.86,37.46,6.48,56.24,7.39a1.2,1.2,0,0,0,.31-2.35c-18.89-4.06-38.38-6-57.45-9.17-18.5-3.1-37.28-6.89-56-8.4-.61,0-.69.86-.14,1Z" fill="#327c01"/>
            <path d="M710.42,555.6c-4.83,3.6-13.17,8.42-13.25,15.26a.93.93,0,0,0,1.56.65c2.12-2.14,3.39-5,5.16-7.43a54.75,54.75,0,0,1,7.12-7.71c.41-.37-.14-1.11-.59-.77Z" fill="#327c01"/>
            <path d="M728.47,563.58c-3.91,2.31-10.29,5.07-10.33,10.4a1.06,1.06,0,0,0,1.8.74c1.44-1.62,2.5-3.53,3.93-5.17a29.32,29.32,0,0,1,5.38-4.63c.81-.56.09-1.85-.78-1.34Z" fill="#327c01"/>
            <path d="M718.57,595.7a62.36,62.36,0,0,1-5.77-14.08c-1.14-3.93-1.53-8.25-3.3-11.93a1.1,1.1,0,0,0-2,.26c-2,9,4.65,19.55,9.36,26.74a1,1,0,0,0,1.7-1Z" fill="#327c01"/>
            <path d="M690.06,606.28c-4.13-6.09-6.33-14.54-7.67-21.72A115.51,115.51,0,0,1,680.94,573c-.26-3.08.2-5.79-2.19-8a1.73,1.73,0,0,0-2.65.34c-2.16,2.86-.76,6.66-.28,10a113.25,113.25,0,0,0,2.1,11.26c2,8.09,5.6,14,10.51,20.61.71,1,2.33.07,1.63-1Z" fill="#327c01"/>
          </g>
        </g>
        <g>
          <circle cx="400.23" cy="473.07" r="124.71" fill="#7900ff"/>
          <g clip-path="url(#a2a301bd-3511-4a6c-b20d-51009209845d)">
            <path d="M527.06,393.74l-25.78-6.42s-35.3,34.7-41,83.53C349.09,517,371.06,617.74,371.06,617.74l48-5,58.08-101L474,487l47.09-26.24Z" fill="#4a00bf" opacity="0.7"/>
            <path d="M298.75,499.31c-14.95-14.2-13.14-40,2.82-70.43,22.7-43.25,4,7.34,13.45,43.71C318.69,486.67,316.52,516.19,298.75,499.31Z" fill="#b694f7"/>
          </g>
        </g>
        <g>
          <circle cx="605.31" cy="471.22" r="121.02" fill="#7900ff"/>
          <g clip-path="url(#f759b482-d2ba-4cc6-bca4-57274d0fc090)">
            <path d="M726.33,376.79l-38.27-21.05S723.78,466.41,653.93,506c-69.09-73.82-171.87-45.28-171.87-45.28l-4,34L604,529.56l35.06,87.18,84-17,32-96Z" fill="#4a00bf" opacity="0.7"/>
          </g>
        </g>
        <g>
          <circle cx="524.94" cy="595.93" r="129.33" fill="#7f1dff"/>
          <g clip-path="url(#af5c4806-6d82-49af-b22b-ed082d6526f5)">
            <path d="M654.06,557.74S608.14,784.08,410.6,669.91l11.46,31.83,74,35,78,6,65-40,31.84-80.4Z" fill="#4a00bf" opacity="0.7"/>
            <path d="M414.4,599c-17.13-31.8,13.86-78.28,49.73-97,51-26.66-1.07,9.79-16.31,51.37C441.93,569.41,431.52,630.78,414.4,599Z" fill="#b694f7"/>
          </g>
        </g>
        <path d="M491.06,516.74c-4-6,0-26,17-12,12.84,10.58,19.65,4.77,25-3,11-16,28-1,21,12s6,15,15,15,5.77,24.86-10.62,18.61c-17.38-6.61-16.43,5.1-18.38,14.39-4,19-28.09,10.29-24-4,6-21-18.57-1.09-25-9-13-16,13-8,15-18S495.06,522.74,491.06,516.74Z" fill="#2e2835"/>
        <path d="M610.63,381.31c-1.77-5.2,7.64-14.45,18.56,1.27,8.25,11.88,16,11.83,23,10,14.42-3.76,25.05,12.52,15,16.47s.91,11.14,8.86,15.34-2.18,16.52-14.85,5.39c-13.43-11.79-16-4.84-20.47-.59-9.12,8.69-27.86-7.39-20-13.43,11.47-8.87-16.1-9.27-19.47-16.68-6.8-15,13.85,1.63,18.55-3S612.41,386.51,610.63,381.31Z" fill="#2e2835"/>
        <path d="M401.13,385.78c5.38,1.14,8.5,14-10.6,15.28-14.43,1-18.35,7.66-20.38,14.61-4.16,14.31-23.59,15.1-21.86,4.48s-10-4.93-17.71-.25-13.06-10.35,3-15.52c17-5.48,12.36-11.28,11-17.28-2.79-12.28,20.62-20.13,21.81-10.33,1.73,14.39,16.21-9.07,24.29-8.17,16.34,1.83-8.49,11.06-6.93,17.47S395.75,384.64,401.13,385.78Z" fill="#2e2835"/>
        <path d="M514.06,430.74c-4.21-20.19,12-40.38,42.42-56.29,43.28-22.63-.91,8.3-13.84,43.59C537.64,431.7,519.06,454.74,514.06,430.74Z" fill="#b694f7"/>
        <path d="M779,436.2a.32.32,0,0,0,0-.63.32.32,0,0,0,0,.63Z" fill="#327c01"/>
        <path d="M745.67,425.07a.32.32,0,0,0,0-.63.32.32,0,0,0,0,.63Z" fill="#327c01"/>
        <path d="M506.36,352.59a.46.46,0,0,0,0-.91.46.46,0,0,0,0,.91Z" fill="#327c01"/>
        <path d="M471.37,340.51a.46.46,0,0,0,0-.91.46.46,0,0,0,0,.91Z" fill="#327c01"/>
      </g>
    </g>
  </g>
</svg>
