<svg xmlns="http://www.w3.org/2000/svg" xmlns:xlink="http://www.w3.org/1999/xlink" viewBox="0 0 1000 1000">
  <defs>
    <clipPath id="eec7428e-f706-45dc-8a0c-08c6aefa043c">
      <path d="M634.74,623.32S655,526.46,797.58,405.13c0,0-24.48-84.09-126.66-147.95s-195.84-59.6-234.15-49c0,0-19.16,200.1-111.76,277.8Z" fill="#7900ff"/>
    </clipPath>
    <clipPath id="a3733a3a-64b6-483f-80d4-e7eb045ba687">
      <path d="M683.7,549.88S583.65,381.71,363.33,414.71L326.07,486,635.8,623.32Z" fill="#ffba1f"/>
    </clipPath>
    <clipPath id="b53f11a8-d9c0-44d8-b427-a5a893467922">
      <path d="M745.43,718.05c-12,22.77-63.86,108.56-219.26,70.24S238.8,654.18,213.25,564.78s-5.32-175.62,54.29-152.2S387.81,503.05,476.15,519,811.42,592.45,745.43,718.05Z" fill="#7900ff"/>
    </clipPath>
  </defs>
  <g id="b2b3a3ff-bac0-4587-a90f-aed24a6f5928" data-name="Layer 3">
    <g id="bb0e92a7-2ed4-46aa-a98e-8dc8ef69c7f8" data-name="Layer 4">
      <g>
        <g>
          <path d="M634.74,623.32S655,526.46,797.58,405.13c0,0-24.48-84.09-126.66-147.95s-195.84-59.6-234.15-49c0,0-19.16,200.1-111.76,277.8Z" fill="#7900ff"/>
          <g clip-path="url(#eec7428e-f706-45dc-8a0c-08c6aefa043c)">
            <path d="M721.89,259.15S622.67,515.22,438.22,536.2h0L733.93,658,866.39,393.11Z" fill="#4a00bf" opacity="0.7"/>
            <g>
              <path d="M683.7,549.88S583.65,381.71,363.33,414.71L326.07,486,635.8,623.32Z" fill="#ffba1f"/>
              <g clip-path="url(#a3733a3a-64b6-483f-80d4-e7eb045ba687)">
                <path d="M721.89,259.15S622.67,515.22,438.22,536.2h0L733.93,658,866.39,393.11Z" fill="#f78f1e"/>
              </g>
            </g>
          </g>
        </g>
        <g>
          <path d="M745.43,718.05c-12,22.77-63.86,108.56-219.26,70.24S238.8,654.18,213.25,564.78s-5.32-175.62,54.29-152.2S387.81,503.05,476.15,519,811.42,592.45,745.43,718.05Z" fill="#7900ff"/>
          <g clip-path="url(#b53f11a8-d9c0-44d8-b427-a5a893467922)">
            <path d="M393,477.74s205.46,80.94,238.57,195.34S506,798.2,312.91,689.73h0l-12.49,64.63L607.49,858.22l203.2-70.74L779.08,603.84,535.4,501.31,393,477.74" fill="#4a00bf" opacity="0.7"/>
          </g>
        </g>
        <path d="M587.91,711.66c-16.28,19.81-79.83,45.77-172.43-6.39s-143.87-137.59-97.92-166c22.35-13.84,54.28,22.35,126.66,54.28C498.09,617.28,636.87,652.06,587.91,711.66Z" fill="#4a00bf"/>
      </g>
    </g>
  </g>
</svg>
