<svg xmlns="http://www.w3.org/2000/svg" xmlns:xlink="http://www.w3.org/1999/xlink" viewBox="0 0 1000 1000">
  <defs>
    <clipPath id="b1b2de71-e7c6-4157-8018-8f58dbca5294">
      <path d="M320.75,430.88S186.53,484.4,153.16,442.17c-44.2-56,43.9-178.7,160-207.8C313.15,234.37,378.31,390.33,320.75,430.88Z" fill="#ff8b00"/>
    </clipPath>
    <clipPath id="e784deac-5acb-408d-ae56-00c569065b96">
      <path d="M621.61,653.94S606.76,797.67,656.5,818.25c65.9,27.25,159.93-91,156.23-210.64C812.73,607.61,644.91,587.5,621.61,653.94Z" fill="#ff8b00"/>
    </clipPath>
    <clipPath id="f766804c-0cd8-40ee-8747-dcfc9ce820f8">
      <path d="M544.63,518.18c-4.51,32.69-6.88,136.31,35.07,154.21S818.89,680.13,852.46,605s-84.83-204.83-84.83-204.83Z" fill="#ff8b00"/>
    </clipPath>
    <clipPath id="a608f185-c37b-4735-9f46-f5fdf985c676">
      <path d="M461.63,484.18c-30.22,13.26-118.52,27.53-147.18-7.94s-72.74-228-9.64-280.8,237.82,29.74,237.82,29.74Z" fill="#ff8b00"/>
    </clipPath>
    <clipPath id="b20955e3-3a26-4d34-8aaa-fcc4e26f52e3">
      <path d="M787.75,424.34a49.79,49.79,0,0,0,.88-12.16c-5.42-100.86-68-74-112-114-40.7-37-57.52-120.7-155.35-89.49-3.21,1-6.33,2.18-9.37,3.45-53-20.87-160.5-55.69-207.1-16.7-13.68,11.45-22.32,29.47-27.17,51C180,288.52,113.6,392.09,153.16,442.17c24.5,31,103.35,10.4,143.55-2.75,5.88,16.83,12.11,29.85,17.74,36.82,21.44,26.53,76.26,25.23,115.16,17.34a56.52,56.52,0,0,0,10.52,15.77c23.69,23.69,60.94,34.08,102.42,34.78-1.67,43.78,3.36,113.84,37.15,128.26,8.24,3.51,22.46,6,40.26,7-1.68,42.26,0,123.73,36.54,138.84,59,24.39,140.48-67.78,154.3-173.17,19.41-10.55,34.38-23.78,41.66-40.07C877.08,549.92,820,465.46,787.75,424.34Z" fill="#d85107" opacity="0.35"/>
    </clipPath>
  </defs>
  <g style="isolation: isolate">
    <g id="b18e596b-dad6-4217-9af1-7115ac7e07ba" data-name="Layer 3">
      <g id="b231862a-d05f-4e5d-ba91-1e1c120c7fbc" data-name="Layer 4">
        <g>
          <g>
            <path d="M320.75,430.88S186.53,484.4,153.16,442.17c-44.2-56,43.9-178.7,160-207.8C313.15,234.37,378.31,390.33,320.75,430.88Z" fill="#ff8b00"/>
            <g clip-path="url(#b1b2de71-e7c6-4157-8018-8f58dbca5294)">
              <path d="M264.63,228.18s-44,137,20,230l67-24-17-216Z" fill="#d85107" opacity="0.35"/>
            </g>
          </g>
          <g>
            <path d="M621.61,653.94S606.76,797.67,656.5,818.25c65.9,27.25,159.93-91,156.23-210.64C812.73,607.61,644.91,587.5,621.61,653.94Z" fill="#ff8b00"/>
            <g clip-path="url(#e784deac-5acb-408d-ae56-00c569065b96)">
              <path d="M830.63,647.18s-61,109-266,29l36-81,154-36,73,9Z" fill="#d85107" opacity="0.35"/>
            </g>
          </g>
          <g>
            <path d="M544.63,518.18c-4.51,32.69-6.88,136.31,35.07,154.21S818.89,680.13,852.46,605s-84.83-204.83-84.83-204.83Z" fill="#ff8b00"/>
            <g clip-path="url(#f766804c-0cd8-40ee-8747-dcfc9ce820f8)">
              <path d="M527.63,564.18s234,55,285-143l-28-64-193,53-92,96Z" fill="#d85107" opacity="0.35"/>
            </g>
          </g>
          <g>
            <path d="M461.63,484.18c-30.22,13.26-118.52,27.53-147.18-7.94s-72.74-228-9.64-280.8,237.82,29.74,237.82,29.74Z" fill="#ff8b00"/>
            <g clip-path="url(#a608f185-c37b-4735-9f46-f5fdf985c676)">
              <path d="M516.63,189.18s-123,32-142,149,65,194,65,194l112-186Z" fill="#d85107" opacity="0.35"/>
            </g>
          </g>
          <path d="M440.13,509.35c-43.24-43.25-39.5-262.17,81.15-300.66,97.83-31.21,114.65,52.49,155.35,89.49,44,40,106.58,13.14,112,114C793.63,505.18,526.6,595.82,440.13,509.35Z" fill="#ff8b00"/>
          <g style="mix-blend-mode: soft-light">
            <path d="M787.75,424.34a49.79,49.79,0,0,0,.88-12.16c-5.42-100.86-68-74-112-114-40.7-37-57.52-120.7-155.35-89.49-3.21,1-6.33,2.18-9.37,3.45-53-20.87-160.5-55.69-207.1-16.7-13.68,11.45-22.32,29.47-27.17,51C180,288.52,113.6,392.09,153.16,442.17c24.5,31,103.35,10.4,143.55-2.75,5.88,16.83,12.11,29.85,17.74,36.82,21.44,26.53,76.26,25.23,115.16,17.34a56.52,56.52,0,0,0,10.52,15.77c23.69,23.69,60.94,34.08,102.42,34.78-1.67,43.78,3.36,113.84,37.15,128.26,8.24,3.51,22.46,6,40.26,7-1.68,42.26,0,123.73,36.54,138.84,59,24.39,140.48-67.78,154.3-173.17,19.41-10.55,34.38-23.78,41.66-40.07C877.08,549.92,820,465.46,787.75,424.34Z" fill="#d85107" opacity="0.35"/>
            <g clip-path="url(#b20955e3-3a26-4d34-8aaa-fcc4e26f52e3)">
              <path d="M117.63,443.18s133-127,257-105,222.14,54.19,279,130c57,76,79.88,119.87,63,192s-57,214-57,214l-211-269-192-107S122.63,556.18,117.63,443.18Z" fill="#ff8b00"/>
            </g>
          </g>
        </g>
      </g>
    </g>
  </g>
</svg>
