<svg xmlns="http://www.w3.org/2000/svg" xmlns:xlink="http://www.w3.org/1999/xlink" viewBox="0 0 1000 1000">
  <defs>
    <clipPath id="ba8594cd-48aa-4790-91c1-ad4b4e43a78c">
      <path d="M709.53,228.44c35.6,10.25,161.26,71.19,208.72,104.63,0,0-20.49,128.9-65.8,162.34l-118.65-75L764,778.56c-28.48.46-42.61-8.09-83.59-.54-17.12,3.15-55.62,17.54-96,14-39.33-3.43-53.94-17.26-80.9-16.18s-88.45,14-133.76,3.24c-62.16-14.8-133.75-.54-133.75-.54l30.2-358.12L159.14,491.37c-45.3-33.44-77.39-158.3-77.39-158.3,47.46-33.44,184.45-95.46,217.89-104.63,35.37-9.7,123.24-21,200.63-21C577.12,207.41,676.47,218.92,709.53,228.44Z" fill="#ff8b00"/>
    </clipPath>
  </defs>
  <g id="b25ca19f-0944-4fd1-a45d-7c0a9c9b8bc8" data-name="Layer 3">
    <g>
      <path d="M709.53,228.44c35.6,10.25,161.26,71.19,208.72,104.63,0,0-20.49,128.9-65.8,162.34l-118.65-75L764,778.56c-28.48.46-42.61-8.09-83.59-.54-17.12,3.15-55.62,17.54-96,14-39.33-3.43-53.94-17.26-80.9-16.18s-88.45,14-133.76,3.24c-62.16-14.8-133.75-.54-133.75-.54l30.2-358.12L159.14,491.37c-45.3-33.44-77.39-158.3-77.39-158.3,47.46-33.44,184.45-95.46,217.89-104.63,35.37-9.7,123.24-21,200.63-21C577.12,207.41,676.47,218.92,709.53,228.44Z" fill="#ff8b00"/>
      <g clip-path="url(#ba8594cd-48aa-4790-91c1-ad4b4e43a78c)">
        <circle cx="508.9" cy="177.21" r="107.87" fill="#d85107" opacity="0.35"/>
        <path d="M560.67,473.84l-3.23-116.5s73.35,15.1,126.2-8.63c0,0-1.08,101.4,0,116.5" fill="#ffaa39"/>
        <path d="M689,180.44S695.51,669.07,453.89,805l352.72,7.55L775.33,499.72l130.52,20.5,50.69-216.81Z" fill="#d85107" opacity="0.35"/>
        <polygon points="117.35 450.11 266.2 419.9 241.39 477.07 155.1 521.3 117.35 450.11" fill="#d85107" opacity="0.35"/>
        <path d="M268.36,797.43c4.31-16.18,9.71-103.55,33.44-167.19s11.86,25.89,10.78,75.51,6.47,87.37,6.47,87.37Z" fill="#d85107" opacity="0.35"/>
        <path d="M391.33,813.61s49.61-36.67,66.87-128.36,20.5-225.44,33.44-185.53S481,758.1,467.45,805.28,391.33,813.61,391.33,813.61Z" fill="#d85107" opacity="0.35"/>
      </g>
    </g>
  </g>
</svg>
