<svg xmlns="http://www.w3.org/2000/svg" xmlns:xlink="http://www.w3.org/1999/xlink" viewBox="0 0 1000 1000">
  <defs>
    <clipPath id="fba04841-e820-4d70-bdf4-1c4a3c07b7b0">
      <path d="M236.36,654.72s80-208,116-265,147-131,187-145,148,120,181,188,50,205,52,216-179,89-248,100S264.36,734.72,236.36,654.72Z" fill="#ff8b00"/>
    </clipPath>
    <clipPath id="b3a2912c-9e10-4d96-a4b1-7b6199dbe76f">
      <path d="M183.36,788.72c-7-42.85-2-117,29-141s165,28,256,34,260-45,297-49,38.95,31.19,49,69c10.22,38.45,4.74,58.38-14,96-18.63,37.39-219,59-310,66S194.36,855.72,183.36,788.72Z" fill="#ffaa39"/>
    </clipPath>
    <clipPath id="f6ecf3db-6c92-4920-8acb-ae8b2e8ca040">
      <path d="M437.88,223.7c.33-.8-2.22-12.74.86-17.24,5.6-8.19,12.07-11.21,12.07-15.52s1.72-27.59,10.34-32.76S493.91,141.8,506,137.49s50-4.31,56,5.17,28.45,23.28,45.69,30.18,21.55,22.41,18.1,34.48,4.31,30.17,0,49.14-18.1,26.72-29.31,33.62-37.93,19-76.72,15.52-59.49-19.83-67.25-29.31-3.45-22.42-5.17-27.59S431.84,238.35,437.88,223.7Z" fill="#ffaa39"/>
    </clipPath>
  </defs>
  <g id="a74fcefc-c8ce-4e92-87bc-5ce56e92f890" data-name="Layer 3">
    <g id="a0c6d466-21b3-4ac4-833c-e41ebb08bdf8" data-name="Layer 4">
      <g>
        <g>
          <path d="M236.36,654.72s80-208,116-265,147-131,187-145,148,120,181,188,50,205,52,216-179,89-248,100S264.36,734.72,236.36,654.72Z" fill="#ff8b00"/>
          <g clip-path="url(#fba04841-e820-4d70-bdf4-1c4a3c07b7b0)">
            <path d="M276.36,509.72s210,112,489-12" fill="none" stroke="#ea2727" stroke-miterlimit="10" stroke-width="34"/>
            <path d="M309.85,415.07s127-55.85,422-10.35" fill="none" stroke="#ea2727" stroke-miterlimit="10" stroke-width="34"/>
            <path d="M796.86,632.22l-57-256-129-133-4.62,2.07c-13.26-11.58-27.78-21-35.88-22.57-16-3-126,67-126,67s23,23,53,27c18.79,2.5,41.89,1.48,61.2-.13,13.77,35.32,32.7,84.82,43.3,116.63C617,478.5,590.18,615.52,492.57,664.94c-45.2-4.57-163.26-28.09-201.21-36.22-42-9-69,10-69,10l-7,25,46,60,239,60,287-92-3.07-49.81Z" fill="#d85107" opacity="0.35"/>
          </g>
        </g>
        <g>
          <path d="M183.36,788.72c-7-42.85-2-117,29-141s165,28,256,34,260-45,297-49,38.95,31.19,49,69c10.22,38.45,4.74,58.38-14,96-18.63,37.39-219,59-310,66S194.36,855.72,183.36,788.72Z" fill="#ffaa39"/>
          <g clip-path="url(#b3a2912c-9e10-4d96-a4b1-7b6199dbe76f)">
            <g opacity="0.5">
              <path d="M265.3,638.83c-10.34,15.75-18.88,32.47-24.18,50.62-5.41,18.54-6.8,37.72-8.55,56.85-1.85,20.22-4.39,40.87-1.83,61.12,1.93,15.24,6.5,34.81,18.26,45.65a2,2,0,0,0,3.17-2.44c-4.07-7.69-8.82-14.56-11.73-22.85a109.46,109.46,0,0,1-5.51-25.62c-1.85-19-.41-37.86,1-56.79,1.41-18.42,3.95-37.06,9.27-54.79s13.69-34.25,22.09-50.56a1.17,1.17,0,0,0-2-1.19Z" fill="#ea2727"/>
            </g>
            <g opacity="0.5">
              <path d="M302.85,648.59c-10.39,15-15.25,31.21-19.24,48.86a522.86,522.86,0,0,0-8.87,53.35c-2.2,18.56-2.89,38.21-.39,56.75,1.24,9.24,3.29,18.36,5.28,27.46s4,18.73,9,26.81a2.35,2.35,0,0,0,4.28-1.81c-2.29-9-6.56-17.24-9.31-26.08a129.36,129.36,0,0,1-5-28.51c-1.43-18.3-.09-36.34.72-54.62.79-17.56,3-35.46,7.57-52.45,4.51-16.63,11.56-32.94,18.12-48.85.54-1.3-1.43-1.92-2.14-.91Z" fill="#ea2727"/>
            </g>
            <g opacity="0.5">
              <path d="M230.19,636c-5.35,5.6-10,10.71-13.77,17.6a107.62,107.62,0,0,0-8.15,21.06c-4.91,16.81-8.11,34.41-10.69,51.75-5,33.82-8.4,68.71,7,100.53.61,1.27,2.81.37,2.31-1-11.71-31.52-10.24-66.28-6.32-99.15,2-16.88,4-33.79,10-49.76a173.27,173.27,0,0,1,9.79-21.16c3.37-6.32,6.8-13.21,11.09-18.93.55-.72-.63-1.61-1.25-1Z" fill="#ea2727"/>
            </g>
            <g opacity="0.5">
              <path d="M346.38,652.55C332.16,676,326.15,705,322.5,731.78c-2,14.94-3.73,29.74-4.05,44.83-.17,8,.42,15.93.37,23.92a123.42,123.42,0,0,0,1.83,22.63,161.93,161.93,0,0,0,6.68,25.16c1.44,4.08,3,8.07,4,12.28s1.84,8.36,3.89,12.18c1.37,2.56,6.12,1.55,5.76-1.56-.54-4.66-2.4-8.76-4-13.13-1.7-4.62-2.76-9.42-4.11-14.16-2.55-9-5.2-17.95-6.87-27.17-1.79-9.82-4.34-19.58-4.29-29.61.05-9.5-.16-19-.08-28.5a235.12,235.12,0,0,1,6.29-54.1c4.36-17.91,12.48-34.27,21.56-50.2a1.78,1.78,0,0,0-3.08-1.8Z" fill="#ea2727"/>
            </g>
            <g opacity="0.5">
              <path d="M391.8,665.19a184.56,184.56,0,0,0-19.26,49.69,136.82,136.82,0,0,0-3.38,24.9c-.47,9.35-1.24,18.91-.1,28.24a.33.33,0,0,0,.66,0c.51-9.34.26-18.65,1.75-27.92,1.31-8.08,3-16.2,4.86-24.18,3.91-17.2,10.22-33.43,18-49.26.81-1.66-1.57-3.11-2.51-1.47Z" fill="#ea2727"/>
            </g>
            <g opacity="0.5">
              <path d="M368.64,775.82l.38,2.32c0,.24.4.14.36-.1l-.38-2.32c0-.24-.4-.14-.36.1Z" fill="#ea2727"/>
            </g>
            <g opacity="0.5">
              <path d="M369.27,785.83c.75,16,2.29,31.77,6.39,47.36,2,7.65,4.75,15.12,7.42,22.56,2.15,6,4.05,15.74,10,19a1.6,1.6,0,0,0,2.34-.95c1-6.33-4-13-6.49-18.57a228.75,228.75,0,0,1-8.26-23.45c-4.69-15-8.86-30.45-11-46,0-.21-.38-.16-.37.05Z" fill="#ea2727"/>
            </g>
            <g opacity="0.5">
              <path d="M434.07,673.55c-14.58,33.13-24,68.52-22.4,105a169.3,169.3,0,0,0,10.91,52.23c3.23,8.58,6.92,17,10.32,25.47,2.87,7.18,5.64,17.48,12.4,22a1.51,1.51,0,0,0,2.25-1.3c.27-7.55-5.8-15.6-9.16-22a173.31,173.31,0,0,1-10.66-25.57c-5.5-16.5-9.79-33.42-11.12-50.81-2.69-35.28,6.32-71.06,20.61-103.12,1-2.13-2.21-4-3.15-1.84Z" fill="#ea2727"/>
            </g>
            <g opacity="0.5">
              <path d="M749.21,630.47c10.75,11.82,17.27,26.76,21.37,42C775,689,780,705.59,781.41,722.74c2.9,35.4-2.27,71.31-13.38,105-1,3,3.7,4.25,4.7,1.29a257.56,257.56,0,0,0,12.13-53.43c2.13-18.54,3.19-37.27.71-55.83a175.39,175.39,0,0,0-5.84-26.53c-2.35-8-3.89-16.08-6.62-23.94-5.2-15-11-29.13-21.38-41.3-1.48-1.73-4.07.82-2.52,2.52Z" fill="#ea2727"/>
            </g>
            <g opacity="0.5">
              <path d="M710.19,639.51c9.51,12.63,17.78,26.2,23.32,41a278.62,278.62,0,0,1,12.54,45.82,169.53,169.53,0,0,1,1.07,56.09c-1.29,8.81-3.33,17.47-5.16,26.18-1.76,8.41-5.67,18.1-5.27,26.71a1.61,1.61,0,0,0,3,.81c2.39-3.89,3.31-8.66,4.43-13,1.27-4.94,2.49-9.89,3.61-14.87a241.92,241.92,0,0,0,4.19-27c2-18.15,2-37-2.53-54.78-4.11-16.19-7.78-32.46-13.19-48.28-5.15-15-11.49-29.74-23.55-40.51-1.22-1.1-3.54.39-2.43,1.87Z" fill="#ea2727"/>
            </g>
            <g opacity="0.5">
              <path d="M675.13,647.35c10.51,13.35,15.76,29.92,21.21,45.78a235.71,235.71,0,0,1,11.77,51.5,246.43,246.43,0,0,1,.13,51.16c-.9,9-2.77,17.72-4.57,26.53-1.56,7.63-4.72,16.11-4.48,23.92a1.61,1.61,0,0,0,3,.8c4.44-7,5.6-17,7-25.11,1.47-8.64,2.26-17.42,3.1-26.14A259.29,259.29,0,0,0,712,741a239.19,239.19,0,0,0-12.78-52.65c-5.5-15.4-10.93-31-21.2-43.92-1.65-2.08-4.54.86-2.91,2.92Z" fill="#ea2727"/>
            </g>
            <g opacity="0.5">
              <path d="M644,656c9.16,13.42,13.14,30.25,16.19,46,3.45,17.81,7.75,35.61,9.91,53.64,2,17,1.24,34.12-.53,51.08-1.91,18.22-7.13,36.85-6.25,55.25a1.79,1.79,0,0,0,3.5.48c4.85-17.92,3.78-37.39,5.81-55.73,1-8.64,2.18-17.31,2.06-26a195,195,0,0,0-2.46-26.32c-2.78-18.43-7.21-36.5-11.11-54.7-3.38-15.76-5.89-31.23-15.9-44.39-.54-.7-1.74-.06-1.22.71Z" fill="#ea2727"/>
            </g>
            <g opacity="0.5">
              <path d="M605.9,670.44c10.05,31.56,21.34,63.41,25,96.48a309.28,309.28,0,0,1,1.57,48.4c-.79,16.95-3.72,33.52-6.14,50.29-.4,2.78,3.54,4.06,4.34,1.19,4.47-16,5.86-33,6.43-49.58a291.54,291.54,0,0,0-2.5-49.59,342.46,342.46,0,0,0-10.17-48.7c-4.83-16.69-11.37-32.6-17.9-48.66-.15-.38-.76-.24-.63.17Z" fill="#ea2727"/>
            </g>
            <g opacity="0.5">
              <path d="M559.13,675.44c7.73,15,13,30.71,17.56,46.89,4.71,16.56,9.53,33.47,12,50.52,2.57,17.41.83,35.08-.26,52.54-.55,8.72-.94,17.61-2.39,26.24s-4,16.6-6.51,24.81c-.22.75.94,1.27,1.29.54,7.1-14.69,9.84-32.68,11.14-48.83,1.44-17.78,1.8-36.13-.66-53.83-4.84-34.81-12.29-69.58-28.65-101-1.23-2.36-4.78-.28-3.57,2.08Z" fill="#ea2727"/>
            </g>
            <g opacity="0.5">
              <path d="M476,677.58c-9.88,35.4-15.88,72-11.39,108.77,4,32.78,13.08,68.33,33.61,94.94a1.46,1.46,0,0,0,2.51-1.47c-8-15.39-16.13-30.29-22.27-46.58a196.84,196.84,0,0,1-11.87-48.62c-3.84-36,2.22-71.74,11.22-106.54a.94.94,0,0,0-1.81-.5Z" fill="#ea2727"/>
            </g>
            <g opacity="0.5">
              <path d="M527.25,671.75c-11.34,32.6-13.49,70-9.39,104a326.45,326.45,0,0,0,10,50.43c4.8,16.79,10.66,33.48,20.14,48.24a1.36,1.36,0,0,0,2.34-1.37c-7-16-14.71-31.73-20.06-48.42a231.71,231.71,0,0,1-10.33-50.58,295.75,295.75,0,0,1-.26-50.24c1.46-17.55,5.24-34.54,9.31-51.63a.89.89,0,0,0-1.72-.48Z" fill="#ea2727"/>
            </g>
            <path d="M508.36,665.72s65,49,61,85c-3,27,6,116-283,123l256,27,230-31,78-57,11-74-32-106-48-34Z" fill="#d85107" opacity="0.35"/>
          </g>
        </g>
        <g>
          <path d="M437.88,223.7c.33-.8-2.22-12.74.86-17.24,5.6-8.19,12.07-11.21,12.07-15.52s1.72-27.59,10.34-32.76S493.91,141.8,506,137.49s50-4.31,56,5.17,28.45,23.28,45.69,30.18,21.55,22.41,18.1,34.48,4.31,30.17,0,49.14-18.1,26.72-29.31,33.62-37.93,19-76.72,15.52-59.49-19.83-67.25-29.31-3.45-22.42-5.17-27.59S431.84,238.35,437.88,223.7Z" fill="#ffaa39"/>
          <g clip-path="url(#f6ecf3db-6c92-4920-8acb-ae8b2e8ca040)">
            <g opacity="0.5">
              <path d="M489.34,153.61c-.69.57-1.46,1-2.14,1.62a5.75,5.75,0,0,0-1.41,2.15c-.29.72.66,1.29,1.24,1a5.5,5.5,0,0,0,1.92-1.76c.44-.75.82-1.54,1.28-2.28.35-.58-.42-1.07-.89-.69Z" fill="#ea2727"/>
            </g>
            <g opacity="0.5">
              <path d="M483.24,164.6a.05.05,0,1,0,0-.1.05.05,0,0,0,0,.1Z" fill="#ea2727"/>
            </g>
            <g opacity="0.5">
              <path d="M519.2,150.65l4.42,1a.8.8,0,0,0,.42-1.54L519.65,149c-1.06-.27-1.51,1.38-.45,1.63Z" fill="#ea2727"/>
            </g>
            <g opacity="0.5">
              <path d="M519.05,178.28a17.71,17.71,0,0,0-6.4,6.66,1.36,1.36,0,0,0,2.34,1.38,27.12,27.12,0,0,1,5.42-6.27c1-.81-.29-2.46-1.36-1.77Z" fill="#ea2727"/>
            </g>
            <g opacity="0.5">
              <path d="M488.45,200.79a40.11,40.11,0,0,1-2.79,4.19,12.74,12.74,0,0,0-2.45,3.92.9.9,0,0,0,1.49.87,11.4,11.4,0,0,0,1.94-3.72,42.28,42.28,0,0,1,2.3-5,.28.28,0,0,0-.49-.28Z" fill="#ea2727"/>
            </g>
            <g opacity="0.5">
              <path d="M460.61,201.58l-.42,4c-.07.72,1.05.72,1.13,0l.42-4c.07-.72-1.05-.72-1.13,0Z" fill="#ea2727"/>
            </g>
            <g opacity="0.5">
              <path d="M485.54,180.31a27.63,27.63,0,0,1,2.87-2.2c1-.74,1.93-1.68,2.94-2.45a1.93,1.93,0,0,0,.77-2.35,1.85,1.85,0,0,0-2.21-1.08,14,14,0,0,0-4.15,1.94,18.41,18.41,0,0,0-3.14,3.22,2.07,2.07,0,0,0,2.92,2.92Z" fill="#ea2727"/>
            </g>
            <g opacity="0.5">
              <path d="M556.58,161.67l3.16,1.05c.34.11.49-.43.15-.54l-3.16-1.05c-.34-.12-.49.42-.15.54Z" fill="#ea2727"/>
            </g>
            <g opacity="0.5">
              <path d="M584.41,188.18a32.71,32.71,0,0,0-3.74,2.42,8.61,8.61,0,0,0-2.85,3.37c-.45.92.32,2.38,1.48,1.93.58-.23,1.19-.39,1.75-.65a12.1,12.1,0,0,0,1.86-1.25,32.6,32.6,0,0,1,3.63-2.18c2.4-1.24.25-5-2.13-3.64Z" fill="#ea2727"/>
            </g>
            <g opacity="0.5">
              <path d="M607,206.12a64.05,64.05,0,0,1,.76,8.07,1.74,1.74,0,0,0,3.47,0,25.12,25.12,0,0,0-1.79-8.74,1.27,1.27,0,0,0-2.44.67Z" fill="#ea2727"/>
            </g>
            <g opacity="0.5">
              <path d="M567.76,232.69a3.1,3.1,0,0,1-.64.89l-.61.78s0,.11.08,0l.57-.8a3.16,3.16,0,0,1,.67-.86c.08-.05-.05-.15-.07-.06Z" fill="#ea2727"/>
            </g>
            <g opacity="0.5">
              <path d="M541.34,209.18a48.81,48.81,0,0,0-5.41,6.92c-.19.31.27.68.51.4,1.9-2.18,3.7-4.43,5.69-6.52.51-.53-.31-1.34-.79-.8Z" fill="#ea2727"/>
            </g>
            <g opacity="0.5">
              <path d="M606.85,242.17a30.09,30.09,0,0,1-1.52,4.2,5.66,5.66,0,0,0-.6,4,1.48,1.48,0,0,0,2.43.64,5.35,5.35,0,0,0,1.86-3.66c.26-1.45.61-2.88.91-4.33a1.6,1.6,0,0,0-3.08-.84Z" fill="#ea2727"/>
            </g>
            <g opacity="0.5">
              <path d="M545,273.54l-2.31.85c-.23.08-.13.44.09.36l2.32-.84c.22-.09.13-.45-.1-.37Z" fill="#ea2727"/>
            </g>
            <g opacity="0.5">
              <path d="M530.46,269.06c3.5-1.9,7.37-3.87,10.09-6.82a1,1,0,0,0-1.39-1.39c-2.91,2.86-5.34,5.74-8.93,7.8a.24.24,0,0,0,.23.41Z" fill="#ea2727"/>
            </g>
            <g opacity="0.5">
              <path d="M558.12,233.41a9.36,9.36,0,0,1-.67,1.52,8.85,8.85,0,0,0-.64,1.74,1,1,0,0,0,1.38,1.06,4.18,4.18,0,0,0,1.58-1.57,13.43,13.43,0,0,0,.88-2.06,1.32,1.32,0,0,0-.91-1.61,1.34,1.34,0,0,0-1.62.92Z" fill="#ea2727"/>
            </g>
            <g opacity="0.5">
              <path d="M510.67,236.15l-1.44,1.51c-.13.13.07.32.2.19l1.5-1.44c.18-.16-.09-.44-.26-.26Z" fill="#ea2727"/>
            </g>
            <g opacity="0.5">
              <path d="M492.55,244.09a22.5,22.5,0,0,0,3.68-2.61c.5-.43-.23-1.16-.73-.72A21,21,0,0,1,492,243.2a.52.52,0,0,0,.52.89Z" fill="#ea2727"/>
            </g>
            <g opacity="0.5">
              <path d="M516.83,215.73l1,.42a.28.28,0,0,0,.15-.54l-1-.42a.28.28,0,0,0-.35.19.29.29,0,0,0,.2.35Z" fill="#ea2727"/>
            </g>
            <g opacity="0.5">
              <path d="M461,231.39a8.67,8.67,0,0,0,5.24-.79c.82-.49.8-2.07-.29-2.23a23.43,23.43,0,0,0-4.95.2,1.41,1.41,0,0,0,0,2.82Z" fill="#ea2727"/>
            </g>
            <g opacity="0.5">
              <path d="M469.57,259a.19.19,0,0,0,0-.38.19.19,0,0,0,0,.38Z" fill="#ea2727"/>
            </g>
            <g opacity="0.5">
              <path d="M484.77,276.76a7.18,7.18,0,0,0,2.29-.8,3.23,3.23,0,0,0,1.65-2.1,1.33,1.33,0,0,0-1.61-1.62,6.75,6.75,0,0,0-.91.24,6.34,6.34,0,0,0-.88.49,4.56,4.56,0,0,1-1.46.44,1.75,1.75,0,0,0-1.21,2.14,1.78,1.78,0,0,0,2.13,1.21Z" fill="#ea2727"/>
            </g>
            <g opacity="0.5">
              <path d="M468,258.37c1.12-.61,2.23-1.26,3.37-1.82a9.74,9.74,0,0,0,3.11-2,1.27,1.27,0,0,0-1.23-2.11,9.42,9.42,0,0,0-3,1.84c-1,.82-2.15,1.57-3.24,2.34a1,1,0,0,0,1,1.7Z" fill="#ea2727"/>
            </g>
            <g opacity="0.5">
              <path d="M511.33,287.3a12.06,12.06,0,0,0,1.81-2.17.52.52,0,0,0-.71-.7,12,12,0,0,0-2.16,1.81c-.71.65.41,1.77,1.06,1.06Z" fill="#ea2727"/>
            </g>
            <g opacity="0.5">
              <path d="M533.35,294.71l1.8-1.11a7.34,7.34,0,0,0,1.57-1.32.66.66,0,0,0-.64-1.1,7.1,7.1,0,0,0-1.88.8l-1.8,1.11c-1,.63-.08,2.25,1,1.62Z" fill="#ea2727"/>
            </g>
            <g opacity="0.5">
              <path d="M571.92,271.22c-.41,2.34-1.29,4.89,0,7.07a2,2,0,0,0,3.09.4c1.72-2,1.38-4.42,1.39-6.86s-4.06-3.23-4.51-.61Z" fill="#ea2727"/>
            </g>
            <g opacity="0.5">
              <path d="M596.55,272.07a5,5,0,0,0-.49,3.28,2.68,2.68,0,0,0,2.69,2.26,1.65,1.65,0,0,0,1.54-1.17,3.7,3.7,0,0,0-.08-2.06c0-.11-.05-.22-.09-.32s.06.39,0,0c0-.23,0-.12,0,.06a3.79,3.79,0,0,1,.14-.48,2,2,0,0,0-3.68-1.55Z" fill="#ea2727"/>
            </g>
            <g opacity="0.5">
              <path d="M584.08,240.61a18.29,18.29,0,0,0,1.18,3,1.28,1.28,0,0,0,2.32-1,17.9,17.9,0,0,0-1.27-3c-.6-1.24-2.66-.37-2.23.94Z" fill="#ea2727"/>
            </g>
            <g opacity="0.5">
              <path d="M592.33,220.19a56.86,56.86,0,0,0,7,5.29c.81.46,1.75-.67,1-1.33a57.29,57.29,0,0,0-7.23-5c-.61-.4-1.38.57-.79,1Z" fill="#ea2727"/>
            </g>
            <g opacity="0.5">
              <path d="M605.64,186.31A6,6,0,0,0,609,187.6a1.13,1.13,0,0,0,.57-2.1,11.23,11.23,0,0,1-2.31-1.32,1.35,1.35,0,1,0-1.64,2.13Z" fill="#ea2727"/>
            </g>
            <g opacity="0.5">
              <path d="M566.29,172.55c.61.18,1.21.37,1.83.53a2.89,2.89,0,0,0,1.34.1c.26-.05.51-.15.76-.22a1.14,1.14,0,0,0,.5-1.88,5.78,5.78,0,0,0-.53-.67,3.07,3.07,0,0,0-1.17-.62l-1.78-.67a1.78,1.78,0,0,0-1,3.43Z" fill="#ea2727"/>
            </g>
            <g opacity="0.5">
              <path d="M546.3,179.67l1.68.42a.19.19,0,0,0,.1-.36l-1.68-.42a.19.19,0,0,0-.1.36Z" fill="#ea2727"/>
            </g>
            <g opacity="0.5">
              <path d="M540.46,151.14a.05.05,0,1,0,0-.1.05.05,0,0,0,0,.1Z" fill="#ea2727"/>
            </g>
            <g opacity="0.5">
              <path d="M540.53,145.06c-.61.63-1.21,1.28-1.77,2a7.51,7.51,0,0,0-1.2,2.52,1,1,0,0,0,1.52,1.17,12.1,12.1,0,0,0,2-1.51c.57-.61,1.18-1.19,1.8-1.75,1.62-1.44-.85-3.94-2.39-2.39Z" fill="#ea2727"/>
            </g>
            <g opacity="0.5">
              <path d="M526.19,246.08a24.22,24.22,0,0,0,2.64-4.43c.48-1.26-1.27-2-2.12-1.23a23.54,23.54,0,0,0-3.11,4.15c-1.1,1.58,1.52,3.12,2.59,1.51Z" fill="#ea2727"/>
            </g>
            <g opacity="0.5">
              <path d="M559.92,259.74l.26-.75a1.82,1.82,0,0,0,0-1.06.86.86,0,0,0-1.24-.51,2.19,2.19,0,0,0-.3.16,1.88,1.88,0,0,0-.5.55l-.46.67a1.22,1.22,0,1,0,2.23.94Z" fill="#ea2727"/>
            </g>
            <g opacity="0.5">
              <path d="M567.26,213.77a5.14,5.14,0,0,1,0,.68c0,.11,0,.22,0,.33,0-.21,0-.24,0-.1a2.64,2.64,0,0,0,0,1.28c0,.18.14.35.2.53a1.52,1.52,0,0,0,2.21.89,2.73,2.73,0,0,0,1.39-1.75,10.45,10.45,0,0,0,.29-1.86,2,2,0,0,0-4,0Z" fill="#ea2727"/>
            </g>
            <g opacity="0.5">
              <path d="M555.38,191.89l.25,1a1.51,1.51,0,0,0,1.85,1,1.49,1.49,0,0,0,.89-.68l.16-.36a1.55,1.55,0,0,0,0-.8l-.17-1.06a1.58,1.58,0,0,0-.71-.93,1.55,1.55,0,0,0-1.19-.15,1.57,1.57,0,0,0-1.08,1.9Z" fill="#ea2727"/>
            </g>
            <path d="M529.26,133.18l-31,4.31S489.6,146.11,521.5,153s55.17,21.55,54.31,35.34,3.45,48.28,0,58.63-16.38,42.24-37.93,42.24-56.9.86-91.38-21.55c0,0-1.73,9.48,3.45,13.79s40.51,24.14,40.51,24.14l42.25,6L562,308.18l31.9-11.2,25.86-19,12.07-21.55-4.31-88.8L584.43,141.8,539.6,129.73Z" fill="#d85107" opacity="0.35"/>
          </g>
        </g>
      </g>
    </g>
  </g>
</svg>
