<svg xmlns="http://www.w3.org/2000/svg" xmlns:xlink="http://www.w3.org/1999/xlink" viewBox="0 0 1000 1000">
  <defs>
    <clipPath id="bd0f1121-8123-4c0d-a39d-d27e53d09ab5">
      <path d="M440.5,135.73h141a24.09,24.09,0,0,1,24.1,24.38c-1,84.45-2.47,360.8,20.11,386.72C652.42,577.46,787.68,709,815.48,754.35c18.77,30.64-68.19,168-161.08,82-163.1-151-174.92-172.94-198.64-209.51C433.44,592.45,433,313.71,416.54,162.43A24.1,24.1,0,0,1,440.5,135.73Z" fill="#ff8b00"/>
    </clipPath>
    <clipPath id="e38b093d-243a-41da-a701-e7d35686773e">
      <path d="M209,91.38h158.2a27,27,0,0,1,27,27.35c-1.11,94.73-2.76,404.72,22.56,433.8C446.7,586.89,598.43,734.44,629.6,785.31c21.07,34.37-76.48,188.45-180.68,92C266,708,252.71,683.33,226.11,642.32c-25.05-38.61-25.54-351.28-44-521A27,27,0,0,1,209,91.38Z" fill="#ff8b00"/>
    </clipPath>
  </defs>
  <g id="b7089466-37c8-4870-ba65-e59859cccf60" data-name="Layer 3">
    <g id="b84db0ea-2b6e-4849-9675-433325aa4d0f" data-name="Layer 4">
      <g>
        <g>
          <path d="M440.5,135.73h141a24.09,24.09,0,0,1,24.1,24.38c-1,84.45-2.47,360.8,20.11,386.72C652.42,577.46,787.68,709,815.48,754.35c18.77,30.64-68.19,168-161.08,82-163.1-151-174.92-172.94-198.64-209.51C433.44,592.45,433,313.71,416.54,162.43A24.1,24.1,0,0,1,440.5,135.73Z" fill="#ff8b00"/>
          <g clip-path="url(#bd0f1121-8123-4c0d-a39d-d27e53d09ab5)">
            <path d="M399.44,241.47s152.18,23.72,220.37-7.91L611.9,106.08H383.62Z" fill="#ea2727"/>
            <path d="M420.19,568.57S566.44,561.65,515.06,698l-83-66.21Z" fill="#ea2727"/>
            <path d="M864.77,747.58s-111-24.74-216.43,125.47l111.91,36,89.11-78.87Z" fill="#ea2727"/>
            <path d="M466.63,112s84,425.92,99.81,449.64,114.92,97.83,143.3,165c18.77,44.47-73.13,129.46-73.13,129.46l97.83,44.47L890.58,795.86,656.37,533,628.7,122.88Z" fill="#d85107" opacity="0.35"/>
          </g>
        </g>
        <g>
          <path d="M209,91.38h158.2a27,27,0,0,1,27,27.35c-1.11,94.73-2.76,404.72,22.56,433.8C446.7,586.89,598.43,734.44,629.6,785.31c21.07,34.37-76.48,188.45-180.68,92C266,708,252.71,683.33,226.11,642.32c-25.05-38.61-25.54-351.28-44-521A27,27,0,0,1,209,91.38Z" fill="#ff8b00"/>
          <g clip-path="url(#e38b093d-243a-41da-a701-e7d35686773e)">
            <path d="M162.92,210s170.71,26.6,247.2-8.87l-8.87-143H145.18Z" fill="#ea2727"/>
            <path d="M186.2,576.91s164.06-7.76,106.42,145.22L199.5,647.86Z" fill="#ea2727"/>
            <path d="M684.9,777.72S560.4,750,442.12,918.46l125.53,40.35,100-88.47Z" fill="#ea2727"/>
            <path d="M238.3,64.78s94.22,477.77,112,504.37S479.16,678.89,511,754.28c21.07,49.88-82,145.21-82,145.21l109.75,49.89L713.85,831.87,451.13,537l-31-460Z" fill="#d85107" opacity="0.35"/>
          </g>
        </g>
      </g>
    </g>
  </g>
</svg>
