<svg xmlns="http://www.w3.org/2000/svg" xmlns:xlink="http://www.w3.org/1999/xlink" viewBox="0 0 1000 1000">
  <defs>
    <clipPath id="bfe7c422-1756-44a2-a45f-7568a2dceb11">
      <ellipse cx="544.8" cy="344.19" rx="166.08" ry="24.02" fill="#f4e1cb"/>
    </clipPath>
    <clipPath id="be47c21e-6801-49aa-9de1-438908a7f655">
      <path d="M286.16,128.61l169.84-21A21.17,21.17,0,0,1,479.44,125l124.23,709H575.55L450.19,143.84l-157,15.23S276.79,150.87,286.16,128.61Z" fill="#ea2727"/>
    </clipPath>
    <clipPath id="a370ef49-3d3c-4cbb-862f-9cfe08ea710b">
      <path d="M686.86,583.21H398.64l15.23,268.3h0a3.81,3.81,0,0,0,0,.59c0,13.26,57.7,24,128.88,24s128.88-10.75,128.88-24a5.65,5.65,0,0,0,0-.59h0Z" fill="#ff8b00"/>
    </clipPath>
    <clipPath id="a6a8c3dd-10ae-47a1-8ef1-25d83ada6df2">
      <ellipse cx="542.75" cy="583.79" rx="144.11" ry="24.02" fill="#ff9a00"/>
    </clipPath>
  </defs>
  <g id="a51af904-0ffb-47ae-a58f-97eff59f6b14" data-name="Layer 3">
    <g id="b953e5eb-070f-49c6-808d-39653c5c4393" data-name="Layer 4">
      <g>
        <ellipse cx="542.75" cy="868.5" rx="137.08" ry="24.02" fill="#fff1de"/>
        <g>
          <ellipse cx="544.8" cy="344.19" rx="166.08" ry="24.02" fill="#f4e1cb"/>
          <g clip-path="url(#bfe7c422-1756-44a2-a45f-7568a2dceb11)">
            <g>
              <path d="M286.16,128.61l169.84-21A21.17,21.17,0,0,1,479.44,125l124.23,709H575.55L450.19,143.84l-157,15.23S276.79,150.87,286.16,128.61Z" fill="#ea2727"/>
              <g clip-path="url(#be47c21e-6801-49aa-9de1-438908a7f655)">
                <polygon points="468.93 81.75 537.85 626.39 603.67 592.58 492.37 107.52 468.93 81.75" fill="#ce0909"/>
                <polyline points="449.02 143.84 272.1 148.53 295.53 166.1 449.02 143.84" fill="#ce0909"/>
              </g>
            </g>
            <g>
              <path d="M286.16,128.61l169.84-21A21.17,21.17,0,0,1,479.44,125l124.23,709H575.55L450.19,143.84l-157,15.23S276.79,150.87,286.16,128.61Z" fill="#ea2727"/>
              <g clip-path="url(#be47c21e-6801-49aa-9de1-438908a7f655)">
                <polygon points="468.93 81.75 537.85 626.39 603.67 592.58 492.37 107.52 468.93 81.75" fill="#ce0909"/>
                <polyline points="449.02 143.84 272.1 148.53 295.53 166.1 449.02 143.84" fill="#ce0909"/>
              </g>
            </g>
          </g>
        </g>
        <g>
          <path d="M286.16,128.61l169.84-21A21.17,21.17,0,0,1,479.44,125l124.23,709H575.55L450.19,143.84l-157,15.23S276.79,150.87,286.16,128.61Z" fill="#ea2727"/>
          <g clip-path="url(#be47c21e-6801-49aa-9de1-438908a7f655)">
            <polygon points="468.93 81.75 537.85 626.39 603.67 592.58 492.37 107.52 468.93 81.75" fill="#ce0909"/>
            <polyline points="449.02 143.84 272.1 148.53 295.53 166.1 449.02 143.84" fill="#ce0909"/>
          </g>
        </g>
        <path d="M710.88,344.19c0,13.27-74.36,24-166.08,24s-166.08-10.75-166.08-24H374l31.64,524.89H679.83l31.63-524.89Z" fill="#f4ddc1" opacity="0.73"/>
        <g>
          <path d="M686.86,583.21H398.64l15.23,268.3h0a3.81,3.81,0,0,0,0,.59c0,13.26,57.7,24,128.88,24s128.88-10.75,128.88-24a5.65,5.65,0,0,0,0-.59h0Z" fill="#ff8b00"/>
          <g clip-path="url(#a370ef49-3d3c-4cbb-862f-9cfe08ea710b)">
            <polygon points="617.73 282.1 519.31 941.73 736.07 925.32 733.72 285.61 617.73 282.1" fill="#d85107" opacity="0.35"/>
          </g>
        </g>
        <g>
          <ellipse cx="542.75" cy="583.79" rx="144.11" ry="24.02" fill="#ff9a00"/>
          <g clip-path="url(#a6a8c3dd-10ae-47a1-8ef1-25d83ada6df2)">
            <path d="M286.16,128.61,476,105.18l83.77,478s-4.1,3.51-13.47,4.68a23.72,23.72,0,0,1-16.19-4.1L449,138,293.19,159.07S276.79,150.87,286.16,128.61Z" fill="#eaa48f"/>
          </g>
        </g>
        <path d="M391.61,365.28s17.57,11.72,46.86,8.2L449,859.71s-14.06,1.17-25.78-7Z" fill="#fff" opacity="0.49"/>
        <path d="M512.28,312.56c10.33-.29,27,1.17,32.81,1.17,44.63,0,86.34,3.11,118,7.68,47.29,6.84,53.66,15.36,53.66,22.78,0,13.24-27.12,18.95-53.66,22.78-31.64,4.58-73.64,7.1-118.27,7.1s-86.64-2.52-118.28-7.1c-47.28-6.83-53.66-15.35-53.66-22.78,0-13.23,27.13-18.94,53.66-22.78,16-2.31,33.83-6.48,54.13-7.68L483,325.45c-18,1.05-34.88,4.89-49.51,6.83-34.61,4.58-45.12,9.83-48.06,11.91,2.94,2.08,13.45,7.34,48.06,11.92,30.42,4,70,6.24,111.32,6.24s80.89-2.21,111.32-6.24c34.6-4.58,45.11-9.84,48.06-11.92-2.95-2.08-13.46-7.33-48.06-11.91-30.43-4-70-6.25-111.32-6.25-10,0-20.52-.84-30.17-.58Z" fill="#fff2e6"/>
      </g>
    </g>
  </g>
</svg>
