<svg xmlns="http://www.w3.org/2000/svg" xmlns:xlink="http://www.w3.org/1999/xlink" viewBox="0 0 1000 1000">
  <defs>
    <clipPath id="a1719c4f-2f00-4e5c-b410-f2d3ca41cd5f">
      <path d="M824.23,568.36c0,43-3.63,82.43-21,118.39-44.59,92-140.19,154.61-256,154.61-70.88,0-137-22.76-187.64-62.4-33.68-26.38-53.66-61-70.36-100.6-12.37-29.34-26-61.06-26-96,0-138.62,82-265,212-269,12.76-.4,44-4.58,52-5,19-1,36.88-2.38,62-4,99.08-6.42,179.36,52.21,217.3,141.82C821.82,482.28,824.23,524.42,824.23,568.36Z" fill="#ff8b00"/>
    </clipPath>
    <clipPath id="fdad33d5-f599-4a2b-bd68-5f5982ce4787">
      <path d="M175.77,266.28S265.51,183.34,349,161.49s167.05,87,133.49,152.3c-20.41,39.74-101.6,66.7-150,6.56S258.32,258,175.77,266.28Z" fill="#35a31a"/>
    </clipPath>
  </defs>
  <g style="isolation: isolate">
    <g id="e6c0f190-96b1-480a-8487-b91834457a75" data-name="Layer 3">
      <g>
        <g>
          <path d="M824.23,568.36c0,43-3.63,82.43-21,118.39-44.59,92-140.19,154.61-256,154.61-70.88,0-137-22.76-187.64-62.4-33.68-26.38-53.66-61-70.36-100.6-12.37-29.34-26-61.06-26-96,0-138.62,82-265,212-269,12.76-.4,44-4.58,52-5,19-1,36.88-2.38,62-4,99.08-6.42,179.36,52.21,217.3,141.82C821.82,482.28,824.23,524.42,824.23,568.36Z" fill="#ff8b00"/>
          <g clip-path="url(#a1719c4f-2f00-4e5c-b410-f2d3ca41cd5f)">
            <path d="M374.23,287.36s308.1-34.5,344,154c48,252-142,408-458,272l192,168,239-10,143-154,36-163-46-192-114-99-267,23" fill="#d85107" opacity="0.35"/>
            <path d="M650.76,588a43.54,43.54,0,0,1,3.12-9.76,22,22,0,0,1,2-3.69c1.49-2,.7-1.41,1,.51.95,5.87-2.68,12.51-6.58,16.54l4.2-.54c-4.54-3.09,3.06-13.15,5.19-16h-5.78c.79,1.44,1.55,2.31,3.21,2.55a2.57,2.57,0,0,0,2.81-1.14c.9-1.85.7-3-.24-4.78s-3.93-2.33-5.26-.68c-5.29,6.59-13.84,19.85-3.43,26a3.51,3.51,0,0,0,4.2-.54,29.57,29.57,0,0,0,6.87-14c.71-4,1.25-10.25-1.5-13.63-7-8.56-13.28,14.06-14,18-.52,2.76,3.67,4,4.25,1.17Z" fill="#ff8b00"/>
            <g opacity="0.35" style="mix-blend-mode: multiply">
              <path d="M664.54,605.27a37.39,37.39,0,0,1,1.85-13c.83-2.54,2.66-5.44,5.33-5.15s3.76,3.32,4,5.88a22.87,22.87,0,0,1-3.81,14.71c-1.26,1.86-3.89,3.62-5.49,2.06-1-1-.82-2.57-.57-3.92,1.12-6,2.34-12.31,6-17.18a21.59,21.59,0,0,1-3.08,17.1A17.72,17.72,0,0,1,671.36,594" fill="#ff8b00"/>
            </g>
            <g opacity="0.35" style="mix-blend-mode: multiply">
              <path d="M537.56,616a37.28,37.28,0,0,1,10.83-7.38c2.45-1.1,5.82-1.71,7.4.46s.08,5-1.66,6.91a23,23,0,0,1-13.44,7.1c-2.22.32-5.29-.44-5.22-2.68,0-1.37,1.35-2.33,2.52-3.06,5.21-3.23,10.66-6.56,16.77-7.1a21.69,21.69,0,0,1-14.71,9.25,17.67,17.67,0,0,1,10.4-6" fill="#ff8b00"/>
            </g>
            <g opacity="0.35" style="mix-blend-mode: multiply">
              <path d="M680.23,476.14a2.86,2.86,0,0,1,4.06-.53,2.66,2.66,0,0,1-.2,4,2.48,2.48,0,0,1-3.67-1.38,2.34,2.34,0,0,1,2.76-2.66,1,1,0,0,1,.7.54,1.3,1.3,0,0,1,0,.62,3.44,3.44,0,0,1-1.54,2.56,1.86,1.86,0,0,1-2.6-.79,2.72,2.72,0,0,1,2.23-1.72" fill="#ff8b00"/>
            </g>
            <g opacity="0.35" style="mix-blend-mode: multiply">
              <path d="M624,394.64a2.55,2.55,0,1,1,.64,4.54,2.75,2.75,0,0,1,1.56-3.58,1.42,1.42,0,0,1-.49,2.44" fill="#ff8b00"/>
            </g>
            <g opacity="0.35" style="mix-blend-mode: multiply">
              <path d="M616,542.06a1.14,1.14,0,1,1,1.48,1.73c-.45,0-1-.46-.7-.83s.85.4.4.42" fill="#ff8b00"/>
            </g>
            <g opacity="0.35" style="mix-blend-mode: multiply">
              <path d="M593.82,669.86a1.85,1.85,0,1,1,1.4,3c-.65-.34,0-1.57.64-1.24" fill="#ff8b00"/>
            </g>
            <g opacity="0.35" style="mix-blend-mode: multiply">
              <path d="M496.7,730.39c2.12-1.54,3.95-3.57,6.39-4.54s5.83-.34,6.69,2.14a4.44,4.44,0,0,1-1.28,4.43,9.56,9.56,0,0,1-4.27,2.21,23.38,23.38,0,0,1-6.55.85,3.41,3.41,0,0,1-1.79-.38c-1.32-.85-.95-2.94,0-4.21a7.94,7.94,0,0,1,9-2.65,6.81,6.81,0,0,1-5.38,3.38" fill="#ff8b00"/>
            </g>
            <g opacity="0.35" style="mix-blend-mode: multiply">
              <path d="M416.69,734.28a1.69,1.69,0,1,1,3.27.47,1.18,1.18,0,0,1-1.61-.47" fill="#ff8b00"/>
            </g>
            <g opacity="0.35" style="mix-blend-mode: multiply">
              <path d="M342.23,704.92a2.67,2.67,0,1,1,4.94,1.75,2.29,2.29,0,0,1-2.42,1.12,1.75,1.75,0,0,1-1.21-2.21c.12-.29.46-.56.73-.39s-.22.64-.29.34" fill="#ff8b00"/>
            </g>
            <g opacity="0.35" style="mix-blend-mode: multiply">
              <path d="M575.15,503.44a2.86,2.86,0,0,0,3.46-1.87,1.13,1.13,0,0,0-2.17-.6,1.8,1.8,0,0,1-.06.22c.08-.19-.08.09,0,0s-.26.25-.18.19a.77.77,0,0,1-.26.13l-.11,0h0s-.23,0-.12,0a1,1,0,0,0-1.22.69,1,1,0,0,0,.69,1.21Z" fill="#ff8b00"/>
            </g>
            <g opacity="0.35" style="mix-blend-mode: multiply">
              <path d="M568.62,444.52l.25-.48c.18-.33-.11.08,0-.08l.3-.32c.36-.38-.29.15.14-.12.13-.08.25-.16.39-.23s.34-.12.07,0a2.72,2.72,0,0,0,1.67-1.18,2,2,0,0,0-.71-2.71c-1.2-.72-2.65-.12-3.7.62a6.26,6.26,0,0,0-2.1,2.41,2.16,2.16,0,0,0,.76,2.89,2.13,2.13,0,0,0,2.88-.76Z" fill="#ff8b00"/>
            </g>
            <g opacity="0.35" style="mix-blend-mode: multiply">
              <path d="M526.91,386.08a5.24,5.24,0,0,1,.73-.41l-1.75-.23a3.8,3.8,0,0,0,2.38,1.26c.33,0,.37,0,.13,0a3.58,3.58,0,0,1,.54.14,5.36,5.36,0,0,1,1.67.67c1.69.9,4-.6,3.38-2.59a5.28,5.28,0,0,0-5.72-3.48,2.75,2.75,0,0,0-2.54,1.93l-.21.67.66-.86a6.63,6.63,0,0,0-1,.7c-1.23,1,.38,3.1,1.7,2.21Z" fill="#ff8b00"/>
            </g>
            <g opacity="0.35" style="mix-blend-mode: multiply">
              <path d="M447.09,539.7l1.37-.74a3.53,3.53,0,0,0,1.36-1.35,1.48,1.48,0,0,0-.87-2.15,3.6,3.6,0,0,0-2,0l-1.51.41a2.11,2.11,0,1,0,1.63,3.85Z" fill="#ff8b00"/>
            </g>
            <g opacity="0.35" style="mix-blend-mode: multiply">
              <path d="M404.56,612.61a15.57,15.57,0,0,0-1.9,2.9.88.88,0,0,0,.13,1,.83.83,0,0,0,1,.13A16.52,16.52,0,0,0,406.4,614a1.17,1.17,0,1,0-1.84-1.42Z" fill="#ff8b00"/>
            </g>
            <g opacity="0.35" style="mix-blend-mode: multiply">
              <path d="M325,548.5c-1.56,2.25-3.34,4.41-4.32,7-.52,1.36,1.35,2.16,2.27,1.32,2-1.84,3.37-4.38,4.88-6.64,1.18-1.77-1.64-3.38-2.83-1.66Z" fill="#ff8b00"/>
            </g>
            <g opacity="0.35" style="mix-blend-mode: multiply">
              <path d="M360.26,462.06a14.17,14.17,0,0,0,2.88-6.65c.07-.73-1-.9-1.31-.35a50.42,50.42,0,0,1-3.41,5.58,1.17,1.17,0,1,0,1.84,1.42Z" fill="#ff8b00"/>
            </g>
            <g opacity="0.35" style="mix-blend-mode: multiply">
              <path d="M379.11,400.84c2.08-3,4.9-5.16,7.53-7.6,1.72-1.59-.46-3.84-2.33-3-3.8,1.68-6.59,5.07-8.76,8.54-1.43,2.28,2.05,4.22,3.56,2.08Z" fill="#ff8b00"/>
            </g>
            <g opacity="0.35" style="mix-blend-mode: multiply">
              <path d="M420.72,460.7c-1.88,1.68-3.88,4.06-3.4,6.73a2,2,0,0,0,3,1.2,8.23,8.23,0,0,0,2.28-2.49,12.8,12.8,0,0,1,1.81-1.79,2.6,2.6,0,0,0,0-3.65,2.63,2.63,0,0,0-3.65,0Z" fill="#ff8b00"/>
            </g>
            <ellipse cx="409.25" cy="417.74" rx="39.9" ry="30.37" transform="translate(-173.05 471.72) rotate(-50.88)" fill="#fff" opacity="0.45"/>
          </g>
        </g>
        <path d="M468.36,364.57c-10.88-10.75,21.69-35.53,54.19-37.42s73.66,7.43,71.75,22.3S502.37,398.16,468.36,364.57Z" fill="#d85107" opacity="0.35"/>
        <path d="M528.23,253.36s-3,36-2,39,8,38,8,38S492.69,310.12,493,304.74c0,0-9.73,12.62-9.73,15.62s45,26,45,26l6,14s8,4,14,1,7-8,7-8-14-51-12-60,3-40,3-40S538.23,259.36,528.23,253.36Z" fill="#a05000"/>
        <ellipse cx="537.23" cy="253.36" rx="9" ry="4" fill="#b25d10"/>
        <g>
          <g>
            <path d="M175.77,266.28S265.51,183.34,349,161.49s167.05,87,133.49,152.3c-20.41,39.74-101.6,66.7-150,6.56S258.32,258,175.77,266.28Z" fill="#35a31a"/>
            <g clip-path="url(#fdad33d5-f599-4a2b-bd68-5f5982ce4787)">
              <path d="M148,284s165.43-101.76,241-64.3c67.51,33.48,79.19,133.76,21.85,152.34s68.89,5.46,68.89,5.46l34.58-170.14L367,141.1,232.7,177.23Z" fill="#428e06"/>
            </g>
          </g>
          <path d="M260.51,233.82c34.67-12.2,74.4-25.81,110.57-11.51,33.89,13.39,56.38,44,78.18,71.61,5,6.34,9.72,13.42,16.59,17.89,6.11,4,13.48,5.76,20.12,8.64,7.35,3.19,13.92-7.32,6.43-11-5.94-2.93-12.4-5-18.2-8.16-6.14-3.38-10.25-9.85-14.55-15.17-12.39-15.31-24.55-30.83-39.09-44.19-12.83-11.81-27.35-21.91-43.83-27.86C359,207.67,340.4,207.7,322,210.84c-21.48,3.67-43.46,9.78-62.54,20.5-1.31.74-.43,3,1.05,2.48Z" fill="#327c01"/>
        </g>
      </g>
    </g>
  </g>
</svg>
