<svg xmlns="http://www.w3.org/2000/svg" xmlns:xlink="http://www.w3.org/1999/xlink" viewBox="0 0 1000 1000">
  <defs>
    <clipPath id="b3d23316-6853-4591-908d-0a5ee622ecf0">
      <path d="M210.08,345.75H785.92a0,0,0,0,1,0,0V830.23A24.77,24.77,0,0,1,761.15,855H234.85a24.77,24.77,0,0,1-24.77-24.77V345.75A0,0,0,0,1,210.08,345.75Z" fill="#ea2727"/>
    </clipPath>
    <clipPath id="e996e6a8-b86d-4df6-94ab-4aa1ef5b0dcf">
      <rect x="152.5" y="288.16" width="691" height="128.66" rx="14.54" fill="#f43838"/>
    </clipPath>
    <clipPath id="fedee8ac-56d1-4d95-8126-5ea547b06dbc">
      <rect x="435.02" y="281.86" width="125.96" height="573.14" fill="#ffae2c"/>
    </clipPath>
    <clipPath id="f9e3cf6e-91ad-43c0-bacc-82352c099532">
      <path d="M625.18,157.12c-72.27-20.61-122.49,115.39-126.7,127.2,32.44,3.5,78.64-102.16,113.14-89.14,36.15,13.65,32.28,44.53,18.08,61.76-13.82,16.77-121.12,27.44-127.18,28,0,.14-4.33.19-4.33.19s43.06,23.51,115.37,12.73S700.71,178.67,625.18,157.12Z" fill="#ffae2c"/>
    </clipPath>
    <clipPath id="b596d2d3-491e-466c-88ca-c515f856df60">
      <path d="M385.22,157.12c72.26-20.61,122.49,115.39,126.7,127.2-32.45,3.5-78.64-102.16-113.15-89.14-36.15,13.65-32.28,44.53-18.07,61.76,13.81,16.77,121.12,27.44,127.18,28,.05.14,4.33.19,4.33.19s-43.07,23.51-115.37,12.73S309.68,178.67,385.22,157.12Z" fill="#ffae2c"/>
    </clipPath>
    <clipPath id="ae1cc927-fe27-4f42-8159-d92f063f5f87">
      <path d="M485.4,290.86c-.9-12.6-3.6-23.39,15.3-23.39s28.79,6.3,28.79,18.89S526.79,308,508.8,308C495,308,486.8,310.46,485.4,290.86Z" fill="#ffae2c"/>
    </clipPath>
  </defs>
  <g style="isolation: isolate">
    <g id="bc78fb99-52b1-4c73-9826-24ac22490665" data-name="Layer 3">
      <g>
        <path d="M210.08,345.75H785.92a0,0,0,0,1,0,0V830.23A24.77,24.77,0,0,1,761.15,855H234.85a24.77,24.77,0,0,1-24.77-24.77V345.75A0,0,0,0,1,210.08,345.75Z" fill="#ea2727"/>
        <g clip-path="url(#b3d23316-6853-4591-908d-0a5ee622ecf0)">
          <polygon points="610.47 370.04 321.65 911.68 832.7 880.19 806.61 352.94 610.47 370.04" fill="#c10505" opacity="0.46" style="mix-blend-mode: multiply"/>
          <polygon points="200.19 425.39 814.71 452.39 797.61 367.81 200.19 389.4 200.19 425.39" fill="#c90d0d"/>
        </g>
      </g>
      <g>
        <rect x="152.5" y="288.16" width="691" height="128.66" rx="14.54" fill="#f43838"/>
        <g clip-path="url(#e996e6a8-b86d-4df6-94ab-4aa1ef5b0dcf)">
          <polygon points="748.13 246.77 631.16 454.61 874.09 440.22 862.4 253.97 748.13 246.77" fill="#e00e0e"/>
        </g>
      </g>
      <rect x="545.69" y="288.16" width="27.89" height="566.84" fill="#cc0d0d" opacity="0.46" style="mix-blend-mode: multiply"/>
      <path d="M497.6,286.36l-.36,0-.3-.75Z" fill="#ffab50"/>
      <g>
        <rect x="435.02" y="281.86" width="125.96" height="573.14" fill="#ffae2c"/>
        <g clip-path="url(#fedee8ac-56d1-4d95-8126-5ea547b06dbc)">
          <path d="M536.43,257.74S505.2,882,399.93,883.79L599.67,871.2,579,254.87Z" fill="#ef8e0c"/>
          <path d="M431.42,313.35s41.39-2.69,49.48-8.09c0,0,10,11.2,24.3,9.89A147.67,147.67,0,0,0,536.69,308c13.06-4.9,18.82,8.26,30.59,6.29,32.39-5.39,6.3-46.78,6.3-46.78H423.32Z" fill="#ef8e0c"/>
        </g>
      </g>
      <g>
        <g>
          <path d="M625.18,157.12c-72.27-20.61-122.49,115.39-126.7,127.2,32.44,3.5,78.64-102.16,113.14-89.14,36.15,13.65,32.28,44.53,18.08,61.76-13.82,16.77-121.12,27.44-127.18,28,0,.14-4.33.19-4.33.19s43.06,23.51,115.37,12.73S700.71,178.67,625.18,157.12Z" fill="#ffae2c"/>
          <g clip-path="url(#f9e3cf6e-91ad-43c0-bacc-82352c099532)">
            <path d="M545.69,174.79S600.57,153.2,624,170.3s40.49,39.58,36,68.38-57.58,64.09-86.37,69.38l62.08-7.3,49.49-33.29-5.4-104.37-59.38-27-46.79,7.19Z" fill="#ef8e0c"/>
          </g>
        </g>
        <path d="M498,285l.26,0c.05-.13.12-.34.22-.6Z" fill="#ffab50"/>
        <g>
          <g>
            <path d="M385.22,157.12c72.26-20.61,122.49,115.39,126.7,127.2-32.45,3.5-78.64-102.16-113.15-89.14-36.15,13.65-32.28,44.53-18.07,61.76,13.81,16.77,121.12,27.44,127.18,28,.05.14,4.33.19,4.33.19s-43.07,23.51-115.37,12.73S309.68,178.67,385.22,157.12Z" fill="#ffae2c"/>
            <g clip-path="url(#b596d2d3-491e-466c-88ca-c515f856df60)">
              <path d="M350.44,165.8s52.19-.9,80.08,53.08,68,65.44,68,65.44l8.63-12.47L507,236,429.62,143.3,363,145.1Z" fill="#ef8e0c"/>
            </g>
          </g>
          <path d="M512.4,285l-.27,0c0-.13-.12-.34-.21-.6Z" fill="#ffab50"/>
        </g>
      </g>
      <g>
        <path d="M485.4,290.86c-.9-12.6-3.6-23.39,15.3-23.39s28.79,6.3,28.79,18.89S526.79,308,508.8,308C495,308,486.8,310.46,485.4,290.86Z" fill="#ffae2c"/>
        <g clip-path="url(#ae1cc927-fe27-4f42-8159-d92f063f5f87)">
          <path d="M488.1,266.57s18.9-4.5,24.3,18-7.2,30.59-7.2,30.59l24.29-10.79,6.3-36.89L507,255.77Z" fill="#ef8e0c"/>
        </g>
      </g>
    </g>
  </g>
</svg>
