<svg xmlns="http://www.w3.org/2000/svg" xmlns:xlink="http://www.w3.org/1999/xlink" viewBox="0 0 1000 1000">
  <defs>
    <clipPath id="fc565661-4632-403f-bc86-124f24efdfd6">
      <path d="M676,195c-43.44-43.44-111.56-68-173-68s-139.56,27.56-183,71-70,114.56-70,176V883.5c0,16.84,25.16,36.5,42,36.5s42-19.66,42-36.5V374c0-93.19,75.81-169,169-169s169,75.81,169,169c0,16.84,24.16,36,41,36s37-23.16,37-40C750,308.56,719.44,238.44,676,195Z" fill="#ea2727"/>
    </clipPath>
  </defs>
  <g style="isolation: isolate">
    <g id="ad62d168-46ff-474f-9596-5b5290fc3783" data-name="Layer 3">
      <g>
        <path d="M676,195c-43.44-43.44-111.56-68-173-68s-139.56,27.56-183,71-70,114.56-70,176V883.5c0,16.84,25.16,36.5,42,36.5s42-19.66,42-36.5V374c0-93.19,75.81-169,169-169s169,75.81,169,169c0,16.84,24.16,36,41,36s37-23.16,37-40C750,308.56,719.44,238.44,676,195Z" fill="#ea2727"/>
        <g clip-path="url(#fc565661-4632-403f-bc86-124f24efdfd6)">
          <path d="M384,165l-28,18s103-35,183-8,165,90,128,247l79-5,10-126L657,144,503,114Z" fill="#c10505" opacity="0.46" style="mix-blend-mode: multiply"/>
          <polyline points="338.02 337.27 273 944 362 925 338.02 337.27" fill="#c10505" opacity="0.46" style="mix-blend-mode: multiply"/>
          <g style="mix-blend-mode: lighten">
            <path d="M400.63,762.22a113.32,113.32,0,0,0-33.45-50.06c-14.36-12.64-29.67-23.89-46.74-32.54A313.77,313.77,0,0,0,266,658c-10.66-3.07-21.68-4.33-32.71-5.35a183,183,0,0,0-24.77-1c-6.65.29-13.88.46-20.31,2.05a112.52,112.52,0,0,0-12.91,4.46,296.16,296.16,0,0,0-29.36,12.94c-11.48,5.88-9.1,25.42,3.68,28.1a245.79,245.79,0,0,1,33.26,9.46c11.24,4.06,23.48,5.08,35.13,7.75,11.85,2.72,23.64,6.06,35.38,9.23a272.17,272.17,0,0,1,34.55,11.93l-8-3.37a377.09,377.09,0,0,1,46,23.47c7,4.25,13.52,9.18,20.29,13.81,1.55,1.06,3.51,3,5.24,3.65q-5.07-4-1.68-1.27c.84.69,1.67,1.4,2.49,2.12a84.7,84.7,0,0,1,9,9.21c6.41,7.65,20.42,9,28.63,3.69,8.49-5.47,14.25-16.51,10.85-26.68Z" fill="#ffe1e1"/>
          </g>
          <g style="mix-blend-mode: lighten">
            <path d="M390.17,569.69c-12.72-27.52-34.85-50.48-60.9-65.75s-53.56-26-82.27-34.62c-7.59-2.28-15-4.45-22.8-5.53l-5.64-.77c-9.24-1.24-16.7-1.8-25.6,2-3.89,1.64-7.77,3.32-11.64,5-6.08,2.66-12.19,11.44-13.62,17.71-1.67,7.32-1.62,16.48,3,22.83,5.5,7.56,10.68,16.07,19.16,20.58a139,139,0,0,0,21.65,9.12c10.06,3.08,20.21,5.87,30.23,9.11,19.73,6.39,39.73,12.55,58.89,20.54L292,566.22c8.37,3.54,16.5,8,25.11,10.85,6,2,11.89,4.2,17.71,6.65l-7.33-3.1c6.83,2.94,13.4,6.44,20.24,9.33-.32-.13,9,4,4.25,1.73-4-1.9,1.15.51,2,.88q4.59,2.07,9.08,4.33c7.67,3.85,17.91,3.62,24.09-3.11,6.39-7,7-15.71,3.11-24.09Z" fill="#ffe1e1"/>
          </g>
          <g style="mix-blend-mode: lighten">
            <path d="M413,401.52c-4.12-6.62-8.51-13.08-13.22-19.31-3.94-5.21-7.71-11.25-12.68-15.59s-10.13-7.94-15.28-11.74a262.62,262.62,0,0,0-42.18-25.66,273.39,273.39,0,0,0-54.79-19.06c-10.7-2.53-22.25-5.41-33.21-5.09-15,.44-33.18.24-43.81,12.69-9.8,11.48-13.65,27.77-5.35,41.4,6.39,10.49,16.48,15.88,27.87,19.19,4.45,1.3,8.81,2.86,13.23,4.23,8.57,2.64,17.82,3.55,26.54,5.84,17.49,4.59,34.49,11.1,51.16,18.06l-9.3-3.93a289.33,289.33,0,0,1,26.76,13q6.12,3.38,12.07,7.07c6.46,4,13.75,6.4,20.76,9.33l-8.09-3.42c7.51,3.19,14.86,6.66,22.07,10.47,10.41,5.49,24.77,4.87,33.17-4.28,8.09-8.82,10.88-22.58,4.28-33.18Z" fill="#ffe1e1"/>
          </g>
          <g style="mix-blend-mode: lighten">
            <path d="M434.74,260.5c0-2.74-.1-5.49-.27-8.23-.57-8.91-3-16-6.81-24q-3.68-7.78-8-15.23c-7.6-13.09-17.54-24.75-28.37-35.3-10.62-10.35-22.31-20.35-35.5-27.15-7.56-3.9-15.86-8.75-24.24-10-7.45-1.07-13.44-2.57-20.88-.16-6,1.93-12.06,5-16.46,9.57A42.13,42.13,0,0,0,291,154c-4.95,6.41-5.92,12.23-7,20.14l1.19-8.91c-.5,3.46-1.31,6.9-1.29,10.39.09,10.86,4.6,18.17,11.13,26.32,3.86,4.83,8.93,8.07,13.83,11.85l-7.84-6.06c9.26,7.24,18,15,27.37,22.14l-8.25-6.37c11.73,9.07,21.48,19.59,31.83,30.1,5.09,5.17,10.16,10.28,14.83,15.84,4.23,5.05,7.37,8.76,13.2,12.7,2.61,1.77,5.27,3.46,7.84,5.29,8.85,6.29,22.47,5.24,31.42,0a31.25,31.25,0,0,0,15.42-26.88Z" fill="#ffe1e1"/>
          </g>
          <g style="mix-blend-mode: lighten">
            <path d="M529.12,239c2.47-4,4.49-8.23,7.15-12.09a109.42,109.42,0,0,0,7-11.56c2.13-4.11,4.63-8.63,5.71-13a108.11,108.11,0,0,0,2.11-14.94,121.94,121.94,0,0,0,.62-14.43c-.21-12.13-1.64-24.56-5.4-36.11-5.63-17.26-12.91-34.39-29.27-44-23.45-13.73-56.31,3.62-55.34,31.76a57.85,57.85,0,0,0,6.66,26c1.58,3.1,3.12,6.19,4.51,9.38l-3.92-9.28a163.68,163.68,0,0,1,11.3,39.91l-1.3-9.65c1,8.1.9,16.38,3.24,24.26a108.36,108.36,0,0,1,3.3,15l-1-7.39a26.8,26.8,0,0,1,.17,6.2c-.08,1-.19,2.05-.31,3.07.58-4.06.66-4.7.24-1.94-1.87,12.17,2.07,23.68,14.11,28.76a24.48,24.48,0,0,0,30.44-10Z" fill="#ffe1e1"/>
          </g>
          <g style="mix-blend-mode: lighten">
            <path d="M589.33,297.17c14.24.7,28.42,0,41.84-5.15,17.17-6.56,33-13.95,47-26,11.56-10,22.74-21.68,30.61-34.78a171.34,171.34,0,0,0,8.86-16.8c1.68-3.67,4-8.33,5-11.67,2.1-7.41,1.26-13.69.22-21a41.75,41.75,0,0,0-4.81-14c-6.59-12.4-21.77-17-34.73-14.13-11.67,2.62-22.08,10.74-28.65,20.43-2.86,4.21-5.69,8.4-8.8,12.45l6-7.77c-5.78,7.39-11.79,14.58-17.49,22.05l6.13-7.93c-7.21,9.29-15.9,17-23.51,25.86a174.09,174.09,0,0,1-24.77,23.63l6.37-4.91c-8.9,6.84-16.06,15.3-24.62,22.56-6.57,5.58-7.62,16.36-4.49,23.76,3.45,8.19,11,12.94,19.87,13.37Z" fill="#ffe1e1"/>
          </g>
          <g style="mix-blend-mode: lighten">
            <path d="M610.82,378.57c13.33,7,27.89,12.12,43,12.81,14.95.68,30.14-1.18,44.74-4.31S727.34,377.9,741.1,372c6.2-2.66,13-5.1,18.59-8.83,8.41-5.56,18.67-11.87,20.87-22.48,1.57-7.56-.84-18.37-8.88-21.83-4.9-2.11-9.37-3.5-14.74-2.9a61,61,0,0,0-13.7,3.46c-7.58,2.6-14.52,6.4-21.67,9.94-5.53,2.74-11.13,5.64-16.9,7.84,3-1.13,1.72-.72-.5.17q-2.16.87-4.35,1.69c-3.2,1.21-6.45,2.32-9.67,3.48-5.76,2.07-11.57,4-17.51,5.46q-4.86,1.23-9.79,2.15c-1.49.28-3,.49-4.47.75-3.27.58,4.89-.42-.89.09-11.53,1-25.18,2.79-35.62,1.38-7.09-1-14,1.09-16.92,8.3-2.55,6.33-.56,14.54,5.87,17.91Z" fill="#ffe1e1"/>
          </g>
          <g style="mix-blend-mode: lighten">
            <path d="M383.43,860.78A290.31,290.31,0,0,0,353.58,835c-9.79-7.45-19.75-14.24-31.05-19.16a307.35,307.35,0,0,0-38.44-14.17c-7.28-2.06-15.52-4-23.07-4.36a141,141,0,0,0-18.49.84c-11.83,1-21.56,8.22-23.21,20.48-1.6,11.93,5.64,22.18,16.92,25.93,5.37,1.78,10.58,4,15.92,5.82s11,2.81,16.5,4.07A254.39,254.39,0,0,1,302,864.64c5.28,2,10.46,4.12,15.8,6q4,1.36,7.86,2.86l3.88,1.52c4.14,1.63-3-1.34-.21-.11a278.2,278.2,0,0,1,30.95,15.94c8.2,4.94,19,2.45,24.67-4.92a19.15,19.15,0,0,0-1.49-25.12Z" fill="#ffe1e1"/>
          </g>
        </g>
      </g>
    </g>
  </g>
</svg>
