<svg xmlns="http://www.w3.org/2000/svg" xmlns:xlink="http://www.w3.org/1999/xlink" viewBox="0 0 1000 1000">
  <defs>
    <clipPath id="f7f6ea7a-3e7c-4443-8c71-4869e8e6811d">
      <path d="M709,337.05c0,129.3-123.94,281.1-209,281.1-81.82,0-209-151.8-209-281.1s93.57-234.11,209-234.11S709,207.75,709,337.05Z" fill="#ea2727"/>
    </clipPath>
  </defs>
  <g style="isolation: isolate">
    <g id="f2d090d0-ba30-459a-a842-c43901cee42e" data-name="Layer 3">
      <g>
        <path d="M504.87,605.08a200.64,200.64,0,0,1-10.25,66c-3.54,10.7-8.6,20.64-13,31-3.71,8.8-6.21,18.1-4.44,27.67,2.79,15,15,25.78,24.35,37,5.05,6,9.72,12.75,11.37,20.59,2.34,11.14-1.82,22.46-6.63,32.36-9.21,19-24.51,40.89-14.32,62.64.63,1.36,2.61.37,2.31-1-5-22.67,11.07-41.75,20-61.16,7.64-16.63,9.84-33.93-.42-49.9-8.19-12.76-21.53-22.44-27.4-36.67-3.82-9.26-1.89-18.82,1.63-27.85,3.85-9.89,8.66-19.29,12.06-29.38a180.73,180.73,0,0,0,8.67-71.27c-.18-2.5-4-2.57-3.94,0Z" fill="#261717"/>
        <g>
          <path d="M709,337.05c0,129.3-123.94,281.1-209,281.1-81.82,0-209-151.8-209-281.1s93.57-234.11,209-234.11S709,207.75,709,337.05Z" fill="#ea2727"/>
          <g clip-path="url(#f7f6ea7a-3e7c-4443-8c71-4869e8e6811d)">
            <path d="M354.57,137.61s123.66-42.67,237.74,59.22,28.74,509.43-242.09,384L452.1,673.17l214.23-18.29,95.79-257.76L734.25,171.57,499.13,30.5Z" fill="#c10505" opacity="0.46" style="mix-blend-mode: multiply"/>
            <ellipse cx="394.2" cy="246.93" rx="39.16" ry="29.81" transform="matrix(0.37, -0.93, 0.93, 0.37, 19.42, 522.44)" fill="#fff" opacity="0.45"/>
            <ellipse cx="377.83" cy="322.92" rx="21.1" ry="16.06" transform="translate(28.67 676.63) rotate(-85.89)" fill="#fff" opacity="0.45"/>
          </g>
        </g>
        <path d="M496.52,612.21l-20.9,31.35a9.32,9.32,0,0,0,10.45,7c8.7-.87,20,.87,26.12,3.48s16.55-7,19.16-8.71-18.29-30.47-20-36.57S496.52,612.21,496.52,612.21Z" fill="#ea2727"/>
        <path d="M488.77,620.9a50.54,50.54,0,0,0,16.93,3.43c4.93.06,10.55.41,13.62-3.89a3.25,3.25,0,0,0-1.16-4.42c-4-2.42-8.91-.17-13.37.13a81.14,81.14,0,0,1-15.35-.22c-3-.39-3.19,4.08-.67,5Z" fill="#261717"/>
      </g>
    </g>
  </g>
</svg>
