<svg xmlns="http://www.w3.org/2000/svg" xmlns:xlink="http://www.w3.org/1999/xlink" viewBox="0 0 1000 1000">
  <defs>
    <clipPath id="a4a85d04-1f71-463b-8f29-bdbb78a3381a">
      <path d="M596.33,225.06,814.8,172a13.1,13.1,0,0,1,15.88,15.57L781.25,410,703.64,441.7,595,376.24l-36.45-56.69Z" fill="#ffae2c"/>
    </clipPath>
    <clipPath id="e020ed45-8707-45d7-a47e-edddca123153">
      <circle cx="835.24" cy="167.02" r="89.72" fill="#ea2727"/>
    </clipPath>
    <clipPath id="baf0cecd-2579-4c5f-ad1a-c49cd892283f">
      <path d="M781.25,410,311.43,879.8a26.61,26.61,0,0,1-20.93,7.71l-55.64-4.43a22.79,22.79,0,0,1-14.32-6.61L138.87,794.8a22.15,22.15,0,0,1-6.11-11.58l-13-69.1A20.36,20.36,0,0,1,125.42,696L596.33,225.06,622.51,296A19.47,19.47,0,0,0,627,303l85.58,85.59a20.41,20.41,0,0,0,9.1,5.27Z" fill="#ea2727"/>
    </clipPath>
  </defs>
  <g id="a15ecb6c-b233-4eca-bb0f-5723a76be491" data-name="Layer 3">
    <g>
      <g>
        <path d="M596.33,225.06,814.8,172a13.1,13.1,0,0,1,15.88,15.57L781.25,410,703.64,441.7,595,376.24l-36.45-56.69Z" fill="#ffae2c"/>
        <g clip-path="url(#a4a85d04-1f71-463b-8f29-bdbb78a3381a)">
          <polygon points="836.75 152.02 647.67 404.35 768.03 461.26 815.75 423.08 868.24 172.06 836.75 152.02" fill="#ef8e0c"/>
          <g>
            <circle cx="835.24" cy="167.02" r="89.72" fill="#ea2727"/>
            <g clip-path="url(#e020ed45-8707-45d7-a47e-edddca123153)">
              <polygon points="836.75 152.02 647.67 404.35 768.03 461.26 815.75 423.08 868.24 172.06 836.75 152.02" fill="#db1616"/>
            </g>
          </g>
        </g>
      </g>
      <g>
        <path d="M781.25,410,311.43,879.8a26.61,26.61,0,0,1-20.93,7.71l-55.64-4.43a22.79,22.79,0,0,1-14.32-6.61L138.87,794.8a22.15,22.15,0,0,1-6.11-11.58l-13-69.1A20.36,20.36,0,0,1,125.42,696L596.33,225.06,622.51,296A19.47,19.47,0,0,0,627,303l85.58,85.59a20.41,20.41,0,0,0,9.1,5.27Z" fill="#ea2727"/>
        <g clip-path="url(#baf0cecd-2579-4c5f-ad1a-c49cd892283f)">
          <polygon points="717.44 359.13 181.99 901.26 335.66 918.44 831.02 407.81 717.44 359.13" fill="#db1616"/>
          <rect x="77.42" y="524.46" width="692.93" height="130.76" transform="translate(-292.93 472.5) rotate(-45)" fill="#f23636"/>
        </g>
      </g>
    </g>
  </g>
</svg>
