<svg xmlns="http://www.w3.org/2000/svg" xmlns:xlink="http://www.w3.org/1999/xlink" viewBox="0 0 1000 1000">
  <defs>
    <clipPath id="a12c9ff2-9913-4685-a1d8-fd8572459fc9">
      <path d="M689.75,174.22C535.89,134.4,479.69,313,477.09,321.62c-2.61-8.58-58.8-187.22-212.67-147.4C106.78,215,85.93,377.71,111.19,446.51c74.94,204.2,316.19,374.76,365.9,374.76,48.41.06,291-170.56,365.9-374.76C868.24,377.71,847.4,215,689.75,174.22Z" fill="#f23636"/>
    </clipPath>
  </defs>
  <g style="isolation: isolate">
    <g id="e9166106-30e3-4ccf-b5d9-304481bebf84" data-name="Layer 3">
      <g>
        <path d="M689.75,174.22C535.89,134.4,479.69,313,477.09,321.62c-2.61-8.58-58.8-187.22-212.67-147.4C106.78,215,85.93,377.71,111.19,446.51c74.94,204.2,316.19,374.76,365.9,374.76,48.41.06,291-170.56,365.9-374.76C868.24,377.71,847.4,215,689.75,174.22Z" fill="#f23636"/>
        <g clip-path="url(#a12c9ff2-9913-4685-a1d8-fd8572459fc9)">
          <path d="M499,223l-19,39s114.74-124.12,208-8C843,447,536,854,388,897L697,791,901,443,852,164,671,113,532,141Z" fill="#c10505" opacity="0.46" style="mix-blend-mode: multiply"/>
          <ellipse cx="240.95" cy="303.92" rx="39.36" ry="29.96" transform="translate(-146.86 299.13) rotate(-50.88)" fill="#fff" opacity="0.45"/>
          <ellipse cx="202.3" cy="371.8" rx="21.21" ry="16.14" transform="translate(-217.87 422.96) rotate(-68.39)" fill="#fff" opacity="0.45"/>
        </g>
      </g>
    </g>
  </g>
</svg>
