<svg xmlns="http://www.w3.org/2000/svg" xmlns:xlink="http://www.w3.org/1999/xlink" viewBox="0 0 1000 1000">
  <defs>
    <clipPath id="fa1bd765-8226-40d1-87d1-dea551d9afde">
      <path d="M676.5,488.5C559,488.5,500,312,500,312S441,488.5,323.5,488.5,160,400,160,400l52.62,286.07a20.89,20.89,0,0,0,15.19,16.42C268.31,713.22,396.93,745,500,745c103.37,0,232.46-32,272.55-42.6a20.33,20.33,0,0,0,14.76-16L840,400S794,488.5,676.5,488.5Z" fill="#ffd522"/>
    </clipPath>
    <clipPath id="bd63f0e7-64e7-4cd3-adb1-d4208faeee38">
      <circle cx="500" cy="294" r="39" fill="#ffd522"/>
    </clipPath>
    <clipPath id="aaf7b5ce-02ae-465f-8d29-0f96ebfe0d74">
      <circle cx="840" cy="381" r="39" fill="#ffd522"/>
    </clipPath>
    <clipPath id="f608057c-5c28-4104-9c4f-df02b8ae50f5">
      <circle cx="160" cy="381" r="39" fill="#ffd522"/>
    </clipPath>
  </defs>
  <g id="e4ebd4c9-ce5b-4e9b-a6a5-4d474dfb13dd" data-name="Layer 3">
    <g id="a926a676-b60b-4e15-8242-84f0f6ae078e" data-name="Layer 4">
      <g>
        <path d="M311,380.5S276.51,505,186.5,505h249C345.49,505,311,380.5,311,380.5Z" fill="#ffba1f"/>
        <path d="M664,380.5S629.51,505,539.5,505h249C698.49,505,664,380.5,664,380.5Z" fill="#ffba1f"/>
        <g>
          <path d="M676.5,488.5C559,488.5,500,312,500,312S441,488.5,323.5,488.5,160,400,160,400l52.62,286.07a20.89,20.89,0,0,0,15.19,16.42C268.31,713.22,396.93,745,500,745c103.37,0,232.46-32,272.55-42.6a20.33,20.33,0,0,0,14.76-16L840,400S794,488.5,676.5,488.5Z" fill="#ffd522"/>
          <g clip-path="url(#fa1bd765-8226-40d1-87d1-dea551d9afde)">
            <path d="M840,400S798.21,519.1,636,615c-159,94-324,80-460,67l54,71,539-8,55-56,55-319Z" fill="#ffba1f" opacity="0.6"/>
            <path d="M237.9,651.82c.07-4.66-1.11-9-2-13.52-1.12-5.73-2.31-11.39-3.92-17q-4.54-15.84-8.78-31.76c-5.56-20.93-11.17-41.82-16.26-62.87-2.44-10.1-6.31-21.12-5.71-31.6l.29-2.71c.69-1.53,1.25-1.69,1.69-.46.9.55,1.16,2.27,1.43,3.21.71,2.4,1,5,1.53,7.46q1.65,8.28,3.27,16.56c4.32,22.1,8.52,44.22,12.3,66.42,2,12.08,3.82,24.23,6.1,36.26,2.35,12.43,3.67,25.85,8.06,37.74,1,2.75,5.17,2.44,5.25-.71.29-12.34-2.8-25.18-4.76-37.33-2-12.73-4.7-25.37-7.2-38-4.88-24.66-9.68-49.34-14.75-74-1.18-5.72-1.86-12-3.82-17.48-1.18-3.3-3.51-7-7.08-8.08C193,480.92,193,498.4,193.6,504.39c1.26,11.79,4.39,23.53,7,35.07,2.72,12,5.84,23.87,9,35.72,3.71,13.74,7.9,27.31,12.35,40.83a185.72,185.72,0,0,0,7,19c2.6,5.72,4.92,11.9,8.81,16.84a.06.06,0,0,0,.09,0Z" fill="#ffe1a6"/>
            <path d="M198.37,493.93c2.84,17.46,6.24,34.8,9.59,52.16,3.32,17.16,5.76,35.14,12,51.5,1.28,3.36,6.91,3.23,6.72-.91-.8-17.54-5.67-35-9.5-52.1-3.92-17.53-7.78-35.06-12.22-52.47-1.11-4.35-7.29-2.43-6.6,1.82Z" fill="#ffe1a6"/>
            <path d="M374.18,495.13A211.81,211.81,0,0,0,413.3,476.3c12.47-7.64,23.29-17.5,33.78-27.59S466.34,426.5,474,414.18c7.83-12.59,13.73-25.89,16.5-40.44.42-2.22-2.91-4.06-3.94-1.66-5.42,12.63-10.92,25.41-17.59,37.44-7,12.69-15.71,23.88-25.19,34.83-18.44,21.32-44,38.19-70.41,47.8-1.86.67-1.07,3.65.82,3Z" fill="#ffe1a6"/>
            <path d="M716,497.14c21.66-6.57,43.37-13,63.66-23.18,17-8.54,36.18-20.68,46.44-37.14.8-1.29-1-2.58-2.07-1.59-7.23,6.78-13.93,14-21.83,20A180.58,180.58,0,0,1,777,471.08c-19.49,10.37-40.47,17.88-61.26,25.15-.57.2-.34,1.09.25.91Z" fill="#ffe1a6"/>
          </g>
        </g>
        <g>
          <circle cx="500" cy="294" r="39" fill="#ffd522"/>
          <g clip-path="url(#bd63f0e7-64e7-4cd3-adb1-d4208faeee38)">
            <path d="M485,250s23,13,32,38-29,45-56,49l63-1,21-24,6-36-22-28Z" fill="#ffba1f" opacity="0.6"/>
            <path d="M477.68,288.75a9.45,9.45,0,0,1,1.09-4c1.06-1.9,1.08-2,.38-.36s-2.13,4.84-3.75,5.6l2.33-.31c1.12.2.44.14.8-.78.29-.74.38-1.53.75-2.27a6.2,6.2,0,0,1,3.14-3l-2.61.34c-.95-.19-.36-.51-.59.47a14.45,14.45,0,0,0,0,2.45,12.67,12.67,0,0,1-.84,4.21c-.27.75-.58,2.36-.49.75a12.8,12.8,0,0,1,.86-3.85c.2-.53,2.55-3.94,2.45-4.34l-2.12-.57.39.68c0,.42.36,1,.43,1.47a6.22,6.22,0,0,1-1.79,5.3c-.26.24-2.07,1.14-1.61,1.26s.23-.38.37-1.09a10.49,10.49,0,0,1,.59-2,10.64,10.64,0,0,1,2.57-3.68c.8-.74,1.5-.65.13-1.27s-.75,0-.79,1.08a6.34,6.34,0,0,1-1.05,3.21c-.95,1.46-2.58,1.46-.33,2.31,2.55,1,.92.49,1.44-.74.23-.55.37-1.12.62-1.66a23.76,23.76,0,0,1,2.75-4.25c2.51-3.26-2.4-8-5.65-5.65-4,2.81-7,6.66-7.19,11.73-.16,4.81,3,10.25,8.49,9.18,8.11-1.59,12.92-14.92,7.23-21.14-3.45-3.78-8.48-1.7-11.65,1.2a18.55,18.55,0,0,0-6,12.41c-.18,4.7,3,8.71,7.83,8.82A11.82,11.82,0,0,0,486,294.33a14.72,14.72,0,0,0,1.72-11.09c-.87-3.52-3.54-7.76-7.66-7.4-4.58.41-7.44,6.32-8.86,10.07s-1.88,8.23.82,11.5c2.88,3.49,7.69,2.93,10.69-.14s3.52-7.76,3.37-11.88c-.12-3.45-1.15-8.66-5.81-8-4,.54-6.9,5.36-7.71,8.94-.72,3.24-.41,9.59,4.37,9.31,4.14-.23,6.89-7.07,7.81-10.43,1-3.57-.51-8.46-5.13-7.48s-6.46,6.95-6.51,11.05c0,3,4.4,2.92,4.59,0Z" fill="#ffe3ab"/>
          </g>
        </g>
        <g>
          <circle cx="840" cy="381" r="39" fill="#ffd522"/>
          <g clip-path="url(#aaf7b5ce-02ae-465f-8d29-0f96ebfe0d74)">
            <path d="M840,333s18,20,20,48-37,44-66,42l80,5,18-41-6-48Z" fill="#ffba1f" opacity="0.6"/>
            <path d="M820.32,373.92c.75-3.19,2.4-4.48,4.95-6.4l-4.79-1.25c.59,1.1,1.1,1.68.95,2.82-.2,1.58-2,3.68-3,4.89-.68.84-2.93,2.51-3.15,3.51-.68.44-.49.63.57.56,1,.51,1.31.22.83-.87.21-.66.12-1.46.33-2.16a10.58,10.58,0,0,1,2.62-4.19,20.32,20.32,0,0,1,1.79-1.68c.57-.45,1.16-.88,1.76-1.29.61-.19.7-.55.29-1.1-.2-.9-.26-1-.2-.25a7.23,7.23,0,0,1,0,1,12.75,12.75,0,0,1-.34,2.31,16.39,16.39,0,0,1-1.87,4.73c-.4.68-1.94,3.28-2.93,3.2-.71-.07,0-2,.38-2.75a15.8,15.8,0,0,1,3.22-4.39,18.88,18.88,0,0,1,1.85-1.61c.27-.2,2.64-1.65.69-1.07-1.33.4-1.13.71-2,2.06a17.44,17.44,0,0,1-1.44,2,14.8,14.8,0,0,0-1.65,1.72l-.74.68,3.66,2.23c.22-.12.53-1.55.7-1.85a7.34,7.34,0,0,1,1.66-1.94,10.53,10.53,0,0,1,4.12-2.09l-4.62-6a22.23,22.23,0,0,1-2.68,4.69,13.87,13.87,0,0,1-1.44,1.53,6,6,0,0,1-1.21,1q-1.18.69.9.06l2.9,2.22c-.07-.11.55-2.35,1-2.24l-2.71-6.65a13.15,13.15,0,0,1-4.47,5l7.54,5.8c.39-1.84.74-2.93,2.4-4,4.33-2.81,1.67-10.1-3.62-8.57a12.27,12.27,0,0,0-8.87,11.2c-.33,4.81,5.67,6.28,8.77,3.63a22.93,22.93,0,0,0,6.53-9.58c1.16-3-1.74-5.48-4.37-5.74a10.31,10.31,0,0,0-9.95,5.1c-1.94,3.32-2.93,8.94.12,11.92,7,6.85,15.48-6.52,16.62-12.22a4.13,4.13,0,0,0-5-5c-5.9,1.6-12.56,6.74-13.58,13.15a6.5,6.5,0,0,0,4.93,7.56c4,.86,7.17-2.27,9.42-5.18,3.61-4.69,8.38-14.6.62-18-6.12-2.72-13.53,6-16.29,10.6-3.45,5.7-2.4,15.3,5.89,15.58,7.05.25,12-8,12.93-14,.87-5.58-.43-15.14-8.39-12-6,2.31-12.47,8.59-13.27,15.12-.4,3.26.41,7.72,3.51,9.55,3.51,2.07,7.21-.07,9.61-2.74a31,31,0,0,0,6.38-10.2c1.32-3.75.29-6.18-1.65-9.44A3.57,3.57,0,0,0,821,362c-3.9,3.25-6,5.91-6.41,11.12-.23,3.28,5,3.95,5.71.78Z" fill="#ffe3ab"/>
          </g>
        </g>
        <g>
          <circle cx="160" cy="381" r="39" fill="#ffd522"/>
          <g clip-path="url(#f608057c-5c28-4104-9c4f-df02b8ae50f5)">
            <path d="M143,339s24,8,38,34-18,52-60,40c0,0,32.35,18.39,57.67,12.7S213,395,212,384s-22-47-22-47Z" fill="#ffba1f" opacity="0.6"/>
            <path d="M141.31,374.7a33.08,33.08,0,0,1,7-16.14H145c2.33,2.72,1.18,6.61-.53,9.32a10.84,10.84,0,0,1-3.13,3.3c-1.56,1-2.16.42-3.71.54q-2.15-1.34-.25,2.31l.34-.58c.64-1.05.46-2.3.65-3.45.28-1.66,2.77-7.7,5-7.47l-2.26-.93c1.24,1.32.76,4.87.45,6.55a12.27,12.27,0,0,1-1.37,4l-.6,1c-1,.92-1.23,1-.58.33.13-1.62,2.25-4.51,3.23-5.84.4-.55,3.25-4.43,4-4.37L143,361.39c0-.83-.06-.85,0-.06,0,.58,0,1.16,0,1.74a16.36,16.36,0,0,1-.32,2.42,15.88,15.88,0,0,1-2.36,5.9c-.44.64-1.27,1.84-2,2.11.94-.35.74-1.13,1.27-2.22.45-.92,3.55-5,4.91-4.95l-3.18-1.82c.41.72-1.59,3.49-1.66,4.23l-.58,1.15c1,.06,1.54-.43,1.55-1.49,1.66-2.45,3-4.57,6-5.76l-5.05-3.85c.12,5-1.56,8.14-3.89,12.36l-.9.87.69.73a24.56,24.56,0,0,0,1.12-2.19,14.26,14.26,0,0,0,2.74-4.95,2.94,2.94,0,0,0-4.27-3.28c-3.65,2.15-7.13,5.42-7.55,9.89-.38,4.09,2.14,7.82,6.37,8.3,10.38,1.17,14.17-14.11,13.66-21.73-.15-2.29-2.47-4.9-5-3.84-7,2.86-17.21,13.25-10.76,21.23,7.39,9.14,17.22-6.27,14.93-13.65-1.63-5.23-6.74-3.63-9.9-1.08-3.81,3.07-7.21,7-7.47,12.12-.2,4,1.8,8.13,6.13,8.53,4.75.43,9-4.18,11-8,2.36-4.47,4.53-23.82-5.6-17.36-5.54,3.52-15.45,16.33-9.41,22.63,2.87,3,7.78,2.61,10.73,0,3.5-3.08,4.74-8.51,4.61-13-.11-3.67-.84-9.58-5.3-10.25s-7.89,4.8-9.83,8.13c-1.28,2.21-1.24,4.05-1.79,6.45-.36,1.6-1.15,2.54-.26,4.25,1.77,3.41,7.46,4,10.67,2.88,8.68-3.06,12-15.74,6.12-22.55a2.31,2.31,0,0,0-3.25,0,32.27,32.27,0,0,0-7.49,18.88c-.14,2.13,3.45,2.67,3.77.51Z" fill="#ffe3ab"/>
          </g>
        </g>
        <circle cx="311" cy="370" r="28" fill="#ffba1f"/>
        <circle cx="664" cy="370" r="28" fill="#ffba1f"/>
      </g>
    </g>
  </g>
</svg>
