<svg xmlns="http://www.w3.org/2000/svg" xmlns:xlink="http://www.w3.org/1999/xlink" viewBox="0 0 1000 1000">
  <defs>
    <clipPath id="e2c341c9-6e8c-4e92-afe5-b327bd963c43">
      <path d="M253.32,683.48c3-54.14,23.14-80.63,48.71-140.65s42.09-182,123.4-203.3,172-3,197.81,77.69S709.68,560.88,728,616.2,766.8,865,534.56,894.87,248.57,769.47,253.32,683.48Z" fill="#ffd522"/>
    </clipPath>
    <clipPath id="f62a995c-933d-4b8b-813d-3b0bf75dcac4">
      <path d="M496.87,358.31S493.48,218,446.1,211.93c0,0-20.81,2.35-29.7,19.37,0,0,45.5,11.27,69.08,131.64a7,7,0,0,0,6.85.27C496.44,361.44,496.87,358.31,496.87,358.31Z" fill="#9e660d"/>
    </clipPath>
    <clipPath id="e0882a27-524e-4b91-b10d-31f40c249d0f">
      <path d="M747,169s-90.57-60-166.9-67.26S445.89,201.82,484.64,254.36c23.58,32,98.66,44.05,132.59-15.62S673.36,173.51,747,169Z" fill="#428e06"/>
    </clipPath>
  </defs>
  <g id="eeca2717-ac85-413d-a2a1-8f975b76b6b7" data-name="Layer 3">
    <g id="eb69b059-0dbf-4207-8637-69f2c639fa98" data-name="Layer 4">
      <g>
        <g>
          <path d="M253.32,683.48c3-54.14,23.14-80.63,48.71-140.65s42.09-182,123.4-203.3,172-3,197.81,77.69S709.68,560.88,728,616.2,766.8,865,534.56,894.87,248.57,769.47,253.32,683.48Z" fill="#ffd522"/>
          <g clip-path="url(#e2c341c9-6e8c-4e92-afe5-b327bd963c43)">
            <ellipse cx="492.33" cy="363.21" rx="15" ry="53" transform="matrix(0.06, -1, 1, 0.06, 102.55, 834.79)" fill="#ea9f1c"/>
            <path d="M485.55,322.78s79.6,9.4,95.83,96.42,79,255.75,29.69,333.15c-33,51.83-126.35,166.29-389.28,12.57,0,0,80.49,156.67,156,167.85s382-80.08,382-80.08l18.4-206.3L669.08,409l-98.27-88.55Z" fill="#ffba1f" opacity="0.6"/>
          </g>
        </g>
        <g>
          <path d="M496.87,358.31S493.48,218,446.1,211.93c0,0-20.81,2.35-29.7,19.37,0,0,45.5,11.27,69.08,131.64a7,7,0,0,0,6.85.27C496.44,361.44,496.87,358.31,496.87,358.31Z" fill="#9e660d"/>
          <g clip-path="url(#f62a995c-933d-4b8b-813d-3b0bf75dcac4)">
            <path d="M406.67,209.51s36.18,2,57.53,48.53,31.05,109.75,31.05,109.75l-12.07-2.08L436.66,264,405.27,235Z" fill="#8e5606"/>
          </g>
        </g>
        <g>
          <g>
            <path d="M747,169s-90.57-60-166.9-67.26S445.89,201.82,484.64,254.36c23.58,32,98.66,44.05,132.59-15.62S673.36,173.51,747,169Z" fill="#428e06"/>
            <g clip-path="url(#e0882a27-524e-4b91-b10d-31f40c249d0f)">
              <path d="M773.83,180.59s-159.66-65.72-220.62-22.07c-54.46,39-46.09,96.16-77.4,98.88-53.38,4.64-39.43-76.07-39.43-76.07l5.11-15.78L561.31,86.39,684.32,99Z" fill="#35a31a"/>
            </g>
          </g>
          <path d="M668.48,150.06c-16.32-6.12-34-8.17-51.27-9-16.39-.8-32.92.56-48.07,7.29-29.08,12.92-47.62,40.77-62.9,67.41-4.57,8-8.8,16.26-13.95,23.86-3.9,5.76-9.35,12.07-16.91,11.43-7-.59-8.76,11.46-1.68,12.44,14.82,2,24.77-8.48,31.83-20.3,8.74-14.64,16.24-30,25.45-44.38,8.27-12.93,18.07-24.85,30.2-34.37,13.35-10.48,29.1-15.7,45.93-16.93,20.53-1.51,40.49,1.77,60.65,5.19a1.36,1.36,0,0,0,.72-2.62Z" fill="#327c01"/>
        </g>
        <g opacity="0.45">
          <path d="M524.58,538.19a4.5,4.5,0,1,0-4.5-4.5,4.55,4.55,0,0,0,4.5,4.5Z" fill="#f78f1e"/>
        </g>
        <g opacity="0.45">
          <path d="M561.39,733.94a4.5,4.5,0,1,0-4.5-4.5,4.55,4.55,0,0,0,4.5,4.5Z" fill="#f78f1e"/>
        </g>
        <g opacity="0.45">
          <path d="M432.48,795a4.5,4.5,0,1,0-4.5-4.5,4.55,4.55,0,0,0,4.5,4.5Z" fill="#f78f1e"/>
        </g>
        <g opacity="0.45">
          <path d="M589.88,610a4.5,4.5,0,1,0-4.5-4.5,4.55,4.55,0,0,0,4.5,4.5Z" fill="#f78f1e"/>
        </g>
        <g opacity="0.45">
          <path d="M400,462.05a4.5,4.5,0,1,0-4.5-4.5,4.55,4.55,0,0,0,4.5,4.5Z" fill="#f78f1e"/>
        </g>
        <g opacity="0.45">
          <path d="M532,796.17a4.5,4.5,0,1,0-4.5-4.5,4.56,4.56,0,0,0,4.5,4.5Z" fill="#f78f1e"/>
        </g>
        <g opacity="0.45">
          <path d="M331.43,806.92c4.71,0,9.22-4.14,9-9a9.16,9.16,0,0,0-9-9c-4.71,0-9.22,4.14-9,9a9.16,9.16,0,0,0,9,9Z" fill="#f78f1e"/>
        </g>
        <g opacity="0.45">
          <path d="M477.6,746.8c4.71,0,9.22-4.14,9-9a9.15,9.15,0,0,0-9-9c-4.71,0-9.22,4.14-9,9a9.15,9.15,0,0,0,9,9Z" fill="#f78f1e"/>
        </g>
        <g opacity="0.45">
          <path d="M601.4,660.56c4.71,0,9.22-4.14,9-9a9.15,9.15,0,0,0-9-9c-4.7,0-9.21,4.14-9,9a9.16,9.16,0,0,0,9,9Z" fill="#f78f1e"/>
        </g>
        <g opacity="0.45">
          <path d="M551.67,542c4.71,0,9.22-4.14,9-9a9.16,9.16,0,0,0-9-9c-4.71,0-9.22,4.14-9,9a9.16,9.16,0,0,0,9,9Z" fill="#f78f1e"/>
        </g>
        <g opacity="0.45">
          <path d="M559.18,425.55c4.71,0,9.22-4.14,9-9a9.16,9.16,0,0,0-9-9c-4.71,0-9.22,4.14-9,9a9.15,9.15,0,0,0,9,9Z" fill="#f78f1e"/>
        </g>
        <g opacity="0.45">
          <path d="M425.05,463.6c4.7,0,9.21-4.14,9-9a9.17,9.17,0,0,0-9-9c-4.71,0-9.22,4.14-9,9a9.15,9.15,0,0,0,9,9Z" fill="#f78f1e"/>
        </g>
      </g>
    </g>
  </g>
</svg>
