<svg xmlns="http://www.w3.org/2000/svg" xmlns:xlink="http://www.w3.org/1999/xlink" viewBox="0 0 1000 1000">
  <defs>
    <clipPath id="a0126bfb-f46c-42ba-a095-df5dea8c817f">
      <path d="M892.77,365s-37.43,57.49-12,121.66L478.33,762,134.75,574.87S84,493.32,124.06,461.23L712.29,343.58Z" fill="#ffe3ab"/>
    </clipPath>
    <clipPath id="be2efc0b-2fb9-4ba5-925c-ebaf5bae47fe">
      <path d="M461,620.32s-25.41,53.48,18.71,136.36,38.77,18.72,38.77,18.72L916.84,484,861.48,358Z" fill="#ffe3ab"/>
    </clipPath>
    <clipPath id="ab93a76f-b840-4df8-bd2e-43cb22fe3869">
      <path d="M546.52,225.61l354.27,134L454.27,640.37,104,461.23,541.32,226A6.27,6.27,0,0,1,546.52,225.61Z" fill="#ffd522"/>
    </clipPath>
  </defs>
  <g id="bf50e2df-dfe3-4a96-a4a2-087beadd3db3" data-name="Layer 3">
    <g id="b7793cc8-fa52-4339-8527-68814d63ed95" data-name="Layer 4">
      <g>
        <g>
          <path d="M538.5,318.18l360.1,166.1a1.38,1.38,0,0,1,.21,2.38L481.61,774.07a3.8,3.8,0,0,1-4,.2L134.75,586.9Z" fill="#f4a70f"/>
          <path d="M116,458.56l-12,2.67S81.28,530.75,134.75,586.9h36.1L137.43,458.56Z" fill="#f78f1e"/>
          <g>
            <path d="M892.77,365s-37.43,57.49-12,121.66L478.33,762,134.75,574.87S84,493.32,124.06,461.23L712.29,343.58Z" fill="#ffe3ab"/>
            <g clip-path="url(#a0126bfb-f46c-42ba-a095-df5dea8c817f)">
              <polygon points="436.89 546.79 170.85 625.67 502.4 804.81 550.53 596.26 436.89 546.79" fill="#f7d39a"/>
              <g>
                <path d="M461,620.32s-25.41,53.48,18.71,136.36,38.77,18.72,38.77,18.72L916.84,484,861.48,358Z" fill="#ffe3ab"/>
                <g clip-path="url(#be2efc0b-2fb9-4ba5-925c-ebaf5bae47fe)">
                  <polygon points="771 368 687 668 937 467 901 344 771 368" fill="#f7d39a"/>
                </g>
              </g>
            </g>
          </g>
          <path d="M900.79,359.63A25.08,25.08,0,0,1,902,364a17.14,17.14,0,0,1-1.21,5L453.9,654.54,102.1,468.76l1.9-7.53Z" fill="#f2a814"/>
          <g>
            <path d="M546.52,225.61l354.27,134L454.27,640.37,104,461.23,541.32,226A6.27,6.27,0,0,1,546.52,225.61Z" fill="#ffd522"/>
            <g clip-path="url(#ab93a76f-b840-4df8-bd2e-43cb22fe3869)">
              <path d="M866,307.49S483.68,537.43,71.92,478.61L483.68,691.18,952.93,371.66Z" fill="#ffba1f" opacity="0.6"/>
            </g>
          </g>
          <polygon points="450.26 351.6 546.52 294.12 745.71 373 637.43 437.17 450.26 351.6" fill="#fff" opacity="0.49"/>
        </g>
        <path d="M474.84,672.18c18.3-12.95,36.43-26,54.41-39.46,17.5-13,35.24-26.11,52-40,.69-.58-.21-1.76-1-1.26-18.61,12.36-36.61,25.92-54.55,39.22-17.62,13.06-35,26.36-52.24,39.83-.95.75.31,2.41,1.31,1.7Z" fill="#efc689"/>
        <path d="M485.15,710.32a624.29,624.29,0,0,0,67.44-49.19c.23-.2-.1-.51-.33-.33-22,17-44.61,33-67.66,48.59-.57.38-.05,1.3.55.93Z" fill="#efc689"/>
        <path d="M625.06,617.91c33.75-20.43,67.51-40.81,98.76-65,15.63-12.1,31-24.69,47.73-35.27,14.9-9.41,30.88-16.87,46.5-25,16.79-8.69,33-18.81,46.76-31.85.42-.39-.2-1-.62-.62A191.68,191.68,0,0,1,820.37,489C805,496.53,789.56,503.71,775,512.67c-15.73,9.67-30.3,21-44.83,32.39-15.93,12.46-32.06,24.57-48.82,35.9-18.58,12.56-37.55,24.56-56.58,36.42-.34.21,0,.73.3.53Z" fill="#efc689"/>
        <path d="M777.12,484.75c4.07-2.94,8.18-5.85,12.19-8.88.64-.47.05-1.55-.64-1.09-4.16,2.81-8.23,5.74-12.33,8.64-.81.57,0,1.92.78,1.33Z" fill="#efc689"/>
        <path d="M820.89,448.53a365,365,0,0,1,43.87-36.43c.72-.52,0-1.74-.71-1.22a318.52,318.52,0,0,0-43.83,37,.47.47,0,0,0,.67.66Z" fill="#efc689"/>
        <path d="M594.09,609.81c11.83-9.26,24.21-17.82,36.56-26.37.49-.34.05-1.13-.47-.81a316.92,316.92,0,0,0-36.82,26.45c-.52.43.22,1.13.73.73Z" fill="#efc689"/>
        <path d="M669.86,554.38a.22.22,0,0,0,0-.43.22.22,0,0,0,0,.43Z" fill="#efc689"/>
        <path d="M656.28,568.93c17.57-11.53,35-23.25,52.65-34.69s36.13-21.82,53-34.21a.64.64,0,0,0-.64-1.1c-18.47,9.75-35.84,22.23-53.34,33.61s-35.25,22.92-52.56,34.85c-.94.64-.07,2.17.9,1.54Z" fill="#efc689"/>
        <path d="M700.82,595.84a737.27,737.27,0,0,0,88.53-59.75c.62-.49-.21-1.58-.85-1.11a1061.8,1061.8,0,0,1-88.37,59.69.68.68,0,0,0,.69,1.17Z" fill="#efc689"/>
        <path d="M577.25,681.61c5.55-3.51,11.1-7,16.58-10.62.55-.36,0-1.24-.52-.89-5.56,3.48-11,7.07-16.55,10.66-.53.34,0,1.19.49.85Z" fill="#efc689"/>
        <path d="M640.08,638.42a.17.17,0,0,0,0-.33.17.17,0,0,0,0,.33Z" fill="#efc689"/>
        <path d="M170.44,525.62c8.38,2.07,15.78,6.19,23.11,10.63,8,4.87,16.07,9.7,24.09,14.59,15.89,9.68,31.68,19.52,47.7,29,.62.37,1.17-.58.56-1-16.15-10.51-32.53-20.64-49-30.65-14.43-8.77-29.42-19.93-46.17-23.64-.68-.15-1,.87-.29,1Z" fill="#efc689"/>
        <path d="M155.88,567.75q30.45,16.35,61.1,32.32c20.37,10.59,40.78,21.79,61.85,30.94.46.2.86-.43.4-.69-20-11.3-41.06-21-61.56-31.43s-41.07-21-61.51-31.63c-.32-.16-.6.32-.28.49Z" fill="#efc689"/>
        <path d="M322.05,624.25c34.6,15.42,68.15,33.15,102.83,48.34.92.4,1.72-.86.8-1.37-33-18.54-68.52-32.93-103.36-47.62-.36-.15-.63.48-.27.65Z" fill="#efc689"/>
        <path d="M353.79,674.71c16.59,8.08,32.84,16.85,49.42,24.95s32.74,17.27,49.5,25c1.45.66,2.72-1.37,1.28-2.19-16-9-33.14-16.56-49.65-24.69s-33.68-15.39-50.53-23.06c0,0-.05,0,0,0Z" fill="#efc689"/>
        <path d="M276.51,610.26q27.54,14.73,55.7,28.27c18.24,8.76,36.53,17.64,55.42,24.87.74.29,1.27-.94.55-1.28C369.58,653.47,350.6,645.68,332,637s-36.93-17.88-55.1-27.42c-.48-.25-.9.47-.42.73Z" fill="#efc689"/>
        <path d="M267.56,573.9c24.55,10.66,48.19,23.43,72.83,33.83.64.28,1.21-.59.56-1-23-13.5-48.52-23.32-73.19-33.33-.27-.11-.47.35-.2.47Z" fill="#efc689"/>
      </g>
    </g>
  </g>
</svg>
