<svg xmlns="http://www.w3.org/2000/svg" xmlns:xlink="http://www.w3.org/1999/xlink" viewBox="0 0 1000 1000">
  <defs>
    <clipPath id="aad82326-f5b8-4ded-83e5-39bb24960aff">
      <path d="M539.15,283.93,498.33,108.37,459.89,283.24a221.35,221.35,0,0,1,79.26.69Z" fill="#ffd522"/>
    </clipPath>
    <clipPath id="e943b7ad-eb5b-4c0c-8a4a-8063c3e25dc2">
      <path d="M317.48,626.3,221.9,775.74l151.36-94.26A221.27,221.27,0,0,1,317.48,626.3Z" fill="#ffd522"/>
    </clipPath>
    <clipPath id="a0c0432f-598f-4630-a838-bbf08e494e35">
      <circle cx="497.63" cy="500" r="194" fill="#ffd522"/>
    </clipPath>
  </defs>
  <g id="ac75960e-7725-4834-8f1d-96ac811d0922" data-name="Layer 3">
    <g id="a327fc5e-0da7-44a3-9574-3c1fd83b8f53" data-name="Layer 4">
      <g>
        <g>
          <path d="M859.22,344.93,681.05,378.5a219,219,0,0,1,31.36,73.71Z" fill="#ffd522"/>
          <path d="M714.06,539.61l177.57-41.28L713.85,459.25a221.53,221.53,0,0,1,.21,80.36Z" fill="#ffd522"/>
          <path d="M863.93,642.09,713.75,541.23a218.45,218.45,0,0,1-29,74.41Z" fill="#ffd522"/>
          <path d="M679.58,376.31,775.74,221.9,623.28,319.41A221.17,221.17,0,0,1,679.58,376.31Z" fill="#ffd522"/>
          <g>
            <path d="M539.15,283.93,498.33,108.37,459.89,283.24a221.35,221.35,0,0,1,79.26.69Z" fill="#ffd522"/>
            <g clip-path="url(#aad82326-f5b8-4ded-83e5-39bb24960aff)">
              <polygon points="497.63 89 497.63 306 557.63 284 497.63 89" fill="#ffba1f" opacity="0.6"/>
            </g>
          </g>
          <path d="M374.25,317.83l-150-95.93,93.91,150.81A221.29,221.29,0,0,1,374.25,317.83Z" fill="#ffd522"/>
          <path d="M357,865.2l100-149a218.42,218.42,0,0,1-73.86-28.33Z" fill="#ffd522"/>
          <path d="M138.59,651.83,313.87,621a218.69,218.69,0,0,1-30.78-72.09Z" fill="#ffd522"/>
          <path d="M281.2,460.34l-172.83,38L281,538.46a222.26,222.26,0,0,1,.22-78.12Z" fill="#ffd522"/>
          <path d="M654.54,859.58,621.1,682.1a218.85,218.85,0,0,1-72.83,32Z" fill="#ffd522"/>
          <path d="M347.65,139l31,176a218.85,218.85,0,0,1,73-30.1Z" fill="#ffd522"/>
          <path d="M135.12,355.18,282,456.39a218.64,218.64,0,0,1,29.13-73.06Z" fill="#ffd522"/>
          <path d="M643.92,136.39l-102,148.06a218.73,218.73,0,0,1,73.6,29.75Z" fill="#ffd522"/>
          <path d="M624.24,679.93,778.1,775.74l-97.86-153A221.34,221.34,0,0,1,624.24,679.93Z" fill="#ffd522"/>
          <path d="M459.89,716.76l38.44,174.87,40.82-175.56a221.35,221.35,0,0,1-79.26.69Z" fill="#ffd522"/>
          <g>
            <path d="M317.48,626.3,221.9,775.74l151.36-94.26A221.27,221.27,0,0,1,317.48,626.3Z" fill="#ffd522"/>
            <g clip-path="url(#e943b7ad-eb5b-4c0c-8a4a-8063c3e25dc2)">
              <polygon points="199.63 801 347.63 646 392.63 682 249.63 794 199.63 801" fill="#ffba1f" opacity="0.6"/>
            </g>
          </g>
          <path d="M713.75,541.23c.11-.54.22-1.08.31-1.62l-2,.47Z" fill="#ffd522"/>
          <polygon points="574.81 388.4 523.43 368.27 472.46 368.19 425.17 388.42 385.64 428.08 368.19 472.64 368.28 528.06 388.2 574.61 427.27 613.54 473.44 631.81 526.24 631.72 575.41 610.88 610.77 575.64 631.73 522.65 631.81 474.28 610.65 424.36 574.81 388.4" fill="#ffd522"/>
        </g>
        <g>
          <circle cx="497.63" cy="500" r="194" fill="#ffd522"/>
          <g clip-path="url(#a0c0432f-598f-4630-a838-bbf08e494e35)">
            <path d="M391.48,314.94S472.63,303,570.63,376s35,357-239,249c0,0,53,104,166,92s193-89,204-177-30-199-145-243S391.48,314.94,391.48,314.94Z" fill="#ffba1f" opacity="0.6"/>
          </g>
        </g>
        <path d="M859.22,344.93,681.05,378.5a219,219,0,0,1,31.36,73.71Z" fill="#ffba1f" opacity="0.6"/>
        <path d="M714.06,539.61l177.57-41.28L713.85,459.25a221.53,221.53,0,0,1,.21,80.36Z" fill="#ffba1f" opacity="0.6"/>
        <path d="M863.93,642.09,713.75,541.23a218.45,218.45,0,0,1-29,74.41Z" fill="#ffba1f" opacity="0.6"/>
        <path d="M679.58,376.31,775.74,221.9,623.28,319.41A221.17,221.17,0,0,1,679.58,376.31Z" fill="#ffba1f" opacity="0.6"/>
        <path d="M357,865.2l100-149a218.42,218.42,0,0,1-73.86-28.33Z" fill="#ffba1f" opacity="0.6"/>
        <path d="M654.54,859.58,621.1,682.1a218.85,218.85,0,0,1-72.83,32Z" fill="#ffba1f" opacity="0.6"/>
        <path d="M643.92,136.39l-102,148.06a218.73,218.73,0,0,1,73.6,29.75Z" fill="#ffba1f" opacity="0.6"/>
        <path d="M624.24,679.93,778.1,775.74l-97.86-153A221.34,221.34,0,0,1,624.24,679.93Z" fill="#ffba1f" opacity="0.6"/>
        <path d="M459.89,716.76l38.44,174.87,40.82-175.56a221.35,221.35,0,0,1-79.26.69Z" fill="#ffba1f" opacity="0.6"/>
      </g>
    </g>
  </g>
</svg>
