<svg xmlns="http://www.w3.org/2000/svg" xmlns:xlink="http://www.w3.org/1999/xlink" viewBox="0 0 1000 1000">
  <defs>
    <clipPath id="b028180c-3c77-4ed2-b9e1-673d17d440f1">
      <path d="M834.64,480s33.23,46,54.44,54.45,60.81,39.6,35.36,67.88S687.56,839.19,687.56,839.19s-17-46.67-51.62-60.1-36.06-46-19.8-65.05S834.64,480,834.64,480Z" fill="#ea2727"/>
    </clipPath>
    <clipPath id="bf598a22-c9b9-43c6-8b99-f91b6e4ef231">
      <path d="M623.21,214.82s24,53.74,77.78,91.92,152.74,99,173.24,126.57,14.15,60.82-.7,77.08S652.2,731.71,652.2,731.71s7.78-10.6,0-39.59-83.44-56.57-136.47-96.88S403.3,482.81,390.57,447.46Z" fill="#f23636"/>
    </clipPath>
    <clipPath id="ba90c8a6-329d-4366-8302-c47dcfa05127">
      <rect x="340.37" y="63.36" width="41" height="829" rx="16.5" transform="translate(443.6 -115.21) rotate(45)" fill="#ffae2c"/>
    </clipPath>
  </defs>
  <g style="isolation: isolate">
    <g id="b69e4a50-7cbc-4dcd-9ffb-406b5fb07a53" data-name="Layer 3">
      <g>
        <g>
          <path d="M834.64,480s33.23,46,54.44,54.45,60.81,39.6,35.36,67.88S687.56,839.19,687.56,839.19s-17-46.67-51.62-60.1-36.06-46-19.8-65.05S834.64,480,834.64,480Z" fill="#ea2727"/>
          <g clip-path="url(#b028180c-3c77-4ed2-b9e1-673d17d440f1)">
            <polygon points="949.89 561.3 597.05 786.87 585.03 729.59 647.96 653.93 848.12 492 891.91 492 949.89 561.3" fill="#ce1515"/>
            <path d="M653.92,730s-9.46,11.46-29.29,12.32C608.36,743,602,736.66,610.48,714s41.72-41.72,41.72-41.72l11.32,33.94Z" fill="#bf0808"/>
          </g>
        </g>
        <g>
          <path d="M623.21,214.82s24,53.74,77.78,91.92,152.74,99,173.24,126.57,14.15,60.82-.7,77.08S652.2,731.71,652.2,731.71s7.78-10.6,0-39.59-83.44-56.57-136.47-96.88S403.3,482.81,390.57,447.46Z" fill="#f23636"/>
          <g clip-path="url(#bf598a22-c9b9-43c6-8b99-f91b6e4ef231)">
            <path d="M754.73,329.37s94,89.8,86.27,135.76S682.61,627.77,624.63,616.45,417.44,508.27,417.44,508.27l30.41,77.07L609,755.08l68.69,7.75,263-291.33L795,325.83Z" fill="#d81616" opacity="0.46" style="mix-blend-mode: multiply"/>
          </g>
        </g>
        <g>
          <rect x="340.37" y="63.36" width="41" height="829" rx="16.5" transform="translate(443.6 -115.21) rotate(45)" fill="#ffae2c"/>
          <g clip-path="url(#ba90c8a6-329d-4366-8302-c47dcfa05127)">
            <polygon points="675 195.43 22 799.43 147 812.43 675 195.43" fill="#e28307"/>
          </g>
        </g>
      </g>
    </g>
  </g>
</svg>
