<svg xmlns="http://www.w3.org/2000/svg" xmlns:xlink="http://www.w3.org/1999/xlink" viewBox="0 0 1000 1000">
  <defs>
    <clipPath id="aae9d284-7cd9-463e-8686-4b9639dc62e2">
      <path d="M816,730c-101.68-107-98.47-218.66-141.38-353C629,234.37,507,252.23,503.64,252c-3.64.24-125.4-17.62-171,125-42.91,134.34-39.7,246-141.39,353a20.62,20.62,0,0,0,9.25,34c46.7,13.32,144.61,34,303.07,34h.07c158.45,0,256.37-20.65,303.06-34A20.61,20.61,0,0,0,816,730Z" fill="#ea2727"/>
    </clipPath>
    <clipPath id="ef289afc-0a81-43c1-b808-73962a21982f">
      <path d="M518,246.39C514.5,232.5,557.5,167.5,603.5,147.5s115,27,124,77-123,67-201,53Z" fill="#ffae2c"/>
    </clipPath>
    <clipPath id="e5cb2038-22e5-43a3-b2fd-540bede7e66c">
      <path d="M511.74,246.39c3.47-13.89-39.53-78.89-85.53-98.89s-115,27-124,77,123,67,201,53Z" fill="#ffae2c"/>
    </clipPath>
    <clipPath id="a70f514d-9a8b-4e47-9a6e-3508419b8e00">
      <path d="M489,260c0-12,1.24-26.14,13.12-28.07S526,232,531,246s5,34-7,38S489,292,489,260Z" fill="#ffae2c"/>
    </clipPath>
  </defs>
  <g style="isolation: isolate">
    <g id="a6d5c06c-60e5-43c4-b79c-538b78e86e10" data-name="Layer 3">
      <g>
        <circle cx="504" cy="798" r="60" fill="#ffae2c"/>
        <g>
          <path d="M816,730c-101.68-107-98.47-218.66-141.38-353C629,234.37,507,252.23,503.64,252c-3.64.24-125.4-17.62-171,125-42.91,134.34-39.7,246-141.39,353a20.62,20.62,0,0,0,9.25,34c46.7,13.32,144.61,34,303.07,34h.07c158.45,0,256.37-20.65,303.06-34A20.61,20.61,0,0,0,816,730Z" fill="#ea2727"/>
          <g clip-path="url(#aae9d284-7cd9-463e-8686-4b9639dc62e2)">
            <path d="M364,287s134-16,200,81,65,228,26,293S422,790,233,811l331,33,297-70,2-107L648.7,224.44,386,251Z" fill="#c10505" opacity="0.46" style="mix-blend-mode: multiply"/>
            <path d="M225,563s293,122,536,0l39,96s-266,171-614-3Z" fill="#f75e5e" opacity="0.6"/>
          </g>
        </g>
        <g>
          <path d="M518,246.39C514.5,232.5,557.5,167.5,603.5,147.5s115,27,124,77-123,67-201,53Z" fill="#ffae2c"/>
          <g clip-path="url(#ef289afc-0a81-43c1-b808-73962a21982f)">
            <path d="M522,280s148-73,176-67,33,23,25,42-100.15,34.6-100.15,34.6Z" fill="#e28307"/>
          </g>
        </g>
        <g>
          <path d="M511.74,246.39c3.47-13.89-39.53-78.89-85.53-98.89s-115,27-124,77,123,67,201,53Z" fill="#ffae2c"/>
          <g clip-path="url(#e5cb2038-22e5-43a3-b2fd-540bede7e66c)">
            <path d="M512,278s-88-39-144-49-63,3-61,19,36,39,36,39l171,8Z" fill="#e28307"/>
          </g>
        </g>
        <path d="M528.14,249.43a186.41,186.41,0,0,1,25.1-25.85c1.69-1.44-.54-4.34-2.39-3.09a80,80,0,0,0-25.07,27.12c-.81,1.42,1.27,3.19,2.36,1.82Z" fill="#dd830b"/>
        <path d="M531.19,261.3c8.08-4.62,16.81-7,25.49-10.11a1.7,1.7,0,0,0-.45-3.32c-10-.38-19.25,4.13-27.07,9.95-2,1.52-.28,4.81,2,3.48Z" fill="#dd830b"/>
        <path d="M499.56,244.75c-6-9.54-13.66-17.58-24-22.29-2.17-1-5,1.82-2.79,3.6,7.89,6.41,15.34,13.56,20.69,22.24,2.38,3.85,8.48.3,6.08-3.55Z" fill="#dd830b"/>
        <path d="M498.56,258.19c-8.45-8.5-18.58-15.07-30.42-17.5-3-.62-5.44,3.92-2.24,5.31,10,4.37,19.67,9.61,27.69,17.16,3.29,3.1,8.17-1.75,5-5Z" fill="#dd830b"/>
        <g>
          <path d="M489,260c0-12,1.24-26.14,13.12-28.07S526,232,531,246s5,34-7,38S489,292,489,260Z" fill="#ffae2c"/>
          <g clip-path="url(#a70f514d-9a8b-4e47-9a6e-3508419b8e00)">
            <path d="M484,247l8-14s16.31-1.33,26.16,8.34,8.71,36-6.22,45.33h0L516,293l23-6-2-51-19-13-27,2Z" fill="#ea9315"/>
          </g>
        </g>
      </g>
    </g>
  </g>
</svg>
