<svg xmlns="http://www.w3.org/2000/svg" xmlns:xlink="http://www.w3.org/1999/xlink" viewBox="0 0 1000 1000">
  <defs>
    <clipPath id="b8eae8c7-13de-4fa2-bd3c-5c6c67ad04a7">
      <path d="M486.33,552.9S382,712,221,703,80,397,195,392s281,98,281,98Z" fill="#ea2727"/>
    </clipPath>
    <clipPath id="bde9b12d-496e-4c9c-8a18-cf9695a98c7d">
      <path d="M451.94,508.62S118.72,383.83,239.05,225.38s278.31-107.69,312.28-31.95S536.65,508,536.65,508Z" fill="#ea2727"/>
    </clipPath>
    <clipPath id="a56098f5-bcf9-47ea-83e8-d8cb8890f604">
      <path d="M541,565s144.18,176.12,58,270c-123,134-313,26-313-82S452,550,452,550Z" fill="#ea2727"/>
    </clipPath>
    <clipPath id="bd2062dd-508c-46bb-a60c-c686eee11eec">
      <path d="M541.49,483S778,372,874,519,712.52,856.08,599,687c-47-70-90-153-90-153Z" fill="#ea2727"/>
    </clipPath>
    <clipPath id="b5702922-131d-438d-9842-2656d523ee69">
      <circle cx="509" cy="508" r="90" fill="#ffae2c"/>
    </clipPath>
  </defs>
  <g style="isolation: isolate">
    <g id="a366a260-8683-4d23-898b-06a565411bf2" data-name="Layer 3">
      <g>
        <g>
          <path d="M486.33,552.9S382,712,221,703,80,397,195,392s281,98,281,98Z" fill="#ea2727"/>
          <g clip-path="url(#b8eae8c7-13de-4fa2-bd3c-5c6c67ad04a7)">
            <path d="M456,509S204,741,80,534l38,190H328L486.33,595.12Z" fill="#c10505" opacity="0.46" style="mix-blend-mode: multiply"/>
            <path d="M213,375S381,573,495,509l-9-50Z" fill="#c10505" opacity="0.46" style="mix-blend-mode: multiply"/>
          </g>
        </g>
        <g>
          <path d="M451.94,508.62S118.72,383.83,239.05,225.38s278.31-107.69,312.28-31.95S536.65,508,536.65,508Z" fill="#ea2727"/>
          <g clip-path="url(#bde9b12d-496e-4c9c-8a18-cf9695a98c7d)">
            <path d="M233,207s81-44,186-32,113,172,90,275l54.38,31.36L626,371,563,99,318,80Z" fill="#c10505" opacity="0.46" style="mix-blend-mode: multiply"/>
          </g>
        </g>
        <g>
          <path d="M541,565s144.18,176.12,58,270c-123,134-313,26-313-82S452,550,452,550Z" fill="#ea2727"/>
          <g clip-path="url(#a56098f5-bcf9-47ea-83e8-d8cb8890f604)">
            <path d="M509,575S647,902,368,890c0,0,251,50,304-2s-26-285-73-313S509,575,509,575Z" fill="#c10505" opacity="0.46" style="mix-blend-mode: multiply"/>
          </g>
        </g>
        <g>
          <path d="M541.49,483S778,372,874,519,712.52,856.08,599,687c-47-70-90-153-90-153Z" fill="#ea2727"/>
          <g clip-path="url(#bd2062dd-508c-46bb-a60c-c686eee11eec)">
            <path d="M528,534s321-95,367,114c0,0,39-198-75-230s-279.51,0-279.51,0Z" fill="#c10505" opacity="0.46" style="mix-blend-mode: multiply"/>
          </g>
        </g>
        <path d="M528,451s15-248,165-247S881,344,854,418c-35.11,96.22-307,78-307,78Z" fill="#ea2727"/>
        <g style="mix-blend-mode: multiply">
          <path d="M559.9,458.15a261.61,261.61,0,0,1,70.92-98.45c2.41-2.08-1-5.36-3.45-3.44A225.55,225.55,0,0,0,555.74,457c-.94,2.66,3.13,3.65,4.16,1.15Z" fill="#ce0808"/>
        </g>
        <g style="mix-blend-mode: multiply">
          <path d="M578.94,479.05c27.06-21.47,58.94-37.94,91.37-49.62,32.6-11.75,66.53-17.25,101-20.26,4.27-.37,4.41-6.64,0-6.75-35.61-.85-71.46,7.31-104.67,19.84-33.45,12.61-63.33,31-91.1,53.34-2.45,2,1,5.38,3.45,3.45Z" fill="#ce0808"/>
        </g>
        <g style="mix-blend-mode: multiply">
          <path d="M463.21,450.45c-8.65-34.84-21.1-69.44-40.87-99.58-2.49-3.79-7.81-.52-6,3.51,14.56,32.21,29.58,64.14,40.71,97.76,1.28,3.88,7.14,2.32,6.15-1.69Z" fill="#ce0808"/>
        </g>
        <g style="mix-blend-mode: multiply">
          <path d="M447.89,517.74c-65.46-12.39-138.79,1.18-191.17,43.83-2.46,2,.71,5.93,3.36,4.34,27.84-16.76,57.29-30.2,89-37.7a262.4,262.4,0,0,1,97.23-4.78c3.67.53,5.36-5,1.57-5.69Z" fill="#ce0808"/>
        </g>
        <g style="mix-blend-mode: multiply">
          <path d="M443.11,534.59c-51,8.35-100,34.57-131.45,76.08-1.88,2.49,2.16,5.47,4.27,3.3,35.16-36.23,79.24-62.85,129.38-71.42,5.23-.9,3-8.81-2.2-8Z" fill="#ce0808"/>
        </g>
        <g style="mix-blend-mode: multiply">
          <path d="M489.13,560.35c-33.22,39.09-54.71,90-53.64,141.8.08,4,5.81,3.9,6.18,0,4.73-49.67,20.79-97.84,51.9-137.35,2.44-3.11-1.79-7.57-4.44-4.45Z" fill="#ce0808"/>
        </g>
        <g style="mix-blend-mode: multiply">
          <path d="M564.32,549c36.22,12.45,62.43,43.34,73.86,79.25.85,2.65,4.46,1.51,4.07-1.12-5.91-39.93-38.38-72.66-76.31-84-3.79-1.13-5.3,4.61-1.62,5.87Z" fill="#ce0808"/>
        </g>
        <g>
          <circle cx="509" cy="508" r="90" fill="#ffae2c"/>
          <g clip-path="url(#b5702922-131d-438d-9842-2656d523ee69)">
            <path d="M431,447s56-28,106,4,8.42,178.36-92.79,152.68L563,612l56-64,.31-94.07L548,392l-92,14Z" fill="#ef8e0c"/>
            <path d="M477.27,456.14c.73-.15,1.46-.31,2.19-.44l-3.3-2.51a3.85,3.85,0,0,1,0,.48q.06-.46,0,0c-.07.16-.38.72-.07.23-.06.1-.5.7-.07.21l-.33.35c-.42.35-.22.24.58-.33l2.53.33c-.14-.1-.41-.43-.07,0,.58.68,1.23,1.51.8,2.52l-1.86,1.83.15-.06c.61-.14-.87,0-.26,0a3.27,3.27,0,0,0,3-2,3.21,3.21,0,0,0-.67-3.55,4.63,4.63,0,0,0-3.11-1.22,4.22,4.22,0,0,0-3.39,2,4.54,4.54,0,0,0,1.63,6.18,3.76,3.76,0,0,0,4.48-.52,3.17,3.17,0,0,0,.84-1.45c-.17.44-.16.5,0,.19a2.58,2.58,0,0,0,.42-.74,7.46,7.46,0,0,0,.55-5.13c-.45-1.79-2.34-2.2-3.83-1.55-.34.15-1,.41-1.45.59a2.39,2.39,0,0,0,1.27,4.61Z" fill="#ef8e0c"/>
            <path d="M528.51,458.2l0,0-.58.45.09-.06-.69.3a.42.42,0,0,1,.15,0l-.78.1h.16l-.78-.1.2.05-.71-.3.18.11-.61-.47a.75.75,0,0,1,.15.16l-.47-.62.08.14-.31-.74a.83.83,0,0,1,0,.15l-.11-.82v.15l.11-.83,0,.1.32-.75a.41.41,0,0,1-.05.09l.49-.64-.06.06.64-.5c-.28.22-.57.4-.84.63l.65-.5-.17.09.77-.32-.19.05.85-.12h0a2.36,2.36,0,0,0-1.23.27,2.4,2.4,0,0,0-1,.66,3.2,3.2,0,0,0,0,4.51l.65.5a3.13,3.13,0,0,0,1.61.43h.2a4.84,4.84,0,0,0,1-.15,3.5,3.5,0,0,0,1.23-.63,3.29,3.29,0,0,0,.89-1,3.74,3.74,0,0,0,0-3.76,3.86,3.86,0,0,0-3.16-1.79,3.27,3.27,0,0,0-.94.11,3,3,0,0,0-.87.34,3.41,3.41,0,0,0-1.28,1.25,2.87,2.87,0,0,0-.29,2.2,3,3,0,0,0,1,1.49,2.75,2.75,0,0,0,1.74.61l.76-.1a2.89,2.89,0,0,0,1.26-.74Z" fill="#ef8e0c"/>
            <path d="M498.66,502.47c7.66,0,7.67-11.91,0-11.91s-7.68,11.91,0,11.91Z" fill="#ef8e0c"/>
            <path d="M456.64,508.69l.08.58.31.72a2.23,2.23,0,0,0,.77.84,1.47,1.47,0,0,0,.67.39,2.37,2.37,0,0,0,1.15.26l.8-.11.72-.3a2.25,2.25,0,0,0,.84-.78,2.2,2.2,0,0,0,.54-1l.09-.58a3.25,3.25,0,0,0,0-1.64,3.17,3.17,0,0,0-.8-1.37l-.63-.48a3,3,0,0,0-1.56-.42,2.33,2.33,0,0,0-1.19.26,2.39,2.39,0,0,0-1,.64,3.09,3.09,0,0,0-.8,3Z" fill="#ef8e0c"/>
            <path d="M482.33,564.21c7.66,0,7.68-11.9,0-11.9s-7.67,11.9,0,11.9Z" fill="#ef8e0c"/>
            <path d="M539.11,525.89c7.66,0,7.67-11.91,0-11.91s-7.67,11.91,0,11.91Z" fill="#ef8e0c"/>
            <path d="M566.08,496.08c7.66,0,7.67-11.91,0-11.91s-7.67,11.91,0,11.91Z" fill="#d37505"/>
            <path d="M575.31,546.47c7.66,0,7.67-11.91,0-11.91s-7.68,11.91,0,11.91Z" fill="#d37505"/>
            <path d="M529.17,575.57c7.67,0,7.68-11.91,0-11.91s-7.67,11.91,0,11.91Z" fill="#ef8e0c"/>
            <path d="M564.66,458.47c7.66,0,7.67-11.91,0-11.91s-7.67,11.91,0,11.91Z" fill="#d37505"/>
            <path d="M444,480.47c7.66,0,7.67-11.91,0-11.91s-7.67,11.91,0,11.91Z" fill="#ef8e0c"/>
            <path d="M445.43,538c7.66,0,7.67-11.9,0-11.9s-7.67,11.9,0,11.9Z" fill="#ef8e0c"/>
          </g>
        </g>
      </g>
    </g>
  </g>
</svg>
