<svg xmlns="http://www.w3.org/2000/svg" xmlns:xlink="http://www.w3.org/1999/xlink" viewBox="0 0 1000 1000">
  <defs>
    <clipPath id="ee13ab00-a990-4f51-b516-b7565d3a7361">
      <circle cx="404.7" cy="402.58" r="119" fill="#232533"/>
    </clipPath>
    <clipPath id="e3e132ed-9524-4368-99be-67f7ec2b3145">
      <path d="M797.83,370.65c106.82,106.82,116.58,274,29.28,391.79-8.78,11.85-214.21-159-214.21-159S776,816.63,764.34,825.32c-117.87,87.66-285.28,78-392.24-28.94C254.54,678.82,269.18,502.85,386.74,385.29S680.27,253.09,797.83,370.65Z" fill="#ea2727"/>
    </clipPath>
  </defs>
  <g style="isolation: isolate">
    <g id="b63a04e7-f543-4dfb-a430-a9fcd7ab8f10" data-name="Layer 3">
      <g>
        <circle cx="584.3" cy="582.18" r="278.93" fill="#232533"/>
        <g>
          <circle cx="404.7" cy="402.58" r="119" fill="#232533"/>
          <g clip-path="url(#ee13ab00-a990-4f51-b516-b7565d3a7361)">
            <path d="M264.53,325.91s189.09-26.34,223,105.36,57.39-141.11,57.39-141.11l-175-48L277.7,295.81Z" fill="#13141c"/>
          </g>
        </g>
        <g>
          <path d="M797.83,370.65c106.82,106.82,116.58,274,29.28,391.79-8.78,11.85-214.21-159-214.21-159S776,816.63,764.34,825.32c-117.87,87.66-285.28,78-392.24-28.94C254.54,678.82,269.18,502.85,386.74,385.29S680.27,253.09,797.83,370.65Z" fill="#ea2727"/>
          <g clip-path="url(#e3e132ed-9524-4368-99be-67f7ec2b3145)">
            <path d="M373,362.58S559.28,284.5,679.7,418.09s3.76,360.3-113.83,397-267.17-9.4-267.17-9.4L542.35,940.19l288.8-91.25,71.5-160.86,8.47-247.42L797.29,311.78,584.68,235.59Z" fill="#c10505" opacity="0.46" style="mix-blend-mode: multiply"/>
          </g>
        </g>
        <g>
          <circle cx="602.93" cy="384.62" r="33.87" fill="#232533"/>
          <circle cx="645.5" cy="522.98" r="33.87" fill="#232533"/>
          <circle cx="797.16" cy="536.29" r="33.87" fill="#232533"/>
        </g>
        <g>
          <circle cx="390.73" cy="596.82" r="33.87" fill="#232533"/>
          <circle cx="529.09" cy="639.39" r="33.87" fill="#232533"/>
          <circle cx="542.39" cy="791.06" r="33.87" fill="#232533"/>
        </g>
        <path d="M477.78,465.86c22.12,24.16,45.9,46.64,69,69.88,22.88,23,45.25,46.72,66.61,71.17,12.27,14.05,23.94,28.55,37.7,41.14,1.64,1.5,4.63-.48,3.23-2.5-9.16-13.23-19.87-24.94-30.62-36.92-11-12.22-21.84-24.52-32.84-36.7-22.22-24.58-45.18-48.48-69.77-70.71-13.75-12.43-28.6-23.86-41.78-36.88-1-1-2.46.5-1.52,1.52Z" fill="#232533"/>
        <path d="M385.78,305.45c-11-29.13-13.18-61.32-4.84-91.42a146.21,146.21,0,0,1,17-38.3c7.66-12.28,17.81-22.14,26.72-33.41,1.51-1.92-.37-5.06-2.79-3.61-12.34,7.39-21.73,20-29.32,32A148,148,0,0,0,381,306.77c1.2,2.87,5.94,1.71,4.79-1.32Z" fill="#232533"/>
        <path d="M299.32,379.36c-56-18.17-122.91-1.38-160.9,44.46-2.39,2.87,1.42,6.89,4.18,4.17,40.05-39.56,100.17-57.34,154.8-41.67,4.49,1.29,6.31-5.53,1.92-7Z" fill="#232533"/>
        <circle cx="425.32" cy="138.5" r="25.4" fill="#232533"/>
        <circle cx="139.95" cy="424.53" r="25.4" fill="#232533"/>
      </g>
      <path d="M389.81,535.08s-139.61,107.16,39.34,227C429.15,762.05,358.46,665,389.81,535.08Z" fill="#fff" style="mix-blend-mode: soft-light"/>
    </g>
  </g>
</svg>
